<?xml version="1.0" encoding="UTF-8"?>
<svg viewBox="0 0 201.71875 172.5" xmlns="http://www.w3.org/2000/svg">
 <g transform="translate(-129.38 -151.81)">
  <path transform="translate(129.38 151.81)" d="m127.22 0c-20.599 0-37.69 14.991-40.969 34.656l-5.0938 0.96875c-5.9896-10.118-17.011-16.906-29.625-16.906-19.007 0-34.406 15.4-34.406 34.406 0 16.161 11.136 29.709 26.156 33.406v3.8438h-6.9688l-0.03125-0.3125-8.25-3.0625h-5.7812l9.125 19 3.375-0.90625 1.875-3.0625h6.6562v42.969h11.031l-1.2812 9.5625-26.25 5-5.6562-2.9375-21.125 4.0312 1.4688 11.844 21.219-4.0312 4.9062-4.9375 28.531-6.1562 2.0312-12.375h104.72v-71.438h-9.1875c9.2169-7.6205 15.094-19.138 15.094-32.031 0-22.946-18.617-41.531-41.562-41.531zm-36.094 62.094c2.4967 4.3789 5.7609 8.2739 9.625 11.469h-21.531c2.2542-3.0493 4.0035-6.4842 5.1562-10.188l6.75-1.2812zm59.75 68.469c2.0711 0 3.75 1.6789 3.75 3.75s-1.6789 3.75-3.75 3.75-3.75-1.6789-3.75-3.75 1.6789-3.75 3.75-3.75z"/>
  <path d="m256 171.38c-11.598 0-21 9.402-21 21s9.402 21 21 21 21-9.402 21-21-9.402-21-21-21zm-2.0052 6.1979c1.8794 0 3.4089 1.5112 3.4089 3.3906s-1.5295 3.4089-3.4089 3.4089-3.4088-1.5295-3.4088-3.4089 1.5294-3.3906 3.4088-3.3906zm10.518 6.3802c1.8794 0 3.4088 1.5295 3.4088 3.4089s-1.5294 3.4088-3.4088 3.4088-3.4088-1.5295-3.4088-3.4088 1.5294-3.4089 3.4088-3.4089zm-18.557 2.6797c1.8794 0 3.3906 1.5295 3.3906 3.4089s-1.5112 3.4088-3.3906 3.4088-3.4089-1.5295-3.4089-3.4088 1.5295-3.4089 3.4089-3.4089zm17.318 9.2969c1.8794 0 3.4088 1.5112 3.4088 3.3906s-1.5294 3.4089-3.4088 3.4089-3.4089-1.5295-3.4089-3.4089 1.5295-3.3906 3.4089-3.3906zm-12.578 2.0599c1.8794 0 3.4089 1.5112 3.4089 3.3906s-1.5295 3.4088-3.4089 3.4088-3.4088-1.5295-3.4088-3.4088 1.5294-3.3906 3.4088-3.3906z" fill="#fff"/>
  <path d="m181 186.38c-9.3888 0-17 7.6112-17 17s7.6112 17 17 17 17-7.6112 17-17-7.6112-17-17-17zm-1.6233 5.0174c1.5214 0 2.7596 1.2234 2.7596 2.7448s-1.2381 2.7596-2.7596 2.7596-2.7595-1.2381-2.7595-2.7596 1.2381-2.7448 2.7595-2.7448zm8.5148 5.1649c1.5214 0 2.7596 1.2381 2.7596 2.7596s-1.2381 2.7596-2.7596 2.7596-2.7595-1.2381-2.7595-2.7596 1.2381-2.7596 2.7595-2.7596zm-15.023 2.1693c1.5214 0 2.7448 1.2381 2.7448 2.7596s-1.2234 2.7596-2.7448 2.7596-2.7596-1.2381-2.7596-2.7596 1.2381-2.7596 2.7596-2.7596zm14.019 7.526c1.5214 0 2.7596 1.2234 2.7596 2.7448s-1.2381 2.7596-2.7596 2.7596-2.7596-1.2381-2.7596-2.7596 1.2381-2.7448 2.7596-2.7448zm-10.182 1.6675c1.5214 0 2.7596 1.2234 2.7596 2.7448s-1.2381 2.7596-2.7596 2.7596-2.7596-1.2381-2.7596-2.7596 1.2381-2.7448 2.7596-2.7448z" fill="#fff"/>
  <path d="m331.09 220.97-21.094 12.781h-16.5v31.844h16.5l21.094 12.781v-57.406z"/>
 </g>
</svg>
