<svg xmlns="http://www.w3.org/2000/svg" xmlns:xlink="http://www.w3.org/1999/xlink" width="128" height="128.001" viewBox="0 0 128 128.001">
  <defs>
    <clipPath id="clip-path">
      <rect id="Rechteck_1449" data-name="Rechteck 1449" width="128" height="128.001" fill="#5d6e76"/>
    </clipPath>
  </defs>
  <g id="Gruppe_4503" data-name="Gruppe 4503" transform="translate(-1199 -2076)">
    <path id="Schnittmenge_6" data-name="Schnittmenge 6" d="M64.676,123.489l58.813-58.813a52.673,52.673,0,0,1,.1,13.894L78.57,123.589a52.673,52.673,0,0,1-13.894-.1Zm-16.349-5.177,69.984-69.984a51.658,51.658,0,0,1,3.9,10.1L58.423,122.21A51.658,51.658,0,0,1,48.327,118.312Zm73.065-30.005a52.142,52.142,0,0,1-33.085,33.085Zm-85.6,21.015,73.531-73.531a52.286,52.286,0,0,1,6.221,7.772l-71.98,71.98A52.286,52.286,0,0,1,35.791,109.322ZM27.246,98.494,98.494,27.246a52.135,52.135,0,0,1,7.5,5.4L32.652,106A52.154,52.154,0,0,1,27.246,98.494ZM21.371,83.911,83.911,21.371a51.622,51.622,0,0,1,9.63,3.287L24.658,93.541A51.622,51.622,0,0,1,21.371,83.911ZM20,72a52.432,52.432,0,0,1,.572-7.738L64.261,20.572a52.691,52.691,0,0,1,13.206-.288L20.284,77.467A52.641,52.641,0,0,1,20,72ZM54.148,23.145l-31,31A52.15,52.15,0,0,1,54.148,23.145Z" transform="translate(1188 2068)" fill="#dfe2e3"/>
    <path id="Ausschluss_2" data-name="Ausschluss 2" d="M21269.234,61.035h-6.437a4.838,4.838,0,0,1-4.867-4.8V55.07a26.257,26.257,0,0,1-3.838-1.565l-.844.828a4.918,4.918,0,0,1-6.883,0l-4.555-4.475a4.736,4.736,0,0,1,0-6.778l.842-.828a25.4,25.4,0,0,1-1.59-3.778h-1.189a4.837,4.837,0,0,1-4.869-4.791V27.352a4.837,4.837,0,0,1,4.869-4.791h1.189a24.924,24.924,0,0,1,1.59-3.778l-.842-.828a4.736,4.736,0,0,1,0-6.778l4.555-4.48a4.931,4.931,0,0,1,6.883,0l.844.833a26.84,26.84,0,0,1,3.838-1.57V4.791A4.835,4.835,0,0,1,21262.8,0h6.438a4.837,4.837,0,0,1,4.869,4.791V5.96a26.775,26.775,0,0,1,3.838,1.57l.842-.833a4.938,4.938,0,0,1,6.889,0l4.551,4.48a4.736,4.736,0,0,1,0,6.778l-.844.828a25.288,25.288,0,0,1,1.6,3.778h1.186a4.837,4.837,0,0,1,4.871,4.791v6.331a4.837,4.837,0,0,1-4.871,4.791h-1.186a25.669,25.669,0,0,1-1.6,3.778l.844.828a4.736,4.736,0,0,1,0,6.778l-4.551,4.475a4.925,4.925,0,0,1-6.889,0l-.842-.828a25.783,25.783,0,0,1-3.838,1.565v1.169A4.839,4.839,0,0,1,21269.234,61.035Zm-3.219-44.168a13.856,13.856,0,0,0-9.779,3.985,13.458,13.458,0,0,0,0,19.245,13.991,13.991,0,0,0,19.563,0,13.454,13.454,0,0,0,0-19.245A13.868,13.868,0,0,0,21266.016,16.867Z" transform="translate(-20032.531 2138.825)" fill="#ec6707"/>
    <path id="Ausschluss_3" data-name="Ausschluss 3" d="M21269.234,61.035h-6.437a4.838,4.838,0,0,1-4.867-4.8V55.07a26.257,26.257,0,0,1-3.838-1.565l-.844.828a4.918,4.918,0,0,1-6.883,0l-4.555-4.475a4.736,4.736,0,0,1,0-6.778l.842-.828a25.4,25.4,0,0,1-1.59-3.778h-1.189a4.837,4.837,0,0,1-4.869-4.791V27.352a4.837,4.837,0,0,1,4.869-4.791h1.189a24.924,24.924,0,0,1,1.59-3.778l-.842-.828a4.736,4.736,0,0,1,0-6.778l4.555-4.48a4.931,4.931,0,0,1,6.883,0l.844.833a26.84,26.84,0,0,1,3.838-1.57V4.791A4.835,4.835,0,0,1,21262.8,0h6.438a4.837,4.837,0,0,1,4.869,4.791V5.96a26.775,26.775,0,0,1,3.838,1.57l.842-.833a4.938,4.938,0,0,1,6.889,0l4.551,4.48a4.736,4.736,0,0,1,0,6.778l-.844.828a25.288,25.288,0,0,1,1.6,3.778h1.186a4.837,4.837,0,0,1,4.871,4.791v6.331a4.837,4.837,0,0,1-4.871,4.791h-1.186a25.669,25.669,0,0,1-1.6,3.778l.844.828a4.736,4.736,0,0,1,0,6.778l-4.551,4.475a4.925,4.925,0,0,1-6.889,0l-.842-.828a25.783,25.783,0,0,1-3.838,1.565v1.169A4.839,4.839,0,0,1,21269.234,61.035Zm-3.219-44.168a13.856,13.856,0,0,0-9.779,3.985,13.458,13.458,0,0,0,0,19.245,13.991,13.991,0,0,0,19.563,0,13.454,13.454,0,0,0,0-19.245A13.868,13.868,0,0,0,21266.016,16.867Z" transform="translate(-19973.531 2079.825)" fill="#ec6707"/>
    <g id="Gruppe_4371" data-name="Gruppe 4371" transform="translate(1199 2076)">
      <g id="Gruppe_4370" data-name="Gruppe 4370" clip-path="url(#clip-path)">
        <path id="Pfad_1619" data-name="Pfad 1619" d="M48.992,84.142a2.165,2.165,0,0,1-2.094-2.71,49.963,49.963,0,0,1,36.231-35.85,2.163,2.163,0,0,1,1.05,4.2,45.636,45.636,0,0,0-33.1,32.748,2.165,2.165,0,0,1-2.092,1.617" transform="translate(-30.843 -29.979)" fill="#5d6e76"/>
        <path id="Pfad_1620" data-name="Pfad 1620" d="M221.817,257.477a2.164,2.164,0,0,1-.571-4.25,45.927,45.927,0,0,0,31.836-31.5,2.163,2.163,0,1,1,4.159,1.189,50.28,50.28,0,0,1-34.85,34.479,2.2,2.2,0,0,1-.573.077" transform="translate(-144.678 -145.013)" fill="#5d6e76"/>
        <path id="Pfad_1621" data-name="Pfad 1621" d="M308.292,226.9a2.165,2.165,0,0,1-2.011-1.363l-2.974-7.465-7.191,3.739a2.163,2.163,0,1,1-2-3.838l9.313-4.843a2.163,2.163,0,0,1,3.008,1.118l3.86,9.686a2.166,2.166,0,0,1-2.008,2.964" transform="translate(-192.957 -140.221)" fill="#5d6e76"/>
        <path id="Pfad_1622" data-name="Pfad 1622" d="M36.794,143.427a2.164,2.164,0,0,1-2.009-1.362l-3.86-9.686a2.163,2.163,0,0,1,4.019-1.6l2.974,7.465,7.192-3.74a2.163,2.163,0,0,1,2,3.838l-9.314,4.843a2.164,2.164,0,0,1-1,.244" transform="translate(-20.267 -85.239)" fill="#5d6e76"/>
        <path id="Pfad_1623" data-name="Pfad 1623" d="M208.718,68.974h-2.611a6.842,6.842,0,0,1-6.835-6.835.671.671,0,0,0-.472-.642,28.45,28.45,0,0,1-4.4-1.82.677.677,0,0,0-.788.117,6.845,6.845,0,0,1-9.667,0L182.1,57.95a6.844,6.844,0,0,1,0-9.665.674.674,0,0,0,.119-.79,28.362,28.362,0,0,1-1.82-4.4.674.674,0,0,0-.643-.472,6.842,6.842,0,0,1-6.834-6.834v-2.61a6.842,6.842,0,0,1,6.834-6.835.673.673,0,0,0,.643-.473,28.292,28.292,0,0,1,1.82-4.394.674.674,0,0,0-.118-.789,6.845,6.845,0,0,1,0-9.667l1.846-1.845a6.834,6.834,0,0,1,9.666,0,.676.676,0,0,0,.79.118,28.208,28.208,0,0,1,4.4-1.819.674.674,0,0,0,.472-.643A6.842,6.842,0,0,1,206.107,0h2.611a6.842,6.842,0,0,1,6.835,6.835.671.671,0,0,0,.472.642,28.45,28.45,0,0,1,4.4,1.82.673.673,0,0,0,.788-.118,6.842,6.842,0,0,1,9.667,0l1.846,1.845a6.845,6.845,0,0,1,0,9.665.676.676,0,0,0-.119.791,28.268,28.268,0,0,1,1.82,4.394.674.674,0,0,0,.643.472,6.842,6.842,0,0,1,6.834,6.835v2.61a6.842,6.842,0,0,1-6.834,6.834.674.674,0,0,0-.643.473,28.378,28.378,0,0,1-1.82,4.394.674.674,0,0,0,.119.79,6.845,6.845,0,0,1,0,9.666L230.876,59.8a6.844,6.844,0,0,1-9.666,0,.673.673,0,0,0-.789-.119,28.419,28.419,0,0,1-4.394,1.819.672.672,0,0,0-.473.643,6.842,6.842,0,0,1-6.835,6.835m-14.633-13.7a5.022,5.022,0,0,1,2.306.564,23.987,23.987,0,0,0,3.721,1.541A4.983,4.983,0,0,1,203.6,62.14a2.512,2.512,0,0,0,2.509,2.509h2.611a2.512,2.512,0,0,0,2.509-2.509,4.984,4.984,0,0,1,3.487-4.765,23.947,23.947,0,0,0,3.72-1.54,4.987,4.987,0,0,1,5.834.9,2.513,2.513,0,0,0,3.55,0l1.845-1.845a2.513,2.513,0,0,0,0-3.549,4.984,4.984,0,0,1-.9-5.835,23.809,23.809,0,0,0,1.54-3.72,4.986,4.986,0,0,1,4.766-3.487,2.511,2.511,0,0,0,2.508-2.509v-2.61a2.511,2.511,0,0,0-2.508-2.509,4.986,4.986,0,0,1-4.766-3.487,23.741,23.741,0,0,0-1.54-3.72,4.984,4.984,0,0,1,.905-5.836,2.514,2.514,0,0,0,0-3.548l-1.845-1.845a2.514,2.514,0,0,0-3.55,0,4.985,4.985,0,0,1-5.834.9,23.987,23.987,0,0,0-3.721-1.541,4.983,4.983,0,0,1-3.486-4.764,2.512,2.512,0,0,0-2.509-2.509h-2.611A2.512,2.512,0,0,0,203.6,6.835a4.985,4.985,0,0,1-3.486,4.765,23.851,23.851,0,0,0-3.721,1.54,4.982,4.982,0,0,1-5.836-.9,2.511,2.511,0,0,0-3.548,0l-1.846,1.845a2.513,2.513,0,0,0,0,3.549,4.983,4.983,0,0,1,.9,5.835,23.827,23.827,0,0,0-1.54,3.72,4.986,4.986,0,0,1-4.766,3.487,2.511,2.511,0,0,0-2.508,2.509v2.61A2.511,2.511,0,0,0,179.76,38.3a4.986,4.986,0,0,1,4.766,3.487,23.866,23.866,0,0,0,1.54,3.721,4.984,4.984,0,0,1-.9,5.835,2.513,2.513,0,0,0,0,3.548l1.846,1.846a2.515,2.515,0,0,0,3.55,0,4.977,4.977,0,0,1,3.528-1.466" transform="translate(-113.899)" fill="#5d6e76"/>
        <path id="Pfad_1624" data-name="Pfad 1624" d="M244.761,86.968a15.131,15.131,0,1,1,15.131-15.131,15.148,15.148,0,0,1-15.131,15.131m0-25.937a10.806,10.806,0,1,0,10.806,10.805,10.817,10.817,0,0,0-10.806-10.805" transform="translate(-151.248 -37.35)" fill="#5d6e76"/>
        <path id="Pfad_1625" data-name="Pfad 1625" d="M35.792,241.9h-2.61a6.842,6.842,0,0,1-6.835-6.835.673.673,0,0,0-.472-.643,28.179,28.179,0,0,1-4.4-1.82.678.678,0,0,0-.791.119,6.834,6.834,0,0,1-9.665,0l-1.846-1.845a6.834,6.834,0,0,1,0-9.666.677.677,0,0,0,.118-.791,28.235,28.235,0,0,1-1.82-4.394.673.673,0,0,0-.642-.472A6.842,6.842,0,0,1,0,208.717v-2.611a6.842,6.842,0,0,1,6.835-6.834.673.673,0,0,0,.642-.473A28.29,28.29,0,0,1,9.3,194.4a.676.676,0,0,0-.119-.791,6.834,6.834,0,0,1,0-9.665l1.846-1.846a6.844,6.844,0,0,1,9.665,0,.675.675,0,0,0,.791.12,28.249,28.249,0,0,1,4.394-1.82.672.672,0,0,0,.473-.643,6.842,6.842,0,0,1,6.835-6.835h2.61a6.842,6.842,0,0,1,6.835,6.835.673.673,0,0,0,.472.643,28.176,28.176,0,0,1,4.4,1.82.675.675,0,0,0,.79-.119,6.835,6.835,0,0,1,9.665,0l1.845,1.846a6.834,6.834,0,0,1,0,9.666.676.676,0,0,0-.118.791A28.235,28.235,0,0,1,61.5,198.8a.672.672,0,0,0,.642.472,6.842,6.842,0,0,1,6.835,6.834v2.611a6.842,6.842,0,0,1-6.835,6.834.672.672,0,0,0-.642.473,28.29,28.29,0,0,1-1.82,4.394.676.676,0,0,0,.118.79,6.834,6.834,0,0,1,0,9.666l-1.845,1.845a6.833,6.833,0,0,1-9.665,0,.676.676,0,0,0-.792-.118,28.265,28.265,0,0,1-4.392,1.819.673.673,0,0,0-.474.643,6.842,6.842,0,0,1-6.835,6.835M21.16,228.2a5.018,5.018,0,0,1,2.306.564,23.875,23.875,0,0,0,3.721,1.541,4.983,4.983,0,0,1,3.486,4.764,2.512,2.512,0,0,0,2.509,2.509h2.61a2.512,2.512,0,0,0,2.509-2.509,4.983,4.983,0,0,1,3.488-4.765,23.887,23.887,0,0,0,3.719-1.539,4.99,4.99,0,0,1,5.836.9,2.567,2.567,0,0,0,3.547,0l1.847-1.846a2.508,2.508,0,0,0,0-3.548,4.987,4.987,0,0,1-.9-5.836,23.815,23.815,0,0,0,1.54-3.72,4.985,4.985,0,0,1,4.765-3.488,2.512,2.512,0,0,0,2.509-2.509v-2.611A2.512,2.512,0,0,0,62.14,203.6a4.985,4.985,0,0,1-4.765-3.487,23.77,23.77,0,0,0-1.54-3.72,4.987,4.987,0,0,1,.9-5.835,2.507,2.507,0,0,0,0-3.549l-1.845-1.847a2.567,2.567,0,0,0-3.548,0,4.989,4.989,0,0,1-5.835.9,23.946,23.946,0,0,0-3.722-1.541A4.984,4.984,0,0,1,38.3,179.76a2.512,2.512,0,0,0-2.509-2.509h-2.61a2.512,2.512,0,0,0-2.509,2.509,4.983,4.983,0,0,1-3.487,4.764,23.968,23.968,0,0,0-3.72,1.54,4.986,4.986,0,0,1-5.836-.9,2.511,2.511,0,0,0-3.548,0l-1.846,1.845a2.508,2.508,0,0,0,0,3.548,4.987,4.987,0,0,1,.9,5.836,23.783,23.783,0,0,0-1.54,3.72A4.985,4.985,0,0,1,6.835,203.6a2.512,2.512,0,0,0-2.509,2.509v2.611a2.512,2.512,0,0,0,2.509,2.509,4.985,4.985,0,0,1,4.765,3.487,23.738,23.738,0,0,0,1.54,3.72,4.985,4.985,0,0,1-.9,5.835,2.509,2.509,0,0,0,0,3.549l1.846,1.846a2.513,2.513,0,0,0,3.548,0A4.985,4.985,0,0,1,21.16,228.2" transform="translate(0 -113.899)" fill="#5d6e76"/>
        <path id="Pfad_1626" data-name="Pfad 1626" d="M71.837,259.891a15.131,15.131,0,1,1,15.131-15.131,15.148,15.148,0,0,1-15.131,15.131m0-25.937a10.806,10.806,0,1,0,10.806,10.806,10.818,10.818,0,0,0-10.806-10.806" transform="translate(-37.35 -151.247)" fill="#5d6e76"/>
      </g>
    </g>
  </g>
</svg>
