<svg xmlns="http://www.w3.org/2000/svg" xmlns:xlink="http://www.w3.org/1999/xlink" width="148.718" height="137.242" viewBox="0 0 148.718 137.242">
  <defs>
    <clipPath id="clip-path">
      <rect id="Rechteck_1447" data-name="Rechteck 1447" width="128" height="113.101" fill="#5d6e76"/>
    </clipPath>
  </defs>
  <g id="Gruppe_4504" data-name="Gruppe 4504" transform="translate(-841.642 -2068.987)">
    <path id="Schnittmenge_5" data-name="Schnittmenge 5" d="M64.676,123.489l58.813-58.813a52.673,52.673,0,0,1,.1,13.894L78.57,123.589a52.673,52.673,0,0,1-13.894-.1Zm-16.349-5.177,69.984-69.984a51.658,51.658,0,0,1,3.9,10.1L58.423,122.21A51.658,51.658,0,0,1,48.327,118.312Zm73.065-30.005a52.142,52.142,0,0,1-33.085,33.085Zm-85.6,21.015,73.531-73.531a52.286,52.286,0,0,1,6.221,7.772l-71.98,71.98A52.286,52.286,0,0,1,35.791,109.322ZM27.246,98.494,98.494,27.246a52.135,52.135,0,0,1,7.5,5.4L32.652,106A52.154,52.154,0,0,1,27.246,98.494ZM21.371,83.911,83.911,21.371a51.622,51.622,0,0,1,9.63,3.287L24.658,93.541A51.622,51.622,0,0,1,21.371,83.911ZM20,72a52.432,52.432,0,0,1,.572-7.738L64.261,20.572a52.691,52.691,0,0,1,13.206-.288L20.284,77.467A52.641,52.641,0,0,1,20,72ZM54.148,23.145l-31,31A52.15,52.15,0,0,1,54.148,23.145Z" transform="translate(848 2068)" fill="#dfe2e3"/>
    <g id="Gruppe_4482" data-name="Gruppe 4482" transform="matrix(0.978, 0.208, -0.208, 0.978, 691.523, -1212.027)">
      <path id="Pfad_1643" data-name="Pfad 1643" d="M-20311.248,3228.516l11.838-18.478-5.232-11.11,1.373-12.418s6.014-7.675,6.387-7.867,8.068-2.571,8.068-2.571h4.076l.518,1.451-7.166,11.419,7.166,13.719,15.879.6,8.5-11.635,2.455,4.16v8.516l-3.635,8.436-7.322,5.223-9.1,2.027h-8.016l-10.01,16.168Z" transform="translate(21235)" fill="#ec6707"/>
      <path id="Pfad_1642" data-name="Pfad 1642" d="M-20336.855,3266.711l-3.666,6.144-.727,4.325,1.891,4.026,3.494,2.431,6.029.518,4.348-2.619s3.787-5.568,3.436-5.7S-20336.855,3266.711-20336.855,3266.711Z" transform="translate(21235)" fill="#ec6707"/>
      <g id="Gruppe_4367" data-name="Gruppe 4367" transform="translate(852 3173.215)">
        <g id="Gruppe_4366" data-name="Gruppe 4366" clip-path="url(#clip-path)">
          <path id="Pfad_1606" data-name="Pfad 1606" d="M13.09,120.18a5.974,5.974,0,0,1-3.28-.982l-7.085-4.629h0a6.027,6.027,0,0,1-1.745-8.33L21.259,75.2a6.026,6.026,0,0,1,8.329-1.746l7.085,4.63a6.018,6.018,0,0,1,1.746,8.331L18.14,117.452a5.978,5.978,0,0,1-3.8,2.6,6.1,6.1,0,0,1-1.247.13m-8-9.23,7.084,4.629a1.7,1.7,0,0,0,2.349-.492L34.8,84.054a1.7,1.7,0,0,0-.492-2.349l-7.085-4.629a1.7,1.7,0,0,0-2.348.492L4.6,108.6a1.7,1.7,0,0,0,.493,2.348" transform="translate(0 -47.76)" fill="#5d6e76"/>
          <path id="Pfad_1607" data-name="Pfad 1607" d="M99.017,208.807a16,16,0,0,1-8.778-2.608L59.49,186.1c-.035-.023-.07-.046-.1-.072-.239-.177-5.889-4.39-7.923-8.826a12.789,12.789,0,0,0-5.244-5.266,2.161,2.161,0,0,1,1.925-3.87,17.079,17.079,0,0,1,7.249,7.334c1.287,2.806,5.093,6.052,6.517,7.119L92.6,202.58a11.841,11.841,0,0,0,15.855-2.745l14.093-19.09a8.112,8.112,0,0,0-2.749-12l-19.673-10.352a2.162,2.162,0,0,1,2.014-3.825l19.672,10.352a12.437,12.437,0,0,1,4.213,18.392l-14.109,19.113a16.177,16.177,0,0,1-12.9,6.381" transform="translate(-29.671 -101.688)" fill="#5d6e76"/>
          <path id="Pfad_1608" data-name="Pfad 1608" d="M123.453,114.508c-4.657,0-9.474-1.3-16.86-3.295l-3.022-.813a2.161,2.161,0,1,1,1.117-4.175l3.033.816c14.354,3.876,17.763,4.8,29.926-1.023a2.161,2.161,0,1,1,1.865,3.9c-6.832,3.269-11.364,4.592-16.058,4.592" transform="translate(-67.191 -69.72)" fill="#5d6e76"/>
          <path id="Pfad_1609" data-name="Pfad 1609" d="M223.252,64.769a2.161,2.161,0,0,1-1.8-3.356l11.081-16.708a2.182,2.182,0,0,1,1.971-.96l7.09.56a16.908,16.908,0,0,0,17.282-22.46l-6.611,9.965a2.141,2.141,0,0,1-1.934.962l-15.746-.978a2.159,2.159,0,0,1-1.8-1.195L225.76,16.474a2.157,2.157,0,0,1,.134-2.157L232.5,4.351a16.909,16.909,0,0,0-13.971,24.658l3.271,6.314a2.161,2.161,0,0,1-.118,2.189L210.606,54.219a2.161,2.161,0,1,1-3.6-2.389l10.378-15.648L214.7,31A21.228,21.228,0,0,1,235.9.132l.753.085a2.16,2.16,0,0,1,1.561,3.342l-8.032,12.107L236.1,27.558l13.256.824,8.032-12.107a2.186,2.186,0,0,1,1.882-.965,2.16,2.16,0,0,1,1.8,1.1l.37.662a21.227,21.227,0,0,1-20.189,31.538l-5.822-.46L225.054,63.8a2.156,2.156,0,0,1-1.8.967" transform="translate(-136.167 0)" fill="#5d6e76"/>
          <path id="Pfad_1610" data-name="Pfad 1610" d="M126.762,289.969a10.824,10.824,0,0,1-9.007-16.812l2.507-3.779a2.161,2.161,0,1,1,3.6,2.389l-2.507,3.78A6.508,6.508,0,0,0,132.2,282.74l2.507-3.779a2.161,2.161,0,1,1,3.6,2.389l-2.507,3.78a10.828,10.828,0,0,1-9.042,4.84" transform="translate(-76.407 -176.868)" fill="#5d6e76"/>
        </g>
      </g>
    </g>
  </g>
</svg>
