<svg xmlns="http://www.w3.org/2000/svg" xmlns:xlink="http://www.w3.org/1999/xlink" width="128" height="108.316" viewBox="0 0 128 108.316">
  <defs>
    <clipPath id="clip-path">
      <rect id="Rechteck_1446" data-name="Rechteck 1446" width="128" height="108.316" fill="#5d6e76"/>
    </clipPath>
  </defs>
  <g id="Gruppe_4506" data-name="Gruppe 4506" transform="translate(-172 -2085.842)">
    <path id="Schnittmenge_9" data-name="Schnittmenge 9" d="M64.676,123.489l58.813-58.813a52.673,52.673,0,0,1,.1,13.894L78.57,123.589a52.673,52.673,0,0,1-13.894-.1Zm-16.349-5.177,69.984-69.984a51.658,51.658,0,0,1,3.9,10.1L58.423,122.21A51.658,51.658,0,0,1,48.327,118.312Zm73.065-30.005a52.142,52.142,0,0,1-33.085,33.085Zm-85.6,21.015,73.531-73.531a52.286,52.286,0,0,1,6.221,7.772l-71.98,71.98A52.286,52.286,0,0,1,35.791,109.322ZM27.246,98.494,98.494,27.246a52.135,52.135,0,0,1,7.5,5.4L32.652,106A52.154,52.154,0,0,1,27.246,98.494ZM21.371,83.911,83.911,21.371a51.622,51.622,0,0,1,9.63,3.287L24.658,93.541A51.622,51.622,0,0,1,21.371,83.911ZM20,72a52.432,52.432,0,0,1,.572-7.738L64.261,20.572a52.691,52.691,0,0,1,13.206-.288L20.284,77.467A52.641,52.641,0,0,1,20,72ZM54.148,23.145l-31,31A52.15,52.15,0,0,1,54.148,23.145Z" transform="translate(158 2068)" fill="#dfe2e3"/>
    <path id="Pfad_1638" data-name="Pfad 1638" d="M-21012.848,3201.659l13.3-7.431h59.578l2.787,1.916v10.832l-2.787,2.8h-60.152Z" transform="translate(21235 -1092.158)" fill="#ec6707"/>
    <g id="Gruppe_4365" data-name="Gruppe 4365" transform="translate(172 2085.842)">
      <g id="Gruppe_4364" data-name="Gruppe 4364" clip-path="url(#clip-path)">
        <path id="Pfad_1582" data-name="Pfad 1582" d="M312.187,113.648a1.83,1.83,0,0,1-1.83-1.83v-8.072a1.83,1.83,0,1,1,3.661,0v8.072a1.83,1.83,0,0,1-1.83,1.83" transform="translate(-220.711 -72.478)" fill="#5d6e76"/>
        <path id="Pfad_1583" data-name="Pfad 1583" d="M76.875,108.316H23.27a1.83,1.83,0,0,1-1.83-1.83V1.83A1.83,1.83,0,0,1,23.27,0h83.453a1.83,1.83,0,0,1,1.83,1.83V8.235a1.83,1.83,0,1,1-3.661,0V3.66H25.1v101H76.875a1.83,1.83,0,0,1,0,3.661" transform="translate(-15.247)" fill="#5d6e76"/>
        <path id="Pfad_1584" data-name="Pfad 1584" d="M240.709,68.143H181.067a1.835,1.835,0,0,1-.907-.24l-13.338-7.6a1.83,1.83,0,0,1,0-3.18l13.338-7.6a1.835,1.835,0,0,1,.907-.24h59.642a5.276,5.276,0,0,1,5.27,5.27v8.326a5.276,5.276,0,0,1-5.27,5.27m-59.157-3.661h59.157a1.611,1.611,0,0,0,1.61-1.609V54.548a1.611,1.611,0,0,0-1.61-1.609H181.552l-10.127,5.772Z" transform="translate(-117.979 -35.044)" fill="#5d6e76"/>
        <path id="Pfad_1585" data-name="Pfad 1585" d="M219.344,68.143a1.83,1.83,0,0,1-1.83-1.83v-15.2a1.83,1.83,0,1,1,3.66,0v15.2a1.83,1.83,0,0,1-1.83,1.83" transform="translate(-154.686 -35.044)" fill="#5d6e76"/>
        <path id="Pfad_1586" data-name="Pfad 1586" d="M392.031,83.947a1.83,1.83,0,0,1-1.83-1.83V73.331a1.83,1.83,0,0,1,3.66,0v8.786a1.83,1.83,0,0,1-1.83,1.83" transform="translate(-277.492 -50.848)" fill="#5d6e76"/>
        <path id="Pfad_1587" data-name="Pfad 1587" d="M276.9,218.619H237.046a4.336,4.336,0,0,1-4.332-4.331V159.437a4.336,4.336,0,0,1,4.332-4.332H276.9a4.337,4.337,0,0,1,4.332,4.332v54.851a4.337,4.337,0,0,1-4.332,4.331m-39.851-59.854a.671.671,0,0,0-.671.671v54.851a.672.672,0,0,0,.671.671H276.9a.672.672,0,0,0,.672-.671V159.437a.672.672,0,0,0-.672-.671Z" transform="translate(-165.495 -110.303)" fill="#5d6e76"/>
        <path id="Pfad_1588" data-name="Pfad 1588" d="M279.4,173.765H234.544a1.831,1.831,0,0,1-1.83-1.83v-12.5a4.336,4.336,0,0,1,4.332-4.332H276.9a4.337,4.337,0,0,1,4.332,4.332v12.5a1.831,1.831,0,0,1-1.83,1.83M236.375,170.1h41.193V159.437a.672.672,0,0,0-.672-.671H237.046a.671.671,0,0,0-.671.671Z" transform="translate(-165.495 -110.303)" fill="#5d6e76"/>
        <path id="Pfad_1589" data-name="Pfad 1589" d="M276.9,255.549H237.046a4.336,4.336,0,0,1-4.332-4.332V208.865a1.831,1.831,0,0,1,1.83-1.83H279.4a1.831,1.831,0,0,1,1.83,1.83v42.352a4.337,4.337,0,0,1-4.332,4.332M236.375,210.7v40.522a.671.671,0,0,0,.671.671H276.9a.672.672,0,0,0,.672-.671V210.7Z" transform="translate(-165.495 -147.233)" fill="#5d6e76"/>
        <path id="Pfad_1590" data-name="Pfad 1590" d="M312.187,255.549a1.83,1.83,0,0,1-1.83-1.83V208.865a1.83,1.83,0,0,1,3.661,0v44.854a1.83,1.83,0,0,1-1.83,1.83" transform="translate(-220.711 -147.233)" fill="#5d6e76"/>
        <path id="Pfad_1591" data-name="Pfad 1591" d="M279.4,288.338H234.544a1.83,1.83,0,0,1,0-3.661H279.4a1.83,1.83,0,0,1,0,3.661" transform="translate(-165.495 -202.449)" fill="#5d6e76"/>
        <path id="Pfad_1592" data-name="Pfad 1592" d="M351.575,310.563a2.017,2.017,0,0,1-.355-.031c-.116-.031-.231-.063-.346-.1a3.139,3.139,0,0,1-.314-.167,2.122,2.122,0,0,1-.283-.23,1.464,1.464,0,0,1-.219-.282,1.521,1.521,0,0,1-.178-.314c-.042-.116-.073-.23-.1-.345a2.044,2.044,0,0,1,0-.711c.031-.115.063-.23.1-.345a1.853,1.853,0,0,1,.178-.314,1.434,1.434,0,0,1,.5-.5,1.292,1.292,0,0,1,.314-.168,1.454,1.454,0,0,1,.346-.1,1.848,1.848,0,0,1,1.652.492,2.028,2.028,0,0,1,.23.282,2.953,2.953,0,0,1,.168.314c.042.116.073.23.1.345a2.025,2.025,0,0,1,0,.711,3.343,3.343,0,0,1-.1.345,2.2,2.2,0,0,1-.168.314,1.806,1.806,0,0,1-.513.513,2.277,2.277,0,0,1-.313.167c-.115.042-.23.073-.346.1a1.928,1.928,0,0,1-.355.031" transform="translate(-248.722 -218.257)" fill="#5d6e76"/>
        <path id="Pfad_1593" data-name="Pfad 1593" d="M351.575,342.616a2.02,2.02,0,0,1-.355-.031,2.138,2.138,0,0,1-.346-.1,1.828,1.828,0,0,1-.314-.168,1.519,1.519,0,0,1-.283-.23,1.78,1.78,0,0,1-.219-.272,2.352,2.352,0,0,1-.178-.314c-.042-.115-.073-.23-.1-.345a2.115,2.115,0,0,1-.031-.355,1.848,1.848,0,0,1,.533-1.3,1.506,1.506,0,0,1,.283-.23,1.811,1.811,0,0,1,.314-.168,2.173,2.173,0,0,1,.346-.1,1.828,1.828,0,0,1,2.185,1.8,2.179,2.179,0,0,1-.031.355c-.031.115-.063.23-.1.345s-.1.209-.168.314a2.733,2.733,0,0,1-.23.272,1.471,1.471,0,0,1-.282.23,1.5,1.5,0,0,1-.313.168,2.155,2.155,0,0,1-.346.1,1.93,1.93,0,0,1-.355.031" transform="translate(-248.722 -241.056)" fill="#5d6e76"/>
        <path id="Pfad_1594" data-name="Pfad 1594" d="M344.56,326.584h-9.6a1.83,1.83,0,1,1,0-3.661h9.6a1.83,1.83,0,0,1,0,3.661" transform="translate(-236.908 -229.647)" fill="#5d6e76"/>
        <path id="Pfad_1595" data-name="Pfad 1595" d="M259.927,320.947a1.83,1.83,0,0,1-1.294-3.124l7.711-7.711a1.83,1.83,0,0,1,2.588,2.588l-7.711,7.711a1.825,1.825,0,0,1-1.294.536" transform="translate(-183.546 -220.155)" fill="#5d6e76"/>
        <path id="Pfad_1596" data-name="Pfad 1596" d="M267.638,320.947a1.825,1.825,0,0,1-1.294-.536l-7.711-7.711a1.83,1.83,0,0,1,2.588-2.588l7.711,7.711a1.83,1.83,0,0,1-1.294,3.124" transform="translate(-183.546 -220.155)" fill="#5d6e76"/>
        <path id="Pfad_1597" data-name="Pfad 1597" d="M267.4,248.568h-8.043a1.83,1.83,0,0,1,0-3.661H267.4a1.83,1.83,0,0,1,0,3.661" transform="translate(-183.138 -174.166)" fill="#5d6e76"/>
        <path id="Pfad_1598" data-name="Pfad 1598" d="M273.275,242.689a1.83,1.83,0,0,1-1.83-1.83v-8.043a1.83,1.83,0,1,1,3.66,0v8.043a1.83,1.83,0,0,1-1.83,1.83" transform="translate(-193.039 -164.266)" fill="#5d6e76"/>
        <path id="Pfad_1599" data-name="Pfad 1599" d="M346.178,248.568h-7.385a1.83,1.83,0,0,1,0-3.661h7.385a1.83,1.83,0,0,1,0,3.661" transform="translate(-239.632 -174.166)" fill="#5d6e76"/>
        <path id="Pfad_1600" data-name="Pfad 1600" d="M14.216,47.231H1.83a1.83,1.83,0,0,1,0-3.661H14.216a1.83,1.83,0,0,1,0,3.661" transform="translate(0 -30.985)" fill="#5d6e76"/>
        <path id="Pfad_1601" data-name="Pfad 1601" d="M14.216,102.268H1.83a1.83,1.83,0,0,1,0-3.661H14.216a1.83,1.83,0,0,1,0,3.661" transform="translate(0 -70.125)" fill="#5d6e76"/>
        <path id="Pfad_1602" data-name="Pfad 1602" d="M14.216,157.3H1.83a1.83,1.83,0,0,1,0-3.661H14.216a1.83,1.83,0,0,1,0,3.661" transform="translate(0 -109.264)" fill="#5d6e76"/>
        <path id="Pfad_1603" data-name="Pfad 1603" d="M14.216,212.338H1.83a1.83,1.83,0,0,1,0-3.661H14.216a1.83,1.83,0,0,1,0,3.661" transform="translate(0 -148.401)" fill="#5d6e76"/>
        <path id="Pfad_1604" data-name="Pfad 1604" d="M14.216,267.374H1.83a1.83,1.83,0,0,1,0-3.661H14.216a1.83,1.83,0,0,1,0,3.661" transform="translate(0 -187.54)" fill="#5d6e76"/>
        <path id="Pfad_1605" data-name="Pfad 1605" d="M14.216,322.408H1.83a1.83,1.83,0,0,1,0-3.661H14.216a1.83,1.83,0,0,1,0,3.661" transform="translate(0 -226.678)" fill="#5d6e76"/>
      </g>
    </g>
  </g>
</svg>
