<svg xmlns="http://www.w3.org/2000/svg" xmlns:xlink="http://www.w3.org/1999/xlink" width="128" height="113.788" viewBox="0 0 128 113.788">
  <defs>
    <clipPath id="clip-path">
      <rect id="Rechteck_1448" data-name="Rechteck 1448" width="128" height="113.788" fill="#5d6e76"/>
    </clipPath>
  </defs>
  <g id="Gruppe_4505" data-name="Gruppe 4505" transform="translate(-512 -2080.371)">
    <path id="Schnittmenge_8" data-name="Schnittmenge 8" d="M64.676,123.489l58.813-58.813a52.673,52.673,0,0,1,.1,13.894L78.57,123.589a52.673,52.673,0,0,1-13.894-.1Zm-16.349-5.177,69.984-69.984a51.658,51.658,0,0,1,3.9,10.1L58.423,122.21A51.658,51.658,0,0,1,48.327,118.312Zm73.065-30.005a52.142,52.142,0,0,1-33.085,33.085Zm-85.6,21.015,73.531-73.531a52.286,52.286,0,0,1,6.221,7.772l-71.98,71.98A52.286,52.286,0,0,1,35.791,109.322ZM27.246,98.494,98.494,27.246a52.135,52.135,0,0,1,7.5,5.4L32.652,106A52.154,52.154,0,0,1,27.246,98.494ZM21.371,83.911,83.911,21.371a51.622,51.622,0,0,1,9.63,3.287L24.658,93.541A51.622,51.622,0,0,1,21.371,83.911ZM20,72a52.432,52.432,0,0,1,.572-7.738L64.261,20.572a52.691,52.691,0,0,1,13.206-.288L20.284,77.467A52.641,52.641,0,0,1,20,72ZM54.148,23.145l-31,31A52.15,52.15,0,0,1,54.148,23.145Z" transform="translate(503 2068)" fill="#dfe2e3"/>
    <path id="Ausschluss_1" data-name="Ausschluss 1" d="M21270.887,65.035h-6.746a5.113,5.113,0,0,1-5.1-5.11V58.679a27.337,27.337,0,0,1-4.025-1.668l-.883.882a5.1,5.1,0,0,1-7.217,0l-4.773-4.768a5.106,5.106,0,0,1,0-7.222l.883-.882a27.4,27.4,0,0,1-1.668-4.025h-1.246A5.112,5.112,0,0,1,21235,35.89V29.144a5.112,5.112,0,0,1,5.105-5.105h1.246a26.879,26.879,0,0,1,1.668-4.025l-.883-.882a5.106,5.106,0,0,1,0-7.222l4.773-4.774a5.111,5.111,0,0,1,7.217,0l.883.887a28,28,0,0,1,4.025-1.673V5.105a5.11,5.11,0,0,1,5.1-5.105h6.746a5.112,5.112,0,0,1,5.105,5.105V6.351a27.887,27.887,0,0,1,4.025,1.673l.883-.887a5.116,5.116,0,0,1,7.221,0l4.77,4.774a5.106,5.106,0,0,1,0,7.222l-.883.882a27.118,27.118,0,0,1,1.674,4.025h1.244a5.112,5.112,0,0,1,5.105,5.105V35.89a5.112,5.112,0,0,1-5.105,5.105h-1.244a27.526,27.526,0,0,1-1.674,4.025l.883.882a5.106,5.106,0,0,1,0,7.222l-4.77,4.768a5.1,5.1,0,0,1-7.221,0l-.883-.882a26.9,26.9,0,0,1-4.025,1.668v1.246A5.114,5.114,0,0,1,21270.887,65.035Zm-3.373-47.063a14.5,14.5,0,1,0,10.256,4.246A14.4,14.4,0,0,0,21267.514,17.972Z" transform="translate(-20691.516 2080.371)" fill="#ec6707"/>
    <g id="Gruppe_4369" data-name="Gruppe 4369" transform="translate(512 2080.371)">
      <g id="Gruppe_4368" data-name="Gruppe 4368" clip-path="url(#clip-path)">
        <path id="Pfad_1611" data-name="Pfad 1611" d="M345.51,171.98a1.9,1.9,0,0,1-1.569-2.958l17.594-26.057a20.263,20.263,0,0,0,3.384-13.047l-2.064-23.843A2.809,2.809,0,0,0,360,103.535a2.6,2.6,0,0,0-2.5,2.339l-2.728,27.533a1.9,1.9,0,1,1-3.773-.373l2.728-27.533a6.4,6.4,0,0,1,6.161-5.756,6.581,6.581,0,0,1,6.752,6L368.7,129.59a24.066,24.066,0,0,1-4.019,15.5l-17.594,26.057a1.894,1.894,0,0,1-1.574.835" transform="translate(-240.785 -69.892)" fill="#5d6e76"/>
        <path id="Pfad_1612" data-name="Pfad 1612" d="M276.72,227.341c-.043,0-.088,0-.132,0a1.9,1.9,0,0,1-1.762-2.022,12.527,12.527,0,0,1,2.826-7.122l17.3-21.1a6.707,6.707,0,0,1,10.6,8.206l-10.8,14.81a1.9,1.9,0,0,1-3.064-2.235l10.8-14.81a2.915,2.915,0,0,0-4.608-3.566l-17.3,21.1a8.742,8.742,0,0,0-1.976,4.977,1.9,1.9,0,0,1-1.89,1.766" transform="translate(-192.579 -136.395)" fill="#5d6e76"/>
        <path id="Pfad_1613" data-name="Pfad 1613" d="M284.581,334.785a1.922,1.922,0,0,1-.291-.022l-29.254-4.535a1.9,1.9,0,0,1-1.583-2.164l1.718-11.081a1.894,1.894,0,0,1,2.165-1.583l29.254,4.535a1.9,1.9,0,0,1,1.583,2.165l-1.717,11.081a1.9,1.9,0,0,1-1.874,1.606M257.49,326.77,283,330.725l1.137-7.333-25.507-3.954Z" transform="translate(-177.589 -220.997)" fill="#5d6e76"/>
        <path id="Pfad_1614" data-name="Pfad 1614" d="M23.276,171.98a1.894,1.894,0,0,1-1.574-.835L4.108,145.088a24.07,24.07,0,0,1-4.019-15.5l2.065-23.842a6.549,6.549,0,0,1,6.752-6,6.4,6.4,0,0,1,6.161,5.756l2.728,27.533a1.9,1.9,0,1,1-3.773.373l-2.728-27.533a2.6,2.6,0,0,0-2.5-2.339,2.766,2.766,0,0,0-2.858,2.541L3.867,129.917a20.266,20.266,0,0,0,3.384,13.048l17.595,26.057a1.9,1.9,0,0,1-1.569,2.958" transform="translate(0 -69.892)" fill="#5d6e76"/>
        <path id="Pfad_1615" data-name="Pfad 1615" d="M76,227.34a1.9,1.9,0,0,1-1.89-1.766,8.742,8.742,0,0,0-1.976-4.977l-17.3-21.1a2.914,2.914,0,0,0-4.607,3.566l10.8,14.81a1.9,1.9,0,0,1-3.064,2.235l-10.8-14.81a6.707,6.707,0,0,1,10.6-8.206l17.306,21.1a12.527,12.527,0,0,1,2.826,7.122,1.9,1.9,0,0,1-1.762,2.022c-.044,0-.089,0-.132,0" transform="translate(-32.142 -136.394)" fill="#5d6e76"/>
        <path id="Pfad_1616" data-name="Pfad 1616" d="M61.736,334.782a1.9,1.9,0,0,1-1.874-1.606L58.144,322.1a1.9,1.9,0,0,1,1.583-2.164L88.981,315.4a1.9,1.9,0,0,1,2.165,1.583l1.719,11.081a1.9,1.9,0,0,1-1.583,2.165L62.027,334.76a1.911,1.911,0,0,1-.291.022m.446-11.394,1.137,7.333,25.508-3.954-1.137-7.333Z" transform="translate(-40.728 -220.994)" fill="#5d6e76"/>
        <path id="Pfad_1617" data-name="Pfad 1617" d="M141.1,65.033H134.35a5.111,5.111,0,0,1-5.106-5.106V58.682a27.4,27.4,0,0,1-4.023-1.671l-.885.884a5.1,5.1,0,0,1-7.22,0l-4.771-4.771a5.1,5.1,0,0,1,0-7.221l.883-.883A27.443,27.443,0,0,1,111.558,41h-1.246a5.111,5.111,0,0,1-5.105-5.106V29.144a5.111,5.111,0,0,1,5.105-5.106h1.246a27.464,27.464,0,0,1,1.671-4.023l-.883-.884a5.1,5.1,0,0,1,0-7.221l4.771-4.77a5.1,5.1,0,0,1,7.22,0l.885.884a27.371,27.371,0,0,1,4.023-1.671V5.106A5.111,5.111,0,0,1,134.35,0H141.1A5.111,5.111,0,0,1,146.2,5.106V6.352a27.388,27.388,0,0,1,4.023,1.671l.885-.884a5.1,5.1,0,0,1,7.22,0L163.1,11.91a5.1,5.1,0,0,1,0,7.221l-.883.883a27.445,27.445,0,0,1,1.671,4.024h1.246a5.111,5.111,0,0,1,5.105,5.106v6.747A5.111,5.111,0,0,1,165.133,41h-1.246a27.5,27.5,0,0,1-1.671,4.024l.883.884a5.1,5.1,0,0,1,0,7.22l-4.771,4.771a5.1,5.1,0,0,1-7.22,0l-.885-.885a27.367,27.367,0,0,1-4.023,1.671v1.246a5.111,5.111,0,0,1-5.105,5.106m-15.95-11.89a3.516,3.516,0,0,1,1.631.4,23.737,23.737,0,0,0,3.78,1.574,3.514,3.514,0,0,1,2.479,3.348v1.459a1.314,1.314,0,0,0,1.313,1.313H141.1a1.315,1.315,0,0,0,1.313-1.313V58.468a3.514,3.514,0,0,1,2.479-3.348,23.72,23.72,0,0,0,3.781-1.574,3.452,3.452,0,0,1,4.054.6l1.067,1.068a1.344,1.344,0,0,0,1.857,0l4.771-4.771a1.311,1.311,0,0,0,0-1.857l-1.067-1.067a3.452,3.452,0,0,1-.6-4.055,23.562,23.562,0,0,0,1.574-3.78,3.514,3.514,0,0,1,3.348-2.48h1.459a1.315,1.315,0,0,0,1.313-1.313V29.144a1.315,1.315,0,0,0-1.313-1.313h-1.459a3.514,3.514,0,0,1-3.348-2.479,23.6,23.6,0,0,0-1.574-3.781,3.45,3.45,0,0,1,.6-4.054l1.069-1.068a1.311,1.311,0,0,0,0-1.856l-4.771-4.772a1.343,1.343,0,0,0-1.857,0l-1.067,1.066a3.449,3.449,0,0,1-4.055.6,23.694,23.694,0,0,0-3.781-1.574,3.514,3.514,0,0,1-2.479-3.347V5.106A1.315,1.315,0,0,0,141.1,3.793H134.35a1.315,1.315,0,0,0-1.313,1.313v1.46a3.514,3.514,0,0,1-2.479,3.347,23.769,23.769,0,0,0-3.781,1.574,3.448,3.448,0,0,1-4.055-.6l-1.067-1.067a1.343,1.343,0,0,0-1.857,0l-4.771,4.771a1.312,1.312,0,0,0,0,1.857l1.067,1.067a3.446,3.446,0,0,1,.6,4.055,23.609,23.609,0,0,0-1.574,3.779,3.514,3.514,0,0,1-3.347,2.48h-1.46A1.315,1.315,0,0,0,109,29.144v6.747a1.315,1.315,0,0,0,1.313,1.313h1.46a3.514,3.514,0,0,1,3.347,2.479,23.617,23.617,0,0,0,1.574,3.781,3.45,3.45,0,0,1-.6,4.055l-1.067,1.067a1.311,1.311,0,0,0,0,1.857l4.771,4.772a1.343,1.343,0,0,0,1.857,0l1.067-1.067a3.421,3.421,0,0,1,2.425-1" transform="translate(-73.723 -0.001)" fill="#5d6e76"/>
        <path id="Pfad_1618" data-name="Pfad 1618" d="M175.976,86.949A16.179,16.179,0,1,1,192.155,70.77a16.2,16.2,0,0,1-16.179,16.179m0-28.566A12.387,12.387,0,1,0,188.363,70.77a12.4,12.4,0,0,0-12.387-12.387" transform="translate(-111.976 -38.253)" fill="#5d6e76"/>
      </g>
    </g>
  </g>
</svg>
