<svg xmlns="http://www.w3.org/2000/svg" xmlns:xlink="http://www.w3.org/1999/xlink" width="128" height="104" viewBox="0 0 128 104">
  <defs>
    <clipPath id="clip-path">
      <rect id="Rechteck_1450" data-name="Rechteck 1450" width="128" height="94.781" fill="#5d6e76"/>
    </clipPath>
  </defs>
  <g id="Gruppe_4502" data-name="Gruppe 4502" transform="translate(-1583 -2088)">
    <path id="Schnittmenge_7" data-name="Schnittmenge 7" d="M64.676,123.489l58.813-58.813a52.673,52.673,0,0,1,.1,13.894L78.57,123.589a52.673,52.673,0,0,1-13.894-.1Zm-16.349-5.177,69.984-69.984a51.658,51.658,0,0,1,3.9,10.1L58.423,122.21A51.658,51.658,0,0,1,48.327,118.312Zm73.065-30.005a52.142,52.142,0,0,1-33.085,33.085Zm-85.6,21.015,73.531-73.531a52.286,52.286,0,0,1,6.221,7.772l-71.98,71.98A52.286,52.286,0,0,1,35.791,109.322ZM27.246,98.494,98.494,27.246a52.135,52.135,0,0,1,7.5,5.4L32.652,106A52.154,52.154,0,0,1,27.246,98.494ZM21.371,83.911,83.911,21.371a51.622,51.622,0,0,1,9.63,3.287L24.658,93.541A51.622,51.622,0,0,1,21.371,83.911ZM20,72a52.432,52.432,0,0,1,.572-7.738L64.261,20.572a52.691,52.691,0,0,1,13.206-.288L20.284,77.467A52.641,52.641,0,0,1,20,72ZM54.148,23.145l-31,31A52.15,52.15,0,0,1,54.148,23.145Z" transform="translate(1573 2068)" fill="#dfe2e3"/>
    <circle id="Ellipse_5" data-name="Ellipse 5" cx="10" cy="10" r="10" transform="translate(1637 2102.842)" fill="#ec6707"/>
    <g id="Gruppe_4373" data-name="Gruppe 4373" transform="translate(1583 2091.377)">
      <g id="Gruppe_4372" data-name="Gruppe 4372" clip-path="url(#clip-path)">
        <path id="Pfad_1627" data-name="Pfad 1627" d="M195.759,59.288a11.327,11.327,0,1,1,11.327-11.326,11.339,11.339,0,0,1-11.327,11.326m0-19.034a7.707,7.707,0,1,0,7.708,7.708,7.716,7.716,0,0,0-7.708-7.708" transform="translate(-131.759 -26.172)" fill="#5d6e76"/>
        <path id="Pfad_1628" data-name="Pfad 1628" d="M202.4,14.789a1.81,1.81,0,0,1-1.81-1.81V6.712a6.713,6.713,0,1,1,13.426,0,1.81,1.81,0,1,1-3.619,0,3.094,3.094,0,0,0-6.187,0V12.98a1.81,1.81,0,0,1-1.81,1.81" transform="translate(-143.301 0.001)" fill="#5d6e76"/>
        <path id="Pfad_1629" data-name="Pfad 1629" d="M138.643,169.745a1.811,1.811,0,0,1-1.692-2.449L160.061,106.1a1.81,1.81,0,0,1,3.386,1.279l-23.111,61.193a1.811,1.811,0,0,1-1.694,1.171" transform="translate(-97.754 -74.964)" fill="#5d6e76"/>
        <path id="Pfad_1630" data-name="Pfad 1630" d="M140,155.454a1.8,1.8,0,0,1-1.236-.488,13.689,13.689,0,0,1-3.464-14.88l16.063-42.532a1.81,1.81,0,0,1,3.386,1.278l-16.063,42.532a10.082,10.082,0,0,0,2.552,10.959A1.81,1.81,0,0,1,140,155.454" transform="translate(-96.02 -68.856)" fill="#5d6e76"/>
        <path id="Pfad_1631" data-name="Pfad 1631" d="M242.676,169.745a1.811,1.811,0,0,1-1.694-1.171l-23.111-61.193a1.81,1.81,0,0,1,3.386-1.279L244.368,167.3a1.811,1.811,0,0,1-1.692,2.449" transform="translate(-155.564 -74.964)" fill="#5d6e76"/>
        <path id="Pfad_1632" data-name="Pfad 1632" d="M263.393,172.353a1.81,1.81,0,0,1-1.237-3.131,10.083,10.083,0,0,0,2.552-10.959L251.2,122.487a1.81,1.81,0,1,1,3.386-1.278l13.512,35.776a13.691,13.691,0,0,1-3.465,14.88,1.8,1.8,0,0,1-1.236.488" transform="translate(-179.371 -85.755)" fill="#5d6e76"/>
        <path id="Pfad_1633" data-name="Pfad 1633" d="M301.794,190.47a1.81,1.81,0,0,1-1.81-1.81,52.49,52.49,0,0,0-41.391-51.137,1.809,1.809,0,1,1,.749-3.541A56.126,56.126,0,0,1,303.6,188.661a1.81,1.81,0,0,1-1.81,1.81" transform="translate(-183.715 -95.689)" fill="#5d6e76"/>
        <path id="Pfad_1634" data-name="Pfad 1634" d="M30.209,200.482a1.81,1.81,0,0,1-1.81-1.81,56.171,56.171,0,0,1,32-50.54,1.809,1.809,0,0,1,1.549,3.271,52.537,52.537,0,0,0-29.93,47.27,1.81,1.81,0,0,1-1.81,1.81" transform="translate(-20.288 -105.701)" fill="#5d6e76"/>
        <path id="Pfad_1635" data-name="Pfad 1635" d="M16.287,322.815H1.81a1.81,1.81,0,1,1,0-3.619H16.287a1.81,1.81,0,0,1,0,3.619" transform="translate(0 -228.035)" fill="#5d6e76"/>
        <path id="Pfad_1636" data-name="Pfad 1636" d="M168.395,322.815H141.13a1.81,1.81,0,1,1,0-3.619h27.265a1.81,1.81,0,0,1,0,3.619m-40.9,0H100.233a1.81,1.81,0,1,1,0-3.619H127.5a1.81,1.81,0,0,1,0,3.619" transform="translate(-70.314 -228.035)" fill="#5d6e76"/>
        <path id="Pfad_1637" data-name="Pfad 1637" d="M401.108,322.815H386.631a1.81,1.81,0,1,1,0-3.619h14.477a1.81,1.81,0,0,1,0,3.619" transform="translate(-274.917 -228.035)" fill="#5d6e76"/>
      </g>
    </g>
  </g>
</svg>
