<svg xmlns:xlink="http://www.w3.org/1999/xlink" xmlns="http://www.w3.org/2000/svg" width="2151.629" height="706.076" style="opacity: .10" viewBox="0 0 2151.629 706.076"><defs><clipPath id="a"><rect width="366.071" height="636.487" fill="none"/></clipPath><clipPath id="b"><rect width="2151.629" height="686.194" fill="none"/></clipPath></defs><g transform="translate(0 -19.883)"><g transform="translate(1334.79 89.473)" opacity="0.4"><g clip-path="url(#a)"><path d="M124.083,37.753c19.7,2.591,114.321,4.923,129.511,4.818V40.429c32.482,1.037,64.753-4.415,96.321-12.311,2.7,1.872,4.856,8.03.809,10.439-1.887,3.749-2.969,5.355-3.506,9.37C285.031,73.675,211.135,61.767,144.856,59.439c-24.678,4.532-68.58-9.7-94.7-1.876C51,75.8,45.669,99.69,54.2,115.657,70.912,171.843,107.957,229.741,174,222.2c12.14-5.883,12.681-24.357,28.326-13.381.809,3.749,1.623,7.5,2.432,11.512a19.32,19.32,0,0,1,3.774.266c11.6-7.764,32.381-3.212,41.824-12.582,9.98-3.749,29.676-11.779,34.8-21.952,5.4-1.34,16.186-10.173,17.8-14.991,8.907-7.5,18.618-25.434,21.587-36.139h2.428c1.724-8.53,1.8-19.143,7.284-25.971.272-5.621,0-13.118,5.938-15.528,1.346-7.227,9.712-9.37,13.49-14.991,3.319,1.178,7.19,2.461,10.794,3.482,1.419,11.069,4.03,37.749-3.778,43.1h1.619c-.268,2.675-2.428,13.921-4.856,13.921C336.917,206.07,271.016,244.114,202.6,243.888c-.272,4.285,0,13.385-2.969,16.331-.342,14.039-1.179,28.267-1.35,42.568-.809,0-.809,0-1.887,6.957-.809,25.434-.809,25.434-.268,27.843-8.63,47.026-.094,98.455-6.479,146.168h2.428c-1.041,22.4-.3,45.069,0,67.465,43.821,15.753,81.818,8.748,109.274,38.016h2.428c5.661,5.843,7.886,13.579,2.432,20.346-36.98-10.754-75.128-30.264-115.48-27.577-.809,5.621-5.4,8.567-9.984,11.246-10.253-1.876-10.253-2.946-9.443-13.389a174.343,174.343,0,0,0-91.2,21.153c11.334,7.493,38.855-3.482,52.073,2.942-.268,5.088-.268,5.088-2.428,13.655-2.7,1.606-3.506,1.34-4.856,4.015-22.124,6.158-45.33-2.409-67.722,1.872-4.047,6.428-4.047,6.428-10.253,12.586-8.093,1.872-14.3-2.946-15.381-10.177-8.093-.8-18.077-.266-24.82-5.084-.268-4.015-.541-7.764-.541-11.512a8.427,8.427,0,0,1,2.7-.266c.268-.537.537-1.069.809-1.606,1.619-.27,3.237-.537,5.124-.8a5.214,5.214,0,0,1,.268-2.143,16.158,16.158,0,0,1,3.778-.537c4.856-6.424,21.856-3.745,27.793-3.745,30.136-28.351,69.406-39.84,109.811-46.046a29.555,29.555,0,0,1,.541-5.088,7.971,7.971,0,0,0-2.428-.537c1.021-79.268,14.466-156.869,9.171-236.92-.268-.266-.537-.537-.537-.537,0-8.833-2.969-18.2,4.047-25.164,0-6.961-1.35-31.858,2.969-38.282-80.35-4.128-99.883-32.221-137.6-110.561C15.952,93.653,21.409,97.3,16.159,49.266-4.619,42.571-3,34.808,7.793,17.944,32.886,2.683,63.376.541,93.056.008a5.213,5.213,0,0,0,.268,1.872,10.6,10.6,0,0,0-2.7,2.143c78.418-8.567,157.784-2.26,235.812,7.764v1.872c-5.389,1.061-10.314,2.627-15.65,1.606a7.285,7.285,0,0,0,.273,2.409c3.876,1.9,8.126,2.7,12.681,3.482a3.8,3.8,0,0,0-.541,1.872c-62.972-7.376-130.82-9.882-192.914-6.424-14.226-.085-66.7,6.372-69.072,5.887-1.887,1.34-23.743,4.822-23.743,5.625,5.934.533,8.093,2.139,12.949,5.621,62.057,3.749,62.057,3.749,73.119,3.478l.541.537" transform="translate(-0.001 0)" fill="#fff" fill-rule="evenodd"/></g></g><g transform="translate(0 19.883)" opacity="0.233"><g clip-path="url(#b)"><path d="M471.274,261.33a1.023,1.023,0,0,1,.017.131,1.023,1.023,0,0,0-.017-.131M70.044,13.719c.413.427.82.877,1.222,1.373a10.914,10.914,0,0,0-1.222-1.373M82.017,9.334C83.9,7.784,85.649,6.087,87.565,4.35a11.173,11.173,0,0,0-5.548,4.984" transform="translate(331.805 20.426)" fill="#fff" fill-rule="evenodd"/><path d="M1528.271,679.718q12.323,2.3,24.641,4.591,4.888.555,9.782,1.1a464.923,464.923,0,0,0,178.246-24.531c19.787,0,54.428,1.133,68.891-13.225,18.267-6.425,23.975-.382,35.776-15.874,8.37-.752,17.51-1.509,22.455-8.686,22.581-8.15,42.736-24.115,62.8-34.39,4.188,0,4.188,1.891,6.087,4.534a29.187,29.187,0,0,1,5.708-.376c1.526-4.91-.757-6.043-1.142-10.958,3.425-1.891,4.567-4.158,9.139-4.158,1.142,1.515,2.283,3.4,3.8,5.291,4.188-1.891,5.708-7.558,7.234-11.71a22.015,22.015,0,0,1,5.324-1.515c1.9-8.692,11.8-10.958,19.414-13.6,7.992-5.291,13.322-11.716,19.03-18.892,4.188-.382,8.37-1.515,11.038-4.158,3.8-21.159,10.66-29.093,31.21-35.142,6.85-7.934,22.84-21.159,25.123-30.984,9.512-4.158,19.03-25.693,13.322-35.142.43-2.4.774-4.107,1.142-6.425,25.237-23.922,41.7-56.774,56.711-86.909,6.85-4.91,9.9-10.958,5.708-19.65-18.267,0-43.011,73.308-59.379,89.558-4.033,16.358-23.235,27.857-36.155,35.518a21.171,21.171,0,0,0-2.668-1.509c24.1-49.711,62.316-93.476,87.927-143.592,0-6.8,0-13.225.379-19.65a8,8,0,0,0-2.283-1.509c-13.321,8.691-12.943,30.984-24.738,42.7-.763-.382-1.526-.758-2.283-1.133-1.119-17.474,31.772-70.568,14.463-83.509-5.33,1.133-5.33,2.643-8,7.182h-3.425c-1.52-2.648-1.52-2.648-1.52-19.274-5.33-7.176-13.7-8.31-22.076-11.334-4.945-18.14-4.945-18.14-5.33-25.7-6.087-5.286-8.37-6.8-10.275-14.359-7.992-2.643-7.992-2.643-9.9-4.534-1.52-23.426-11.038-23.426-31.973-26.826-.379,2.267-.757,4.91-1.142,7.558a18.455,18.455,0,0,0-4.567-.382c0-7.176,2.283-16.244,1.526-22.668-44.067-22.52-38.2,41.851-72.7,29.851-11.038,9.449-20.55,11.716-24.738,26.074-28.169,18.511-50.24,52.143-72.7,77.084a47.3,47.3,0,0,0,.385,7.176c-28.926,19.274-50.624,39.676-70.8,68.017a23.327,23.327,0,0,0-5.33,2.643c-.763-.752-1.52-1.133-1.9-1.509a27.187,27.187,0,0,0-1.141,3.024,739.032,739.032,0,0,1-103.084,54.78,739.448,739.448,0,0,1-84.915,30.825q-39.216,8.962-78.432,17.93c-20.131.461-41.221.41-63.194-.3-31.118-1.008-60.469-3.229-87.858-6.237a512.118,512.118,0,0,1-117.255-48.566,509.472,509.472,0,0,1-85.282-60.9,12.7,12.7,0,0,1-.591,1.549c-28.8-21.86-47.457-54.871-81.622-71.827a17.57,17.57,0,0,0-.889,5.16c-10.688-7.1-25.157-20.43-33.3-30.346a10.49,10.49,0,0,0,4.119-.131C1030.446,205.97,913.8,105.67,878.464,113.815c0-4.2,4.727-4.767,8.37-6.123C857.3,66.638,774.56,51.562,729.6,35.495a39.449,39.449,0,0,1,4.223-1.487C705.8,20.094,658.424,6.852,613.967,3.97c.361-.313.729-.632,1.107-.945C610.886,1.891,607.082.758,603.279,0c.315.94.631,2.147.947,3.395C491.566-2.711,493.31,19.274,426.289,19.274a55.349,55.349,0,0,0-6.655,5.263c-10.166-1.407-13.717,1.025-22.5,6.282-16.345-7.08-41.043,21.319-59.408,31.417a27.054,27.054,0,0,1-1.641-3.292c-5.33-.376-10.275-.376-15.226-.376,4.917,24.411-8.594-2.745-19.03,16.25-9.868,2.529-83.245,33.632-91.036,48.692.029-1.823.453-4.1-.31-6.373-14.48,5.753-18.628,10.48-23.258,23.6-18,10.884-40.211,30.289-48.679,42.9-3.557,0-18.273,4.927-18.273,6.425-2.2,1.623-5.227,2.757-5.708,5.667.878.518,1.836,1.042,2.834,1.606-13.27,12.445-55.828,37.306-61.066,64.52C44.4,276.071,43.309,306.446,32.351,306.446,32.351,284.78,6.471,370.3,0,373.329c1.71,65.613,35.277,143.666,92.109,177.594,6.85,0,12.559-7.934,19.409-3.4,10.028,29.862,18.984,5.3,21.319-13.225,22.076-27.584,30.068-59.7,65.082-73.308,1.526,15.116-18.646,26.45-24.36,40.057,15.777,0,54.049-21.6,65.85-31.366-7.992-12.092,14.842-30.984,23.975-21.917,3.809-7.552,7.613-10.958,13.706-17,24.8,16.415,94.9-100.043,80.687-29.475,17.131,0,26.643-12.092,38.444-23.8,1.968,0,21.107-15.361,36.075-25.75.413,1.8,1.01,3.639,1.606,5.718,46.207-37.614,128.121-38.069,176.984-73.678,60.807,10.833,58.995-21.216,120.278-12.092-35.122,15.845,64.135,12.525,71.937,10.2,212.559,20.954,377.989,197.2,548.467,312.495,42.529,25.761,99.785,85.593,151.867,83.133q12.418,1.1,24.836,2.21" fill="#fff" fill-rule="evenodd"/></g></g></g></svg>