<svg xmlns="http://www.w3.org/2000/svg" width="112.934" height="104.862" viewBox="0 0 112.934 104.862">
  <g id="check2-square" transform="translate(-3.375 -3.375)">
    <path id="Pfad_1580" data-name="Pfad 1580" d="M97.68,6.811a4.033,4.033,0,0,1,0,5.711L41.216,68.986a4.033,4.033,0,0,1-5.711,0l-24.2-24.2a4.038,4.038,0,0,1,5.711-5.711L38.362,60.425,91.972,6.807a4.033,4.033,0,0,1,5.711,0Z" transform="translate(17.444 5.81)" fill="#132f3c" fill-rule="evenodd"/>
    <path id="Pfad_1581" data-name="Pfad 1581" d="M3.375,96.137a12.1,12.1,0,0,0,12.1,12.1H96.137a12.1,12.1,0,0,0,12.1-12.1V55.806a4.033,4.033,0,1,0-8.066,0V96.137a4.033,4.033,0,0,1-4.033,4.033H15.474a4.033,4.033,0,0,1-4.033-4.033V15.474a4.033,4.033,0,0,1,4.033-4.033H80a4.033,4.033,0,1,0,0-8.066H15.474a12.1,12.1,0,0,0-12.1,12.1Z" transform="translate(0 0)" fill="#132f3c" fill-rule="evenodd"/>
  </g>
</svg>
