<?xml version="1.0" encoding="utf-8"?>
<!-- Generator: Adobe Illustrator 16.0.4, SVG Export Plug-In . SVG Version: 6.00 Build 0)  -->
<!DOCTYPE svg PUBLIC "-//W3C//DTD SVG 1.1//EN" "http://www.w3.org/Graphics/SVG/1.1/DTD/svg11.dtd">
<svg version="1.1" id="Ebene_1" xmlns="http://www.w3.org/2000/svg" xmlns:xlink="http://www.w3.org/1999/xlink" x="0px" y="0px"
	 width="780px" height="252px" viewBox="0 0 780 252" enable-background="new 0 0 780 252" xml:space="preserve">
<g>
	<polygon fill="#C8D3D9" points="248.903,48.091 229.433,75.881 200.303,117.48 258.563,117.48 278.023,89.69 278.023,6.5 	"/>
	<polygon fill="#C8D3D9" points="180.853,6.5 180.853,6.511 180.843,6.5 	"/>
	<g>
		<path fill="#354248" d="M139.883,160.11c0.527-1.884,1.864-3.298,4.515-3.186c2.304,0.095,3.363,1.874,3.363,3.622
			c0,0.355-0.044,0.713-0.131,1.052l-21.119,76.182c-1.221,4.4-5.645,7.713-10.773,7.713c-5.403,0-9.638-3.476-10.903-8.05
			l-20.997-75.843c-0.089-0.314-0.131-0.632-0.131-0.946c0-1.884,1.482-3.635,3.562-3.728c2.555-0.11,3.839,1.483,4.335,3.267
			l21.138,75.69c0.426,1.521,1.39,2.254,2.996,2.254c1.581,0,2.545-0.732,2.971-2.254L139.883,160.11z"/>
		<path fill="#354248" d="M193.78,156.864c18.53,0,30.079,8.7,30.079,30.763v27.875c0,17.753-10.844,29.993-30.081,29.993h-5.774
			c-19.106,0-30.079-12.23-30.079-29.995v-27.873c0-22.074,11.676-30.766,30.079-30.766L193.78,156.864z M166.01,215.5
			c0,13.113,7.787,22.769,21.997,22.769h5.773c14.258,0,22.073-9.66,22.073-22.769v-27.873c0-16.743-8.398-23.482-22.073-23.482
			h-5.775c-13.629,0-21.997,6.736-21.997,23.482L166.01,215.5z"/>
		<path fill="#354248" d="M240.871,245.5c-2.117,0-3.796-1.734-3.796-3.622c0-1.852,1.679-3.603,3.796-3.603h24.402
			c12.808,0,19.646-5.411,19.646-19.252c0-10.796-6.224-13.006-20.021-15.665c-14.763-2.899-27.823-5.565-27.823-24.017
			c0-16.356,10.785-22.476,28.073-22.476h21.301c2.523,0,4.047,1.84,4.047,3.642c0,1.85-1.719,3.641-3.834,3.641h-21.514
			c-13.079,0-20.445,3.94-20.445,15.193c0,12.766,8.204,14.446,21.667,16.787c16.423,2.908,26.217,7.231,26.217,22.894
			c0,18.786-9.654,26.476-27.313,26.476L240.871,245.5z"/>
		<path fill="#354248" d="M305.156,245.5c-2.116,0-3.796-1.734-3.796-3.622c0-1.852,1.68-3.603,3.796-3.603h24.401
			c12.81,0,19.646-5.411,19.646-19.252c0-10.796-6.222-13.006-20.021-15.665c-14.759-2.899-27.821-5.565-27.821-24.017
			c0-16.356,10.786-22.476,28.074-22.476h21.302c2.521,0,4.044,1.84,4.044,3.642c0,1.85-1.717,3.641-3.835,3.641h-21.511
			c-13.081,0-20.446,3.94-20.446,15.193c0,12.766,8.204,14.446,21.668,16.787c16.42,2.908,26.217,7.231,26.217,22.894
			c0,18.786-9.656,26.476-27.315,26.476L305.156,245.5z"/>
		<path fill="#C8D3D9" d="M431.554,163.075c1.195-3.638,4.942-6.214,9.164-6.214c5.286,0,9.567,4.281,9.567,9.416v75.469
			c0,2.1-1.591,3.749-3.958,3.749c-2.332,0-3.922-1.649-3.922-3.749v-74.884c0-1.729-0.48-2.557-1.35-2.661
			c-0.916-0.109-1.576,0.704-2.053,2.192l-24.157,75.597c-0.641,2.008-2.235,3.505-4.939,3.505c-2.822,0-4.414-1.479-5.021-3.516
			l-22.511-75.553c-0.446-1.508-1.112-2.394-2.06-2.226c-0.893,0.159-1.396,0.932-1.396,2.661v74.884c0,2.1-1.592,3.749-3.922,3.749
			c-2.369,0-3.959-1.649-3.959-3.749v-75.469c0-5.135,4.282-9.416,9.567-9.416c4.398,0,7.977,2.587,9.166,6.468l20.197,67.993
			L431.554,163.075z"/>
		<path fill="#C8D3D9" d="M469.341,162.807c0-3.423,2.656-5.945,6.177-5.945h43.076c2.694,0,4.207,1.688,4.207,3.766
			c0,2.098-1.549,3.731-3.959,3.731h-41.581v31.346h34.044c2.513,0,4.212,1.634,4.212,3.731c0,2.226-1.73,3.803-3.96,3.803h-34.296
			v34.782h41.333c2.669,0,4.208,1.63,4.208,3.726c0,2.079-1.527,3.749-3.96,3.749h-43.324c-3.521,0-6.177-2.504-6.177-5.927V162.807
			z"/>
		<path fill="#C8D3D9" d="M537.538,162.811c0-3.4,2.547-5.946,6.14-5.946h24.443c18.531,0,30.08,8.7,30.08,30.763v27.875
			c0,17.757-10.888,29.993-30.08,29.993h-24.443c-3.593,0-6.14-2.528-6.14-5.927V162.811z M590.194,187.627
			c0-16.741-8.396-23.482-22.073-23.482h-22.699v74.128h22.699c14.255,0,22.073-9.661,22.073-22.769V187.627z"/>
		<path fill="#C8D3D9" d="M615.03,160.627c0-2.114,1.648-3.766,3.959-3.766c2.308,0,3.956,1.64,3.956,4.019v80.617
			c0,2.378-1.648,3.998-3.956,3.998c-2.311,0-3.959-1.634-3.959-3.749V160.627z"/>
		<path fill="#C8D3D9" d="M641.728,162.807c0-3.423,2.654-5.945,6.176-5.945h43.074c2.693,0,4.211,1.688,4.211,3.766
			c0,2.098-1.553,3.731-3.961,3.731h-41.582v31.346h34.045c2.512,0,4.211,1.634,4.211,3.731c0,2.226-1.729,3.803-3.957,3.803
			h-34.297v34.782h41.33c2.672,0,4.211,1.63,4.211,3.726c0,2.079-1.529,3.749-3.959,3.749h-43.326c-3.521,0-6.176-2.504-6.176-5.927
			V162.807z"/>
		<path fill="#C8D3D9" d="M766.128,160.627c0-2.097,1.59-3.766,3.961-3.766c2.328,0,3.918,1.669,3.918,3.766v75.135
			c0,5.452-4.24,9.733-9.904,9.733c-3.961,0-7.529-2.334-9.057-5.681l-33.547-73.615c-0.625-1.375-1.418-2.128-2.533-1.998
			c-1.055,0.125-1.633,0.932-1.633,2.661v74.884c0,2.115-1.646,3.749-3.957,3.749c-2.25,0-3.959-1.618-3.959-3.749v-75.133
			c0-5.46,4.289-9.752,9.982-9.752c3.975,0,7.494,2.363,9.021,5.702l33.609,73.578c0.629,1.373,1.412,2.161,2.506,1.996
			c1.023-0.154,1.596-0.931,1.596-2.658L766.128,160.627z"/>
	</g>
	<polygon fill="#C8D3D9" points="64.243,6.5 5.993,6.5 54.583,75.891 83.703,117.48 83.703,34.29 	"/>
	<polygon fill="#C8D3D9" points="180.843,6.5 151.723,48.091 103.133,117.48 161.383,117.48 180.843,89.69 180.853,89.69 
		180.853,6.511 	"/>
	<linearGradient id="SVGID_1_" gradientUnits="userSpaceOnUse" x1="54.583" y1="61.9902" x2="161.4131" y2="61.9902">
		<stop  offset="0" style="stop-color:#EA5B0C"/>
		<stop  offset="1" style="stop-color:#D60C52"/>
	</linearGradient>
	<polygon fill="url(#SVGID_1_)" points="103.163,6.5 83.703,34.29 54.583,75.891 83.703,117.48 112.833,75.891 161.413,6.5 	"/>
	<linearGradient id="SVGID_2_" gradientUnits="userSpaceOnUse" x1="151.7227" y1="61.9902" x2="258.5635" y2="61.9902">
		<stop  offset="0" style="stop-color:#3DBCD6"/>
		<stop  offset="1" style="stop-color:#016275"/>
	</linearGradient>
	<polygon fill="url(#SVGID_2_)" points="229.433,75.881 209.973,48.091 180.853,6.511 180.843,6.5 151.723,48.091 180.843,89.69 
		200.303,117.48 258.563,117.48 	"/>
	<linearGradient id="SVGID_3_" gradientUnits="userSpaceOnUse" x1="248.9033" y1="61.9902" x2="355.7334" y2="61.9902">
		<stop  offset="0" style="stop-color:#94C122"/>
		<stop  offset="1" style="stop-color:#2B9668"/>
	</linearGradient>
	<polygon fill="url(#SVGID_3_)" points="307.153,48.091 278.023,6.5 248.903,48.091 278.023,89.69 297.483,117.48 355.733,117.48 	
		"/>
	<polygon opacity="0.1" fill="#FFFFFF" points="180.853,6.511 180.853,89.69 180.843,89.69 151.723,48.091 180.843,6.5 	"/>
	<polygon opacity="0.1" fill="#FFFFFF" points="258.563,117.48 200.303,117.48 229.433,75.881 	"/>
	<polygon opacity="0.1" fill="#FFFFFF" points="278.023,6.5 278.023,89.69 248.903,48.091 	"/>
	<polygon opacity="0.1" fill="#FFFFFF" points="83.703,34.29 83.703,117.48 54.583,75.891 	"/>
</g>
</svg>
