<svg xmlns:dc="http://purl.org/dc/elements/1.1/" xmlns:cc="http://creativecommons.org/ns#" xmlns:rdf="http://www.w3.org/1999/02/22-rdf-syntax-ns#" xmlns:svg="http://www.w3.org/2000/svg" xmlns="http://www.w3.org/2000/svg" xml:space="preserve" id="svg2" version="1.1" viewBox="13.93 107.98 234.33 41.7"><metadata id="metadata8"><rdf:RDF><cc:Work rdf:about=""><dc:format>image/svg+xml</dc:format><dc:type rdf:resource="http://purl.org/dc/dcmitype/StillImage"></dc:type></cc:Work></rdf:RDF></metadata><defs id="defs6"></defs><g transform="matrix(1.3333333,0,0,-1.3333333,0,257.33333)" id="g10"><g transform="scale(0.1)" id="g12"><path id="path16" style="fill:#254aa5;fill-opacity:1;fill-rule:nonzero;stroke:none" d="m 1817.75,1037.71 h 0.03 c 10.56,0.01 20.14,4.3 27.06,11.23 l 0.01,-0.01 c 6.91,6.92 11.19,16.47 11.2,27.02 v 0.05 0.02 c 0,10.57 -4.29,20.14 -11.21,27.05 -6.92,6.91 -16.48,11.19 -27.04,11.2 h -0.05 -0.02 c -10.56,0 -20.13,-4.29 -27.05,-11.2 -6.9,-6.91 -11.19,-16.47 -11.2,-27.02 v -0.05 -0.02 c 0,-10.57 4.29,-20.14 11.21,-27.05 h 0.01 c 6.92,-6.92 16.47,-11.2 27,-11.22 z m 0.03,-5.87 h -0.08 c -12.16,0.02 -23.18,4.95 -31.15,12.93 v 0 c -7.99,8 -12.94,19.03 -12.94,31.21 v 0.02 0.05 c 0.01,12.16 4.95,23.17 12.92,31.15 7.99,7.99 19.03,12.94 31.2,12.95 h 0.02 0.05 c 12.17,-0.02 23.19,-4.95 31.17,-12.92 7.99,-7.99 12.95,-19.03 12.96,-31.21 v -0.02 -0.05 c -0.02,-12.16 -4.96,-23.18 -12.93,-31.16 v -0.01 c -7.98,-7.98 -19.03,-12.94 -31.22,-12.94"></path><path id="path18" style="fill:#254aa5;fill-opacity:1;fill-rule:evenodd;stroke:none" d="m 1794.97,1102.5 h 27.86 c 14.67,0 18.07,-13.04 18.07,-17.78 0,-6.08 -4.91,-13.13 -10.34,-14.99 l 14.96,-19.72 h -12.38 l -12.4,18.22 h -14.48 v -18.22 h -11.29 z m 27,-24.24 c 3.03,0 8.55,0.96 8.55,6.41 0,4.88 -1.19,7.22 -7.69,7.22 h -16.57 v -13.63 h 15.71"></path><path id="path20" style="fill:#254aa5;fill-opacity:1;fill-rule:evenodd;stroke:none" d="m 396.973,1045 -78.227,-82.633 -51.668,35.418 c 0,0 16.992,16.225 1.492,28.035 -12.09,9.22 -46.015,-10.32 -44.547,-48.703 1.727,-44.265 29.071,-69.34 59.293,-69.34 28.063,0 35.43,22.629 35.43,22.629 h 62.867 v -52.164 l 88.395,233.178 h 101.09 l 81.175,-209.58 c 0,0 5.899,-11.047 11.801,-14.008 0,0 0.34,137.478 0.34,141.338 0,3.85 -0.508,8.1 -2.918,10.86 -3.961,4.56 -10.703,6.45 -10.703,6.45 v 64.94 c 0,0 93.68,0 141.668,0 73.48,0 92.328,-19.93 113.641,-58.3 29.414,39.6 69.91,65.68 127.648,65.68 59.42,0 101.46,-21.9 125.46,-58.29 33.54,40.08 87.5,58.67 136.88,58.67 60.7,0 111.38,-29.42 137.61,-74.91 v 67.15 h 136.51 l 14.38,-36.51 10.72,36.51 h 140.93 v -63.45 c 0,0 -8.12,-2.23 -10.37,-5.88 -2.19,-3.62 -1.81,-15.16 -1.81,-15.16 l 19.66,-125.414 c 0.83,-4.082 2.28,-8.34 5.8,-11.461 4.07,-3.645 9.59,-2.961 9.59,-2.961 v -72.305 h -141.68 v 54.606 h -81.16 v -54.758 h -133.2 v 35.593 c 0,0 -48.68,-42.82 -111.41,-42.82 -80.29,0 -133.95,59.024 -133.95,59.024 v -51.645 c 0,0 -5.88,0 -94.42,0 -84.06,0 -156.212,46.004 -176.372,129.875 -9.555,-9.133 -51.684,-39.219 -102.203,-50.559 -3.93,-0.878 -5.895,-2.347 -5.895,-6.613 0,-7.769 16.602,-10.543 16.602,-10.543 v -62.16 c 0,0 -436.828,0 -517.992,0 -95.922,0 -172.985,65.668 -172.985,149.051 0,83.38 60.082,154.23 159.692,154.23 95.195,0 132.836,-73.07 132.836,-73.07"></path><path id="path22" style="fill:#fbc707;fill-opacity:1;fill-rule:evenodd;stroke:none" d="m 359.695,1043.71 -41.679,-43.7 c 0,0 -2.207,-1.119 -4.055,-1.119 -1.852,0 -4.438,1.859 -4.438,1.859 l -5.16,4.4 c 0,0 -1.48,0.37 -1.48,1.86 0,1.46 4.055,5.17 4.055,12.17 0,7.02 -1.469,36.16 -46.477,36.16 -45.004,0 -64.934,-42.05 -64.934,-76.742 0,-34.676 21.387,-98.141 91.516,-98.141 40.773,0 49.414,22.887 49.414,22.887 h 14.02 v -59.778 h -76.735 c -91.496,0 -142.414,71.586 -142.414,123.231 0,79.193 68.863,123.133 131.34,123.133 60.512,0 97.027,-46.22 97.027,-46.22"></path><path id="path24" style="fill:#fbc707;fill-opacity:1;fill-rule:evenodd;stroke:none" d="m 488.844,1083.37 h 63.086 l 76.746,-200.706 c 2.199,-5.516 5.89,-10.707 9.578,-15.113 3.676,-4.434 12.539,-7.403 12.539,-7.403 v -17.32 h -92.586 v 17.707 c 0,0 5.883,-0.754 8.848,4.43 2.949,5.16 2.949,9.215 0.742,14.383 -2.211,5.168 -17.746,46.109 -17.746,46.109 h -75.606 c 0,0 -15.488,-41.316 -16.98,-45 -1.477,-3.68 -1.477,-9.602 0,-13.269 2.461,-6.137 11.082,-7.04 11.082,-7.04 v -17.32 h -74.172 v 17.32 c 0,0 6.746,2.325 11.809,7.403 5.539,5.523 7.367,11.445 7.367,11.445 z m -1.86,-120.272 h 48.719 l -25.086,70.092 z"></path><path id="path26" style="fill:#fbc707;fill-opacity:1;fill-rule:evenodd;stroke:none" d="m 680.309,1083.37 c 0,0 74.527,0 118.062,0 43.539,0 87.067,-15.48 87.067,-65.65 0,-50.181 -31.731,-67.9 -59.028,-80.45 -31.512,-14.481 -73.047,-25.832 -73.047,-25.832 v -38.364 c 0,0 0.367,-2.586 4.059,-6.992 3.699,-4.434 7.754,-5.547 7.754,-5.547 v -17.707 l -85.606,0.008 v 17.312 c 0,0 5.16,1.118 8.871,4.817 3.68,3.691 4.43,8.109 4.43,8.109 v 173.406 c 0,0 0.344,7.4 -2.594,10.33 -2.953,2.98 -9.968,7.02 -9.968,7.02 v 19.54 z m 73.785,-36.15 V 944.664 c 0,0 69.355,28.766 69.355,69.346 0,50.18 -69.355,33.21 -69.355,33.21"></path><path id="path28" style="fill:#fbc707;fill-opacity:1;fill-rule:evenodd;stroke:none" d="m 1141.13,1043.29 -41.7,-43.708 c 0,0 -2.21,-1.102 -4.05,-1.102 -1.85,0 -4.43,1.85 -4.43,1.85 l -5.17,4.42 c 0,0 -1.48,0.36 -1.48,1.82 0,1.49 4.06,5.2 4.06,12.18 0,7.03 -1.45,36.17 -46.47,36.17 -45.023,0 -64.949,-42.05 -64.949,-76.736 0,-34.664 21.395,-98.141 91.509,-98.141 40.79,0 49.43,22.879 49.43,22.879 h 14.03 v -59.766 h -76.75 c -91.488,0 -142.414,71.574 -142.414,123.219 0,79.195 68.859,123.145 131.354,123.145 60.49,0 97.03,-46.23 97.03,-46.23"></path><path id="path30" style="fill:#fbc707;fill-opacity:1;fill-rule:evenodd;stroke:none" d="m 1290.56,835.906 c -79.71,0 -136.98,58.199 -136.98,129.024 0,70.87 58.75,125.76 136.98,125.76 78.19,0 136.96,-54.89 136.96,-125.76 0,-70.825 -57.3,-129.024 -136.96,-129.024 z M 1219.7,963.84 c 0,-70.84 36.16,-88.547 70.86,-88.547 34.65,0 71.57,22.141 71.57,88.547 0,66.4 -41.33,88.54 -71.57,88.54 -30.27,0 -70.86,-17.7 -70.86,-88.54"></path><path id="path32" style="fill:#fbc707;fill-opacity:1;fill-rule:evenodd;stroke:none" d="m 1463.19,1083.22 h 87.83 l 31.73,-97.986 33.93,98.136 h 91.86 V 1069 c 0,0 -6.11,-2.59 -8.84,-5.91 -3.31,-4.07 -3.31,-7.01 -2.58,-12.93 0.73,-5.89 24.34,-166.019 25.09,-171.918 0.74,-5.91 1.47,-9.226 2.95,-13.277 1.47,-4.039 8.49,-7.367 8.49,-7.367 v -14.887 h -88.19 v 15.969 c 0,0 7.75,1.101 10.34,4.816 2.59,3.692 3.67,5.899 2.95,11.797 -0.74,5.898 -21.76,140.207 -21.76,140.207 l -38.38,-118.809 h -46.47 l -38.01,111.439 -19.18,-131.353 c 0,0 -0.75,-7.886 2.21,-12.187 4.05,-5.91 11.45,-5.91 11.45,-5.91 v -15.852 h -76.4 v 16.953 c 0,0 6.09,0.946 10.51,6.114 4.43,5.148 5.17,11.808 5.17,11.808 l 27.87,173.207 c 0,0 1.66,6.48 -0.19,9.41 -1.94,3.11 -12.38,5.72 -12.38,5.72 v 17.18"></path></g></g></svg>