<svg width="171" height="87" viewBox="0 0 171 87" fill="none" xmlns="http://www.w3.org/2000/svg">
<g clip-path="url(#clip0_57_245)">
<path d="M30.3434 41.0135C28.597 39.4353 26.2685 38.6341 23.3579 38.6341C21.9026 38.6341 20.4957 38.9012 19.0889 39.4353C17.7064 39.9452 16.4451 40.7465 15.2808 41.8391L15.8387 39.1197H5.36042L0 66.0463H11.1089L13.7043 53.105C14.4077 49.7058 16.057 47.9819 18.6766 47.9819C20.5443 47.9819 21.4902 48.9531 21.4902 50.8955C21.4902 51.1869 21.4174 51.721 21.2962 52.5223L18.5796 66.0463H29.6885L32.6477 51.1869C32.866 50.0457 32.9872 48.9046 32.9872 47.7877C32.9872 44.8498 32.114 42.5675 30.3434 41.0135Z" fill="#1FFF0F"/>
<path d="M60.6626 40.188C59.6196 39.7024 58.5281 39.3382 57.3153 39.0711C57.7034 39.5082 58.1885 39.8967 58.6979 40.188C59.7166 40.7707 60.7596 41.0621 61.8511 41.0621C61.9724 41.0621 62.0936 41.0621 62.2149 41.0378C61.7298 40.7222 61.1962 40.4551 60.6626 40.188ZM65.7319 44.5342C65.1256 43.5872 64.4222 42.7617 63.5732 42.0576C63.0153 42.2033 62.4575 42.2761 61.8511 42.2761C60.5656 42.2761 59.3043 41.9119 58.1158 41.2321C57.0728 40.6251 56.2239 39.8238 55.5447 38.7798C54.72 38.6827 53.8468 38.6341 52.9494 38.6341C49.7234 38.6341 46.8613 39.3139 44.3145 40.6493C41.7677 42.009 39.7788 43.8543 38.3477 46.1852C36.8924 48.5404 36.189 51.1626 36.189 54.1005C36.189 56.5771 36.7711 58.7623 37.9596 60.6318C39.1724 62.5014 40.8702 63.9582 43.0532 64.978C45.2605 66.022 47.8315 66.5319 50.7664 66.5319C52.149 66.5319 53.483 66.4105 54.7443 66.1434C55.2051 65.7064 55.6902 65.3179 56.2239 65.0022C57.6549 64.1282 59.2073 63.6668 60.8566 63.6426C62.7243 62.4286 64.2281 60.8746 65.3681 58.9808C66.8234 56.6499 67.5268 54.0034 67.5268 51.0898C67.5268 48.5889 66.9447 46.4037 65.7319 44.5342ZM54.9383 56.1157C54.0166 57.2326 52.8524 57.7668 51.4213 57.7668C50.16 57.7668 49.1898 57.4026 48.4864 56.6256C47.783 55.8487 47.4192 54.8289 47.4192 53.5421C47.4192 51.6725 47.88 50.1914 48.7775 49.0745C49.6749 47.9576 50.8634 47.3992 52.2945 47.3992C53.5315 47.3992 54.526 47.7877 55.2294 48.5646C55.9328 49.3173 56.2724 50.3371 56.2724 51.6239C56.2724 53.4935 55.8358 54.9989 54.9383 56.1157Z" fill="#1FFF0F"/>
<path d="M56.9758 1.29135L48.3895 17.2191H41.889L40.7248 9.83794L36.9167 17.2191H30.4648L27.918 1.29135H33.909L35.049 9.61942L39.5605 1.29135H45.212L46.3763 9.69226L50.8635 1.29135H56.9758Z" fill="white"/>
<path d="M72.9116 10.7849H61.7542C61.8997 11.4404 62.215 11.926 62.7244 12.2174C63.2337 12.5087 63.9371 12.6544 64.8103 12.6544C66.1201 12.6544 67.2844 12.2902 68.2788 11.5375L71.0197 15.5195C69.0793 16.8306 66.7508 17.5104 64.0584 17.5104C62.3363 17.5104 60.8082 17.2191 59.4742 16.6121C58.1401 16.0051 57.1214 15.1553 56.3937 14.0384C55.6661 12.9215 55.3022 11.6347 55.3022 10.1293C55.3022 8.38113 55.7146 6.80292 56.5393 5.41896C57.3639 4.035 58.5282 2.94239 60.0078 2.16543C61.5116 1.38847 63.2095 0.975708 65.1499 0.975708C66.8235 0.975708 68.2546 1.26707 69.4916 1.87407C70.7286 2.48107 71.6503 3.28231 72.281 4.35064C72.9116 5.41896 73.2512 6.63296 73.2512 8.01693C73.2512 8.89101 73.1299 9.81365 72.9116 10.7849ZM63.0882 6.05024C62.6031 6.43872 62.2635 6.9486 62.021 7.60417H67.2359C67.2359 6.9486 67.0176 6.41444 66.6052 6.05024C66.1686 5.66176 65.6108 5.4918 64.8831 5.4918C64.1554 5.4918 63.5733 5.68604 63.0882 6.05024Z" fill="white"/>
<path d="M68.6669 24.8187L68.3031 26.5183C67.4299 25.1829 65.9018 24.5274 63.7674 24.5274C62.2635 24.5274 60.8567 24.9401 59.5469 25.7171C58.2614 26.5183 57.2184 27.6109 56.4422 29.0192C55.6903 30.4274 55.3022 31.9814 55.3022 33.681C55.3022 35.1863 55.6176 36.5217 56.2482 37.6386C56.5635 38.1728 56.9031 38.6584 57.3154 39.0711C57.7035 39.5082 58.1886 39.8967 58.698 40.188C59.7167 40.7707 60.7597 41.0621 61.8512 41.0621C61.9725 41.0621 62.0937 41.0621 62.215 41.0378H62.2393C63.7431 40.965 65.0529 40.3823 66.1686 39.3139L65.8776 40.7707H72.0627L75.2401 24.8187H68.6669ZM66.4112 34.8707C65.8776 35.5262 65.1742 35.8662 64.3252 35.8662C63.5976 35.8662 63.0154 35.6476 62.6031 35.1863C62.1665 34.725 61.9725 34.118 61.9725 33.3653C61.9725 32.2484 62.2393 31.3744 62.7729 30.7188C63.3065 30.0389 63.9857 29.7233 64.8588 29.7233C65.5865 29.7233 66.1686 29.9418 66.581 30.4032C66.9933 30.8645 67.2116 31.4715 67.2116 32.2242C67.2116 33.341 66.9448 34.2151 66.4112 34.8707Z" fill="white"/>
<path d="M88.7262 28.8978L88.4352 30.3546C88.4352 30.3546 88.2411 30.3303 88.1441 30.306C87.756 30.2575 87.3679 30.2332 87.0041 30.2332C85.8641 30.2332 84.9909 30.5003 84.336 30.9859C83.6811 31.4715 83.2445 32.2727 83.002 33.3896L81.5224 40.7707H74.9492L78.1267 24.8187H84.3118L83.9965 26.4455C85.3062 25.1829 87.1739 24.5274 89.5994 24.5274L88.7262 28.8978Z" fill="white"/>
<path d="M89.0171 31.69L89.3809 31.7386L89.6235 30.5974L89.8903 29.262C89.4537 30.0147 89.1626 30.8159 89.0171 31.69Z" fill="#131314"/>
<path d="M106.772 31.5443C106.772 30.1846 106.432 28.9463 105.802 27.9023C105.171 26.834 104.225 26.0085 103.012 25.4257C101.775 24.8187 100.344 24.5274 98.6707 24.5274C96.7303 24.5274 95.0082 24.9159 93.5286 25.7171C92.0248 26.4941 90.8605 27.5867 90.0358 28.9706C89.9873 29.0677 89.9146 29.1649 89.8903 29.262C89.4537 30.0147 89.1627 30.8159 89.0171 31.69C88.8716 32.3213 88.7988 33.0011 88.7988 33.681C88.7988 35.1863 89.1627 36.4732 89.8903 37.5901C90.618 38.6827 91.661 39.5567 92.9707 40.1395C94.3048 40.7465 95.8329 41.0621 97.555 41.0621C100.272 41.0621 102.576 40.3823 104.516 39.0711L101.775 35.0892C100.805 35.8176 99.641 36.1818 98.3312 36.1818C97.4337 36.1818 96.7303 36.0361 96.2209 35.7448C95.7116 35.4534 95.3963 34.9921 95.275 34.3122H106.408C106.651 33.341 106.772 32.4184 106.772 31.5443ZM95.5176 31.1558C95.7601 30.476 96.1239 29.9661 96.5848 29.5776C97.0699 29.2134 97.652 29.0192 98.3797 29.0192C99.1073 29.0192 99.6652 29.2134 100.102 29.5776C100.538 29.9661 100.732 30.476 100.732 31.1558H95.5176Z" fill="white"/>
<path d="M88.144 30.306C88.144 30.306 88.3381 30.3303 88.4351 30.3546L88.7262 28.8978C88.4594 29.3348 88.2653 29.8204 88.144 30.306Z" fill="white"/>
<path d="M65.9745 65.1237L65.635 66.8233C64.7375 65.4879 63.2337 64.8323 61.0992 64.8323C59.5711 64.8323 58.1643 65.2208 56.8788 66.022C55.569 66.8233 54.526 67.9159 53.7741 69.3241C52.9979 70.7081 52.6099 72.262 52.6099 73.9859C52.6099 75.4913 52.9252 76.8024 53.5558 77.9193C54.1865 79.0361 55.0111 79.8859 56.0299 80.4687C57.0243 81.0514 58.0916 81.3428 59.1588 81.3428C60.8324 81.3428 62.2635 80.76 63.4762 79.5946L63.1852 81.0514H69.3945L72.5477 65.1237H65.9745ZM63.7188 75.1756C63.1852 75.8312 62.506 76.1711 61.6328 76.1711C60.9052 76.1711 60.3231 75.9283 59.9107 75.4913C59.4984 75.0299 59.2801 74.4229 59.2801 73.6702C59.2801 72.5534 59.5469 71.6793 60.0805 70.9994C60.6141 70.3439 61.3175 70.0282 62.1665 70.0282C62.8941 70.0282 63.4762 70.2468 63.8886 70.7081C64.3252 71.1694 64.5192 71.7764 64.5192 72.5291C64.5192 73.6217 64.2524 74.52 63.7188 75.1756Z" fill="white"/>
<path d="M87.004 65.1237L86.5189 67.5517C85.7912 65.7307 84.1661 64.8323 81.6678 64.8323C80.0912 64.8323 78.6601 65.2208 77.3503 65.9735C76.0406 66.7261 74.9976 67.7459 74.2457 69.0328C73.4937 70.3439 73.1057 71.7521 73.1057 73.3061C73.1057 74.69 73.421 75.904 74.0759 76.9481C74.7065 77.9921 75.5554 78.7933 76.5984 79.3518C77.6414 79.9102 78.7814 80.1773 79.9699 80.1773C81.5708 80.1773 82.9048 79.6917 83.9963 78.6719L83.8993 79.0847C83.7052 80.0802 83.3171 80.8572 82.7108 81.3428C82.0801 81.8526 81.1584 82.1197 79.9457 82.1197C78.9997 82.1197 78.0537 81.974 77.1078 81.6827C76.1618 81.4156 75.3857 81.0271 74.7308 80.5415L71.9414 85.0333C73.9546 86.3444 76.5742 87 79.8244 87C82.8078 87 85.2091 86.2716 87.0282 84.8148C88.8716 83.3337 90.0844 81.0271 90.715 77.8464L93.2618 65.1237H87.004ZM84.1176 74.2044C83.6082 74.7629 82.9291 75.0299 82.0801 75.0299C81.3525 75.0299 80.7946 74.8357 80.358 74.4715C79.9457 74.083 79.7516 73.5974 79.7516 72.9904C79.7516 72.092 79.9942 71.3879 80.5278 70.8295C81.0614 70.2953 81.7406 70.0282 82.5895 70.0282C83.3172 70.0282 83.875 70.1982 84.2874 70.5867C84.6997 70.9752 84.8937 71.4608 84.8937 72.0678C84.8937 72.9418 84.6269 73.6702 84.1176 74.2044Z" fill="white"/>
<path d="M111.648 71.8492C111.648 70.4653 111.332 69.2513 110.677 68.2072C110.047 67.1389 109.101 66.3134 107.888 65.7307C106.675 65.1237 105.22 64.8323 103.546 64.8323C101.606 64.8323 99.8837 65.2208 98.4041 66.022C96.9003 66.799 95.736 67.8916 94.9113 69.2756C94.0867 70.6595 93.6743 72.2377 93.6743 73.9859C93.6743 75.467 94.0382 76.7781 94.7901 77.895C95.4935 78.9876 96.5364 79.8374 97.8705 80.4444C99.1803 81.0514 100.708 81.3428 102.455 81.3428C105.147 81.3428 107.451 80.6872 109.392 79.3761L106.675 75.3699C105.681 76.1225 104.516 76.4867 103.207 76.4867C102.309 76.4867 101.606 76.3411 101.096 76.0497C100.611 75.7583 100.272 75.2727 100.15 74.6172H111.284C111.526 73.646 111.648 72.7233 111.648 71.8492ZM100.417 71.4365C100.636 70.7809 100.999 70.271 101.46 69.8826C101.945 69.5184 102.552 69.3241 103.255 69.3241C103.959 69.3241 104.541 69.5184 104.977 69.8826C105.414 70.271 105.608 70.7809 105.608 71.4365H100.417Z" fill="white"/>
<path d="M131.342 70.2468C131.342 70.9023 131.27 71.5822 131.148 72.262L129.402 81.0514H122.829L124.43 73.039C124.502 72.5776 124.527 72.262 124.527 72.092C124.527 70.9509 123.993 70.3682 122.877 70.3682C121.325 70.3682 120.355 71.3879 119.942 73.4032L118.39 81.0514H111.817L114.994 65.1237H121.179L120.864 66.7261C121.543 66.0949 122.295 65.6093 123.12 65.2936C123.945 64.978 124.793 64.8323 125.642 64.8323C127.365 64.8323 128.747 65.2936 129.79 66.2405C130.833 67.1632 131.342 68.4986 131.342 70.2468Z" fill="white"/>
<path d="M140.778 70.9994C140.196 71.6793 139.905 72.5291 139.905 73.5731C139.905 74.3501 140.123 74.9814 140.559 75.4427C140.996 75.9283 141.602 76.1711 142.403 76.1711C143.082 76.1711 143.64 76.0011 144.101 75.6855C144.586 75.3699 145.022 74.8357 145.386 74.1316L150.189 76.9238C149.388 78.332 148.273 79.4246 146.842 80.2016C145.411 80.9785 143.785 81.3428 141.918 81.3428C140.196 81.3428 138.668 81.0514 137.358 80.4444C136.048 79.8131 135.029 78.9633 134.326 77.8464C133.598 76.7538 133.234 75.467 133.234 73.9859C133.234 72.262 133.671 70.6838 134.52 69.2998C135.369 67.9159 136.557 66.8233 138.11 66.022C139.638 65.2208 141.36 64.8323 143.276 64.8323C145.192 64.8323 146.817 65.2451 148.224 66.0949C149.51 66.8475 150.431 67.8673 151.014 69.1299C151.086 69.2513 151.135 69.3727 151.183 69.4941L151.086 69.5426L145.58 72.0678C145.071 70.7081 144.198 70.0282 142.961 70.0282C142.063 70.0282 141.336 70.3439 140.778 70.9994Z" fill="white"/>
<path d="M152.299 69.057C152.299 69.057 152.226 68.8628 152.178 68.7899L152.493 70.2225L152.711 70.1253L152.299 69.057Z" fill="#131314"/>
<path d="M171 65.1237L161.201 81.3913C160.328 82.8481 159.479 83.965 158.654 84.7662C157.805 85.5918 156.932 86.1502 155.986 86.4901C155.04 86.83 153.948 87 152.687 87C151.814 87 150.941 86.8786 150.068 86.6358C149.219 86.3687 148.515 86.0531 148.006 85.6403L150.844 81.0514C151.596 81.6341 152.372 81.9012 153.245 81.9012C153.876 81.9012 154.409 81.6827 154.87 81.2456L152.493 70.2225L152.178 68.7899L151.377 65.1237H157.926L159.551 73.6945L164.548 65.1237H171Z" fill="white"/>
<path d="M151.014 69.1299L151.086 69.5426L151.183 69.4941C151.183 69.4941 151.086 69.2513 151.014 69.1299Z" fill="#131314"/>
</g>
<defs>
<clipPath id="clip0_57_245">
<rect width="171" height="87" fill="white"/>
</clipPath>
</defs>
</svg>
