<svg xmlns="http://www.w3.org/2000/svg" xmlns:xlink="http://www.w3.org/1999/xlink" width="540" height="253" viewBox="0 0 540 253"><defs><clipPath id="a"><rect width="453.5" height="141.7"/></clipPath><clipPath id="ai"><rect width="453.5" height="141.7" transform="translate(-68.4 -32.7)"/></clipPath><clipPath id="ay"><rect width="453.5" height="141.7" transform="translate(-202.3 -62.9)"/></clipPath></defs><g transform="translate(-690 42)"><rect width="540" height="253" transform="translate(690 -42)" fill="#fff" opacity="0.726"/><g transform="translate(733.25 26.65)"><g clip-path="url(#a)"><path d="M38.3,109.3h0a5.638,5.638,0,0,1,5.8-5.6,5.531,5.531,0,0,1,5.7,5.5h0a5.557,5.557,0,0,1-5.8,5.5,5.451,5.451,0,0,1-5.7-5.4m8.4,0h0a2.7,2.7,0,1,0-5.4-.1h0a2.8,2.8,0,0,0,2.7,2.9,2.711,2.711,0,0,0,2.7-2.8" fill="#1d1d1b"/></g><g clip-path="url(#a)"><path d="M52.5,103.9H61v2.6H55.4v1.8h5.1v2.4H55.4v3.9H52.5Z" fill="#1d1d1b"/></g><g clip-path="url(#a)"><path d="M63.6,103.9h8.5v2.6H66.5v1.8h5.1v2.4H66.5v3.9H63.6Z" fill="#1d1d1b"/></g><g clip-path="url(#a)"><path d="M74.7,103.9h8.6v2.5H77.6V108h5.1v2.4H77.6V112h5.7v2.6H74.7Z" fill="#1d1d1b"/></g><g clip-path="url(#a)"><path d="M86.1,103.9h2.7l4.4,5.6v-5.6h3v10.7H93.6L89,108.7v5.9H86.1Z" fill="#1d1d1b"/></g><g clip-path="url(#a)"><path d="M99.3,103.9h5.5a4.03,4.03,0,0,1,2.9.9,2.413,2.413,0,0,1,.7,1.7h0a2.545,2.545,0,0,1-1.6,2.4,2.578,2.578,0,0,1,2.1,2.6h0c0,1.8-1.5,2.9-4,2.9H99.4V103.9Zm6.1,3.3c0-.6-.5-.9-1.3-.9h-1.9v1.9h1.9c.8-.1,1.3-.4,1.3-1Zm-1,3h-2.3v2h2.3c.9,0,1.4-.3,1.4-1h0c0-.6-.4-1-1.4-1" fill="#1d1d1b"/></g><g clip-path="url(#a)"><path d="M111.3,109.9v-6h3v5.9c0,1.5.8,2.3,2,2.3s2-.7,2-2.2v-6h3v5.9c0,3.4-2,4.9-5,4.9-3.1.1-5-1.5-5-4.8" fill="#1d1d1b"/></g><g clip-path="url(#a)"><path d="M124.1,103.9h5a4.883,4.883,0,0,1,3.5,1.1,3.327,3.327,0,0,1,.9,2.5h0a3.51,3.51,0,0,1-2.2,3.3l2.5,3.7h-3.4l-2.1-3.2H127v3.2h-3V103.9Zm5,5.1c1,0,1.6-.5,1.6-1.3h0c0-.9-.6-1.3-1.6-1.3h-1.9V109h1.9Z" fill="#1d1d1b"/></g><g clip-path="url(#a)"><path d="M136,109.3h0a5.552,5.552,0,0,1,5.7-5.6,6.386,6.386,0,0,1,4.3,1.5l-1.7,2.1a4,4,0,0,0-2.6-1,2.8,2.8,0,0,0-2.7,2.9h0a2.865,2.865,0,0,0,2.9,3,3.867,3.867,0,0,0,1.7-.4v-1.3h-2.1v-2.2h4.9v4.8a7.328,7.328,0,0,1-4.6,1.7,5.441,5.441,0,0,1-5.8-5.5" fill="#1d1d1b"/></g><g clip-path="url(#a)"><path d="M149.3,103.9h8.5v2.5h-5.6V108h5.1v2.4h-5.1V112h5.7v2.6h-8.6Z" fill="#1d1d1b"/></g><g clip-path="url(#a)"><path d="M160.7,103.9h5a4.883,4.883,0,0,1,3.5,1.1,3.327,3.327,0,0,1,.9,2.5h0a3.51,3.51,0,0,1-2.2,3.3l2.5,3.7H167l-2.1-3.2h-1.3v3.2h-3V103.9Zm4.9,5.1c1,0,1.6-.5,1.6-1.3h0c0-.9-.6-1.3-1.6-1.3h-1.9V109h1.9Z" fill="#1d1d1b"/></g><g clip-path="url(#a)"><path d="M178.3,103.9h5.5a4.03,4.03,0,0,1,2.9.9,2.413,2.413,0,0,1,.7,1.7h0a2.545,2.545,0,0,1-1.6,2.4,2.578,2.578,0,0,1,2.1,2.6h0c0,1.8-1.5,2.9-4,2.9h-5.5V103.9Zm6.1,3.3c0-.6-.5-.9-1.3-.9h-1.9v1.9h1.9c.8-.1,1.3-.4,1.3-1Zm-1,3h-2.3v2h2.3c.9,0,1.4-.3,1.4-1h0c0-.6-.4-1-1.4-1" fill="#1d1d1b"/></g><g clip-path="url(#a)"><path d="M194.1,103.8h2.8l4.5,10.7h-3.2l-.8-1.9h-4.1l-.8,1.9h-3.1Zm2.5,6.5-1.2-3-1.2,3Z" fill="#1d1d1b"/></g><g clip-path="url(#a)"><path d="M203.2,109.9v-6h3v5.9c0,1.5.8,2.3,2,2.3s2-.7,2-2.2v-6h3v5.9c0,3.4-2,4.9-5,4.9-3.1.1-5-1.5-5-4.8" fill="#1d1d1b"/></g><g clip-path="url(#a)"><path d="M215.7,109.3h0a5.552,5.552,0,0,1,5.7-5.6,6.386,6.386,0,0,1,4.3,1.5l-1.7,2.1a4,4,0,0,0-2.6-1,2.8,2.8,0,0,0-2.7,2.9h0a2.865,2.865,0,0,0,2.9,3,3.867,3.867,0,0,0,1.7-.4v-1.3h-2.1v-2.2h4.9v4.8a7.328,7.328,0,0,1-4.6,1.7,5.5,5.5,0,0,1-5.8-5.5" fill="#1d1d1b"/></g><g clip-path="url(#a)"><path d="M229,103.9h8.6v2.5h-5.7V108H237v2.4h-5.1V112h5.7v2.6H229Z" fill="#1d1d1b"/></g><g clip-path="url(#a)"><path d="M240.4,103.9h2.7l4.4,5.6v-5.6h2.9v10.7h-2.5l-4.6-5.9v5.9h-2.9Z" fill="#1d1d1b"/></g><g clip-path="url(#a)"><path d="M253.2,109.3h0a5.638,5.638,0,0,1,5.8-5.6,5.531,5.531,0,0,1,5.7,5.5h0a5.557,5.557,0,0,1-5.8,5.5,5.392,5.392,0,0,1-5.7-5.4m8.5,0h0a2.7,2.7,0,1,0-5.4-.1h0a2.8,2.8,0,0,0,2.7,2.9,2.711,2.711,0,0,0,2.7-2.8" fill="#1d1d1b"/></g><g clip-path="url(#a)"><path d="M266.6,113l1.6-2a5.821,5.821,0,0,0,3.5,1.3c.8,0,1.2-.3,1.2-.7h0c0-.5-.4-.7-1.8-1-2.3-.5-4-1.2-4-3.3h0c0-2,1.6-3.4,4.1-3.4a7.016,7.016,0,0,1,4.4,1.4l-1.5,2.1a5.131,5.131,0,0,0-3-1c-.7,0-1.1.3-1.1.7h0c0,.5.4.7,1.9,1,2.4.5,4,1.3,4,3.3h0c0,2.2-1.7,3.5-4.3,3.5a9.232,9.232,0,0,1-5-1.9" fill="#1d1d1b"/></g><g clip-path="url(#a)"><path d="M277.6,113l1.6-2a5.821,5.821,0,0,0,3.5,1.3c.8,0,1.2-.3,1.2-.7h0c0-.5-.4-.7-1.8-1-2.3-.5-4-1.2-4-3.3h0c0-2,1.6-3.4,4.1-3.4a7.016,7.016,0,0,1,4.4,1.4l-1.5,2.1a5.131,5.131,0,0,0-3-1c-.7,0-1.1.3-1.1.7h0c0,.5.4.7,1.9,1,2.4.5,4,1.3,4,3.3h0c0,2.2-1.7,3.5-4.3,3.5a9.232,9.232,0,0,1-5-1.9" fill="#1d1d1b"/></g><g clip-path="url(#a)"><path d="M289.5,103.9h8.6v2.5h-5.7V108h5.1v2.4h-5.1V112h5.8v2.6h-8.7Z" fill="#1d1d1b"/></g><g clip-path="url(#a)"><path d="M300.9,103.9h2.8l4.3,5.6v-5.6h3v10.7h-2.6l-4.6-5.9v5.9h-2.9Z" fill="#1d1d1b"/></g><g clip-path="url(#a)"><path d="M313.3,113l1.6-2a5.821,5.821,0,0,0,3.5,1.3c.8,0,1.2-.3,1.2-.7h0c0-.5-.4-.7-1.8-1-2.3-.5-4-1.2-4-3.3h0c0-2,1.6-3.4,4.1-3.4a7.016,7.016,0,0,1,4.4,1.4l-1.5,2.1a5.131,5.131,0,0,0-3-1c-.7,0-1.1.3-1.1.7h0c0,.5.4.7,1.9,1,2.4.5,4,1.3,4,3.3h0c0,2.2-1.7,3.5-4.3,3.5a9.232,9.232,0,0,1-5-1.9" fill="#1d1d1b"/></g><g clip-path="url(#a)"><path d="M324.9,109.3h0a5.528,5.528,0,0,1,5.6-5.6,5.1,5.1,0,0,1,4.5,2.2l-2.2,1.7a2.935,2.935,0,0,0-2.3-1.2,2.614,2.614,0,0,0-2.5,2.8h0a2.557,2.557,0,0,0,2.5,2.8,2.813,2.813,0,0,0,2.4-1.3l2.2,1.6a5.371,5.371,0,0,1-4.7,2.4,5.28,5.28,0,0,1-5.5-5.4" fill="#1d1d1b"/></g><g clip-path="url(#a)"><path d="M337.6,103.9h2.9v4h3.8v-4h3v10.7h-3v-4.1h-3.8v4.1h-2.9Z" fill="#1d1d1b"/></g><g clip-path="url(#a)"><path d="M354.1,103.8h2.8l4.5,10.7h-3.2l-.8-1.9h-4.1l-.8,1.9h-3.1Zm2.6,6.5-1.2-3-1.2,3Z" fill="#1d1d1b"/></g><g clip-path="url(#a)"><path d="M363.7,103.9h8.6v2.6h-5.6v1.8h5v2.4h-5v3.9h-3Z" fill="#1d1d1b"/></g><g clip-path="url(#a)"><path d="M377.4,106.5h-3.1v-2.6h9.3v2.6h-3.2v8.1h-3Z" fill="#1d1d1b"/></g><g clip-path="url(#a)"><path d="M391.6,103.9h8.5v2.5h-5.6V108h5.1v2.4h-5.1V112h5.7v2.6h-8.6Z" fill="#1d1d1b"/></g><g clip-path="url(#a)"><path d="M402.5,109.3h0a5.552,5.552,0,0,1,5.7-5.6,6.385,6.385,0,0,1,4.3,1.5l-1.7,2.1a4,4,0,0,0-2.6-1,2.8,2.8,0,0,0-2.7,2.9h0a2.865,2.865,0,0,0,2.9,3,3.867,3.867,0,0,0,1.7-.4v-1.3H408v-2.2h4.9v4.8a7.328,7.328,0,0,1-4.6,1.7,5.5,5.5,0,0,1-5.8-5.5" fill="#1d1d1b"/></g><g clip-path="url(#a)"><path d="M289,73.1h34.7V55.7H289Zm26-6.8H297.2V63.1H315Z" fill="#1d1d1b"/></g><g clip-path="url(#a)"><path d="M402.9,44.9l-93.1-18L269.2,55.7v.8H274V82l50.9,9.6L361,86.9V78.3l-36.1,4.3-43-6.9v-20l27.9-20.4,16,3.1V73.1H361V55.7H334.5V40.1l65.4,12.5,5.5,4.6V80.7l7.5-1V56.5h2.4v-.8ZM353,66.3H334.4V63.1H353Z" fill="#1d1d1b"/></g><g clip-path="url(#a)"><path d="M363.8,55.7V73.1h26.5v1.6l-26.5,3.2v8.5l34.6-4.5V55.7Zm26.5,10.6H372.2V63.1h18.1Z" fill="#1d1d1b"/></g><g clip-path="url(#a)"><path d="M38.3,32.7h7.2l2.4,11.1h.2L52.3,38h.2l4.2,5.8h.2l2.4-11.1h7.3L61.8,52.8H55.7l-3.3-5.3h-.1l-3.2,5.3H43Z" fill="#1d1d1b"/></g><g transform="translate(68.4 32.7)" clip-path="url(#ai)"><rect width="6.7" height="20.1" fill="#1d1d1b"/></g><g clip-path="url(#a)"><path d="M95.6,47.5v5.3H78.5V32.7h6.7V47.5Z" fill="#1d1d1b"/></g><g clip-path="url(#a)"><path d="M115.1,47.5v5.3H97.9V32.7h6.7V47.5Z" fill="#1d1d1b"/></g><g clip-path="url(#a)"><path d="M125.2,47l-1.1,1.4v4.4h-6.7V32.7h6.7v6.5h.2l4.9-6.5h7.5l-7.1,8.9,7.6,11.2h-7.9L125.4,47Z" fill="#1d1d1b"/></g><g clip-path="url(#a)"><path d="M136.8,42.7a10.4,10.4,0,1,1,10.4,10.4,10.371,10.371,0,0,1-10.4-10.4m14,0a3.7,3.7,0,1,0-7.4,0,3.7,3.7,0,1,0,7.4,0" fill="#1d1d1b"/></g><g clip-path="url(#a)"><path d="M160.2,32.7H167l4.5,6.4h.3l4.5-6.4h6.8V52.8h-6.8V42.3h-.1l-4.4,5.8h-.3l-4.4-5.8h-.2V52.8h-6.7Z" fill="#1d1d1b"/></g><g clip-path="url(#a)"><path d="M186.2,32.7H193l4.5,6.4h.3l4.5-6.4h6.8V52.8h-6.7V42.3h-.2l-4.4,5.8h-.3l-4.4-5.8h-.2V52.8h-6.7Z" fill="#1d1d1b"/></g><g clip-path="url(#a)"><path d="M219.2,38v2.1h11.1v5.3H219.2v2.1h11.1v5.3H212.5V32.7h17.8V38Z" fill="#1d1d1b"/></g><g clip-path="url(#a)"><path d="M233.4,32.7h6.7l8,10.4h.2V32.7H255V52.8h-6.7l-7.9-10.1h-.3V52.8h-6.7Z" fill="#1d1d1b"/></g><g clip-path="url(#a)"><path d="M39.4,77.9l9-9.3v-.2h-9V63.1H57.2v5.3l-9.4,9.2v.3h9.4v5.3H39.4Z" fill="#1d1d1b"/></g><g clip-path="url(#a)"><path d="M60.3,74.1v-11H67V74c0,2.5,1.3,3.8,3.4,3.8s3.3-1.3,3.3-3.8V63.1h6.7v11c0,6.8-4.8,9.3-10.1,9.3-5.3.1-10-2.5-10-9.3" fill="#1d1d1b"/></g><g clip-path="url(#a)"><path d="M105.6,63.1V83.2H98.9V75.8H90.8v7.4H84.1V63.1h6.7v7.4h8.1V63.1Z" fill="#1d1d1b"/></g><g clip-path="url(#a)"><path d="M122.8,81.1h-7.2l-.5,2h-7L114,63h10.6l5.9,20.1h-7Zm-1.4-5.3-2-7.4H119l-2,7.4Z" fill="#1d1d1b"/></g><g clip-path="url(#a)"><path d="M131.1,74.1v-11h6.7V74c0,2.5,1.3,3.8,3.4,3.8s3.3-1.3,3.3-3.8V63.1h6.7v11c0,6.8-4.8,9.3-10.1,9.3-5.4.1-10-2.5-10-9.3" fill="#1d1d1b"/></g><g clip-path="url(#a)"><path d="M154,77.9h10.5c.9,0,1.3-.4,1.3-1.1,0-.6-.4-1-1.4-1h-4.8a5.879,5.879,0,0,1-6.1-6.3c0-4.7,3.2-6.3,6.4-6.3h11.9v5.3H161.6c-.8,0-1.3.3-1.3,1s.5,1.1,1.3,1.1h4.5c3.8,0,6.4,2.3,6.4,6.3a6.306,6.306,0,0,1-6.6,6.4h-12Z" fill="#1d1d1b"/></g><g clip-path="url(#a)"><path d="M182.2,68.4v2.1h11v5.3h-11v2.1h11v5.3H175.5V63.1h17.7v5.3Z" fill="#1d1d1b"/></g><g transform="translate(202.3 62.9)" clip-path="url(#ay)"><rect width="52.6" height="6.1" fill="#1d1d1b"/></g></g><path d="M59.528-17.161H235.2V-39.685H59.528Z" transform="translate(630.472 228.161)" fill="#025577"/><path d="M130.394-17.161H317.578V-39.685H130.394Z" transform="translate(735.279 228.161)" fill="#abacaf"/><path d="M190.866-17.161H368.009V-39.685H190.866Z" transform="translate(861.991 228.161)" fill="#73160e"/></g></svg>