<svg width="155" height="57" viewBox="0 0 155 57" fill="none" xmlns="http://www.w3.org/2000/svg">
<path d="M73.7587 23.7374C74.8254 21.9231 76.197 20.5623 77.8733 19.6552C79.5496 18.748 81.5307 18.1432 83.6642 18.1432C86.2549 18.1432 88.3884 18.748 90.3695 20.1087C92.1982 21.4695 93.5698 23.1326 94.3317 25.4005H89.1504C88.6932 24.3422 87.9312 23.5862 87.0169 22.9814C86.1025 22.3766 85.0357 22.2254 83.8166 22.2254C82.4451 22.2254 81.3783 22.5278 80.3116 23.1326C79.2448 23.7374 78.4828 24.6445 77.8733 25.7029C77.2637 26.7613 76.9589 28.122 76.9589 29.6339C76.9589 31.1459 77.2637 32.3554 77.8733 33.565C78.4828 34.6233 79.2448 35.5305 80.3116 36.1353C81.3783 36.74 82.4451 37.0424 83.8166 37.0424C85.0357 37.0424 86.1025 36.74 87.0169 36.2865C87.9312 35.8329 88.6932 34.9257 89.1504 33.8674H94.3317C93.5698 36.1353 92.1982 37.9496 90.3695 39.1591C88.5408 40.3687 86.2549 41.1247 83.6642 41.1247C81.5307 41.1247 79.5496 40.6711 77.8733 39.6127C76.197 38.7056 74.8254 37.3448 73.7587 35.5305C72.6919 33.8674 72.2347 31.7506 72.2347 29.6339C72.2347 27.5172 72.6919 25.5517 73.7587 23.7374Z" fill="#024452"/>
<path d="M98.1415 27.2148C98.9035 25.8541 99.8179 24.7957 101.037 24.0398C102.256 23.2838 103.628 22.9814 105.152 22.9814C106.523 22.9814 107.59 23.2838 108.657 23.7374C109.723 24.191 110.638 24.7957 111.247 25.7029V23.1326H115.819V40.9735H111.247V38.4032C110.638 39.3103 109.876 39.9151 108.809 40.5199C107.742 41.1247 106.523 41.2758 105.304 41.2758C103.78 41.2758 102.409 40.8223 101.189 40.0663C99.9703 39.3103 98.9035 38.252 98.2939 36.74C97.532 35.3793 97.2272 33.7162 97.2272 31.9018C97.0748 30.0875 97.3796 28.5756 98.1415 27.2148ZM110.485 29.1804C110.028 28.4244 109.419 27.8196 108.809 27.366C108.047 26.9125 107.285 26.7613 106.371 26.7613C105.456 26.7613 104.694 26.9125 104.085 27.366C103.323 27.8196 102.866 28.4244 102.409 29.1804C101.951 29.9363 101.799 30.8435 101.799 31.9018C101.799 32.9602 101.951 33.8674 102.409 34.7745C102.866 35.5305 103.475 36.1353 104.085 36.5888C104.847 37.0424 105.609 37.1936 106.371 37.1936C107.285 37.1936 108.047 37.0424 108.809 36.5888C109.571 36.1353 110.181 35.5305 110.485 34.7745C110.943 34.0186 111.095 33.1114 111.095 31.9018C111.247 30.9947 110.943 29.9363 110.485 29.1804Z" fill="#024452"/>
<path d="M136.849 33.4138H123.744C123.896 34.7745 124.353 35.6817 125.115 36.4376C125.877 37.1936 126.944 37.496 128.011 37.496C129.687 37.496 130.906 36.74 131.668 35.3793H136.545C136.087 37.0424 135.021 38.5544 133.497 39.6127C131.973 40.6711 130.296 41.2758 128.011 41.2758C126.334 41.2758 124.658 40.8223 123.286 40.0663C121.915 39.3103 120.848 38.252 120.086 36.8912C119.324 35.5305 118.867 33.8674 118.867 32.053C118.867 30.2387 119.172 28.5756 119.934 27.2148C120.696 25.8541 121.762 24.7957 123.134 24.0398C124.505 23.2838 126.029 22.9814 127.858 22.9814C129.534 22.9814 131.058 23.2838 132.43 24.0398C133.801 24.7957 134.868 25.8541 135.63 27.2148C136.392 28.5756 136.697 30.0875 136.697 31.9018C136.849 32.3554 136.849 32.809 136.849 33.4138ZM132.278 30.3899C132.278 29.1804 131.82 28.2732 131.058 27.6684C130.296 26.9124 129.23 26.6101 128.011 26.6101C126.944 26.6101 125.877 26.9124 125.115 27.6684C124.353 28.2732 123.896 29.3315 123.744 30.5411H132.278V30.3899Z" fill="#024452"/>
<path d="M144.774 17.0849V40.8223H140.202V17.0849H144.774Z" fill="#024452"/>
<path d="M149.498 20.2599C149.041 19.8063 148.736 19.2016 148.736 18.4456C148.736 17.6896 149.041 17.0849 149.498 16.6313C149.955 16.1777 150.717 15.8753 151.479 15.8753C152.241 15.8753 153.003 16.1777 153.46 16.6313C153.917 17.0849 154.222 17.6896 154.222 18.4456C154.222 19.2016 153.917 19.8063 153.46 20.2599C153.003 20.7135 152.241 21.0159 151.479 21.0159C150.717 21.0159 150.108 20.7135 149.498 20.2599ZM153.765 23.1326V40.9735H149.193V23.1326H153.765Z" fill="#024452"/>
<path d="M28.6499 57C12.801 57 0 44.1485 0 28.4244C0 12.7003 12.801 0 28.6499 0C44.4987 0 57.2997 12.7003 57.2997 28.4244C57.4521 44.1485 44.4987 57 28.6499 57ZM28.6499 6.80371C16.7632 6.80371 6.85768 16.6313 6.85768 28.4244C6.85768 40.2175 16.7632 50.0451 28.6499 50.0451C40.5365 50.0451 50.4421 40.3687 50.4421 28.4244C50.4421 16.4801 40.6889 6.80371 28.6499 6.80371Z" fill="#00CA90"/>
<path d="M23.0113 51.2546C10.3627 51.2546 0 41.1247 0 28.4244C0 15.8753 10.3627 5.59417 23.0113 5.59417C35.66 5.59417 46.0227 15.8753 46.0227 28.4244C46.0227 41.1247 35.66 51.2546 23.0113 51.2546ZM23.0113 12.5491C14.1725 12.5491 6.85768 19.6552 6.85768 28.4244C6.85768 37.1936 14.0202 44.4509 23.0113 44.4509C32.0025 44.4509 39.165 37.3448 39.165 28.4244C39.165 19.6552 31.8501 12.5491 23.0113 12.5491Z" fill="#00CA90"/>
<path d="M32.3074 45.3581C25.2973 45.3581 19.5063 39.6127 19.5063 32.6578C19.5063 25.7029 25.2973 19.9576 32.3074 19.9576C39.3174 19.9576 45.1084 25.7029 45.1084 32.6578C45.1084 39.6127 39.4698 45.3581 32.3074 45.3581ZM32.3074 26.9125C29.1071 26.9125 26.5164 29.4828 26.5164 32.6578C26.5164 35.8329 29.1071 38.4032 32.3074 38.4032C35.5076 38.4032 38.0983 35.8329 38.0983 32.6578C38.2507 29.4828 35.66 26.9125 32.3074 26.9125Z" fill="#00CA90"/>
<g opacity="0.45">
<path d="M23.0113 12.5491C26.5164 12.5491 29.869 13.7586 32.4597 15.5729H41.908C39.165 11.6419 35.2028 8.61804 30.631 6.95491C30.0214 6.95491 29.2594 6.80371 28.6499 6.80371C16.9156 6.80371 7.31484 16.0265 6.85767 27.5172C7.31484 19.2016 14.4773 12.5491 23.0113 12.5491Z" fill="url(#paint0_linear_6538_478)"/>
<path d="M36.4219 19.6552C36.7267 20.1088 37.0314 20.5623 37.3362 21.1671C41.908 23.1326 45.1083 27.6684 45.1083 32.809C45.1083 34.4721 44.8035 36.1353 44.1939 37.496C45.4131 34.7745 46.0226 31.5995 46.0226 28.4244C46.0226 23.7374 44.4987 19.3528 42.0604 15.7241L36.4219 19.6552Z" fill="url(#paint1_linear_6538_478)"/>
<path d="M32.307 38.4032C30.1735 38.4032 28.1924 37.1936 27.278 35.5305H19.9631C20.8775 39.3104 23.3158 42.3342 26.6684 43.9974C31.2402 42.939 35.2024 39.7639 37.3359 35.6817C36.2692 37.3448 34.4405 38.4032 32.307 38.4032Z" fill="url(#paint2_linear_6538_478)"/>
<path d="M38.0982 47.9284C35.8123 48.9867 33.374 49.7427 30.7833 49.8939C28.345 50.8011 25.7544 51.2546 23.0113 51.2546C10.9722 51.2546 1.0667 42.0318 0.152344 30.2387C1.0667 45.0557 13.5629 56.8488 28.8022 56.8488C37.0314 56.8488 44.4987 53.3713 49.68 47.9284H38.0982Z" fill="url(#paint3_linear_6538_478)"/>
</g>
<defs>
<linearGradient id="paint0_linear_6538_478" x1="42.1188" y1="10.1109" x2="8.41465" y2="19.5989" gradientUnits="userSpaceOnUse">
<stop offset="0.1732" stop-color="#00CA90" stop-opacity="0"/>
<stop offset="0.6378" stop-color="#017C6C" stop-opacity="0.562"/>
<stop offset="1" stop-color="#024452"/>
</linearGradient>
<linearGradient id="paint1_linear_6538_478" x1="41.1863" y1="22.1009" x2="41.2083" y2="31.6766" gradientUnits="userSpaceOnUse">
<stop stop-color="#00CA90" stop-opacity="0"/>
<stop offset="0.562" stop-color="#017C6C" stop-opacity="0.562"/>
<stop offset="1" stop-color="#024452"/>
</linearGradient>
<linearGradient id="paint2_linear_6538_478" x1="20.2681" y1="29.4689" x2="33.6055" y2="41.8392" gradientUnits="userSpaceOnUse">
<stop offset="0.3089" stop-color="#00CA90" stop-opacity="0"/>
<stop offset="1" stop-color="#024452"/>
</linearGradient>
<linearGradient id="paint3_linear_6538_478" x1="52.2735" y1="61.6368" x2="6.94675" y2="36.4864" gradientUnits="userSpaceOnUse">
<stop offset="0.2224" stop-color="#00CA90" stop-opacity="0"/>
<stop offset="0.6594" stop-color="#017C6C" stop-opacity="0.562"/>
<stop offset="1" stop-color="#024452"/>
</linearGradient>
</defs>
</svg>
