<svg width="16" height="16" viewBox="0 0 16 16" fill="none" xmlns="http://www.w3.org/2000/svg">
<path d="M14.8162 0H1.18036C0.529324 0 0.000244141 0.516493 0.000244141 1.15364V14.8455C0.000244141 15.4826 0.529324 16 1.18036 16H14.8162C15.4686 16 15.9998 15.4826 15.9998 14.8455V1.15364C15.9998 0.516493 15.4686 0 14.8162 0Z" fill="#007BB5"/>
<path d="M2.37074 5.99821H4.74617V13.6336H2.37074V5.99821ZM3.55911 2.20264C4.31822 2.20264 4.93452 2.81917 4.93452 3.57873C4.93452 4.33849 4.31822 4.95502 3.55911 4.95502C2.79696 4.95502 2.18237 4.33849 2.18237 3.57873C2.18237 2.81917 2.79695 2.20264 3.55911 2.20264Z" fill="white"/>
<path d="M6.23486 5.99806H8.50962V7.04188H8.54215C8.85855 6.44162 9.63286 5.80859 10.7874 5.80859C13.1902 5.80859 13.6342 7.38957 13.6342 9.44597V13.6335H11.2614V9.92037C11.2614 9.03495 11.2462 7.89584 10.0283 7.89584C8.79349 7.89584 8.60509 8.8609 8.60509 9.85699V13.6335H6.23486V5.99806Z" fill="white"/>
</svg>
