<svg xmlns="http://www.w3.org/2000/svg" width="89.9" height="89.9" viewBox="0 0 89.9 89.9">
  <path id="Pfad_1" data-name="Pfad 1" d="M76.562,89.9H13.338A13.338,13.338,0,0,1,0,76.562V13.338A13.338,13.338,0,0,1,13.338,0H76.562A13.338,13.338,0,0,1,89.9,13.338V76.562A13.338,13.338,0,0,1,76.562,89.9" fill="#3e4e58"/>
  <path id="Pfad_23" data-name="Pfad 23" d="M58.01,105.907h-5.7v6.642H58.29c-.2-2.377-.282-4.6-.28-6.642" transform="translate(-26.789 -54.233)" fill="#ec6607"/>
  <path id="Pfad_24" data-name="Pfad 24" d="M70.761,105.907c0,2.032.078,4.262.285,6.642H76.29v-6.642Z" transform="translate(-36.235 -54.233)" fill="#ec6607"/>
  <rect id="Rechteck_3" data-name="Rechteck 3" width="3.365" height="8.403" transform="translate(33.345 20.855)" fill="#ec6607"/>
  <path id="Pfad_26" data-name="Pfad 26" d="M54.182,126.96l4.259,8.468h2.828a73.913,73.913,0,0,1-1.636-8.468Z" transform="translate(-27.746 -65.014)" fill="#ec6607"/>
  <path id="Pfad_27" data-name="Pfad 27" d="M52.314,88.1v3.181h5.771a65.084,65.084,0,0,1,.733-7.427H54.286Z" transform="translate(-26.789 -42.941)" fill="#ec6607"/>
  <path id="Pfad_28" data-name="Pfad 28" d="M101.468,69.986a11.917,11.917,0,0,0-6.837-4.616,12.351,12.351,0,0,0,5.032-4.1,10.857,10.857,0,0,0,1.7-6.247,13.3,13.3,0,0,0-1.146-5.831,9.525,9.525,0,0,0-3.227-3.783,13.958,13.958,0,0,0-5-2.047,30.859,30.859,0,0,0-6.456-.625H76.256V51.21h7.061a15.938,15.938,0,0,1,2.811.243,7.045,7.045,0,0,1,2.394.868,4.634,4.634,0,0,1,1.666,1.736,5.765,5.765,0,0,1,.625,2.846,5.244,5.244,0,0,1-1.874,4.512,7.832,7.832,0,0,1-4.79,1.388H71.674a62.354,62.354,0,0,0-.755,7.427H84.983a9.188,9.188,0,0,1,5.692,1.631q2.151,1.631,2.152,5.449a6.822,6.822,0,0,1-.659,3.192A5.26,5.26,0,0,1,90.4,82.48a7.505,7.505,0,0,1-2.568,1.041,14.541,14.541,0,0,1-3.054.312H71.525a69.435,69.435,0,0,0,1.7,8.468h13.01a25.349,25.349,0,0,0,6.49-.833A17.371,17.371,0,0,0,98.345,88.9a12.644,12.644,0,0,0,3.921-4.477,15.145,15.145,0,0,0-.8-14.438" transform="translate(-36.316 -21.887)" fill="#fff"/>
  <path id="Pfad_29" data-name="Pfad 29" d="M49.249,42.576c-2.385-.472-3.96.617-5.247,3.341-1.618,3.425-3.678,6.5-5.512,9.763a5.641,5.641,0,0,0-.983,2.387c-.084,5.824-.045,11.65-.045,17.55h3.871a7.614,7.614,0,0,0,.135-1.752c-1.283-7.353-.265-17.313,4.472-20.53a20.026,20.026,0,0,0,3.309-2.33Z" transform="translate(-19.179 -21.748)" fill="#ec6607"/>
</svg>
