<svg width="102" height="41" viewBox="0 0 102 41" fill="none" xmlns="http://www.w3.org/2000/svg">
<g clip-path="url(#clip0_6639_683)">
<path fill-rule="evenodd" clip-rule="evenodd" d="M20.4668 0C21.3059 1.97006 21.8002 4.37736 21.8002 6.97771C21.8002 9.57805 21.3059 11.987 20.4668 13.9554C19.6276 11.9854 19.1333 9.57805 19.1333 6.97771C19.1333 4.37736 19.626 1.97006 20.4668 0Z" fill="#77C043"/>
<path fill-rule="evenodd" clip-rule="evenodd" d="M10.2556 2.71436C11.9619 3.99803 13.5893 5.83609 14.8833 8.08829C16.1774 10.3405 16.9492 12.6735 17.2021 14.802C15.4942 13.5183 13.8684 11.6803 12.5744 9.42807C11.2803 7.17586 10.5085 4.84281 10.2556 2.71436Z" fill="#148948"/>
<path fill-rule="evenodd" clip-rule="evenodd" d="M2.76538 10.1953C4.88217 10.4494 7.20588 11.2249 9.44583 12.5251C11.6874 13.8252 13.5168 15.4587 14.7945 17.1747C12.6777 16.9206 10.354 16.1451 8.11237 14.8449C5.87241 13.5447 4.04301 11.9113 2.76538 10.1953Z" fill="#00A7C7"/>
<path fill-rule="evenodd" clip-rule="evenodd" d="M0 20.4365C1.96078 19.5933 4.35674 19.0967 6.94484 19.0967C9.53294 19.0967 11.9305 19.5933 13.8897 20.4365C11.9289 21.2796 9.53294 21.7762 6.94484 21.7762C4.35674 21.7762 1.96078 21.2796 0 20.4365Z" fill="#77C043"/>
<path fill-rule="evenodd" clip-rule="evenodd" d="M2.70142 30.6942C3.97904 28.9799 5.80845 27.3448 8.05004 26.0446C10.2916 24.7444 12.6137 23.9689 14.7321 23.7148C13.4545 25.4308 11.6251 27.0643 9.38351 28.3644C7.14191 29.6663 4.81985 30.4401 2.70142 30.6942Z" fill="#00A7C7"/>
<path fill-rule="evenodd" clip-rule="evenodd" d="M10.1472 38.2213C10.4001 36.0944 11.1719 33.7597 12.466 31.5092C13.76 29.257 15.3858 27.4189 17.0937 26.1353C16.8408 28.2621 16.069 30.5968 14.7749 32.849C13.4809 35.0995 11.8551 36.9376 10.1472 38.2213Z" fill="#148948"/>
<path fill-rule="evenodd" clip-rule="evenodd" d="M20.3403 40.9998C19.5011 39.0298 19.0068 36.6225 19.0068 34.0221C19.0068 31.4218 19.5011 29.0128 20.3403 27.0444C21.1795 29.0145 21.6738 31.4218 21.6738 34.0221C21.6738 36.6225 21.1795 39.0298 20.3403 40.9998Z" fill="#77C043"/>
<path d="M19.4238 19.9878H20.7639C21.1596 19.9878 21.4569 19.8905 21.6539 19.6958C21.8526 19.5011 21.9512 19.2255 21.9512 18.8708C21.9512 18.516 21.8526 18.2652 21.6539 18.0706C21.4552 17.8759 21.1596 17.7785 20.7639 17.7785H19.4238V19.9878ZM21.7869 24.8882L19.9428 21.5239H19.4238V24.8882H17.2627V15.9751H20.8887C21.5882 15.9751 22.1844 16.0972 22.677 16.343C23.1697 16.5889 23.5375 16.9255 23.7822 17.3528C24.0269 17.7802 24.1484 18.257 24.1484 18.7817C24.1484 19.374 23.9826 19.9037 23.6492 20.369C23.3158 20.8342 22.8248 21.1642 22.1778 21.3589L24.2256 24.8882H21.7869Z" fill="white"/>
<path d="M29.7861 20.6608C29.7861 20.2879 29.6596 19.9926 29.4067 19.7715C29.1538 19.5521 28.8385 19.4415 28.4592 19.4415C28.0798 19.4415 27.7908 19.5471 27.5428 19.7583C27.2948 19.9695 27.1405 20.2714 27.0814 20.6592H29.7861V20.6608ZM31.9587 21.867H27.0682C27.1027 22.3075 27.2423 22.6441 27.4919 22.8767C27.7399 23.1094 28.0453 23.2265 28.4083 23.2265C28.9469 23.2265 29.323 22.9972 29.5332 22.5418H31.8322C31.714 23.0071 31.5022 23.4262 31.1951 23.7991C30.888 24.172 30.5021 24.464 30.039 24.6752C29.5759 24.8864 29.0569 24.992 28.4854 24.992C27.7941 24.992 27.1799 24.8435 26.6396 24.5482C26.101 24.2528 25.6789 23.8288 25.3768 23.2777C25.073 22.7282 24.9219 22.0848 24.9219 21.3472C24.9219 20.6097 25.0713 19.9679 25.3702 19.4168C25.6691 18.8673 26.0878 18.4433 26.6281 18.1479C27.1668 17.8526 27.7859 17.7041 28.4854 17.7041C29.185 17.7041 29.7746 17.8476 30.305 18.1364C30.8354 18.4235 31.2509 18.8343 31.5498 19.3673C31.8487 19.9002 31.9981 20.5222 31.9981 21.2334C31.9981 21.4347 31.985 21.6459 31.9587 21.867Z" fill="white"/>
<path d="M39.2566 18.5339C39.7492 19.0718 39.9956 19.8093 39.9956 20.7498V24.8896H37.8476V21.0418C37.8476 20.5683 37.7261 20.2003 37.4814 19.938C37.2367 19.6757 36.9082 19.5453 36.4961 19.5453C36.0839 19.5453 35.7554 19.6773 35.5107 19.938C35.266 20.2003 35.1445 20.5683 35.1445 21.0418V24.8896H32.9834V17.8029H35.1429V18.7418C35.3613 18.4283 35.6569 18.1808 36.028 17.9993C36.3992 17.8178 36.8163 17.7271 37.2794 17.7271C38.1038 17.7271 38.7639 17.996 39.2566 18.5339Z" fill="white"/>
<path d="M45.7827 20.6608C45.7827 20.2879 45.6563 19.9926 45.4034 19.7715C45.1505 19.5521 44.8352 19.4415 44.4558 19.4415C44.0765 19.4415 43.7874 19.5471 43.5395 19.7583C43.2915 19.9695 43.1371 20.2714 43.078 20.6592H45.7827V20.6608ZM47.957 21.867H43.0665C43.0994 22.3075 43.2406 22.6441 43.4902 22.8767C43.7382 23.1094 44.0436 23.2265 44.4065 23.2265C44.9452 23.2265 45.3213 22.9972 45.5315 22.5418H47.8322C47.7139 23.0071 47.5021 23.4262 47.1934 23.7991C46.8863 24.172 46.5003 24.464 46.0372 24.6752C45.5741 24.8864 45.0552 24.992 44.4837 24.992C43.7924 24.992 43.1782 24.8435 42.6395 24.5482C42.1009 24.2528 41.6789 23.8288 41.3751 23.2777C41.0712 22.7282 40.9202 22.0848 40.9202 21.3472C40.9202 20.6097 41.0696 19.9679 41.3685 19.4168C41.6674 18.8673 42.0861 18.4433 42.6264 18.1479C43.165 17.8526 43.7842 17.7041 44.4837 17.7041C45.1833 17.7041 45.7729 17.8476 46.3033 18.1364C46.8337 18.4235 47.2492 18.8343 47.5481 19.3673C47.8469 19.9002 47.9964 20.5222 47.9964 21.2334C47.9931 21.4347 47.9816 21.6459 47.957 21.867Z" fill="white"/>
<path d="M59.101 17.8032L57.1928 24.8882H54.805L53.6933 20.2914L52.5437 24.8882H50.1675L48.2461 17.8032H50.4072L51.4057 22.8686L52.5946 17.8032H54.8806L56.081 22.8439L57.0663 17.8032H59.101Z" fill="white"/>
<path d="M64.1752 20.0637C63.8763 19.7502 63.5118 19.5935 63.0815 19.5935C62.6512 19.5935 62.2883 19.7486 61.9894 20.0571C61.6906 20.3657 61.5411 20.7914 61.5411 21.3326C61.5411 21.8737 61.6906 22.3044 61.9894 22.6212C62.2883 22.938 62.6529 23.0964 63.0815 23.0964C63.5101 23.0964 63.8763 22.9396 64.1752 22.6261C64.4741 22.3126 64.6235 21.8853 64.6235 21.3441C64.6219 20.8046 64.4724 20.3772 64.1752 20.0637ZM59.7511 19.417C60.0254 18.8659 60.3981 18.4435 60.8695 18.1465C61.3408 17.8511 61.8679 17.7026 62.4492 17.7026C62.9468 17.7026 63.382 17.8049 63.7564 18.0079C64.1309 18.2108 64.4199 18.4781 64.6219 18.8081V17.8049H66.783V24.8899H64.6219V23.8867C64.4117 24.2167 64.1177 24.484 63.7433 24.6869C63.3672 24.8899 62.9321 24.9922 62.4361 24.9922C61.863 24.9922 61.3408 24.842 60.8695 24.5417C60.3981 24.2415 60.0254 23.8141 59.7511 23.2597C59.4769 22.7053 59.3406 22.0651 59.3406 21.3359C59.3406 20.6049 59.4785 19.9664 59.7511 19.417Z" fill="white"/>
<path d="M72.9939 20.057C72.6951 19.7484 72.3256 19.5933 71.8887 19.5933C71.4519 19.5933 71.0939 19.7501 70.7967 20.0636C70.4978 20.3771 70.3484 20.8044 70.3484 21.3456C70.3484 21.8868 70.4978 22.3158 70.7967 22.6276C71.0956 22.9411 71.4601 23.0979 71.8887 23.0979C72.3174 23.0979 72.6852 22.9395 72.989 22.6227C73.2928 22.3059 73.4439 21.8752 73.4439 21.334C73.4439 20.7912 73.2928 20.3655 72.9939 20.057ZM71.2319 18.0061C71.6112 17.8031 72.0447 17.7008 72.5341 17.7008C73.1155 17.7008 73.641 17.8493 74.1139 18.1447C74.5852 18.4417 74.958 18.864 75.2322 19.4151C75.5065 19.9646 75.6428 20.6048 75.6428 21.3324C75.6428 22.06 75.5049 22.7019 75.2322 23.2563C74.958 23.8106 74.5852 24.238 74.1139 24.5383C73.6426 24.8386 73.1155 24.9887 72.5341 24.9887C72.0365 24.9887 71.603 24.8897 71.2319 24.6901C70.8607 24.4921 70.5701 24.2264 70.3599 23.8964V24.8864H68.1987V15.4932H70.3599V18.8063C70.5618 18.4763 70.8525 18.2107 71.2319 18.0061Z" fill="white"/>
<path d="M78.7876 15.4932H76.6265V24.8881H78.7876V15.4932Z" fill="white"/>
<path d="M84.6388 20.6608C84.6388 20.2879 84.5123 19.9926 84.2594 19.7715C84.0065 19.5521 83.6912 19.4415 83.3119 19.4415C82.9325 19.4415 82.6435 19.5471 82.3955 19.7583C82.1459 19.9695 81.9932 20.2714 81.9341 20.6592H84.6388V20.6608ZM86.8114 21.867H81.9209C81.9538 22.3075 82.095 22.6441 82.3446 22.8767C82.5926 23.1094 82.898 23.2265 83.261 23.2265C83.7996 23.2265 84.1757 22.9972 84.3859 22.5418H86.6866C86.5684 23.0071 86.3565 23.4262 86.0478 23.7991C85.7407 24.172 85.3548 24.464 84.8917 24.6752C84.4286 24.8864 83.9096 24.992 83.3365 24.992C82.6451 24.992 82.031 24.8435 81.4923 24.5482C80.9537 24.2528 80.5316 23.8288 80.2278 23.2777C79.924 22.7282 79.7729 22.0848 79.7729 21.3472C79.7729 20.6097 79.9224 19.9679 80.2213 19.4168C80.5201 18.8673 80.9389 18.4433 81.4792 18.1479C82.0178 17.8526 82.6369 17.7041 83.3365 17.7041C84.0361 17.7041 84.6256 17.8476 85.1561 18.1364C85.6865 18.4235 86.102 18.8343 86.4008 19.3673C86.6997 19.9002 86.8492 20.5222 86.8492 21.2334C86.8492 21.4347 86.836 21.6459 86.8114 21.867Z" fill="white"/>
<path d="M88.9099 16.0127V21.5995C88.9099 22.4806 89.1185 23.1323 89.5356 23.5547C89.9527 23.9771 90.5226 24.1899 91.2484 24.1899C91.9743 24.1899 92.5392 23.9804 92.9481 23.5613C93.357 23.1422 93.5606 22.4888 93.5606 21.5995V16.0127H94.4458V21.5863C94.4458 22.7116 94.1485 23.558 93.5557 24.1256C92.9629 24.6932 92.1894 24.9753 91.2369 24.9753C90.2845 24.9753 89.5126 24.6915 88.9182 24.1256C88.3237 23.558 88.0281 22.7116 88.0281 21.5863V16.0127H88.9099Z" fill="white"/>
<path d="M100.837 16.0127L97.0094 20.164V16.0127H96.1243V24.8879H97.0094V20.786L100.837 24.8879H102L97.8305 20.4445L101.962 16.0127H100.837Z" fill="white"/>
</g>
<defs>
<clipPath id="clip0_6639_683">
<rect width="102" height="41" fill="white"/>
</clipPath>
</defs>
</svg>
