<svg xmlns="http://www.w3.org/2000/svg" xmlns:xlink="http://www.w3.org/1999/xlink" width="367.783" height="85.777" viewBox="0 0 367.783 85.777">
  <defs>
    <clipPath id="clip-path">
      <rect id="Rechteck_320" data-name="Rechteck 320" width="367.783" height="85.777" fill="#1d5e41"/>
    </clipPath>
  </defs>
  <g id="Gruppe_1229" data-name="Gruppe 1229" transform="translate(0 0)">
    <g id="Gruppe_561" data-name="Gruppe 561" transform="translate(0 0)" clip-path="url(#clip-path)">
      <path id="Pfad_181" data-name="Pfad 181" d="M225.469,36.145a3.291,3.291,0,0,1,1.246.2,1.442,1.442,0,0,1,.7.564,1.6,1.6,0,0,1,.218.858v.45a1.543,1.543,0,0,1-.231.854,1.508,1.508,0,0,1-.718.558,3.244,3.244,0,0,1-1.215.2h-1.492V36.145Zm-1.492,5.378h1.572l2.325,4.2h2.2L227.424,41.2a3.207,3.207,0,0,0,1.628-1.081,2.928,2.928,0,0,0,.571-1.816v-.6a3.238,3.238,0,0,0-.461-1.765,2.868,2.868,0,0,0-1.358-1.107,5.767,5.767,0,0,0-2.223-.381h-3.544V45.727h1.94Zm-36.655,4.2H194.6V44.036h-5.339V40.751h4.457V39.06h-4.457V36.145H194.6V34.454h-7.281Zm-35.306,0h7.969V44.036h-5.579L159.92,36V34.454h-7.6v1.691h5.2l-5.5,8.036Zm-30.242,0h2.309V34.454h-1.877v8.325l-4.152-8.325h-2.309V45.727h1.875V37.4Zm-35.805,0h1.94V34.454h-1.94Zm-31.924,0H56.37l2.984-11.273H57.317l-2.149,8.728-2.229-8.728H50.646L48.3,43.182l-2.037-8.728H44.135l2.984,11.273h2.132l2.4-9.067Z" transform="translate(51.304 40.05)" fill="#1d5e41"/>
      <path id="Pfad_182" data-name="Pfad 182" d="M280.417,36.9c.409-3.436-.154-19.168,1.6-24.952.651-2.139,1.708-3.51,2.917-3.51,2.921-.123,3.456,2.322,3.475,4.943.061,8.436.242,18.253-7.754,23.568-.136,0-.173.149-.242-.05M62.552,42.1c3.962-8.007,9.342-24.3,14.661-24.282V42.1Zm86.354,9.471c-.032-4.511-.1-9.056-.1-13.558.05-5.309,1.883-7.934,4.93-8.206,2.9-.257,3.427,2.091,3.354,5.544l-.182,8.557c.158,3.644-3.9,6.866-8.007,7.664m154.544.385a2.391,2.391,0,0,1-.1-.53c-.048-1.922-.1-3.8-.1-5.672,0-3.776-.359-8.974.768-12.551.629-1.886,1.648-3.438,3.607-3.6,4.963-.417,4.212,3.936,4.282,7.741.164,9.383-2.117,12.192-8.464,14.616M243.634,57.2c-2.1-.988-2.56-5.516-2.742-9.136.149-4.184-.247-12.161,3.414-15.048,2.335-1.447,5.581-.186,6.394,1.442-.052,6.822.236,13.643-.143,20.435a5,5,0,0,1-6.924,2.307M151.7,64.868c-8.286-.184-13.814-5.168-13.435-17.146.29-9.2,5.6-20.115,15.935-20.723,8.968-.528,12.817,5.614,12.069,11.684-.91,7.376-8.723,13.266-17.213,15.723a.253.253,0,0,0-.1.192c-.11,3.293-.432,7.119,3.127,7.454,6.066.567,15.982-5.313,19.57-9.666.177-.216.523-.567.53-.72.24-7.752.1-15.606.1-23.415h10.2c0,.72.006,1.44.006,2.162,0,.082.1.184.184.145,3.235-1.617,7.088-3.174,10.771-3.174,4.433,0,7.292,2.508,7.357,6.58.128,7.726,0,14.735.048,22.524,0,2.511,1.434,3.445,3.512,3.207,2.967-.34,7.387-3.542,7.393-4.891,0-7.259.011-14.227.058-21.438l-5.162,0c1.094-1.665,2.247-3.5,3.19-5.082l1.972,0V21.319l9.915-6.634.011,13.576h7.125s.143-.009.117.037c-.644,1.114-2.279,3.972-2.885,5.069h-4.426c0,9.666-.045,19.358-.045,29.069h-9.858V59.254a21.7,21.7,0,0,1-9.616,4.124,13.08,13.08,0,0,1-7.685-1.07,6.776,6.776,0,0,1-3.613-5.629c-.05-7.5.007-14.774.007-22.225-.017-2.411-2.934-3.211-5.605-1.933-1.475.707-2.772,1.406-2.768,2.318V62.483c-3.415-.048-6.831-.048-10.2-.048-.048-1.922.011-3.845.011-5.722-.011-.32-.251-.612-.538-.385C167.86,60.039,158,65.008,151.7,64.868M338.889,31.013c2.279-.841,4.556-1.9,6.833-2.744l-1.386-1.386L329.022,29.59c0,7.837.009,14.1.009,21.938a.671.671,0,0,1-.24.426c-3.566,4.093-9.307,7.424-14.906,9.329a17.7,17.7,0,0,1-7.359.96c-3.73-.24-2.995-4.459-2.64-7.549A34.412,34.412,0,0,0,315.472,48.3c10-8.42,6.161-22.93-7.6-21.157-6.388.824-10.964,6.463-12.888,11.733-2.087,5.711-1.538,10.168-1.538,16.4-1.628,2.346-5.655,5.423-8.8,5.486-2.562.05-4.234-2.431-4.279-5.006-.048-3.125-.048-6.252-.048-9.376,0-.335-.037-3.9.489-4.807a8.141,8.141,0,0,1,1.953-1.364c4.217-2.658,7.177-6.243,10.2-10.176,3.479-6.005,4.716-9.8,4.282-16.346-.227-3.389-4.625-11.924-14.906-7.166-13.857,8.155-12.668,31.878-11.759,42.712.255,3.049.98,4.02.649,5.272-1.617,2.534-7.024,6.3-9.761,2.79-1.479-1.827-1.124-5.594-1.124-7.934,0-7.145.214-14.5.4-21.492l-9.908.041c-.288-.006.013,1.691-.277,1.979a.369.369,0,0,1-.394-.017c-4.288-3.789-11.662-1.689-14.231,1.077-4.2,3.977-6.247,11.444-5.631,19.429.491,6.386,3.5,11.986,8.706,13.217,4.046.776,8.191-.311,12.261-4.712,3.068,8.429,13.971,4.638,21.254-1.367,2.8,6.5,7.837,7.277,11.638,6.656,3.587-.588,8.362-3.648,10.624-5.962,1.3,3.84,6.954,6.842,11.491,6.846,7.72,0,15.271-3.609,21.938-8.559a.759.759,0,0,1,.655.067,33.928,33.928,0,0,0,19.481,8.289c9.694.753,17.5-3.959,19.349-9.48.96-4.8-7.752-8.152-11.078-10.174h-.415l-6.037,4.535c6.386,2.714,6.559,10.717.154,11.794-3.412.74-10.505-.3-11.493-4.9,0-2.087.045-25.605.05-25.605M19.464,85.573C11.152,84.816,4.314,80.9,0,72.428l8.935-8.935c.93,7.5,5.932,19.021,13.55,19.021A11,11,0,0,0,27.8,81.451c7.75-3.884,13.844-21.83,19.927-33.459-3.559,0-7.106.019-10.615.019l2.982-5.819c.048-.045.1-.1.143-.1,3.462-.048,6.926-.048,10.386-.048,3-4.362,5.8-13.063,10.319-20.191,3.806-6,9.841-10.691,15.963-10.525-.091-4.122-4.033-5.666-7.72-5.828-5.162-.089-8.018.69-11.917,3.012a.21.21,0,0,1-.084.013L61.3.146c6.669-.714,13.8,1.3,17.477,3.611,2.625,1.652,6.554,5.1,7.8,8.518,1.2,3.3,1.6,4.965,1.581,12.873,0,10.866.019,20.556.019,31.47-.006,1.63.889,2.578,3.334,2.578,3.032,0,7.733-4.016,8.842-5.562,0-6.684-.05-13.522,0-20.206-.006-.08-.1-.071-.1-.071l-6.027.009,2.675-5.114H100.3c.149,0,.188-.177.188-.264,0-4.452-.1-11.887,3.354-17.533,2.686-4.381,8.209-7.685,15.682-7.685.158,0,.166.041.164.128-.061.995-.043,1.272-.043,2.126,0,.5-.091.681-.21.679-9.964-.288-8.613,5.447-8.8,13.556v8.849a.675.675,0,0,1,.288.1c3.127,0,6.165.067,9.337.05.186,0,.156-.179.156-.264,0-10.189.309-17.029,7.426-22.022A19.8,19.8,0,0,1,138.56,2.575c.223-.022.3.093.3.413l.007,2.039c0,.231-.13.432-.3.432-7.562.162-7.932,6.217-7.932,13.511l-.028,9.2c0,.054,0,.091.1.091l6.665-.009c.151,0,.093.238,0,.383-.74,1.572-1.367,3.148-1.992,4.723h-4.61a.168.168,0,0,0-.188.182q0,14.428-.011,28.916H120.412V33.346h-9.549a.68.68,0,0,0-.192.145c0,9.616.009,19.289.009,28.955H100.3V58.032c0-.283-.043-.383-.175-.264-4.556,3.488-10.572,7.117-16.277,6.109-7.914-1.97-6.36-6.068-6.561-15.885H60.012c-.052,0-.415-.1-.508.208C59.181,49.283,50.9,65.616,49.47,68.4,44.1,79.54,33.3,86.836,19.464,85.573" transform="translate(0 0)" fill="#1d5e41" fill-rule="evenodd"/>
    </g>
  </g>
</svg>
