<svg id="Avatar_2" data-name="Avatar 2" xmlns="http://www.w3.org/2000/svg" xmlns:xlink="http://www.w3.org/1999/xlink" width="74.568" height="74.568" viewBox="0 0 74.568 74.568">
  <defs>
    <clipPath id="clip-path">
      <rect id="Rechteck_53" data-name="Rechteck 53" width="74.568" height="74.568" fill="none"/>
    </clipPath>
  </defs>
  <g id="Gruppe_78" data-name="Gruppe 78" clip-path="url(#clip-path)">
    <path id="Pfad_34" data-name="Pfad 34" d="M74.568,37.284A37.284,37.284,0,1,1,37.285,0,37.283,37.283,0,0,1,74.568,37.284" transform="translate(0 0)" fill="#fff" fill-rule="evenodd"/>
    <path id="Pfad_35" data-name="Pfad 35" d="M42.171,34.818c2.123-4.293,5.006-13.025,7.858-13.014V34.818ZM18.3,55.82v-.026a.272.272,0,0,1,.128.026ZM62.436,43.191c-2.442,1.87-5.793,3.841-8.85,3.3-4.242-1.056-3.408-3.251-3.516-8.514H40.808c-.027,0-.222-.052-.273.112-.173.58-4.612,9.334-5.377,10.824a15.763,15.763,0,0,1-16.081,9.206A12.279,12.279,0,0,1,8.646,51.073l4.788-4.788c.5,4.021,3.18,10.194,7.262,10.194a5.9,5.9,0,0,0,2.85-.57c4.153-2.081,7.419-11.7,10.68-17.933-1.908,0-3.809.011-5.691.011l1.6-3.118c.025-.025.051-.052.076-.052,1.856-.026,3.712-.026,5.566-.026,1.606-2.337,3.11-7,5.533-10.821,2.037-3.218,5.272-5.73,8.555-5.641-.049-2.208-2.163-3.037-4.138-3.122a10.446,10.446,0,0,0-6.389,1.614.091.091,0,0,1-.043.006L41.5,12.333A16.17,16.17,0,0,1,50.87,14.27c1.407.885,3.513,2.734,4.182,4.565.646,1.768.859,2.661.848,6.9,0,5.824.01,11.016.01,16.866,0,.874.477,1.382,1.788,1.382,1.626,0,4.144-2.153,4.738-2.982Z" transform="translate(0.705 0.999)" fill="#1d5e41" fill-rule="evenodd"/>
  </g>
</svg>
