<svg width="306" height="72" viewBox="0 0 306 72" fill="none" xmlns="http://www.w3.org/2000/svg">
<path fill-rule="evenodd" clip-rule="evenodd" d="M23.7119 52.1596C26.8827 50.7302 29.5159 49.3066 30.7393 48.2437C31.2239 47.8226 31.661 47.1655 32.0174 46.3825C32.3319 45.6913 32.5965 44.8901 32.8438 44.1686L33.3148 43.8984C34.1583 44.4828 35.184 44.8252 36.2897 44.8252C37.3545 44.8252 38.3453 44.5076 39.1703 43.9621L50.4653 50.4367C47.1755 54.5352 42.0502 57.1692 36.298 57.1692C31.3998 57.1692 26.956 55.2592 23.7119 52.1596Z" fill="#8FA84D"/>
<path fill-rule="evenodd" clip-rule="evenodd" d="M31.3762 22.8047C31.0572 26.1484 30.9925 29.0278 31.3009 30.5759C31.4259 31.2033 31.7805 31.9077 32.2853 32.6056C32.7309 33.2216 33.2974 33.8497 33.8032 34.423V35.1051C32.1807 35.9822 31.0788 37.6904 31.0788 39.6518C31.0788 39.7623 31.0823 39.872 31.0894 39.9807L19.7321 46.4909C18.8141 44.3889 18.3066 42.0776 18.3066 39.6518C18.3066 31.6457 23.8348 24.8868 31.3762 22.8047Z" fill="#8FA84D"/>
<path fill-rule="evenodd" clip-rule="evenodd" d="M38.333 22.25C47.3057 23.2318 54.2886 30.6544 54.2886 39.6524C54.2886 41.2709 54.0627 42.8384 53.6352 44.3248C50.7453 42.263 48.1251 40.6659 46.5599 40.1365C45.9503 39.9304 45.1585 39.8831 44.2974 39.9682C43.5372 40.0433 42.7061 40.2163 41.9531 40.3646L41.4806 40.0938C41.4935 39.9483 41.4998 39.8011 41.4998 39.6524C41.4998 37.5172 40.1942 35.6825 38.333 34.893V22.25Z" fill="#8FA84D"/>
<path fill-rule="evenodd" clip-rule="evenodd" d="M55.0663 53.0742L58.6362 55.1205C53.6804 61.9452 45.5254 66.4052 36.2977 66.4052C27.3851 66.4052 19.4731 62.2445 14.4746 55.8114L14.9024 55.6663C15.3283 55.5153 15.7542 55.3643 16.1802 55.2133L18.5462 54.3224C22.8164 59.2231 29.1871 62.332 36.2977 62.332C43.9959 62.332 50.8268 58.6882 55.0663 53.0742Z" fill="#8FA84D"/>
<path fill-rule="evenodd" clip-rule="evenodd" d="M32.7188 13.3832C32.6371 13.8308 32.5554 14.2785 32.4739 14.7262L32.0471 17.3577C21.2176 19.2983 13.0039 28.5494 13.0039 39.6537C13.0039 43.0359 13.7659 46.2463 15.1368 49.1266L11.5698 51.1714C9.85858 47.6817 8.90137 43.7744 8.90137 39.6537C8.90137 26.075 19.2956 14.815 32.7689 13.1289L32.7188 13.3832Z" fill="#8FA84D"/>
<path fill-rule="evenodd" clip-rule="evenodd" d="M38.333 12.9805C52.5224 13.9904 63.6935 25.5754 63.6935 39.6525C63.6935 43.477 62.869 47.1174 61.3768 50.41L61.0328 50.1109C60.6918 49.8228 60.3509 49.5345 60.0099 49.2463L58.0823 47.6798C59.0588 45.1853 59.591 42.4789 59.591 39.6525C59.591 27.8034 50.2385 18.0644 38.333 17.064V12.9805Z" fill="#8FA84D"/>
<path fill-rule="evenodd" clip-rule="evenodd" d="M33.0211 41.2505C32.7817 40.769 32.6472 40.2269 32.6472 39.6536C32.6472 37.658 34.279 36.0377 36.2892 36.0377C38.2991 36.0377 39.9311 37.658 39.9311 39.6536C39.9311 40.2597 39.7806 40.8312 39.5146 41.3333L39.7618 40.9082L41.6754 42.005C43.0833 41.7489 44.9765 41.2476 46.054 41.612C50.4485 43.0983 63.4664 53.339 66.4962 57.8295L39.0655 42.1056L39.3715 41.5794C38.7262 42.5947 37.5864 43.2695 36.2892 43.2695C35.0255 43.2695 33.9111 42.6292 33.258 41.6576L33.4658 42.0151L31.5522 43.112C31.0717 44.4507 30.5624 46.3291 29.7058 47.0734C26.212 50.1088 10.7706 56.1817 5.33887 56.5415L32.7694 40.8176L33.0211 41.2505ZM36.7643 36.0377V4.58984C34.3623 9.44008 31.9387 25.7538 32.8395 30.2755C33.0603 31.3841 34.4443 32.7614 35.3716 33.8439V36.0377H36.7643Z" fill="#1A3C87"/>
<path d="M144.373 59.9551C144.052 60.295 143.585 60.6021 142.971 60.8764C142.356 61.1506 141.579 61.2878 140.639 61.2878C139.306 61.2878 138.222 60.8084 137.386 59.8496C136.549 58.8907 136.132 57.6442 136.132 56.11V55.746C136.132 54.1584 136.545 52.867 137.369 51.8717C138.193 50.8766 139.269 50.3789 140.598 50.3789C141.371 50.3789 142.077 50.5112 142.716 50.7758C143.356 51.0403 143.888 51.3984 144.313 51.8499V53.9837H142.848L142.57 52.5636C142.389 52.3985 142.152 52.2662 141.855 52.1667C141.559 52.0671 141.219 52.0174 140.835 52.0174C139.973 52.0174 139.302 52.3597 138.823 53.0442C138.344 53.7288 138.103 54.6245 138.103 55.7313V56.11C138.103 57.1879 138.339 58.0484 138.809 58.6916C139.279 59.3349 139.957 59.6566 140.843 59.6566C141.239 59.6566 141.562 59.6202 141.808 59.5473C142.054 59.4745 142.247 59.3896 142.388 59.2924V57.4937L140.978 57.3772V55.8843H144.373V59.9551Z" fill="#6F85BB"/>
<path d="M145.362 61.1343V59.86L146.413 59.6415V52.0315L145.362 51.813V50.5312H149.45V51.813L148.392 52.0315V59.5031H151.178L151.274 58.1704H152.784V61.1343H145.362Z" fill="#6F85BB"/>
<path d="M162.348 55.9134C162.348 57.467 161.936 58.7512 161.108 59.7657C160.281 60.7805 159.199 61.2878 157.862 61.2878C156.529 61.2878 155.452 60.7805 154.632 59.7657C153.811 58.7512 153.402 57.467 153.402 55.9134V55.7533C153.402 54.2094 153.81 52.9277 154.628 51.9082C155.446 50.8887 156.521 50.3789 157.855 50.3789C159.193 50.3789 160.275 50.8887 161.104 51.9082C161.934 52.9277 162.348 54.2094 162.348 55.7533V55.9134ZM160.377 55.7387C160.377 54.6415 160.164 53.7506 159.74 53.066C159.315 52.3815 158.686 52.0392 157.855 52.0392C157.023 52.0392 156.403 52.3791 155.994 53.0588C155.585 53.7385 155.381 54.6318 155.381 55.7387V55.9134C155.381 57.0301 155.588 57.9294 156.001 58.6116C156.414 59.2936 157.034 59.6347 157.862 59.6347C158.697 59.6347 159.326 59.2936 159.746 58.6116C160.167 57.9294 160.377 57.0301 160.377 55.9134V55.7387Z" fill="#6F85BB"/>
<path d="M167.527 50.5312C168.688 50.5312 169.594 50.7741 170.245 51.2595C170.896 51.7451 171.221 52.4708 171.221 53.437C171.221 53.9273 171.1 54.3655 170.859 54.7515C170.616 55.1373 170.265 55.4275 169.804 55.6217C170.397 55.7575 170.841 56.0489 171.136 56.4955C171.432 56.9421 171.58 57.4592 171.58 58.0467C171.58 59.0613 171.269 59.8296 170.645 60.3515C170.022 60.8734 169.138 61.1343 167.996 61.1343H163.143V59.86L164.192 59.6415V52.0315L163.143 51.813V50.5312H167.527ZM166.171 56.4446V59.5031H167.996C168.519 59.5031 168.919 59.3805 169.195 59.1353C169.47 58.8902 169.608 58.5273 169.608 58.0467C169.608 57.5272 169.491 57.1303 169.255 56.856C169.021 56.5816 168.65 56.4446 168.144 56.4446H166.171ZM166.171 54.9736H167.595C168.124 54.9736 168.53 54.857 168.815 54.624C169.1 54.391 169.242 54.0511 169.242 53.6045C169.242 53.1141 169.098 52.7525 168.811 52.5193C168.525 52.2863 168.097 52.1699 167.527 52.1699H166.171V54.9736Z" fill="#6F85BB"/>
<path d="M172.217 59.86L172.921 59.7507L175.925 50.5312H177.951L180.933 59.7507L181.638 59.86V61.1343H178.276V59.86L178.961 59.7289L178.527 58.2724H175.327L174.894 59.7289L175.578 59.86V61.1343H172.217V59.86ZM175.796 56.7067H178.059L176.948 52.9709H176.907L175.796 56.7067Z" fill="#6F85BB"/>
<path d="M182.289 61.1343V59.86L183.34 59.6415V52.0315L182.289 51.813V50.5312H186.377V51.813L185.319 52.0315V59.5031H188.105L188.2 58.1704H189.711V61.1343H182.289Z" fill="#6F85BB"/>
<path d="M203.348 53.2913L203.307 53.284L200.664 61.1343H199.336L196.705 53.3131L196.666 53.3204L196.855 57.9738V59.6415L197.912 59.86V61.1343H193.825V59.86L194.876 59.6415V52.0315L193.825 51.813V50.5312H197.458L199.973 58.3452H200.013L202.548 50.5312H206.194V51.813L205.137 52.0315V59.6415L206.194 59.86V61.1343H202.107V59.86L203.158 59.6415V57.9738L203.348 53.2913Z" fill="#6F85BB"/>
<path d="M206.798 59.86L207.503 59.7507L210.506 50.5312H212.533L215.515 59.7507L216.219 59.86V61.1343H212.858V59.86L213.543 59.7289L213.109 58.2724H209.91L209.475 59.7289L210.161 59.86V61.1343H206.798V59.86ZM210.377 56.7067H212.64L211.529 52.9709H211.489L210.377 56.7067Z" fill="#6F85BB"/>
<path d="M221.303 50.5312C222.424 50.5312 223.302 50.8068 223.94 51.3579C224.577 51.9088 224.895 52.6699 224.895 53.6409C224.895 54.1749 224.762 54.6385 224.496 55.0318C224.229 55.425 223.838 55.743 223.323 55.9858C223.906 56.1703 224.326 56.4773 224.58 56.907C224.836 57.3366 224.964 57.8695 224.964 58.5054V59.0444C224.964 59.2774 225.006 59.4582 225.092 59.5868C225.177 59.7155 225.32 59.7919 225.519 59.8163L225.763 59.8527V61.1343H224.74C224.094 61.1343 223.639 60.9474 223.377 60.5736C223.115 60.1997 222.984 59.7167 222.984 59.1244V58.52C222.984 58.0054 222.857 57.6013 222.601 57.3075C222.346 57.0138 221.986 56.8596 221.52 56.8451H219.9V59.6415L220.958 59.86V61.1343H216.871V59.86L217.921 59.6415V52.0315L216.871 51.813V50.5312H221.303ZM219.9 55.2066H221.269C221.821 55.2066 222.235 55.0803 222.51 54.8279C222.786 54.5755 222.924 54.2113 222.924 53.7355C222.924 53.2597 222.787 52.8798 222.513 52.5959C222.239 52.3118 221.836 52.1699 221.303 52.1699H219.9V55.2066Z" fill="#6F85BB"/>
<path d="M226.414 59.86L227.464 59.6415V52.0315L226.414 51.813V50.5312H230.447V51.813L229.444 52.0315V54.8643H230.304L232.202 51.9003L231.619 51.813V50.5312H235.53V51.813L234.459 52.0096L232.032 55.4905L234.758 59.6779L235.747 59.86V61.1343H231.837V59.86L232.446 59.7725L230.548 56.7067H229.444V59.6415L230.447 59.86V61.1343H226.414V59.86Z" fill="#6F85BB"/>
<path d="M242.708 56.4737H239.366V59.5031H242.551L242.639 58.236H244.145V61.1343H236.336V59.86L237.387 59.6415V52.0315L236.336 51.813V50.5312H244.131V53.437H242.613L242.525 52.1699H239.366V54.8352H242.708V56.4737Z" fill="#6F85BB"/>
<path d="M254.026 50.5312V53.3569H252.508L252.427 52.1699H250.61V59.6415L251.668 59.86V61.1343H247.574V59.86L248.631 59.6415V52.1699H246.821L246.74 53.3569H245.229V50.5312H254.026Z" fill="#6F85BB"/>
<path d="M259.368 50.5312C260.498 50.5312 261.389 50.8432 262.042 51.4671C262.695 52.0909 263.021 52.9077 263.021 53.9175C263.021 54.9322 262.695 55.7478 262.042 56.3644C261.389 56.9811 260.498 57.2893 259.368 57.2893H257.701V59.6415L258.758 59.86V61.1343H254.671V59.86L255.722 59.6415V52.0315L254.671 51.813V50.5312H259.368ZM257.701 55.6508H259.368C259.92 55.6508 260.336 55.4893 260.618 55.1664C260.901 54.8437 261.042 54.4322 261.042 53.9321C261.042 53.4224 260.901 53.0012 260.618 52.6686C260.336 52.3362 259.92 52.1699 259.368 52.1699H257.701V55.6508Z" fill="#6F85BB"/>
<path d="M263.651 61.1343V59.86L264.702 59.6415V52.0315L263.651 51.813V50.5312H267.738V51.813L266.681 52.0315V59.5031H269.466L269.561 58.1704H271.073V61.1343H263.651Z" fill="#6F85BB"/>
<path d="M271.683 59.86L272.388 59.7507L275.391 50.5312H277.418L280.399 59.7507L281.104 59.86V61.1343H277.742V59.86L278.428 59.7289L277.993 58.2724H274.794L274.36 59.7289L275.045 59.86V61.1343H271.683V59.86ZM275.261 56.7067H277.525L276.414 52.9709H276.374L275.261 56.7067Z" fill="#6F85BB"/>
<path d="M289.435 54.1075H287.964L287.761 52.6946C287.566 52.486 287.321 52.3209 287.025 52.1995C286.729 52.0782 286.379 52.0174 285.978 52.0174C285.12 52.0174 284.459 52.3524 283.995 53.0224C283.532 53.6923 283.3 54.5663 283.3 55.644V56.0154C283.3 57.0932 283.531 57.9695 283.992 58.6443C284.452 59.3191 285.104 59.6566 285.944 59.6566C286.332 59.6566 286.688 59.5959 287.012 59.4745C287.335 59.3532 287.585 59.1881 287.761 58.9793L287.964 57.5666H289.435V59.6638C289.036 60.159 288.53 60.5535 287.913 60.8472C287.297 61.1409 286.606 61.2878 285.843 61.2878C284.519 61.2878 283.434 60.7951 282.589 59.8095C281.744 58.824 281.321 57.5593 281.321 56.0154V55.6586C281.321 54.1195 281.741 52.8549 282.582 51.8646C283.423 50.874 284.509 50.3789 285.843 50.3789C286.606 50.3789 287.295 50.5282 287.909 50.8267C288.524 51.1254 289.033 51.5198 289.435 52.0101V54.1075Z" fill="#6F85BB"/>
<path d="M296.715 56.4737H293.374V59.5031H296.559L296.647 58.236H298.152V61.1343H290.344V59.86L291.394 59.6415V52.0315L290.344 51.813V50.5312H298.139V53.437H296.619L296.531 52.1699H293.374V54.8352H296.715V56.4737Z" fill="#6F85BB"/>
<path fill-rule="evenodd" clip-rule="evenodd" d="M236.28 42.9313C236.167 42.4515 235.834 41.1382 235.293 40.9925C234.881 40.8816 234.277 41.3213 233.893 41.451C233.056 41.7333 232.15 41.9214 231.266 41.8326C228.484 41.5537 227.564 39.2126 227.564 36.7017C230.579 36.7017 233.788 37.0174 236.758 36.4621C236.758 34.1227 236.89 30.9876 235.382 29.0346C234.539 27.9421 233.301 27.5482 231.982 27.4669C229.528 27.3157 227.174 28.0163 225.829 30.2325C224.26 32.8185 224.166 36.3219 224.746 39.2175C225.056 40.7639 225.703 42.2294 226.968 43.2286C229.605 45.3126 233.615 44.4923 236.28 42.9313ZM255.624 33.2275C256.576 33.1865 257.544 33.1077 258.49 32.9879C258.49 31.5438 258.347 29.8245 257.375 28.6769C256.578 27.7356 255.358 27.5238 254.19 27.4725C252.689 27.4066 251.302 27.5158 250.012 28.3783C247.859 29.8193 247.042 32.4429 246.808 34.9047C246.52 37.9463 247.044 42.1321 250.012 43.7311C251.956 44.7783 254.546 44.6008 256.578 43.9291C257.138 43.7443 258.318 43.4092 258.523 42.7724C258.657 42.3591 258.096 41.0137 257.628 40.9583C257.284 40.9177 256.892 41.1769 256.578 41.2906C255.892 41.5409 255.161 41.7597 254.429 41.8326C251.571 42.1183 250.078 39.6149 249.903 37.0611C249.771 35.131 249.767 32.4984 251.111 30.9531C252.06 29.8652 254.117 29.5478 255.069 30.8366C255.548 31.4851 255.608 32.4467 255.624 33.2275ZM267.922 27.4284C266.75 27.4709 265.65 27.6224 264.579 28.135C261.161 29.7714 260.645 34.2031 260.976 37.5403C261.267 40.4639 262.13 43.6168 265.414 44.2721C265.977 44.3844 266.631 44.4875 267.206 44.4732C268.026 44.4529 268.932 44.3446 269.712 44.0863C273.727 42.7594 274.421 38.4623 274.255 34.7849C274.118 31.7458 273.243 28.4812 269.951 27.6155C269.318 27.4488 268.577 27.4047 267.922 27.4284ZM241.534 40.3518C240.965 40.4093 240.412 40.5706 240.032 41.0271C238.867 42.4285 239.987 44.606 241.773 44.4493C242.385 44.3957 242.997 44.1639 243.361 43.6449C244.37 42.2029 243.281 40.1753 241.534 40.3518ZM146.969 24.3622L146.849 27.8365L144.461 27.9563L144.222 30.2325H146.849V37.8997C146.849 39.5281 146.831 41.4766 147.671 42.9308C148.601 44.5429 150.96 44.6362 152.581 44.2888C153.095 44.1785 154.282 43.9485 154.342 43.2855C154.38 42.8786 153.921 41.8345 153.511 41.7066C153.189 41.6064 152.784 41.7976 152.461 41.8323C151.492 41.9364 150.532 41.7502 150.099 40.7748C149.589 39.6272 149.715 38.1656 149.715 36.9413V30.2325H153.775C153.838 29.4342 153.986 28.6239 154.132 27.8365H149.715V23.6434C148.781 23.7813 147.888 24.1507 146.969 24.3622ZM166.551 42.4521L166.909 44.2491C167.706 44.148 168.507 44.0373 169.297 43.8897C169.058 42.598 169.137 41.2444 169.047 39.9363C168.769 35.8483 168.939 31.6983 168.939 27.5969C168.303 27.6775 167.666 27.7508 167.029 27.8162C166.79 27.8408 166.465 27.7997 166.264 27.9596C166.03 28.146 166.075 28.5301 166.073 28.7949C166.068 29.5536 166.073 30.3124 166.073 31.0711V37.6601C166.073 38.4237 166.319 39.7195 165.95 40.4047C165.697 40.8755 165.102 41.1775 164.64 41.3997C163.076 42.1515 160.837 42.0223 160.117 40.1759C159.624 38.9127 159.864 37.3152 159.864 35.9829V27.5969C159.228 27.6775 158.592 27.7508 157.954 27.8162C157.689 27.8433 157.308 27.7924 157.121 28.0285C156.858 28.3618 156.998 29.115 156.998 29.5137V38.2591C156.998 39.5321 156.958 40.7799 157.481 41.9729C159.1 45.6601 164.238 44.7241 166.551 42.4521ZM131.327 20.6484C130.475 20.9016 129.469 20.9375 128.581 21.0078V28.3157C125.888 26.3933 121.937 27.6294 120.193 30.2325C118.659 32.5224 118.656 35.6246 118.901 38.2591C119.031 39.6655 119.282 41.1535 120.109 42.3323C121.378 44.1426 123.63 44.7041 125.715 44.3303C127.093 44.0835 127.964 43.2228 129.059 42.4521C129.085 43.0582 129.221 43.6485 129.298 44.2491C129.837 44.1807 131.462 44.241 131.647 43.6228C131.78 43.1829 131.59 42.6586 131.571 42.2125C131.521 41.0924 131.447 39.9806 131.447 38.8581V22.685C131.447 22.0441 131.576 21.2437 131.327 20.6484ZM187.565 20.6484C186.714 20.9016 185.707 20.9375 184.819 21.0078V40.5353C184.819 41.1338 184.663 41.9978 184.892 42.5594C185.256 43.4575 187.076 43.9283 187.924 44.1419C191.119 44.9473 195.062 44.1845 196.537 40.8947C197.101 39.6331 197.271 38.3043 197.367 36.9413C197.532 34.5777 197.451 31.9913 196.241 29.8731C194.466 26.7672 189.985 26.7181 187.565 29.0345C187.605 27.0803 187.685 25.1266 187.685 23.1642C187.685 22.3951 187.863 21.3614 187.565 20.6484ZM95.507 27.9563V44.1293H98.3726V27.5969C97.4199 27.7176 96.451 27.7804 95.507 27.9563ZM201.177 27.9563V44.1293H204.043V27.5969C203.09 27.7176 202.121 27.7804 201.177 27.9563ZM280.698 29.3939C280.427 28.8389 280.303 28.2084 280.221 27.5969C279.423 27.698 278.622 27.8087 277.832 27.9563C277.832 29.2774 278.038 30.5914 278.07 31.9097C278.17 35.9775 278.071 40.0602 278.071 44.1293H280.936V34.7849C280.936 33.779 280.602 32.0379 281.244 31.2016C282.538 29.5152 285.767 29.5509 286.436 31.7899C286.855 33.1897 286.668 34.778 286.668 36.2225V44.1293H289.534V34.7849C289.534 33.7911 289.195 32.0219 289.823 31.1957C291.132 29.478 294.296 29.5876 295 31.7899C295.391 33.0151 295.146 34.5878 295.146 35.8631V44.1293H298.131V35.5037C298.131 33.8301 298.29 31.9541 297.719 30.3523C297.506 29.7521 297.208 29.1616 296.778 28.6862C295.325 27.08 292.31 27.0879 290.489 28.0014C289.8 28.3472 289.24 28.8545 288.697 29.3939C287.301 26.6946 282.106 26.6777 280.698 29.3939ZM105.656 29.3939L105.298 27.5969C104.501 27.698 103.699 27.8087 102.91 27.9563C102.91 29.2774 103.115 30.5914 103.147 31.9097C103.246 35.9775 103.149 40.0602 103.149 44.1293H106.014V32.6285C106.014 32.2238 105.972 31.7889 106.206 31.4353C107.485 29.5023 111.226 29.4669 112.057 31.7899C112.537 33.129 112.343 34.7056 112.343 36.1027V44.1293H115.208V35.2641C115.208 33.6256 115.392 31.7951 114.794 30.2325C113.784 27.5953 110.397 26.7938 107.925 27.7724C107.039 28.1229 106.324 28.7298 105.656 29.3939ZM176.222 30.5919C175.953 29.6807 175.883 28.549 175.864 27.5969C175.067 27.698 174.266 27.8087 173.476 27.9563C173.476 29.2774 173.681 30.5914 173.712 31.9097C173.812 35.9775 173.715 40.0602 173.715 44.1293H176.58V37.4205C176.58 36.282 176.468 35.076 176.614 33.9463C176.793 32.5782 177.566 31.3131 178.849 30.7338C179.97 30.2277 181.042 30.6621 182.192 30.7117C182.268 29.7466 182.487 28.786 182.67 27.8365C180.532 27.3448 178.405 27.1029 176.964 29.1544C176.65 29.6011 176.421 30.0855 176.222 30.5919ZM211.326 29.3939L210.968 27.5969C210.172 27.698 209.369 27.8087 208.58 27.9563C208.58 29.2774 208.785 30.5914 208.818 31.9097C208.917 35.9775 208.819 40.0602 208.819 44.1293H211.685V32.6285C211.685 32.2238 211.641 31.7889 211.875 31.4353C213.154 29.5023 216.896 29.4669 217.727 31.7899C218.206 33.129 218.012 34.7056 218.012 36.1027V44.1293H220.878V35.2641C220.878 33.6256 221.063 31.7951 220.464 30.2325C219.455 27.5953 216.066 26.7938 213.595 27.7724C212.709 28.1229 211.994 28.7298 211.326 29.3939ZM76.2834 44.0095H78.7907C79.122 44.0095 79.6332 44.0974 79.9175 43.8863C80.1616 43.7051 80.1891 43.3246 80.2486 43.0511C80.405 42.3327 80.5511 41.6113 80.7154 40.8947C81.3826 37.9835 82.2144 34.9887 82.6116 32.0295C83.2908 33.8359 83.5585 35.8952 83.9756 37.7799C84.4317 39.8402 85.0771 41.9177 85.3578 44.0095H89.1787C89.5011 41.6062 90.2317 39.1865 90.7725 36.8215C91.4471 33.872 92.0048 30.886 92.7607 27.9563C91.9205 27.7065 90.8928 27.6347 90.0145 27.5969C89.4312 32.1285 88.2549 36.6477 87.3877 41.1343C86.6455 39.4035 86.4159 37.3371 85.9965 35.5037C85.4634 33.1727 84.7207 30.8055 84.4026 28.4355C83.2824 28.4362 82.1779 28.6657 81.0594 28.6751C80.9073 30.5438 80.2825 32.4814 79.8516 34.3057C79.3154 36.5754 78.8957 38.8759 78.3132 41.1343C77.696 39.4836 77.5647 37.5845 77.1879 35.8631C76.6005 33.1802 75.7841 30.3351 75.5669 27.5969C74.8859 27.611 74.2132 27.7388 73.5372 27.8167C73.3135 27.8424 72.9799 27.8145 72.8347 28.0285C72.6427 28.3116 72.8576 28.8562 72.9259 29.1543C73.1545 30.1521 73.3858 31.1494 73.6059 32.1493C74.4768 36.1057 75.4672 40.0418 76.2834 44.0095ZM190.073 30.0486C189.276 30.1923 188.251 30.555 187.842 31.3155C187.539 31.8798 187.685 32.7267 187.685 33.3473V40.0561C187.685 40.402 187.645 40.8003 187.876 41.0876C188.568 41.9487 190.406 41.9748 191.386 41.7974C192.458 41.6034 193.35 40.9484 193.788 39.9363C194.086 39.2503 194.193 38.5155 194.272 37.7799C194.545 35.2239 194.726 30.3908 191.266 30.0137C190.875 29.9711 190.459 29.9786 190.073 30.0486ZM124.998 30.0486C121.521 30.6778 121.626 35.2824 121.981 38.0195C122.096 38.9158 122.183 39.8865 122.713 40.6533C123.437 41.7041 124.876 42.0139 126.073 41.7974C126.879 41.6517 128.055 41.1804 128.459 40.4107C128.757 39.8413 128.581 38.886 128.581 38.2591V33.1077C128.581 32.506 128.791 31.4018 128.459 30.8782C127.892 29.9877 125.912 29.8834 124.998 30.0486ZM266.848 30.0486C264.219 30.5242 263.982 33.1497 263.982 35.3839C263.982 37.9119 263.837 41.3938 267.086 41.8185C267.516 41.8745 267.972 41.8748 268.4 41.7974C270.531 41.4118 270.953 39.6389 271.18 37.7799C271.515 35.0393 271.644 30.5958 268.161 30.0455C267.729 29.9772 267.279 29.9705 266.848 30.0486ZM135.148 35.0245V37.4205H142.671V35.0245H135.148ZM227.683 34.3057H233.654C233.654 33.2135 233.75 31.6188 233.007 30.7242C232.051 29.5761 229.739 29.8109 228.798 30.844C228.004 31.7154 227.707 33.1581 227.683 34.3057ZM96.2233 22.8687C94.8515 23.2034 94.4629 25.2302 95.3194 26.266C95.8333 26.8875 96.7992 26.9727 97.5367 26.7961C98.9678 26.4536 99.4916 24.435 98.5339 23.3248C98.0135 22.7216 96.9455 22.6925 96.2233 22.8687ZM201.893 22.8687C200.521 23.2034 200.134 25.2302 200.989 26.266C201.503 26.8875 202.468 26.9727 203.207 26.7961C204.637 26.4536 205.162 24.435 204.204 23.3248C203.684 22.7216 202.616 22.6925 201.893 22.8687Z" fill="#8EA942"/>
</svg>
