<svg width="99" height="20" viewBox="0 0 99 20" fill="none" xmlns="http://www.w3.org/2000/svg">
<g clip-path="url(#clip0_2141_9407)">
<path d="M28.3856 1.30728C28.3612 1.33133 28.3316 1.34336 28.2968 1.34336H24.8806C24.8457 1.34336 24.8283 1.36054 24.8283 1.39491V2.99113C24.8283 3.02549 24.8457 3.04267 24.8806 3.04267H27.1272C27.1621 3.04267 27.1917 3.0547 27.2161 3.07876C27.2405 3.10281 27.2527 3.13202 27.2527 3.16638V4.16467C27.2527 4.19903 27.2405 4.22824 27.2161 4.2523C27.1917 4.27635 27.1621 4.28838 27.1272 4.28838H24.8806C24.8457 4.28838 24.8283 4.30556 24.8283 4.33992V7.18185C24.8283 7.21621 24.8161 7.24542 24.7917 7.26948C24.7673 7.29353 24.7376 7.30556 24.7028 7.30556H23.481C23.4461 7.30556 23.4165 7.29353 23.3921 7.26948C23.3677 7.24542 23.3555 7.21621 23.3555 7.18185V0.221368C23.3555 0.187003 23.3677 0.157794 23.3921 0.133739C23.4165 0.109684 23.4461 0.0976562 23.481 0.0976562H28.2968C28.3316 0.0976562 28.3612 0.109684 28.3856 0.133739C28.41 0.157794 28.4222 0.187003 28.4222 0.221368V1.21965C28.4222 1.25401 28.41 1.28322 28.3856 1.30728Z" fill="#00BA2B"/>
<path d="M30.4441 7.07876C30.0362 6.87257 29.719 6.58219 29.4942 6.20934C29.2676 5.83477 29.1543 5.40522 29.1543 4.91724V0.221368C29.1543 0.187003 29.1665 0.157794 29.1909 0.133739C29.2153 0.109684 29.2449 0.0976562 29.2798 0.0976562H30.5016C30.5365 0.0976562 30.5661 0.109684 30.5905 0.133739C30.6149 0.157794 30.6271 0.187003 30.6271 0.221368V4.92755C30.6271 5.29181 30.7404 5.58563 30.967 5.80728C31.1936 6.03065 31.4916 6.14233 31.8594 6.14233C32.2271 6.14233 32.5269 6.03065 32.7518 5.80728C32.9766 5.58391 33.0916 5.2901 33.0916 4.92755V0.221368C33.0916 0.187003 33.1038 0.157794 33.1282 0.133739C33.1526 0.109684 33.1823 0.0976562 33.2171 0.0976562H34.4389C34.4738 0.0976562 34.5034 0.109684 34.5278 0.133739C34.5522 0.157794 34.5644 0.187003 34.5644 0.221368V4.91724C34.5644 5.40522 34.4511 5.83477 34.2246 6.20934C33.998 6.58391 33.6808 6.87429 33.2746 7.07876C32.8668 7.28494 32.3962 7.38803 31.8594 7.38803C31.3225 7.38803 30.8519 7.28494 30.4441 7.07876Z" fill="#00BA2B"/>
<path d="M40.9105 0.133739C40.9349 0.157794 40.9471 0.187003 40.9471 0.221368V1.22996C40.9471 1.26432 40.9349 1.29353 40.9105 1.31759C40.8861 1.34164 40.8565 1.35367 40.8216 1.35367H38.9514C38.9166 1.35367 38.8991 1.37085 38.8991 1.40522V7.18185C38.8991 7.21621 38.8869 7.24542 38.8625 7.26948C38.8381 7.29353 38.8085 7.30556 38.7737 7.30556H37.5518C37.517 7.30556 37.4874 7.29353 37.463 7.26948C37.4386 7.24542 37.4264 7.21621 37.4264 7.18185V1.40522C37.4264 1.37085 37.4089 1.35367 37.3741 1.35367H35.5562C35.5213 1.35367 35.4917 1.34164 35.4673 1.31759C35.4429 1.29353 35.4307 1.26432 35.4307 1.22996V0.221368C35.4307 0.187003 35.4429 0.157794 35.4673 0.133739C35.4917 0.109684 35.5213 0.0976562 35.5562 0.0976562H40.8216C40.8565 0.0976562 40.8861 0.109684 40.9105 0.133739Z" fill="#00BA2B"/>
<path d="M43.1238 7.07876C42.7159 6.87257 42.3987 6.58219 42.1739 6.20934C41.9473 5.83477 41.834 5.40522 41.834 4.91724V0.221368C41.834 0.187003 41.8462 0.157794 41.8706 0.133739C41.895 0.109684 41.9246 0.0976562 41.9595 0.0976562H43.1813C43.2161 0.0976562 43.2458 0.109684 43.2702 0.133739C43.2946 0.157794 43.3068 0.187003 43.3068 0.221368V4.92755C43.3068 5.29181 43.4201 5.58563 43.6467 5.80728C43.8732 6.03065 44.1713 6.14233 44.5391 6.14233C44.9068 6.14233 45.2066 6.03065 45.4314 5.80728C45.6563 5.58391 45.7713 5.2901 45.7713 4.92755V0.221368C45.7713 0.187003 45.7835 0.157794 45.8079 0.133739C45.8323 0.109684 45.862 0.0976562 45.8968 0.0976562H47.1186C47.1535 0.0976562 47.1831 0.109684 47.2075 0.133739C47.2319 0.157794 47.2441 0.187003 47.2441 0.221368V4.91724C47.2441 5.40522 47.1308 5.83477 46.9042 6.20934C46.6777 6.58391 46.3604 6.87429 45.9543 7.07876C45.5465 7.28494 45.0759 7.38803 44.5391 7.38803C44.0022 7.38803 43.5316 7.28494 43.1238 7.07876Z" fill="#00BA2B"/>
<path d="M52.3221 7.21278L51.0167 4.36054C51.0027 4.33305 50.9818 4.31931 50.9539 4.31931H49.9831C49.9482 4.31931 49.9308 4.33649 49.9308 4.37085V7.18185C49.9308 7.21621 49.9186 7.24542 49.8942 7.26948C49.8698 7.29353 49.8402 7.30556 49.8053 7.30556H48.5835C48.5486 7.30556 48.519 7.29353 48.4946 7.26948C48.4702 7.24542 48.458 7.21621 48.458 7.18185V0.221368C48.458 0.187003 48.4702 0.157794 48.4946 0.133739C48.519 0.109684 48.5486 0.0976562 48.5835 0.0976562H51.5709C52.0171 0.0976562 52.4076 0.187003 52.7457 0.365697C53.0838 0.544392 53.3453 0.798687 53.53 1.12687C53.7148 1.45504 53.8071 1.83649 53.8071 2.26948C53.8071 2.73683 53.6886 3.13546 53.4516 3.46879C53.2145 3.80212 52.8834 4.03752 52.4598 4.17498C52.425 4.18872 52.4145 4.21278 52.4285 4.24714L53.849 7.16123C53.8629 7.18872 53.8699 7.20934 53.8699 7.22309C53.8699 7.27807 53.8315 7.30556 53.7549 7.30556H52.4703C52.4006 7.30556 52.3518 7.27463 52.3239 7.21278H52.3221ZM49.9308 1.39491V3.15608C49.9308 3.19044 49.9482 3.20762 49.9831 3.20762H51.3513C51.6441 3.20762 51.8829 3.12171 52.0659 2.94989C52.2507 2.77807 52.3431 2.5547 52.3431 2.27979C52.3431 2.00487 52.2507 1.77979 52.0659 1.60625C51.8812 1.43099 51.6424 1.34336 51.3513 1.34336H49.9831C49.9482 1.34336 49.9308 1.36054 49.9308 1.39491Z" fill="#00BA2B"/>
<path d="M59.9108 1.30728C59.8864 1.33133 59.8567 1.34336 59.8219 1.34336H56.3952C56.3603 1.34336 56.3429 1.36054 56.3429 1.39491V2.99113C56.3429 3.02549 56.3603 3.04267 56.3952 3.04267H58.6419C58.6767 3.04267 58.7064 3.0547 58.7308 3.07876C58.7552 3.10281 58.7674 3.13202 58.7674 3.16638V4.16467C58.7674 4.19903 58.7552 4.22824 58.7308 4.2523C58.7064 4.27635 58.6767 4.28838 58.6419 4.28838H56.3952C56.3603 4.28838 56.3429 4.30556 56.3429 4.33992V6.00831C56.3429 6.04267 56.3603 6.05986 56.3952 6.05986H59.8219C59.8567 6.05986 59.8864 6.07188 59.9108 6.09594C59.9352 6.11999 59.9474 6.1492 59.9474 6.18357V7.18185C59.9474 7.21621 59.9352 7.24542 59.9108 7.26948C59.8864 7.29353 59.8567 7.30556 59.8219 7.30556H54.9956C54.9608 7.30556 54.9311 7.29353 54.9067 7.26948C54.8823 7.24542 54.8701 7.21621 54.8701 7.18185V0.221368C54.8701 0.187003 54.8823 0.157794 54.9067 0.133739C54.9311 0.109684 54.9608 0.0976562 54.9956 0.0976562H59.8219C59.8567 0.0976562 59.8864 0.109684 59.9108 0.133739C59.9352 0.157794 59.9474 0.187003 59.9474 0.221368V1.21965C59.9474 1.25401 59.9352 1.28322 59.9108 1.30728Z" fill="#00BA2B"/>
<path d="M67.9091 1.30728C67.8847 1.33133 67.855 1.34336 67.8202 1.34336H64.404C64.3691 1.34336 64.3517 1.36054 64.3517 1.39491V2.99113C64.3517 3.02549 64.3691 3.04267 64.404 3.04267H66.6489C66.6838 3.04267 66.7134 3.0547 66.7378 3.07876C66.7622 3.10281 66.7744 3.13202 66.7744 3.16638V4.16467C66.7744 4.19903 66.7622 4.22824 66.7378 4.2523C66.7134 4.27635 66.6838 4.28838 66.6489 4.28838H64.404C64.3691 4.28838 64.3517 4.30556 64.3517 4.33992V7.18185C64.3517 7.21621 64.3395 7.24542 64.3151 7.26948C64.2907 7.29353 64.2611 7.30556 64.2262 7.30556H63.0044C62.9695 7.30556 62.9399 7.29353 62.9155 7.26948C62.8911 7.24542 62.8789 7.21621 62.8789 7.18185V0.221368C62.8789 0.187003 62.8911 0.157794 62.9155 0.133739C62.9399 0.109684 62.9695 0.0976562 63.0044 0.0976562H67.8202C67.855 0.0976562 67.8847 0.109684 67.9091 0.133739C67.9335 0.157794 67.9457 0.187003 67.9457 0.221368V1.21965C67.9457 1.25401 67.9335 1.28322 67.9091 1.30728Z" fill="#00BA2B"/>
<path d="M69.8527 7.08779C69.4379 6.86786 69.1172 6.5603 68.8871 6.16683C68.657 5.77164 68.542 5.31803 68.542 4.80257V2.59982C68.542 2.09123 68.657 1.64277 68.8871 1.25102C69.1172 0.859268 69.4396 0.556862 69.8527 0.340367C70.2675 0.123872 70.7451 0.015625 71.2889 0.015625C71.8327 0.015625 72.3207 0.123872 72.7355 0.340367C73.1504 0.556862 73.4711 0.860986 73.7011 1.25102C73.9312 1.64277 74.0463 2.09123 74.0463 2.59982V4.80257C74.0463 5.31803 73.9312 5.77336 73.7011 6.17198C73.4711 6.57061 73.1486 6.87817 72.7355 7.09294C72.3207 7.30944 71.8397 7.41769 71.2889 7.41769C70.7381 7.41769 70.2675 7.30772 69.8527 7.08779ZM72.2179 5.81116C72.4549 5.57061 72.5735 5.25102 72.5735 4.85411V2.58951C72.5735 2.19088 72.4567 1.8713 72.2231 1.62731C71.9896 1.38332 71.6776 1.26133 71.2889 1.26133C70.9002 1.26133 70.5987 1.38332 70.3651 1.62731C70.1316 1.8713 70.0148 2.1926 70.0148 2.58951V4.85411C70.0148 5.25274 70.1316 5.57233 70.3651 5.81116C70.5987 6.04999 70.9072 6.17198 71.2889 6.17198C71.6706 6.17198 71.9826 6.05171 72.2179 5.81116Z" fill="#00BA2B"/>
<path d="M79.0399 7.21278L77.7344 4.36054C77.7205 4.33305 77.6996 4.31931 77.6717 4.31931H76.7009C76.666 4.31931 76.6486 4.33649 76.6486 4.37085V7.18185C76.6486 7.21621 76.6364 7.24542 76.612 7.26948C76.5876 7.29353 76.5579 7.30556 76.5231 7.30556H75.3013C75.2664 7.30556 75.2368 7.29353 75.2124 7.26948C75.188 7.24542 75.1758 7.21621 75.1758 7.18185V0.221368C75.1758 0.187003 75.188 0.157794 75.2124 0.133739C75.2368 0.109684 75.2664 0.0976562 75.3013 0.0976562H78.2887C78.7349 0.0976562 79.1253 0.187003 79.4635 0.365697C79.8016 0.544392 80.063 0.798687 80.2478 1.12687C80.4325 1.45504 80.5249 1.83649 80.5249 2.26948C80.5249 2.73683 80.4064 3.13546 80.1694 3.46879C79.9323 3.80212 79.6011 4.03752 79.1776 4.17498C79.1428 4.18872 79.1323 4.21278 79.1462 4.24714L80.5667 7.16123C80.5807 7.18872 80.5877 7.20934 80.5877 7.22309C80.5877 7.27807 80.5493 7.30556 80.4726 7.30556H79.1881C79.1183 7.30556 79.0695 7.27463 79.0417 7.21278H79.0399ZM76.6486 1.39491V3.15608C76.6486 3.19044 76.666 3.20762 76.7009 3.20762H78.0691C78.3619 3.20762 78.6007 3.12171 78.7837 2.94989C78.9685 2.77807 79.0608 2.5547 79.0608 2.27979C79.0608 2.00487 78.9685 1.77979 78.7837 1.60625C78.599 1.43099 78.3602 1.34336 78.0691 1.34336H76.7009C76.666 1.34336 76.6486 1.36054 76.6486 1.39491Z" fill="#00BA2B"/>
<path d="M86.6266 1.30728C86.6022 1.33133 86.5725 1.34336 86.5377 1.34336H83.111C83.0762 1.34336 83.0587 1.36054 83.0587 1.39491V2.99113C83.0587 3.02549 83.0762 3.04267 83.111 3.04267H85.3577C85.3926 3.04267 85.4222 3.0547 85.4466 3.07876C85.471 3.10281 85.4832 3.13202 85.4832 3.16638V4.16467C85.4832 4.19903 85.471 4.22824 85.4466 4.2523C85.4222 4.27635 85.3926 4.28838 85.3577 4.28838H83.111C83.0762 4.28838 83.0587 4.30556 83.0587 4.33992V6.00831C83.0587 6.04267 83.0762 6.05986 83.111 6.05986H86.5377C86.5725 6.05986 86.6022 6.07188 86.6266 6.09594C86.651 6.11999 86.6632 6.1492 86.6632 6.18357V7.18185C86.6632 7.21621 86.651 7.24542 86.6266 7.26948C86.6022 7.29353 86.5725 7.30556 86.5377 7.30556H81.7114C81.6766 7.30556 81.6469 7.29353 81.6225 7.26948C81.5981 7.24542 81.5859 7.21621 81.5859 7.18185V0.221368C81.5859 0.187003 81.5981 0.157794 81.6225 0.133739C81.6469 0.109684 81.6766 0.0976562 81.7114 0.0976562H86.5377C86.5725 0.0976562 86.6022 0.109684 86.6266 0.133739C86.651 0.157794 86.6632 0.187003 86.6632 0.221368V1.21965C86.6632 1.25401 86.651 1.28322 86.6266 1.30728Z" fill="#00BA2B"/>
<path d="M88.659 7.1234C88.2407 6.94814 87.9182 6.69729 87.6934 6.37083C87.4668 6.04436 87.3535 5.66464 87.3535 5.23337V5.00656C87.3535 4.9722 87.3657 4.94299 87.3901 4.91894C87.4145 4.89488 87.4441 4.88285 87.479 4.88285H88.6695C88.7043 4.88285 88.7339 4.89488 88.7583 4.91894C88.7827 4.94299 88.7949 4.9722 88.7949 5.00656V5.1612C88.7949 5.43612 88.9239 5.66808 89.1819 5.85708C89.4398 6.04608 89.7884 6.14058 90.2259 6.14058C90.5954 6.14058 90.8708 6.06327 91.0503 5.90863C91.2316 5.75399 91.3222 5.56327 91.3222 5.33646C91.3222 5.17151 91.2665 5.03234 91.1549 4.91894C91.0434 4.80553 90.8917 4.70588 90.7 4.61997C90.5083 4.53406 90.2033 4.4155 89.7867 4.2643C89.3196 4.10622 88.9257 3.94471 88.6015 3.77976C88.2773 3.61481 88.0054 3.38973 87.7875 3.1045C87.5679 2.81928 87.4581 2.46705 87.4581 2.04952C87.4581 1.63199 87.5662 1.27804 87.7823 0.968763C87.9984 0.659485 88.2982 0.422372 88.6799 0.259141C89.0616 0.0959112 89.5043 0.0117188 90.0063 0.0117188C90.5362 0.0117188 91.0068 0.104502 91.4216 0.290069C91.8364 0.475636 92.1606 0.735086 92.3924 1.0667C92.626 1.40003 92.7427 1.78663 92.7427 2.22478V2.37942C92.7427 2.41378 92.7305 2.44299 92.7061 2.46705C92.6817 2.4911 92.6521 2.50313 92.6173 2.50313H91.4163C91.3815 2.50313 91.3519 2.4911 91.3275 2.46705C91.3031 2.44299 91.2909 2.41378 91.2909 2.37942V2.29694C91.2909 2.00828 91.1706 1.76258 90.9301 1.55983C90.6895 1.35708 90.3601 1.25571 89.9435 1.25571C89.6159 1.25571 89.3597 1.32443 89.1749 1.46189C88.9902 1.59935 88.8978 1.78835 88.8978 2.0289C88.8978 2.20072 88.9518 2.34505 89.0599 2.46189C89.1679 2.57873 89.3283 2.68354 89.5409 2.77632C89.7536 2.86911 90.083 2.99454 90.5274 3.15261C91.0224 3.33131 91.4094 3.48938 91.6917 3.62684C91.9741 3.7643 92.2286 3.96876 92.4552 4.24024C92.6817 4.51172 92.795 4.86395 92.795 5.29522C92.795 5.94127 92.5545 6.44986 92.0752 6.82443C91.5941 7.199 90.944 7.38629 90.1213 7.38629C89.5636 7.38629 89.0773 7.29866 88.659 7.1234Z" fill="#00BA2B"/>
<path d="M98.9633 0.133739C98.9877 0.157794 98.9999 0.187003 98.9999 0.221368V1.22996C98.9999 1.26432 98.9877 1.29353 98.9633 1.31759C98.9389 1.34164 98.9092 1.35367 98.8744 1.35367H97.0042C96.9693 1.35367 96.9519 1.37085 96.9519 1.40522V7.18185C96.9519 7.21621 96.9397 7.24542 96.9153 7.26948C96.8909 7.29353 96.8613 7.30556 96.8264 7.30556H95.6046C95.5697 7.30556 95.5401 7.29353 95.5157 7.26948C95.4913 7.24542 95.4791 7.21621 95.4791 7.18185V1.40522C95.4791 1.37085 95.4617 1.35367 95.4268 1.35367H93.6089C93.574 1.35367 93.5444 1.34164 93.52 1.31759C93.4956 1.29353 93.4834 1.26432 93.4834 1.22996V0.221368C93.4834 0.187003 93.4956 0.157794 93.52 0.133739C93.5444 0.109684 93.574 0.0976562 93.6089 0.0976562H98.8744C98.9092 0.0976562 98.9389 0.109684 98.9633 0.133739Z" fill="#00BA2B"/>
<path d="M23.6172 19.8392C23.584 19.8066 23.5684 19.7688 23.5684 19.7224V10.4423C23.5684 10.3959 23.584 10.3581 23.6172 10.3255C23.6503 10.2928 23.6886 10.2773 23.7357 10.2773H25.3653C25.4124 10.2773 25.4508 10.2928 25.4839 10.3255C25.517 10.3581 25.5327 10.3959 25.5327 10.4423V19.7224C25.5327 19.7688 25.517 19.8066 25.4839 19.8392C25.4508 19.8718 25.4124 19.8873 25.3653 19.8873H23.7357C23.6886 19.8873 23.6503 19.8718 23.6172 19.8392Z" fill="#014B25"/>
<path d="M32.6351 13.3928C33.09 13.8412 33.3183 14.4495 33.3183 15.2192V19.7227C33.3183 19.769 33.3027 19.8068 33.2695 19.8395C33.2364 19.8721 33.1981 19.8876 33.151 19.8876H31.5214C31.4743 19.8876 31.436 19.8721 31.4028 19.8395C31.3697 19.8068 31.354 19.769 31.354 19.7227V15.6178C31.354 15.2519 31.2495 14.9546 31.0403 14.7261C30.8311 14.4976 30.5558 14.3825 30.2124 14.3825C29.869 14.3825 29.5919 14.4976 29.3845 14.7261C29.1753 14.9546 29.0708 15.2519 29.0708 15.6178V19.7227C29.0708 19.769 29.0551 19.8068 29.022 19.8395C28.9888 19.8721 28.9505 19.8876 28.9034 19.8876H27.2738C27.2267 19.8876 27.1884 19.8721 27.1552 19.8395C27.1221 19.8068 27.1064 19.769 27.1064 19.7227V12.9959C27.1064 12.9495 27.1221 12.9117 27.1552 12.879C27.1884 12.8464 27.2267 12.8309 27.2738 12.8309H28.9034C28.9505 12.8309 28.9888 12.8464 29.022 12.879C29.0551 12.9117 29.0708 12.9495 29.0708 12.9959V13.477C29.0708 13.5044 29.0795 13.5233 29.0986 13.5319C29.1178 13.5405 29.1318 13.5371 29.1405 13.5182C29.5204 12.9873 30.0869 12.7227 30.8399 12.7227C31.5928 12.7227 32.1819 12.9477 32.6368 13.3962V13.3928H32.6351Z" fill="#014B25"/>
<path d="M34.9954 11.7263C34.7862 11.5201 34.6816 11.2624 34.6816 10.9514C34.6816 10.6404 34.7845 10.3706 34.9884 10.1696C35.1923 9.96856 35.4573 9.86719 35.7814 9.86719C36.1056 9.86719 36.3706 9.96856 36.5745 10.1696C36.7784 10.3706 36.8813 10.6318 36.8813 10.9514C36.8813 11.271 36.7767 11.5218 36.5675 11.7263C36.3584 11.9308 36.0969 12.0356 35.7814 12.0356C35.466 12.0356 35.2028 11.9325 34.9954 11.7263ZM34.8281 19.8397C34.7949 19.8071 34.7792 19.7692 34.7792 19.7229V12.9823C34.7792 12.9359 34.7949 12.8981 34.8281 12.8655C34.8612 12.8328 34.8995 12.8174 34.9466 12.8174H36.5762C36.6233 12.8174 36.6616 12.8328 36.6948 12.8655C36.7279 12.8981 36.7436 12.9359 36.7436 12.9823V19.7229C36.7436 19.7692 36.7279 19.8071 36.6948 19.8397C36.6616 19.8723 36.6233 19.8878 36.5762 19.8878H34.9466C34.8995 19.8878 34.8612 19.8723 34.8281 19.8397Z" fill="#014B25"/>
<path d="M42.3347 14.3343C42.3016 14.3669 42.2633 14.3824 42.2162 14.3824H40.8794C40.8323 14.3824 40.8097 14.4047 40.8097 14.4511V17.3618C40.8097 17.6642 40.8724 17.8875 40.9979 18.0353C41.1234 18.1813 41.3256 18.2552 41.6044 18.2552H42.0646C42.1116 18.2552 42.15 18.2707 42.1831 18.3033C42.2162 18.336 42.2319 18.3738 42.2319 18.4202V19.7243C42.2319 19.8257 42.1761 19.8841 42.0646 19.903C41.6742 19.9219 41.3953 19.9305 41.2297 19.9305C40.4593 19.9305 39.8841 19.8051 39.5024 19.5525C39.1225 19.3016 38.9273 18.8274 38.9168 18.1315V14.4528C38.9168 14.4064 38.8942 14.3841 38.8471 14.3841H38.054C38.007 14.3841 37.9686 14.3686 37.9355 14.336C37.9024 14.3033 37.8867 14.2655 37.8867 14.2191V12.9975C37.8867 12.9511 37.9024 12.9133 37.9355 12.8807C37.9686 12.848 38.007 12.8325 38.054 12.8325H38.8471C38.8942 12.8325 38.9168 12.8102 38.9168 12.7638V11.1298C38.9168 11.0834 38.9325 11.0456 38.9656 11.013C38.9987 10.9803 39.0371 10.9648 39.0841 10.9648H40.6441C40.6911 10.9648 40.7295 10.9803 40.7626 11.013C40.7957 11.0456 40.8114 11.0834 40.8114 11.1298V12.7638C40.8114 12.8102 40.8341 12.8325 40.8811 12.8325H42.218C42.265 12.8325 42.3034 12.848 42.3365 12.8807C42.3696 12.9133 42.3853 12.9511 42.3853 12.9975V14.2191C42.3853 14.2655 42.3696 14.3033 42.3365 14.336H42.3347V14.3343Z" fill="#014B25"/>
<path d="M43.8391 11.7263C43.63 11.5201 43.5254 11.2624 43.5254 10.9514C43.5254 10.6404 43.6265 10.3706 43.8322 10.1696C44.0378 9.96856 44.301 9.86719 44.6252 9.86719C44.9494 9.86719 45.2143 9.96856 45.4182 10.1696C45.6222 10.3706 45.725 10.6318 45.725 10.9514C45.725 11.271 45.6204 11.5218 45.4113 11.7263C45.2021 11.9325 44.9407 12.0356 44.6252 12.0356C44.3097 12.0356 44.0465 11.9325 43.8391 11.7263ZM43.6718 19.8397C43.6387 19.8071 43.623 19.7692 43.623 19.7229V12.9823C43.623 12.9359 43.6387 12.8981 43.6718 12.8655C43.7049 12.8328 43.7433 12.8174 43.7903 12.8174H45.42C45.467 12.8174 45.5054 12.8328 45.5385 12.8655C45.5716 12.8981 45.5873 12.9359 45.5873 12.9823V19.7229C45.5873 19.7692 45.5716 19.8071 45.5385 19.8397C45.5054 19.8723 45.467 19.8878 45.42 19.8878H43.7903C43.7433 19.8878 43.7049 19.8723 43.6718 19.8397Z" fill="#014B25"/>
<path d="M51.5884 13.0337C52.0625 13.2398 52.4302 13.5216 52.6951 13.8773C52.9601 14.2347 53.0925 14.6316 53.0925 15.0715V19.7261C53.0925 19.7725 53.0769 19.8103 53.0437 19.8429C53.0106 19.8756 52.9723 19.891 52.9252 19.891H51.2956C51.2485 19.891 51.2102 19.8756 51.177 19.8429C51.1439 19.8103 51.1282 19.7725 51.1282 19.7261V19.2725C51.1282 19.245 51.1195 19.2261 51.1003 19.2175C51.0812 19.2089 51.0637 19.2175 51.0446 19.245C50.6541 19.7484 50.0284 19.9993 49.1639 19.9993C48.4406 19.9993 47.855 19.8257 47.4088 19.477C46.9626 19.1299 46.7412 18.6161 46.7412 17.9392C46.7412 17.2622 46.9922 16.6883 47.4924 16.2983C47.9944 15.9099 48.709 15.7141 49.6363 15.7141H51.0568C51.1038 15.7141 51.1265 15.6917 51.1265 15.6453V15.3429C51.1265 15.0405 51.0341 14.8051 50.8476 14.6367C50.6611 14.4666 50.384 14.3825 50.0127 14.3825C49.7252 14.3825 49.4864 14.4323 49.2946 14.5337C49.1047 14.635 48.9809 14.7759 48.9251 14.9598C48.8972 15.0611 48.8362 15.1058 48.7439 15.0972L47.0584 14.8773C46.9469 14.8584 46.8963 14.8172 46.905 14.7536C46.9416 14.3687 47.0968 14.0216 47.3722 13.7106C47.6458 13.3996 48.0083 13.1574 48.458 12.9838C48.9077 12.8103 49.4114 12.7227 49.9692 12.7227C50.5722 12.7227 51.1108 12.8257 51.5849 13.0319H51.5884V13.0337ZM50.7117 18.2433C50.9905 18.0337 51.13 17.7622 51.13 17.434V16.9392C51.13 16.8928 51.1073 16.8704 51.0603 16.8704H50.0581C49.6397 16.8704 49.3138 16.9477 49.0768 17.1041C48.8397 17.2605 48.7212 17.4787 48.7212 17.7622C48.7212 18.0096 48.8101 18.2038 48.9861 18.3464C49.1622 18.489 49.3992 18.5594 49.6973 18.5594C50.0964 18.5594 50.4345 18.4546 50.7134 18.2433H50.7117Z" fill="#014B25"/>
<path d="M58.3787 14.3343C58.3456 14.3669 58.3072 14.3824 58.2602 14.3824H56.9233C56.8763 14.3824 56.8536 14.4047 56.8536 14.4511V17.3618C56.8536 17.6642 56.9163 17.8875 57.0418 18.0353C57.1673 18.1813 57.3695 18.2552 57.6484 18.2552H58.1085C58.1556 18.2552 58.1939 18.2707 58.2271 18.3033C58.2602 18.336 58.2759 18.3738 58.2759 18.4202V19.7243C58.2759 19.8257 58.2201 19.8841 58.1085 19.903C57.7181 19.9219 57.4392 19.9305 57.2737 19.9305C56.5033 19.9305 55.9281 19.8051 55.5464 19.5525C55.1664 19.3016 54.9712 18.8274 54.9607 18.1315V14.4528C54.9607 14.4064 54.9381 14.3841 54.891 14.3841H54.098C54.0509 14.3841 54.0126 14.3686 53.9795 14.336C53.9464 14.3033 53.9307 14.2655 53.9307 14.2191V12.9975C53.9307 12.9511 53.9464 12.9133 53.9795 12.8807C54.0126 12.848 54.0509 12.8325 54.098 12.8325H54.891C54.9381 12.8325 54.9607 12.8102 54.9607 12.7638V11.1298C54.9607 11.0834 54.9764 11.0456 55.0096 11.013C55.0427 10.9803 55.081 10.9648 55.1281 10.9648H56.688C56.7351 10.9648 56.7734 10.9803 56.8065 11.013C56.8397 11.0456 56.8553 11.0834 56.8553 11.1298V12.7638C56.8553 12.8102 56.878 12.8325 56.9251 12.8325H58.2619C58.309 12.8325 58.3473 12.848 58.3804 12.8807C58.4136 12.9133 58.4292 12.9511 58.4292 12.9975V14.2191C58.4292 14.2655 58.4136 14.3033 58.3804 14.336H58.3787V14.3343Z" fill="#014B25"/>
<path d="M59.8811 11.7263C59.672 11.5201 59.5674 11.2624 59.5674 10.9514C59.5674 10.6404 59.6685 10.3706 59.8741 10.1696C60.0798 9.96856 60.343 9.86719 60.6672 9.86719C60.9914 9.86719 61.2563 9.96856 61.4602 10.1696C61.6642 10.3706 61.767 10.6318 61.767 10.9514C61.767 11.271 61.6624 11.5218 61.4533 11.7263C61.2441 11.9325 60.9827 12.0356 60.6672 12.0356C60.3517 12.0356 60.0885 11.9325 59.8811 11.7263ZM59.7138 19.8397C59.6807 19.8071 59.665 19.7692 59.665 19.7229V12.9823C59.665 12.9359 59.6807 12.8981 59.7138 12.8655C59.7469 12.8328 59.7853 12.8174 59.8323 12.8174H61.462C61.509 12.8174 61.5474 12.8328 61.5805 12.8655C61.6136 12.8981 61.6293 12.9359 61.6293 12.9823V19.7229C61.6293 19.7692 61.6136 19.8071 61.5805 19.8397C61.5474 19.8723 61.509 19.8878 61.462 19.8878H59.8323C59.7853 19.8878 59.7469 19.8723 59.7138 19.8397Z" fill="#014B25"/>
<path d="M64.9719 19.7533L62.7444 13.0128C62.7357 12.9939 62.7305 12.9715 62.7305 12.944C62.7305 12.8615 62.781 12.8203 62.8838 12.8203H64.6808C64.7819 12.8203 64.8482 12.8667 64.876 12.9578L66.0177 17.1176C66.0264 17.1451 66.0403 17.1588 66.0595 17.1588C66.0787 17.1588 66.0926 17.1451 66.1013 17.1176L67.243 12.9578C67.2709 12.8667 67.3354 12.8203 67.4382 12.8203L69.2352 12.8478C69.291 12.8478 69.3328 12.8633 69.3607 12.8959C69.3886 12.9286 69.3938 12.9767 69.3746 13.0402L67.1611 19.7533C67.1332 19.8444 67.0722 19.8908 66.9798 19.8908H65.1549C65.0625 19.8908 65.0015 19.8444 64.9737 19.7533H64.9719Z" fill="#014B25"/>
<path d="M76.3366 16.7998C76.3279 16.9098 76.2669 16.9648 76.1553 16.9648H71.852C71.7962 16.9648 71.777 16.9871 71.7962 17.0335C71.8241 17.2173 71.8746 17.3995 71.9496 17.5833C72.1901 18.0953 72.6833 18.3514 73.4258 18.3514C74.0202 18.3428 74.4891 18.1039 74.8324 17.6383C74.869 17.5833 74.9108 17.5558 74.9579 17.5558C74.9858 17.5558 75.0189 17.5747 75.0555 17.6108L76.0577 18.585C76.1048 18.6314 76.1274 18.6727 76.1274 18.7087C76.1274 18.7277 76.1083 18.7637 76.0717 18.8187C75.7649 19.1933 75.371 19.4854 74.8882 19.6898C74.4054 19.896 73.8755 19.9991 73.3004 19.9991C72.5021 19.9991 71.8258 19.8204 71.2733 19.463C70.7208 19.1057 70.3234 18.6074 70.0829 17.9665C69.8876 17.5094 69.79 16.9098 69.79 16.1675C69.79 15.6641 69.8598 15.2208 69.9992 14.8359C70.2118 14.1864 70.5866 13.6692 71.1199 13.2844C71.6533 12.8995 72.2877 12.707 73.0215 12.707C73.9505 12.707 74.6947 12.9734 75.256 13.5026C75.8172 14.0335 76.1588 14.7431 76.2791 15.6297C76.3348 15.9768 76.354 16.3668 76.3348 16.7964V16.7998H76.3366ZM71.8798 15.1933C71.8432 15.3118 71.8101 15.4596 71.7822 15.6331C71.7822 15.6795 71.8049 15.7019 71.852 15.7019H74.2607C74.3165 15.7019 74.3357 15.6795 74.3165 15.6331C74.2694 15.3685 74.2468 15.2397 74.2468 15.2483C74.1631 14.9734 74.0167 14.7603 73.8076 14.6091C73.5984 14.4579 73.3404 14.3823 73.0354 14.3823C72.4498 14.3823 72.0646 14.652 71.8798 15.1916V15.1933Z" fill="#014B25"/>
<path d="M9.1331 18.0069C4.08898 18.0069 0 13.9759 0 9.00344C0 4.03093 4.08898 0 9.1331 0C14.1772 0 18.2662 4.03093 18.2662 9.00344C18.2592 13.9742 14.1755 18 9.1331 18.0069ZM9.1331 1.89347C5.15044 1.89347 1.92423 5.0756 1.92423 9C1.92423 12.9244 5.15218 16.1065 9.1331 16.1065C13.114 16.1065 16.342 12.9244 16.342 9C16.335 5.07904 13.1105 1.90034 9.1331 1.89347Z" fill="#00BA2B"/>
<path d="M9.13299 17.549C4.34683 17.549 0.467008 13.7243 0.468751 9.00608C0.468751 4.28787 4.34858 0.463126 9.13474 0.464844C13.9209 0.464844 17.799 4.28959 17.799 9.00608C17.7938 13.7226 13.9174 17.5439 9.13299 17.549ZM9.13299 1.43563C4.89064 1.43563 1.45352 4.82567 1.45352 9.00608C1.45352 13.1865 4.89238 16.5765 9.13299 16.5765C13.3736 16.5765 16.8125 13.1865 16.8125 9.00608C16.8072 4.82567 13.3719 1.43907 9.13299 1.43392V1.43563Z" fill="#00BA2B"/>
<path d="M8.31703 19.8277V14.1747C8.31703 14.0802 8.24034 14.0046 8.14447 14.0046H6.34226C6.24639 14.0046 6.1697 13.929 6.1697 13.8345V12.3019C6.1697 12.2074 6.24639 12.1318 6.34226 12.1318H8.14273C8.23859 12.1352 8.31877 12.0613 8.32051 11.9668V10.3723C8.32051 10.2761 8.24034 10.1971 8.14273 10.1971H5.15704C5.06292 10.1971 4.98623 10.1232 4.98449 10.0304V8.49948C4.98101 8.40497 5.05595 8.32594 5.15182 8.32422H13.4187C13.5163 8.32422 13.5964 8.40326 13.5964 8.49948V10.0321C13.5964 10.1266 13.5198 10.2022 13.4239 10.2022H10.4469C10.3511 10.2022 10.2744 10.2778 10.2744 10.3723V11.9514C10.2744 12.0459 10.3511 12.1215 10.4469 12.1215H12.2422C12.338 12.1215 12.4147 12.1971 12.4147 12.2916V13.8242C12.4147 13.9187 12.338 13.9943 12.2422 13.9943H10.4469C10.3511 13.9943 10.2744 14.0699 10.2744 14.1644V19.8277C10.2744 19.9222 10.1977 19.9978 10.1018 19.9995H8.48958C8.39372 19.9995 8.31703 19.9239 8.31703 19.8294V19.8277Z" fill="#014B25"/>
</g>
<defs>
<clipPath id="clip0_2141_9407">
<rect width="99" height="20" fill="white"/>
</clipPath>
</defs>
</svg>
