<svg width="47" height="47" viewBox="0 0 47 47" fill="none" xmlns="http://www.w3.org/2000/svg">
<path d="M46.848 23.5625C46.848 36.09 36.3417 46.2187 23.424 46.2187C10.4719 46.2187 0 36.0567 0 23.5625C0 11.0349 10.5064 0.90625 23.424 0.90625C36.3761 0.90625 46.848 11.0682 46.848 23.5625Z" fill="white"/>
<path d="M8.06125 35.3559C8.23348 35.2226 8.26793 34.9561 8.13014 34.7895C7.99235 34.6229 7.71678 34.5896 7.54454 34.7229C7.3723 34.8561 7.33786 35.0894 7.47565 35.2893C7.61344 35.4559 7.88901 35.4892 8.06125 35.3559Z" fill="#084780"/>
<path d="M10.5061 39.1868L9.33489 38.2539L12.0562 37.5542L12.1251 37.4876L10.575 36.2215L10.6439 36.1216L10.5061 35.9883L10.0927 36.4881L10.2305 36.588L10.4372 36.3881L11.5395 37.2544L8.81819 37.954L8.71484 38.054L10.5061 39.4867L10.885 39.0202L10.7472 38.8869L10.5061 39.1868Z" fill="#084780"/>
<path d="M15.7767 39.622L14.7778 39.0889L14.6744 39.2888L15.0533 39.4887L14.3644 40.6882C14.1233 41.088 13.7099 41.2213 13.331 41.0214C12.9521 40.8215 12.8832 40.4216 13.0898 40.0218L13.7788 38.8224L14.1577 39.0223L14.2611 38.8224L13.1243 38.2227L13.021 38.4226L13.3999 38.6225L12.642 39.9219C12.3665 40.3883 12.5731 40.9214 13.1243 41.2213C13.7099 41.5211 14.2955 41.3879 14.6055 40.8548L15.2945 39.622L15.6734 39.8219L15.7767 39.622Z" fill="#084780"/>
<path d="M18.4983 40.7222L18.8772 40.8222C19.1528 40.8888 19.2561 41.0887 19.1872 41.3552C19.1183 41.6218 18.8772 41.7551 18.6016 41.6884L18.2571 41.5885L18.4983 40.7222ZM18.2227 41.8217L18.6361 41.9216C19.015 42.0216 19.1528 42.2215 19.0494 42.5547C18.9805 42.8545 18.7394 42.9545 18.3605 42.8879L17.9816 42.7879L18.2227 41.8217ZM18.5327 43.1211C19.0494 43.2544 19.4283 43.0878 19.5317 42.688C19.635 42.2881 19.3939 41.955 18.8772 41.8217C19.2905 41.9216 19.635 41.7551 19.7039 41.4219C19.8073 41.0554 19.5661 40.7222 19.0839 40.6222L17.7404 40.2891L17.706 40.489L18.1193 40.5889L17.5682 42.688L17.1548 42.588L17.0859 42.7879L18.5327 43.1211Z" fill="#084780"/>
<path d="M23.2515 43.4187L22.287 43.3853L22.3214 42.4191L23.0448 42.4524V42.719H23.2515L23.2859 41.9527H23.0792L23.0448 42.2192L22.3214 42.1859L22.3558 41.2863H23.2859V41.5862H23.4926L23.5271 40.9864L23.3204 40.9531L23.2859 41.0864L21.4947 41.0198V41.2197L21.9425 41.253L21.8391 43.3853H21.4258V43.5852L23.4582 43.6519L23.4926 43.1188H23.2515V43.4187Z" fill="#084780"/>
<path d="M26.0082 41.0869L26.3871 41.0202C26.6971 40.9869 26.8694 41.1202 26.9038 41.4201C26.9383 41.7199 26.8005 41.9532 26.5249 41.9865L26.1115 42.0531L26.0082 41.0869ZM28.075 42.9194L27.9028 42.9527C27.765 42.986 27.6616 42.9194 27.5583 42.7861L26.9038 42.1197C27.2827 41.9865 27.455 41.6866 27.3861 41.3201C27.3172 40.887 26.9727 40.6871 26.4216 40.787L25.0781 40.9869L25.1126 41.2202L25.5259 41.1535L25.8704 43.2526L25.457 43.3192L25.4915 43.5191L26.766 43.3192L26.7316 43.1193L26.3182 43.1859L26.1804 42.2863L26.456 42.253L27.2138 43.0526C27.3861 43.2526 27.455 43.2526 27.6961 43.2192L28.1095 43.1526L28.075 42.9194Z" fill="#084780"/>
<path d="M31.4846 41.753L30.589 42.0528L29.8312 40.0871L30.2101 39.9538L30.1412 39.7539L28.9355 40.187L29.0044 40.387L29.4178 40.2537L30.2101 42.2194L29.7967 42.386L29.8656 42.5859L31.7602 41.8863L31.5535 41.3532L31.3813 41.4198L31.4846 41.753Z" fill="#084780"/>
<path d="M32.7245 38.7201L33.0689 38.4869L32.9656 38.3203L31.8633 38.9534L31.9666 39.1533L32.3455 38.92L33.4823 40.7525L33.1034 40.9524L33.2067 41.1523L34.309 40.486L34.2057 40.3194L33.8612 40.5526L32.7245 38.7201Z" fill="#084780"/>
<path d="M36.5477 35.457L35.7209 36.2233L35.8587 36.3899L36.2032 36.0901L37.3055 37.2562L34.8597 36.9897L34.3086 37.4894L34.4808 37.656L34.7564 37.3895L34.9631 37.4228L36.341 38.8555L36.0309 39.1553L36.1687 39.2886L37.0299 38.5556L36.8921 38.389L36.5477 38.6889L35.4109 37.4894L37.96 37.756L38.0633 37.656L36.4099 35.9235L36.7199 35.6236L36.5477 35.457Z" fill="#084780"/>
<path d="M39.2348 34.1256C39.0626 33.9923 38.787 34.0589 38.6837 34.2255C38.5459 34.3921 38.6148 34.6587 38.787 34.7586C38.9592 34.8919 39.2348 34.8586 39.3381 34.6587C39.4415 34.5254 39.407 34.2589 39.2348 34.1256Z" fill="#084780"/>
<path d="M3.85814 30.5944L3.68591 30.2279L3.51367 30.2946L4.03038 31.4274L4.23706 31.3607L4.06482 30.9943L4.96045 30.5944L5.5805 31.9938L4.68487 32.3603L4.51263 31.9938L4.30595 32.0604L4.85711 33.2266L5.02934 33.1266L4.85711 32.7601L6.88948 31.8605L7.06172 32.2603L7.2684 32.1604L6.75169 31.0276L6.54501 31.1275L6.71724 31.494L5.78717 31.8938L5.16713 30.4945L6.0972 30.128L6.26944 30.4945L6.44167 30.3945L5.92497 29.2617L5.71828 29.3284L5.89052 29.7282L3.85814 30.5944Z" fill="#084780"/>
<path d="M2.44531 25.2266L2.61755 26.3261L2.85868 26.2927L2.78978 25.8929L4.20211 25.693C4.64993 25.6264 5.02884 25.8596 5.09774 26.2927C5.16663 26.6926 4.89106 26.9924 4.44324 27.0924L3.03091 27.3256L2.96202 26.9258L2.72089 26.9591L2.92757 28.1919L3.1687 28.1585L3.0998 27.7587L4.64992 27.5255C5.16663 27.4589 5.5111 26.9591 5.40776 26.3594C5.30442 25.7263 4.82216 25.3598 4.20211 25.4598L2.78978 25.693L2.72089 25.2932L2.44531 25.2266Z" fill="#084780"/>
<path d="M2.96185 19.9956L3.03074 19.5958L2.78961 19.5625L2.68627 20.4288L4.47751 21.5283L2.44514 22.1613L2.3418 22.9942L2.58293 23.0276L2.65182 22.6278L4.82198 22.861L4.78754 23.2941H4.99422L5.13201 22.1946H4.92533L4.85643 22.5944L3.06519 22.3945L5.23535 21.6948L3.20297 20.4621L5.09756 20.6953L5.06312 21.0951L5.2698 21.1284L5.40759 19.8624H5.2009L5.16646 20.2622L2.96185 19.9956Z" fill="#084780"/>
<path d="M3.96131 16.6656L4.0991 16.2991C4.20244 16.0325 4.40912 15.9659 4.6847 16.0659C4.96027 16.1658 5.06362 16.399 4.96027 16.6656L4.82248 16.9988L3.96131 16.6656ZM5.02917 17.0654L5.16695 16.6989C5.30474 16.3657 5.54587 16.2658 5.85589 16.3657C6.16592 16.4657 6.23482 16.6989 6.09703 17.0654L5.95924 17.4319L5.02917 17.0654ZM6.40705 16.9321C6.61373 16.4324 6.47594 16.0659 6.06258 15.9326C5.64921 15.7993 5.30474 15.9659 5.09806 16.4657C5.23585 16.0992 5.13251 15.7327 4.82248 15.5994C4.44357 15.4661 4.0991 15.666 3.92686 16.0992L3.41016 17.3653L3.61684 17.4319L3.75463 17.0321L5.82145 17.7984L5.68366 18.1982L5.89034 18.2648L6.40705 16.9321Z" fill="#084780"/>
<path d="M6.16591 12.4019C6.44149 12.0354 7.09598 12.0021 7.61268 12.3352C8.12939 12.7017 8.33607 13.2681 8.0605 13.668C7.78492 14.0345 7.13043 14.0678 6.61372 13.7013C6.09702 13.3681 5.89033 12.7684 6.16591 12.4019ZM8.26718 13.8012C8.68054 13.2348 8.50831 12.3686 7.88826 11.9687C7.26821 11.5689 6.40704 11.7022 5.99367 12.2686C5.58031 12.835 5.75254 13.7013 6.33814 14.1011C6.95819 14.5342 7.85381 14.3676 8.26718 13.8012Z" fill="#084780"/>
<path d="M11.1949 10.1374L10.5059 10.7704L8.99026 9.27114L9.30028 8.97128L9.16249 8.80469L8.23242 9.67095L8.37021 9.83754L8.68023 9.53768L10.2304 11.0703L9.92033 11.3702L10.0581 11.5034L11.5049 10.1374L11.126 9.73759L10.9537 9.90418L11.1949 10.1374Z" fill="#084780"/>
<path d="M13.0897 8.77054L11.9185 6.97137L12.2974 6.73814C12.7453 6.4716 13.3309 6.63819 13.6753 7.17128C14.0198 7.67105 13.9165 8.27077 13.4686 8.53731L13.0897 8.77054ZM12.4697 9.40358L13.6064 8.7039C14.2609 8.30409 14.4676 7.53778 14.0887 6.90473C13.7098 6.30501 12.883 6.13842 12.2285 6.53824L11.0918 7.23791L11.1951 7.4045L11.5741 7.17128L12.7453 9.00377L12.3663 9.23699L12.4697 9.40358Z" fill="#084780"/>
<path d="M16.534 4.80492L17.3262 4.53837L17.4296 4.83823L17.6363 4.7716L17.4296 4.17188L17.2229 4.23851L17.2573 4.33846L15.2594 5.00482L15.225 4.90487L15.0527 4.97151L15.2594 5.57123L15.4661 5.50459L15.3628 5.20473L16.1206 4.93819L16.844 6.97058L16.3962 7.13717L16.4651 7.30376L17.8085 6.87063L17.7396 6.67072L17.2573 6.83731L16.534 4.80492Z" fill="#084780"/>
<path d="M19.3589 5.36925L20.4612 5.20266L20.3579 4.76953L19.29 4.96944L19.3589 5.36925Z" fill="#084780"/>
<path d="M24.9054 3.57445L23.7686 3.54113V3.77436H24.182L24.1475 5.17371C24.1475 5.60684 23.8375 5.94002 23.3897 5.94002C22.9763 5.94002 22.7008 5.60684 22.7008 5.17371L22.7352 3.77436H23.183V3.54113L21.874 3.50781V3.74104H22.3218L22.2874 5.24035C22.2874 5.77343 22.7008 6.13993 23.3208 6.17325C23.9753 6.17325 24.4231 5.77343 24.4231 5.17371L24.4576 3.77436H24.8709L24.9054 3.57445Z" fill="#084780"/>
<path d="M30.0715 4.571L28.9692 4.30446L28.9003 4.50436L29.3137 4.60432L28.9003 6.13694L27.8324 4.00459L27.109 3.80469L27.0401 4.03791L27.4535 4.13787L27.5224 4.30446L26.9713 6.20358L26.5579 6.10363L26.5234 6.30353L27.6257 6.6034L27.6602 6.40349L27.2468 6.30353L27.6946 4.70427L28.7969 6.93658L28.9692 7.00321L29.5892 4.70427L30.0026 4.80423L30.0715 4.571Z" fill="#084780"/>
<path d="M32.793 6.03906L33.1719 6.23897L33.2753 6.03906L32.1385 5.47266L32.0352 5.63925L32.4141 5.83915L31.3807 7.73828L31.0018 7.53837L30.8984 7.70496L32.0352 8.30468L32.1385 8.13809L31.7596 7.93819L32.793 6.03906Z" fill="#084780"/>
<path d="M36.7213 8.30423L36.0668 7.83777L35.929 8.00436L36.2046 8.20427L34.5512 9.13717L35.0334 7.338L35.309 7.53791L35.4468 7.37132L34.5856 6.73828L34.4478 6.90487L34.6545 7.07146L34 9.57031L34.1033 9.67026L36.4113 8.33754L36.5835 8.47082L36.7213 8.30423Z" fill="#084780"/>
<path d="M37.5129 12.4338L36.8584 11.7341L37.6163 11.0678L38.0985 11.6009L37.8918 11.8008L38.0296 11.934L38.6152 11.4343L38.4774 11.301L38.2707 11.4676L37.754 10.9345L38.4774 10.3015L39.0975 11.0011L38.8908 11.2011L39.0286 11.3343L39.5108 10.9345L39.3731 10.7679L39.2697 10.8346L38.0641 9.53516L37.9263 9.70175L38.2018 10.0016L36.5484 11.4343L36.2728 11.1344L36.1006 11.2677L37.4785 12.7337L37.8918 12.4005L37.7196 12.2339L37.5129 12.4338Z" fill="#084780"/>
<path d="M40.4071 17.6631C40.3727 17.8963 40.3727 18.1296 40.4416 18.3295C40.5794 18.7626 40.9927 18.9958 41.4061 18.8625C41.7506 18.7626 41.8884 18.5627 41.9917 18.0296C42.0262 17.8963 42.0606 17.7631 42.0951 17.5965C42.1295 17.3966 42.1984 17.2966 42.3362 17.2633C42.5429 17.1967 42.7495 17.2966 42.8529 17.5632C42.8873 17.6964 42.9218 17.7964 42.8529 18.0629L42.5773 18.1296L42.6462 18.3295L43.3007 18.1296L43.2318 17.9296L43.094 17.963C43.1285 17.7964 43.1285 17.6298 43.0596 17.4299C42.9218 16.9967 42.5084 16.7635 42.0951 16.8968C41.785 16.9967 41.6472 17.23 41.5439 17.7631C41.475 18.2628 41.3717 18.4627 41.165 18.5294C40.9583 18.596 40.7516 18.4627 40.6483 18.1962C40.5794 18.0296 40.5794 17.863 40.6483 17.5965L40.9239 17.4965L40.855 17.2966L40.166 17.4965L40.2349 17.6964L40.4071 17.6631Z" fill="#084780"/>
<path d="M43.5752 21.0967L43.6441 21.4965L43.8852 21.4632L43.6785 20.2305L43.4718 20.2638L43.5063 20.6636L41.3361 20.9635L41.2672 20.5636H41.0605L41.2672 21.8297L41.4739 21.7964L41.405 21.3633L43.5752 21.0967Z" fill="#084780"/>
<path d="M43.714 24.628V25.4276H43.3696V25.6275H44.0241L44.0585 25.4276H43.9207L43.9896 23.3952H44.1274V23.1953H43.4729L43.4385 23.3952H43.7829L43.7485 24.1949L41.5439 24.1282V23.6618H41.3372L41.3027 24.9945L41.5094 25.0278L41.5439 24.528L43.714 24.628Z" fill="#084780"/>
<path d="M41.9565 27.5602L42.8177 28.1932L41.7499 28.3598L41.9565 27.5602ZM44.1267 28.4265C44.2989 28.4598 44.4712 28.3598 44.5056 28.2266C44.5401 28.06 44.4367 27.8934 44.2645 27.8601C44.0923 27.8267 43.9545 27.9267 43.8856 28.0933C43.8511 28.2266 43.9545 28.3932 44.1267 28.4265ZM43.8511 29.3927C44.0234 29.426 44.1956 29.3261 44.23 29.1928C44.2645 29.0262 44.1612 28.8596 43.9889 28.8263C43.8167 28.793 43.6789 28.8929 43.61 29.0595C43.61 29.1928 43.7133 29.3261 43.8511 29.3927ZM40.682 29.1595L40.7509 28.9262L43.4378 28.5264L43.4722 28.3932L41.302 26.7606L41.3709 26.5607L41.1643 26.5273L40.9576 27.2937L41.1643 27.327L41.2332 27.0271L41.7843 27.4269L41.5432 28.3932L40.8887 28.4931L40.9576 28.2599L40.7509 28.2266L40.5098 29.1261L40.682 29.1595Z" fill="#084780"/>
<path d="M41.6815 32.2932L41.3371 33.0262L41.0615 32.9262L40.9581 33.0928L41.5437 33.3594L41.6471 33.1928L41.5437 33.1261L42.4394 31.2937L42.5427 31.327L42.6116 31.1604L42.026 30.8938L41.9227 31.0604L42.2327 31.1937L41.8882 31.9267L39.8903 31.0271L40.097 30.594L39.8903 30.5273L39.3047 31.7601L39.4769 31.8267L39.6836 31.3936L41.6815 32.2932Z" fill="#084780"/>
<path d="M40.9922 13.667L41.1989 14.0002C41.3366 14.2668 41.2677 14.4667 40.9922 14.6333C40.7166 14.7665 40.441 14.7332 40.3032 14.5L40.0965 14.1668L40.9922 13.667ZM39.9243 16.1659L39.8554 16.0326C39.7865 15.9327 39.7865 15.7994 39.8899 15.6661L40.3032 14.8332C40.5444 15.133 40.9233 15.1997 41.2333 14.9998C41.6467 14.7665 41.7156 14.4 41.44 13.9336L40.7855 12.8008L40.5788 12.9007L40.7855 13.2672L38.8565 14.3001L38.6498 13.9336L38.4775 14.0335L39.0976 15.133L39.2698 15.0331L39.0631 14.6666L39.8899 14.2335L40.0277 14.4667L39.511 15.4329C39.4076 15.6661 39.4076 15.6994 39.511 15.9327L39.7176 16.2992L39.9243 16.1659Z" fill="#084780"/>
<path d="M27.7644 15.4001C27.73 15.4001 27.2477 15.1669 27.1444 15.1669C27.1099 15.1669 26.8688 15.0003 26.6621 14.867C26.4554 14.7337 26.3521 14.6671 26.3176 14.6338C26.2832 14.6338 26.0421 14.5005 25.9387 14.4672L25.3531 14.1007L24.7675 13.7009C24.7675 13.7009 24.6642 13.6009 24.5264 13.6009C24.5264 13.6009 24.1819 13.4676 23.7341 13.5343C23.4585 13.5676 22.7696 13.6676 22.7696 13.6676C22.7351 13.6676 22.0806 13.8008 22.0462 13.8341C22.0462 13.8341 21.495 14.1673 21.3228 14.2673L21.2539 14.6338L21.2884 14.6005C21.2884 14.6005 21.7706 14.1673 22.184 14.0341C22.184 14.0341 23.114 13.8341 23.7685 13.8341C23.7685 13.8341 24.423 13.8341 24.9053 14.2006L25.3187 14.5338L25.9387 14.867C25.9387 14.867 26.421 15.2335 27.4544 15.6333C27.4544 15.6333 28.0055 15.8332 28.3156 16.1331L28.35 16.1664V16.1331C28.5222 15.7999 27.7988 15.4334 27.7644 15.4001Z" fill="#084780"/>
<path d="M30.3822 18.3334L30.2789 17.7337L30.21 17.3672L30.0722 16.9674C29.9344 16.4676 29.6933 16.1011 29.4177 15.7679C29.4177 15.7679 29.3144 15.5347 28.9354 15.2015C28.901 15.1682 28.8665 15.1349 28.8321 15.1016C28.6943 14.9683 28.4876 14.7684 28.212 14.6351C28.1432 14.6018 27.5576 14.2353 27.5231 14.2353C27.5231 14.2353 27.4887 14.202 27.4198 14.202C27.282 14.1687 27.1097 14.102 27.0753 14.0687C26.9375 14.0354 26.7997 14.0021 26.6964 14.0021L26.7653 13.9688H26.593L26.5586 14.0021C26.5586 14.0354 26.593 14.0687 26.8686 14.1353C26.9375 14.1687 27.4887 14.3352 27.4887 14.3686C27.4887 14.3686 28.1776 14.7684 28.2809 14.835C28.2809 14.835 28.8321 15.2348 29.1766 15.7346C29.1766 15.7346 29.6244 16.301 29.9 17.3005L30.21 18.1668L30.5545 18.7665L30.3822 18.3334Z" fill="#084780"/>
<path d="M31.3805 20.8647C31.3461 20.6314 31.3116 20.3316 31.2772 20.165C31.2427 19.8984 31.0705 19.4653 30.9327 19.2321C30.7949 19.0322 30.5194 18.8323 30.4849 18.7989L30.416 18.7656L30.6571 19.2987C30.6571 19.2987 30.9327 19.8651 31.105 21.1978L31.0016 22.3973L30.8638 22.8304C30.8294 23.2302 30.8294 23.2302 30.8294 23.2302C30.8294 23.2302 31.105 22.9637 31.1738 22.6638C31.1738 22.6305 31.2772 22.1641 31.2772 22.0641C31.2772 22.0641 31.3805 21.3644 31.3461 21.1312C31.415 21.0979 31.3805 20.9979 31.3805 20.8647Z" fill="#084780"/>
<path d="M33.1723 28.8928C33.069 28.8262 32.9656 28.7262 32.8279 28.5596C32.5178 28.2598 32.2078 28.0265 31.8633 27.86C31.8289 27.8266 31.7944 27.8266 31.76 27.7933C31.4155 27.6267 31.1055 27.4601 31.0022 27.2269C30.9677 27.0936 31.0022 27.027 31.0366 26.9271C31.1055 26.7938 31.1744 26.6605 31.1055 26.4273C31.0366 26.1607 30.9677 25.9275 30.9333 25.7942C31.0711 25.7276 31.1399 25.661 31.1744 25.661C31.2088 25.6277 31.2777 25.5943 31.3122 25.5277C31.3466 25.5943 31.4155 25.6943 31.4155 25.7276C31.4155 25.7276 31.6911 25.9608 31.7255 26.1274C31.6911 26.1941 31.45 26.8271 31.45 26.8271C31.3811 27.0603 31.3811 27.2269 31.4844 27.3269C31.5533 27.3935 31.6222 27.3935 31.76 27.3935L33.2757 27.4935C33.5512 27.8933 33.5512 28.2265 33.5168 28.393C33.5168 28.4264 33.5168 28.4597 33.3101 28.7262C33.2412 28.7595 33.2068 28.8262 33.1723 28.8928ZM22.0115 26.394C22.0115 26.3607 22.0115 26.3607 22.0115 26.3273C22.0115 26.294 22.2182 26.2274 22.3904 26.2274C24.1816 25.9275 24.4572 25.4611 24.5606 25.2945C24.5606 25.2612 24.595 25.2612 24.595 25.2612C24.905 24.7281 25.4562 23.1954 25.4906 23.1288C25.5251 23.0955 25.6973 22.9289 25.8351 22.8623C26.0073 22.7956 26.1796 22.9955 26.214 22.9955C26.2829 23.0289 26.6618 23.3287 26.6618 23.3287C26.7996 23.4287 27.1096 23.4953 27.1096 23.4953C27.213 23.5286 27.4886 23.6286 27.6263 23.6619C27.6952 23.6952 27.7297 23.6952 27.7641 23.6952C27.7986 23.6952 28.0397 23.8618 28.0397 23.8951C28.0397 23.9284 28.0742 23.9284 28.0742 23.9618C28.0742 23.9951 28.1086 24.0617 28.1086 24.095L28.0053 24.195L26.4896 25.2612C25.2839 26.1607 23.6994 28.0932 23.6994 28.1265L22.8038 29.1927L22.7004 29.3593L22.5971 28.7595L22.2182 27.0936C22.0804 26.5939 22.0115 26.4606 22.0115 26.394ZM20.0824 26.1274C20.048 26.1274 20.0135 26.1274 19.9791 26.1274C19.4624 26.1274 19.1524 25.9942 18.9801 25.7609C18.739 25.3944 18.9801 24.8613 18.9801 24.828L19.1524 24.4615C19.1868 24.3949 19.2213 24.3949 19.2901 24.4282C19.3246 24.4282 19.3246 24.4282 19.359 24.4282C19.359 24.4282 19.359 24.4282 19.3935 24.4282C19.4624 24.4282 19.4968 24.4282 19.5313 24.3616C19.5657 24.2949 19.4624 24.1617 19.4624 24.1617C19.3935 24.095 19.3246 23.9951 19.3246 23.8618C19.3246 23.7952 19.359 23.7285 19.4279 23.6619V23.6286C19.3935 23.5953 19.3246 23.5953 19.3246 23.6286C19.1179 23.7619 19.0146 23.6619 19.0146 23.6619C18.9801 23.5953 18.9457 23.5619 18.9801 23.4953C19.0146 23.4287 19.0835 23.362 19.0835 23.362C19.0835 23.362 19.1868 23.2621 19.6002 23.362C19.7035 23.3954 19.9446 23.362 19.9446 23.362C20.1169 23.3287 20.1169 23.1954 20.1169 23.1954C20.0135 23.1288 19.9791 23.0955 19.9446 23.0622C19.9102 23.0289 19.9102 23.0289 19.8413 22.9955C19.8069 22.9955 19.8069 22.9955 19.7724 23.0289C19.7035 23.0955 19.6346 23.1954 19.3935 23.0289C19.2213 22.8623 19.1524 22.8623 19.1179 22.8623C19.0835 22.8623 19.049 22.8623 19.0146 22.8623C18.9112 22.8623 18.8768 22.8623 18.8423 22.6957L18.8079 21.896V21.6628L19.1524 21.6961C19.3246 21.7628 19.4624 21.7628 19.4968 21.7628C19.5313 21.7628 19.6346 21.7295 19.7035 21.6628C19.7724 21.5962 19.8413 21.4962 19.738 21.2963L19.7035 21.263L19.6691 21.2963C19.5657 21.4962 19.1524 21.4629 19.0835 21.4629C18.7046 21.1964 18.2223 21.3296 18.2223 21.3296C18.0501 21.363 17.9123 21.3296 17.8778 21.263C17.7745 21.1297 17.9123 20.9298 17.9123 20.9298L18.5323 19.9969C18.5323 19.9969 19.2213 19.0973 19.5657 18.4976C19.6346 17.8979 19.738 17.6647 19.7724 17.6313C20.0135 17.3648 20.1169 17.1316 20.1169 17.0649C20.4614 15.9321 20.5302 15.6989 20.5302 15.6989C20.5647 15.5323 20.8058 15.1325 21.0814 15.0992C21.1158 15.0992 21.1503 15.0992 21.1847 15.0992C21.357 15.0659 21.6326 15.0325 21.7359 15.0659C21.7703 15.0659 21.8048 15.0659 21.8392 15.0659C22.0115 15.0992 22.287 15.1325 22.7004 15.2991C23.1138 15.399 22.8382 16.3986 22.8382 16.3986L22.2526 17.6313C22.1837 17.7313 22.4248 17.9312 22.4248 17.9312C22.4593 17.9645 22.7693 18.331 22.7693 18.3643C22.7693 18.3643 23.0449 18.5976 23.0104 19.064C23.0449 19.3639 22.976 19.4638 22.9071 19.5971C22.8726 19.6637 22.8382 19.6971 22.8038 19.7637C22.8038 20.0302 22.9071 20.4967 22.9415 20.53C22.9415 20.53 22.9415 20.53 22.9415 20.5633C22.8038 20.6633 22.5971 20.7966 22.2182 20.9298C22.1493 20.9631 22.0459 20.9965 21.9426 21.0298C21.4603 21.1964 21.2881 21.263 21.2881 21.3296V21.363C21.3225 21.3963 21.3914 21.3963 21.4948 21.3963C21.5981 21.3963 21.7014 21.3963 21.7359 21.363C21.8737 21.3296 22.2181 21.2297 22.3559 21.163C22.4593 21.1297 22.8038 20.9965 22.976 20.8965C23.0104 21.0298 23.0449 21.1631 23.0449 21.263C22.976 21.2963 22.9071 21.3296 22.8382 21.363C22.7349 21.4296 22.5626 21.4962 22.4248 21.5629C22.3559 21.5962 22.3215 21.6295 22.287 21.6295C22.2182 21.6628 21.977 21.7961 21.977 21.8294V21.8627C22.0115 21.896 22.1148 21.9294 22.1493 21.9294C22.1837 21.9294 22.3559 21.8627 22.5626 21.7628C22.6315 21.7295 22.7004 21.6961 22.7349 21.6961C22.8382 21.6628 22.976 21.5962 23.0449 21.5629V21.5962C23.1138 22.3625 23.1482 22.4958 23.1482 22.5291C23.2171 22.5957 23.6649 22.5957 24.5261 22.5291C24.905 22.6957 24.9739 22.9622 24.9739 23.0955L24.905 23.3287C24.7672 23.6286 24.2505 24.9946 24.2505 24.9946C24.2505 25.0279 24.2161 25.0613 24.2161 25.0946C24.1472 25.2612 24.0438 25.4944 23.6305 25.561C23.2171 25.7276 22.9415 25.7942 22.4593 25.8609C21.6326 26.0275 21.047 26.0608 21.0125 26.0608L20.0824 26.1274ZM16.9478 14.3662C17.0855 14.3662 17.2233 14.4328 17.3956 14.5328C17.4989 14.5994 17.6367 14.766 17.74 14.8326C17.4989 14.9992 17.2922 15.1658 17.2233 15.2325C17.1889 15.2658 17.12 15.3324 17.0511 15.399C16.431 15.2991 16.0866 15.5656 15.9832 15.6656C15.6732 15.9988 15.2943 15.9988 15.0876 15.8988C15.191 15.7989 15.3632 15.6989 15.4321 15.6323C15.6043 15.499 15.7421 15.2991 15.9143 15.0659C16.0866 14.8326 16.6377 14.4661 16.6722 14.4661L16.9478 14.3662ZM19.3935 14.4995C19.3246 14.5328 19.2557 14.5661 19.1868 14.5994L19.1524 14.5661C18.8768 14.3662 18.4979 14.4328 18.2912 14.4995C18.2223 14.5328 18.119 14.5661 18.0156 14.666C17.9812 14.666 17.9123 14.6661 17.8778 14.5994L17.8434 14.5661C17.7056 14.4328 17.5678 14.2996 17.5334 14.2662C17.3956 14.1996 17.2578 14.133 17.1544 14.0996L17.1889 14.033L17.2922 13.8997C17.2922 13.8997 17.4645 13.6665 17.6022 13.5666H17.6367C17.74 13.4999 17.8778 13.4666 17.9812 13.4666L18.6012 13.4999C18.6012 13.4999 19.0146 13.4999 19.0835 13.8331L19.2901 14.3995C19.3246 14.3995 19.3246 14.4328 19.3935 14.4995ZM20.5647 14.866L20.2891 15.2991C20.2891 15.2991 20.2547 15.3657 20.2202 15.4324C20.1858 15.4324 20.1169 15.4324 20.048 15.399C19.9446 15.3657 19.6691 15.0992 19.4624 14.8993C19.4279 14.866 19.4279 14.866 19.3935 14.8326C19.4279 14.7993 19.4968 14.7993 19.5657 14.766C19.6002 14.766 19.6002 14.766 19.6346 14.766C19.7724 14.866 20.0135 14.9326 20.3236 14.866C20.3236 14.866 20.5302 14.8326 20.6336 14.8326C20.5991 14.8326 20.5647 14.866 20.5647 14.866ZM32.9656 27.127C32.9312 27.127 32.9312 27.127 32.8967 27.127C32.07 27.2936 31.7944 27.1936 31.7255 27.0603C31.6566 26.9937 31.6911 26.8937 31.7255 26.8271C31.76 26.8271 31.7944 26.7938 31.9667 26.2274C32.0356 26.0608 31.8633 25.8276 31.8289 25.7942C31.7944 25.7276 31.5189 25.4277 31.4155 25.3278L31.45 25.2945C31.5533 25.2945 31.8289 25.2278 31.8289 25.2278C32.4145 25.1612 32.9312 25.1612 33.069 25.9275C33.069 26.0275 32.9312 26.5939 32.9656 27.127ZM25.1117 22.6957C25.0428 22.5957 25.0084 22.4625 25.0084 22.4291C25.0084 22.3958 25.0084 22.3625 24.9739 22.3292H24.9395C24.9395 22.3292 24.7328 22.1626 24.7328 21.9627C24.7328 21.8627 24.6983 21.7628 24.6983 21.6295C24.6639 21.4629 24.6294 21.2963 24.6639 21.263C24.6983 21.2297 24.7672 21.1631 24.8361 21.1297C24.905 21.1964 24.9739 21.263 25.0084 21.2963C25.0084 21.3296 25.0428 21.3296 25.0428 21.363C25.1462 21.4962 25.2151 21.6295 25.4217 21.6295H25.4562C25.6284 21.6295 25.7318 21.6628 25.8695 21.6961C25.7662 21.6961 25.6284 21.7295 25.594 21.7628C25.4906 21.8627 25.3873 21.996 25.3528 22.1626C25.3528 22.2625 25.3528 22.3958 25.3873 22.5291V22.5624C25.3873 22.5957 25.4217 22.629 25.4562 22.6957C25.3873 22.7623 25.3184 22.7956 25.2495 22.8623C25.1462 22.7623 25.1461 22.6957 25.1117 22.6957ZM24.1472 21.7961L24.1127 21.7295C24.0438 21.5295 23.975 21.2963 23.975 21.1297C23.975 20.9965 23.9749 20.8299 23.9405 20.7299C24.0094 20.7632 24.0783 20.7966 24.1472 20.8299C24.2161 20.8632 24.285 20.9298 24.3539 20.9298C24.3883 20.9298 24.4228 20.9631 24.4572 20.9631H24.4917C24.4572 21.0298 24.4572 21.0631 24.4228 21.0964C24.3883 21.1964 24.3883 21.363 24.3883 21.4962C24.3883 21.6295 24.4228 21.8627 24.4572 21.9627C24.4917 22.0293 24.5261 22.1626 24.5261 22.2625C24.3883 22.2625 24.2505 22.2959 24.1472 22.2959C24.2161 22.1959 24.1816 21.9627 24.1472 21.7961ZM23.4238 20.3967C23.5271 20.4301 23.596 20.4967 23.6649 20.5966L23.6994 20.63C23.7338 20.8632 23.7683 21.263 23.8027 21.4296C23.8372 21.5295 23.8716 21.5962 23.9061 21.6628C23.9405 21.7628 23.975 21.8627 23.975 21.9627C23.975 22.0626 23.975 22.2292 23.975 22.3625C23.5616 22.3625 23.5271 22.3292 23.4927 22.3292C23.4238 22.2625 23.286 21.3296 23.2171 20.7632L23.1138 20.2968C23.2171 20.2968 23.3205 20.3634 23.4238 20.3967ZM23.2171 19.3639C23.2516 19.1973 23.2516 19.0307 23.2516 18.8641C23.3549 18.7642 23.4582 18.6309 23.596 18.6309C23.8372 18.5642 24.1127 18.6309 24.3194 18.6642C24.5261 18.7308 24.8706 18.7975 25.0428 19.0307C25.0773 19.0973 25.1462 19.164 25.1806 19.2306C25.2495 19.3639 25.3528 19.4972 25.4906 19.5638C25.594 19.5971 25.8351 19.6637 25.9729 19.6971C26.0073 19.6971 26.0418 19.7304 26.0762 19.7304C26.214 19.7637 26.3174 19.8303 26.3862 19.897C26.4207 20.0302 26.5585 20.4301 26.5585 20.8299C26.5585 20.8965 26.524 21.1297 26.4207 21.363C26.4207 21.3963 26.3862 21.3963 26.3862 21.4296C26.3518 21.4962 26.3518 21.5295 26.3173 21.5295C26.3173 21.5295 26.2829 21.5295 26.2485 21.5295C26.1796 21.4962 26.1451 21.4962 26.1107 21.4629C26.0418 21.4296 26.0073 21.4296 25.9384 21.3963C25.8007 21.363 25.6284 21.363 25.6284 21.363C25.6284 21.363 25.3184 21.4296 25.1806 21.263C25.1117 21.1964 25.1117 21.0964 25.0773 21.0298C25.0428 20.9298 25.0084 20.8299 24.9395 20.8299C24.905 20.8299 24.8706 20.7966 24.8706 20.7966L24.905 20.7632C25.0084 20.5966 25.0428 20.53 25.0773 20.3967C25.1117 20.2635 25.0773 19.9969 25.0428 19.897C24.9739 19.6971 24.8361 19.4638 24.8017 19.3972C24.7328 19.2972 24.285 19.1307 24.1816 19.1307C24.1472 19.1307 24.1472 19.164 24.1472 19.164C24.1472 19.2306 24.4228 19.3972 24.4572 19.4305C24.6294 19.5305 24.7672 19.797 24.8361 19.9636C24.8706 20.0969 24.7672 20.4634 24.7328 20.53C24.6639 20.5633 24.3539 20.6633 24.1816 20.5966C24.0783 20.5633 23.9749 20.53 23.9061 20.4634C23.8372 20.4301 23.7683 20.3967 23.6649 20.3301C23.5271 20.2635 23.286 19.9969 23.1482 19.8636C23.0793 19.5638 23.2171 19.3639 23.2171 19.3639ZM23.596 17.698C23.8372 17.8646 24.1127 18.1311 24.2161 18.2311L24.2505 18.2644C24.285 18.2977 24.3194 18.331 24.3194 18.3977C24.1127 18.3643 23.9061 18.331 23.8027 18.331C23.6649 18.331 23.4238 18.3977 23.2516 18.5309C23.2171 18.5309 23.2171 18.5643 23.2171 18.5643C23.0793 18.2311 22.7693 17.9312 22.7693 17.8979C22.5626 17.698 22.5971 17.598 22.5971 17.598C22.6315 17.5314 22.666 17.4314 22.7004 17.3648C22.9071 17.3981 23.286 17.4648 23.596 17.698ZM28.0742 21.2297C28.0397 21.3963 27.9708 21.6628 27.9019 21.7961C27.7986 21.996 27.6608 22.0626 27.523 22.1293C27.4541 22.1626 27.3163 22.1626 27.2474 22.1626C27.213 22.096 27.1096 22.0293 27.0063 21.996C26.9374 21.9627 26.8685 21.9294 26.8341 21.896C26.7652 21.8294 26.6274 21.7628 26.524 21.6961C26.6618 21.5962 26.7652 21.3963 26.7996 21.263C26.8341 21.0298 26.8685 20.8965 26.8341 20.6966V20.6633C26.8341 20.4967 26.8341 20.3634 26.7996 20.2635C26.903 20.1635 27.1096 19.9969 27.4541 20.0636C27.7297 20.1302 27.9708 20.6966 28.0742 20.9965C28.1086 21.0298 28.1086 21.1297 28.0742 21.2297ZM26.1107 19.3306C25.9384 19.3639 25.6973 19.3972 25.594 19.2972C25.5251 19.2306 25.4217 19.1307 25.3528 19.0307C25.2839 18.9307 25.215 18.8641 25.1806 18.7975C25.0773 18.6975 24.9395 18.6309 24.8017 18.5643C24.7672 18.4643 24.595 18.1978 24.4917 18.1311C24.2505 17.9312 24.0783 17.7979 23.9405 17.698C23.8716 17.6647 23.8027 17.598 23.7338 17.5647C23.3549 17.2649 22.9415 17.0983 22.7693 17.0649C22.8382 16.8317 22.9071 16.6651 22.9415 16.5319C23.0449 16.5652 23.1827 16.5652 23.3205 16.5652C23.6649 16.5985 24.0783 16.5985 24.4228 16.865C24.4572 16.8984 24.4917 17.0649 24.4917 17.2315C24.5261 17.4648 24.5606 17.7313 24.6639 17.7646C24.7672 17.8313 24.905 17.8646 25.0428 17.9312C25.3184 18.0312 25.6284 18.1644 25.8351 18.3977C26.1107 18.6642 26.1107 19.164 26.1107 19.3306ZM26.8341 23.1621C26.6274 23.0622 26.4896 22.9289 26.4207 22.8956L26.3862 22.8623C26.0418 22.5957 25.8695 22.5624 25.8695 22.5291C25.8351 22.5291 25.8351 22.5291 25.8006 22.5291C25.6973 22.4291 25.5595 22.2625 25.594 22.1626C25.6284 22.0293 25.6973 21.9294 25.7662 21.896C25.8351 21.8627 26.0762 21.8627 26.2485 21.8627C26.3862 21.9294 26.6618 22.096 26.6618 22.096C26.8341 22.1959 26.9374 22.3292 27.0063 22.4958C27.0752 22.729 26.9718 23.0622 26.9374 23.1621C26.903 23.1621 26.8685 23.1621 26.8341 23.1621ZM28.5564 24.2949C28.522 24.2283 28.4531 24.095 28.3842 23.9618C28.3153 23.8618 28.143 23.6952 27.8675 23.462C27.833 23.4287 27.6952 23.3954 27.523 23.3287C27.523 23.2954 27.523 23.2621 27.4886 23.2621L27.4541 23.2288C27.3852 23.1621 27.3852 23.1621 27.4197 22.9955V22.9289C27.4197 22.7623 27.4197 22.729 27.4197 22.6957C27.4197 22.6624 27.4197 22.6624 27.4197 22.629C27.4197 22.5957 27.4197 22.5291 27.3852 22.4625C27.4541 22.4625 27.4886 22.4291 27.5919 22.4291C27.7641 22.3958 28.0053 22.2292 28.1775 21.996C28.2464 21.9294 28.3153 21.7295 28.3497 21.5295C28.4531 21.4962 28.6253 21.4629 28.7286 21.4962C28.9009 21.5629 29.3143 21.7628 29.3831 21.896C29.4176 21.9627 29.4865 22.1293 29.5209 22.2625C29.5209 22.2959 29.5554 22.3625 29.5554 22.3958L28.8664 22.4625L28.4186 22.5624L27.9364 22.7623L28.0742 22.8956C28.1086 22.8956 28.5564 22.8289 28.5909 22.8289C29.2798 22.629 29.6932 22.7623 29.7276 22.7623C29.7276 22.7623 29.7621 22.7623 29.7621 22.7956C29.7621 22.8289 29.7965 22.8623 29.7965 22.8623C29.8998 22.9955 29.9687 23.1288 29.9687 23.1954C29.9687 23.2621 29.8998 23.4953 29.7621 23.6952C29.6932 23.7285 29.5209 23.7952 29.3831 23.7952L29.1076 23.7619L28.9009 23.7285C28.8664 23.7285 28.7975 23.6952 28.7631 23.6952C28.7631 23.6952 28.6597 23.6619 28.5909 23.6286C28.4186 23.4953 28.3842 23.4953 28.3842 23.4953C28.3842 23.4953 28.2464 23.462 28.143 23.4287L27.9019 23.3954L28.0397 23.5619L28.1775 23.6286L28.3153 23.6619L28.522 23.8285L28.7286 23.9618L28.832 24.0284L29.0042 24.095L29.3142 24.1283H29.6932C29.831 24.1617 29.9687 24.195 29.9687 24.2283L30.0032 24.3283C29.9687 24.3283 29.9687 24.3283 29.9343 24.3616C29.9343 24.3616 29.5554 24.5948 28.8664 24.5948C28.832 24.5948 28.7631 24.5948 28.7286 24.5948L28.5564 24.2949ZM30.2788 20.7299C30.2443 20.8299 30.2099 20.9298 30.1754 20.9965C30.1065 20.8965 30.0376 20.8299 30.0032 20.7632C29.9687 20.6966 29.9687 20.63 29.9343 20.5633C29.8654 20.3634 29.831 20.1302 29.5209 19.897C29.3142 19.7637 29.0042 19.6637 28.7286 19.5971C28.4531 19.5305 28.1775 19.4305 28.0053 19.3306C27.8675 19.2639 27.7986 18.9641 27.6952 18.6642C27.6263 18.4643 27.5919 18.2644 27.523 18.1311C27.3852 17.8313 27.0752 17.7646 26.7996 17.7313C26.7307 17.7313 26.6618 17.698 26.6274 17.698C26.3863 17.6313 25.8351 17.2315 25.4906 16.4652C25.1462 15.6989 24.7672 15.6323 24.5606 15.599H24.5261C24.3883 15.5656 23.9061 15.599 23.5616 15.6323C23.4238 15.6323 23.3205 15.6656 23.286 15.6656C23.2516 15.6656 23.1827 15.6323 23.1138 15.599C23.1482 15.4324 23.2516 15.1991 23.4582 15.1991C23.8027 15.1991 24.3883 15.1991 25.0084 15.5656C25.1462 15.6656 25.3184 15.7655 25.5251 15.8655C26.1107 16.1987 26.7996 16.6318 27.3163 16.7651H27.3508C27.9708 16.9317 28.2464 16.9983 28.3153 17.2649C28.3497 17.3648 28.3497 17.4981 28.3842 17.6647C28.4186 18.0312 28.4875 18.4643 28.6598 18.7308C28.7975 18.8974 29.0387 19.064 29.2798 19.2306C29.5554 19.3972 29.831 19.5638 29.9687 19.797C30.2443 20.1635 30.3132 20.53 30.2788 20.7299ZM30.451 28.4264V28.3597H30.4854L30.8988 28.6596L31.2433 28.9928C31.2433 28.9928 31.4155 29.1594 31.4155 29.3259V29.5592H31.3466L30.8644 29.5259C30.8644 29.5259 30.8299 29.5592 30.761 29.5259C30.7266 29.5259 30.5199 29.4925 30.451 29.2926L30.4854 28.9261L30.5199 28.7595L30.451 28.4264ZM32.8623 29.3593C32.8278 29.5259 32.7934 29.6591 32.7934 29.7591C32.6901 29.6591 32.5178 29.5592 32.3111 29.5592C32.2767 29.5592 32.1045 29.5259 32.0011 29.5259H31.6911C31.6566 29.3593 31.5533 28.8262 31.2777 28.5263C31.0711 28.3264 30.9333 28.2265 30.7955 28.1265C30.7266 28.0932 30.6577 28.0265 30.5888 27.9599C30.3821 27.7933 30.0376 27.5268 30.0376 27.5268C29.8654 27.3269 29.8654 27.1936 30.0721 26.8271C30.1754 26.7271 30.2099 26.0941 30.2443 25.8942C30.3821 25.8609 30.4855 25.8609 30.5888 25.8276C30.5888 25.9275 30.5888 26.1941 30.6577 26.4606C30.6921 26.6605 30.6232 26.8604 30.5888 27.027C30.5543 27.127 30.5199 27.2269 30.5543 27.2602C30.5888 27.3602 31.0022 27.7267 31.1744 27.8266C31.2088 27.8266 31.2433 27.86 31.3122 27.8933C31.5189 27.9932 31.8978 28.1598 32.0356 28.2598C32.1389 28.3264 32.3111 28.493 32.4834 28.6596C32.5867 28.7595 32.6901 28.8595 32.759 28.9261C32.8278 28.9595 32.8967 29.0927 32.9656 29.1594C32.8967 29.2926 32.8967 29.3593 32.8623 29.3593ZM31.2088 24.828V24.8613L31.1399 25.0613C31.1399 25.0946 31.1055 25.1279 31.1055 25.1279C31.1055 25.1279 31.1055 25.1279 31.1055 25.1612L31.071 25.2612C31.0022 25.4944 29.9343 25.7276 29.4865 25.7942H29.2453H29.0387H28.9353C28.9353 25.7276 28.9353 25.661 28.9353 25.661L28.9009 25.4611C28.9353 25.4277 28.9698 25.4277 28.9698 25.4277C29.5898 25.4277 30.141 25.1945 30.141 25.1945C30.1754 25.1945 30.4854 25.0613 30.6232 24.9946C30.7266 24.9613 30.8644 24.828 30.8644 24.7281C30.8644 24.6948 30.8644 24.6948 30.8644 24.6948C30.8299 24.6948 30.7955 24.6948 30.7266 24.6948C30.451 24.7947 29.5554 25.0946 29.5209 25.1279L29.3142 25.1612H29.0042C28.9009 25.1612 28.832 24.9946 28.7975 24.8613C28.832 24.828 28.9009 24.7614 29.2109 24.7614C29.2454 24.7614 29.3142 24.7614 29.3487 24.7614C29.3487 24.7614 30.3132 24.5948 30.8644 24.195C30.8988 24.195 31.0022 24.1617 31.1055 24.195C31.1055 24.2616 31.1399 24.3283 31.1399 24.3283C31.2433 24.6614 31.2088 24.828 31.2088 24.828ZM31.8978 21.9627C31.8289 23.0955 31.3122 23.5286 31.1744 23.6286C31.1399 23.6619 31.1055 23.6619 31.071 23.6952C30.9677 23.7952 30.8299 23.8951 30.6577 23.9951C30.6232 23.9951 30.5888 24.0284 30.5543 24.0284C30.5199 24.0284 30.4854 24.0617 30.451 24.0617C30.3477 24.0284 30.2099 23.9618 30.141 23.8618C30.2099 23.7285 30.3477 23.4287 30.2788 23.2288C30.2099 23.0622 30.1065 22.9622 30.0721 22.8623C30.0376 22.8289 30.0376 22.7956 30.0032 22.7623C29.9687 22.729 29.9687 22.629 29.9687 22.4958C29.9343 22.2625 29.8998 21.996 29.831 21.8627C29.6243 21.5962 29.2453 21.3296 29.0731 21.2297C28.9698 21.1964 28.832 21.1964 28.6942 21.1964C28.6253 21.1964 28.522 21.1964 28.4875 21.1964C28.4875 20.8965 28.1775 20.0969 27.9019 19.8303C27.833 19.7637 27.4541 19.6971 27.3163 19.7304C27.1785 19.7637 26.8341 19.797 26.7307 19.6637L26.6963 19.6304C26.6963 19.5971 26.6618 19.5971 26.6618 19.5638C26.6618 19.5305 26.6274 19.5305 26.6274 19.4972V19.4638C26.6274 19.4305 26.2829 18.4643 26.1796 18.1644C26.0418 17.8979 25.8351 17.8313 25.6284 17.7646C25.4217 17.698 25.1117 17.598 24.9739 17.4981C24.905 17.4648 24.8706 17.2982 24.8706 17.1316C24.8361 16.8984 24.8017 16.6318 24.6294 16.4985C24.3539 16.2653 23.3205 16.1654 23.286 16.1654C23.2516 16.1654 23.1827 16.1654 23.1138 16.1654C23.1138 16.132 23.1138 16.0987 23.1138 16.0987L23.1482 15.7989C23.2516 15.8322 23.3894 15.8322 23.5271 15.7989C23.7338 15.7655 24.1472 15.6989 24.4572 15.7322C24.6639 15.7322 24.8017 15.8988 24.9739 16.0654C25.0084 16.0987 25.0773 16.1654 25.1117 16.232C25.215 16.3319 25.3184 16.5319 25.4217 16.7318C25.5595 16.9983 25.7317 17.2982 25.9729 17.4981C26.2829 17.7646 26.7652 17.9645 27.0407 18.0978C27.1096 18.1311 27.1785 18.1644 27.213 18.1644C27.3163 18.1978 27.3163 18.2644 27.3508 18.431C27.3852 18.5309 27.3852 18.6309 27.4541 18.7975C27.6263 19.2639 27.8675 19.4638 28.1086 19.5971C28.2464 19.6971 28.5564 19.797 28.832 19.897C29.1076 19.9969 29.4176 20.0969 29.5209 20.1635C29.6243 20.2301 29.6587 20.3967 29.6932 20.5633C29.7276 20.6966 29.7276 20.8299 29.7965 20.9298C29.8998 21.0631 30.141 21.263 30.3477 21.4296C30.4854 21.5295 30.5888 21.6295 30.6577 21.6961C30.761 21.7961 30.8299 21.9627 30.8644 22.0626C30.8988 22.1626 30.8988 22.1959 30.9333 22.1959H30.9677C31.0366 22.1293 31.0022 21.9294 30.9333 21.6628C30.8988 21.5629 30.761 21.4296 30.5543 21.263C30.5199 21.2297 30.4854 21.1964 30.451 21.163C30.5543 21.0631 30.6577 20.8965 30.6577 20.6966C30.6921 20.3634 30.5543 19.897 30.3821 19.6637C30.2099 19.4305 30.0032 19.164 29.6587 19.064C29.5898 19.0307 29.5209 19.0307 29.4865 18.9974C29.3487 18.9641 29.3142 18.9307 29.1765 18.8308C29.0042 18.6642 28.832 17.8979 28.7975 17.3315C28.7631 16.9317 28.5909 16.7651 28.3153 16.6651C28.1775 16.5985 27.9019 16.5319 27.5919 16.4652C27.3508 16.3986 27.1096 16.3319 26.903 16.2653C26.6274 16.1654 26.0762 15.7989 25.6629 15.5323C25.4562 15.399 25.2839 15.2658 25.1806 15.2325C24.8706 15.0659 23.5616 14.8326 23.286 14.9326C23.1482 14.9992 23.0793 15.0659 23.0449 15.1658C23.0104 15.0992 22.9415 15.0659 22.9415 15.0659C22.8382 14.9992 22.5971 14.8993 22.5626 14.8993C22.5282 14.8993 22.5282 14.8993 22.4937 14.8993C22.5626 14.8326 22.666 14.766 22.8038 14.6994C23.0104 14.5994 23.4238 14.5328 23.7338 14.5328C24.0783 14.5328 24.2161 14.4661 24.2161 14.4661H24.2505L24.2161 14.4328C24.2161 14.4328 24.0783 14.3662 23.8716 14.3329C23.7338 14.2996 23.4238 14.3329 23.1482 14.3662C23.0104 14.3662 22.8727 14.3995 22.8382 14.3995C22.666 14.3995 22.1837 14.766 22.1148 14.7993C21.977 14.766 21.8392 14.766 21.7703 14.766C21.7703 14.766 21.7703 14.766 21.7359 14.766C21.5981 14.766 21.3225 14.7993 21.2881 14.7993C21.1503 14.8326 21.0125 14.866 21.0125 14.8993C20.9436 14.7993 20.9092 14.666 20.9092 14.5328C20.9092 14.3995 20.9781 14.2662 21.047 14.1996C21.1847 14.033 21.5292 13.7998 21.5292 13.7998C21.6326 13.7331 22.6315 13.3 23.6994 13.2667C24.6639 13.2334 25.5595 13.2667 26.4207 13.3666C27.0752 13.4333 28.8664 14.1996 28.8664 14.1996C29.4176 14.4661 29.831 15.0659 29.831 15.0659C30.1754 15.399 30.8988 17.0316 30.8988 17.0316C31.3466 18.4976 31.4155 18.7308 31.45 18.7975C31.45 18.8308 31.8289 19.9969 31.8978 21.9627ZM13.9509 25.6943C13.9853 25.661 14.0542 25.5943 14.1575 25.6277C14.192 25.661 14.3298 25.7609 14.3987 25.7609C14.3987 25.7609 14.502 25.7609 14.7087 25.7609C14.7776 25.7609 14.812 25.7276 14.812 25.7276C14.8465 25.6943 14.812 25.6277 14.812 25.5943C14.812 25.561 14.7776 25.561 14.7431 25.561C14.6742 25.561 14.502 25.561 14.502 25.561C14.502 25.561 14.502 25.561 14.4676 25.561C14.4331 25.561 14.3987 25.5277 14.2953 25.3944C14.2609 25.3611 14.2264 25.3278 14.1575 25.3278C14.1231 25.3278 14.0886 25.3278 14.0198 25.2945H13.9509C13.9164 25.2945 13.882 25.2945 13.882 25.2612C13.8475 25.2278 13.882 25.1612 13.882 25.1612L13.9164 24.9946C13.9164 24.9613 14.0198 24.5615 13.9164 24.3616C13.9164 24.3616 13.9509 24.3616 13.9509 24.3949L14.2264 24.4282L14.5709 24.5615C14.5709 24.5615 14.7431 24.6281 15.1221 24.3949C15.0876 24.095 14.812 23.6952 14.812 23.6952V23.6619L14.7431 23.7952C14.7431 23.7952 14.812 23.9951 14.8465 24.0284C14.9154 24.195 14.9154 24.2616 14.9154 24.2949C14.9154 24.3283 14.8809 24.3283 14.8465 24.3283C14.7431 24.3616 14.5365 24.3949 14.3987 24.2283C14.3987 24.2283 14.192 24.095 13.882 24.0617C13.882 24.0617 13.503 24.095 13.3997 24.095C13.2275 24.095 13.0897 24.0617 13.0552 24.0284C12.9863 23.9618 12.9863 23.8618 12.9863 23.7619C12.9863 23.7285 12.9863 23.6952 12.9863 23.6619C13.0208 23.5953 13.2964 23.0955 13.5375 22.8956L13.6753 22.729L14.0886 22.0626L14.3987 21.6628C14.3987 21.6628 14.7776 21.2963 14.7776 20.9965L14.812 20.63C14.812 20.63 14.7776 20.4301 14.8809 20.1968L15.0532 19.8636L15.2254 19.3972L15.3632 18.9307L15.4321 18.2977V18.1978C15.501 18.0978 15.6732 17.8313 15.7077 17.6313C15.7421 17.3981 15.9832 17.1982 16.1899 17.0983C16.2933 17.0316 16.431 16.9983 16.4999 16.965C16.5688 16.9317 16.6033 16.9317 16.6377 16.8984C16.6377 16.8984 16.7066 16.8317 16.6722 16.7651C16.6722 16.7318 16.6033 16.6984 16.5344 16.6651C16.4655 16.6651 16.2244 16.7984 16.1555 16.8317C15.9832 16.9317 15.811 17.0316 15.7077 17.1316C15.6388 17.1982 15.5699 17.2982 15.501 17.3648C15.4665 17.4314 15.4321 17.4981 15.3632 17.5314C15.2943 17.598 15.2598 17.6313 15.191 17.6647C14.9498 17.5647 14.812 17.4314 14.812 17.3315C14.812 17.3315 14.812 16.965 14.812 16.8317C14.812 16.6984 14.812 16.4319 14.9843 16.1987C15.0187 16.232 15.1221 16.2653 15.191 16.2653C15.2254 16.2653 15.2254 16.2653 15.2598 16.2653C15.5699 16.2653 16.0177 16.132 16.2588 15.8655C16.431 15.6656 16.7411 15.6323 16.9478 15.6656C16.9133 15.6989 16.9133 15.6989 16.8789 15.7322C16.81 15.7989 16.6722 16.232 16.7411 16.3319C16.7411 16.3653 16.7755 16.3986 16.7755 16.4319C16.8444 16.5652 16.8789 16.6984 16.9822 16.6984H17.0166C17.0511 16.6651 17.0166 16.5985 17.0166 16.4652C16.9822 16.2986 16.9478 16.0987 17.0166 15.9654C17.2578 15.5656 17.74 15.1991 18.119 15.0325C18.5668 14.8326 18.9112 14.7993 19.1179 14.8993C19.2901 14.9992 19.4624 15.1991 19.6002 15.3324C19.6691 15.399 19.738 15.4657 19.8069 15.5323C19.9102 15.6323 20.0824 15.6656 20.2202 15.6656C20.1858 15.7655 20.1513 15.8655 20.1169 15.9988C20.0135 15.9988 19.8069 15.9988 19.6002 15.9988C19.4279 15.8322 18.8423 15.3324 18.4634 15.499C18.0501 15.6656 17.74 15.8988 17.6367 16.0321C17.5678 16.0987 17.4645 16.2653 17.4645 16.3653C17.4645 16.3986 17.4645 16.3986 17.4989 16.3986C17.4989 16.3986 17.4989 16.3986 17.5334 16.3986C17.6367 16.3986 17.8089 16.232 17.8778 16.1654C17.8778 16.1654 18.3256 15.7989 18.6357 15.7989C18.8768 15.7989 19.1868 16.0321 19.2901 16.132C19.2557 16.1654 19.2213 16.1654 19.1524 16.1987C18.8768 16.3653 18.739 16.4985 18.6701 16.5985C18.6357 16.6318 18.6357 16.6318 18.6012 16.6651C18.3945 16.865 18.2567 16.965 18.1534 16.965C18.0501 16.965 17.8434 16.865 17.7056 16.7984C17.6367 16.7651 17.5678 16.7318 17.4989 16.7318C17.3956 16.6984 17.2578 16.7318 17.12 16.7984C17.0511 16.8317 16.9478 16.8984 16.9133 16.9983V17.0316C16.9478 17.0649 17.0511 17.0649 17.2578 17.0316C17.3267 17.0316 17.3611 17.0316 17.3956 17.0316C17.4645 17.0316 17.6711 17.1316 17.8089 17.1982C17.9123 17.2315 17.9812 17.2648 18.0156 17.2982C18.0501 17.2982 18.0501 17.2982 18.0845 17.2982C18.2912 17.2982 18.6357 17.0316 18.6701 16.9983C18.7046 16.965 18.7734 16.8984 18.8079 16.8317C18.9457 16.6651 19.1179 16.4319 19.3935 16.2986C19.6346 16.1654 19.8413 16.1987 19.9791 16.232C19.9446 16.3319 19.9102 16.4319 19.8758 16.5319C19.8758 16.5652 19.8413 16.5985 19.8413 16.6318C19.7724 16.6651 19.7035 16.6984 19.6346 16.7984C19.2557 17.1316 18.8079 17.3648 18.5323 17.4981H18.4979C18.2912 17.6313 17.7056 17.4981 17.4645 17.4314C17.43 17.4314 17.43 17.4314 17.43 17.4314V17.4648C17.4645 17.5314 17.6367 17.698 17.9123 17.7646C17.9123 17.7646 18.0156 17.7979 18.1878 17.7979C18.429 17.7979 18.8079 17.7646 19.1179 17.5314L19.7035 17.0983C19.7035 17.1316 19.7035 17.1316 19.7035 17.1316C19.6691 17.1982 19.4279 17.7313 19.3935 17.8313C19.2902 18.331 19.1179 18.5976 19.1179 18.5976L17.74 20.6633C17.5678 20.9631 17.5678 21.2297 17.6022 21.363C17.6367 21.4962 17.6711 21.5629 17.8434 21.5629C17.9123 21.5629 18.0156 21.5629 18.0845 21.5629C18.1534 21.5629 18.2223 21.5629 18.2912 21.5629C18.2912 21.5629 18.2912 21.5629 18.3256 21.5629C18.5323 21.5629 18.5668 21.7295 18.5668 21.7295C18.5668 21.7628 18.5668 22.3292 18.5668 22.3958C18.5668 22.4625 18.6012 22.7623 18.6012 22.7623C18.6012 22.7623 18.6012 22.9622 18.8423 23.0622C18.8768 23.0955 18.8423 23.1621 18.8079 23.2288C18.7734 23.2621 18.7046 23.6286 18.739 23.6619C18.739 23.6619 18.739 23.6619 18.739 23.6952C18.739 23.7285 18.7734 23.7619 18.8423 23.7952C19.1179 23.8951 19.1179 24.095 19.1179 24.095C19.1524 24.1617 18.9801 24.4948 18.8768 24.6948C18.7046 24.9613 18.7734 25.7276 18.7734 25.7609C18.8768 26.1274 19.6002 26.294 19.6346 26.294C20.358 26.3273 20.8747 26.394 20.8747 26.394H21.0814C21.047 26.4273 21.047 26.4273 21.0125 26.4606L19.7035 27.5268C19.7035 27.5268 18.1878 28.8595 16.9822 28.8595C16.9478 28.8595 16.9478 28.8595 16.9133 28.8595C16.8789 28.8595 16.7066 28.8595 16.5344 28.8262C16.3277 28.8262 16.2244 28.7929 16.1899 28.7929C16.1899 28.7929 16.1555 28.7929 16.121 28.7929C15.9832 28.7595 15.6043 28.6929 15.2598 28.6929C14.4676 28.6929 13.9509 28.393 13.9164 27.86C13.8475 27.4935 13.9164 27.2936 13.9509 27.2602C13.9853 27.2269 14.3298 26.8604 14.3298 26.6938C14.3298 26.6938 14.2609 26.3607 14.1231 26.2607C14.0197 26.294 13.9509 26.2607 13.9164 26.1941C13.7786 26.0608 13.8131 25.8276 13.9509 25.6943ZM27.833 27.0936C27.833 26.8271 28.0053 26.4939 28.0053 26.4606C28.2808 26.1607 28.522 26.1274 28.522 26.1274C28.6598 26.1274 28.7286 26.0941 28.7975 26.0275C28.9353 26.0275 29.0387 26.0275 29.142 26.0275C29.0387 26.1607 28.3842 27.027 28.8664 27.6267C29.2109 28.0599 29.5554 28.6929 29.5209 28.9261C29.5209 28.9595 29.4865 28.9928 29.452 29.0261C29.3487 29.1594 29.2454 29.1927 29.142 29.1927C29.0042 29.1594 28.9698 28.9928 28.9698 28.9595L28.7975 28.6263L28.6942 28.2598C28.6598 28.1598 28.4531 27.8933 28.4531 27.8933L28.3497 27.76L28.2464 27.6601L28.1086 27.4935L27.9708 27.3935L27.9019 27.3269C27.9019 27.3269 27.9019 27.3269 27.8675 27.3269C27.833 27.2602 27.833 27.1603 27.833 27.0936ZM28.4875 30.2255L28.2808 30.0923C28.2808 30.0923 28.2464 30.0589 28.2119 29.9923L28.0053 29.5259C28.0053 29.5259 27.7297 29.1927 27.523 29.1594H27.4886C27.3852 29.1594 27.3163 29.1594 27.2819 29.1594C27.2819 29.1594 27.2819 29.1594 27.2474 29.1594C27.213 29.1594 27.0407 29.226 26.9719 29.2593H26.7996C26.6618 28.9261 26.7652 28.5596 26.8685 28.393C26.903 28.3597 26.9718 28.2931 27.0407 28.2931C27.1441 28.2598 27.2819 28.2931 27.4197 28.393L27.7986 28.7595L28.0397 29.0594C28.0741 29.126 28.4186 29.6258 28.522 29.6924H28.5564H28.5909C28.6253 29.6258 28.522 29.3926 28.4531 29.2593C28.4186 29.226 28.3842 29.1594 28.3497 29.0927C28.2119 28.8595 28.0397 28.5596 27.833 28.393C27.7986 28.3597 27.7986 28.3597 27.7641 28.3264C27.5574 28.1265 27.3852 27.9932 27.1096 27.9266C27.3163 27.6934 27.6263 27.6601 27.7641 27.6267L27.9364 27.7267L28.0742 27.8266L28.2464 28.0265L28.3842 28.1931L28.522 28.5596L28.5909 28.8262L28.7286 29.0594L29.0042 29.4259C29.0731 29.4925 29.1765 29.4925 29.2798 29.4925C29.3142 29.4925 29.3487 29.4925 29.3831 29.4925C29.5554 29.4592 29.6932 29.2926 29.7621 29.1594C30.0376 28.593 29.1765 27.3602 29.1076 27.2602C29.0387 26.7271 29.452 26.1607 29.5554 26.0275C29.7621 26.0275 29.9343 26.0275 30.0721 25.9942V26.0608L30.0032 26.4273C29.9687 26.4939 29.9343 26.6605 29.8654 26.6938C29.8654 26.6938 29.6587 26.9604 29.6243 27.2602C29.6243 27.2936 29.6243 27.4935 29.6587 27.5601C29.8654 27.7933 30.1754 28.1931 30.1754 28.2265C30.2788 28.9595 30.2099 29.126 30.0032 29.4925C29.9687 29.5925 29.8998 29.6924 29.831 29.8257L29.6243 30.0256C29.452 30.2589 29.0042 30.2589 28.9698 30.2589L28.522 30.2255C28.522 30.2922 28.4875 30.2589 28.4875 30.2255ZM27.4541 30.1922C27.6263 30.0923 27.833 30.0589 28.0053 30.1256L28.2808 30.3588C28.2808 30.4588 28.2464 30.6587 28.0053 30.7586C27.833 30.9585 27.6608 31.0918 27.523 31.0918C27.3852 31.0918 27.3508 30.9918 27.3508 30.9918C27.2819 30.9585 27.213 30.8919 27.1785 30.8253C27.1785 30.692 27.1785 30.3588 27.4541 30.1922ZM26.9374 29.6591C26.9374 29.6591 26.9374 29.5592 27.0063 29.4925C27.0752 29.4259 27.213 29.3593 27.3852 29.3593C27.3852 29.3593 27.6263 29.3593 27.6952 29.5592C27.6952 29.5592 27.833 29.6924 27.833 29.8257C27.7641 29.8257 27.4886 29.859 27.2819 30.0256C27.1096 30.1256 27.0063 30.2922 26.9719 30.3921C26.903 30.1589 26.903 29.9257 26.903 29.7591L26.9374 29.6591ZM32.9312 30.3921C33.1379 30.7253 33.0345 31.425 33.0345 31.425C32.9312 32.0247 32.38 32.1913 32.1733 32.2579C31.7255 32.3579 31.2777 32.2579 31.071 31.9914C30.9677 31.8581 30.9333 31.6582 30.9677 31.4583C30.9677 31.4583 30.9677 31.425 31.0022 31.425C31.071 31.2584 31.1744 30.9252 31.9322 30.8919C32.07 30.8919 32.3111 31.0918 32.3111 31.2251C32.3111 31.2917 32.2423 31.325 32.1389 31.325H32.1045C32.0356 31.325 32.0011 31.325 32.0011 31.325C31.9322 31.325 31.8633 31.3583 31.8289 31.3917C31.7944 31.425 31.8289 31.4583 31.8289 31.4583C31.8289 31.4583 31.8978 31.6249 32.1733 31.6249C32.2078 31.6249 32.2078 31.6249 32.2422 31.6249H32.2767C32.3456 31.6249 32.4145 31.6249 32.4145 31.6249C32.6901 31.5583 32.6556 31.1918 32.6556 31.1584C32.6556 30.8919 32.38 30.7586 32.38 30.7586L32.1045 30.592L31.9322 30.5587L31.6222 30.592C31.2433 30.6587 31.071 30.9252 31.0022 31.0585C30.5888 30.7253 30.5199 30.4588 30.5199 30.4588L30.3477 29.9923C30.3821 29.9257 30.4166 29.859 30.4854 29.7591L30.6232 29.7924C30.6232 29.7924 31.0022 29.8924 31.3811 29.8924C31.4155 29.8924 31.4844 29.8924 31.5189 29.8924C31.5533 29.8924 31.9667 29.859 31.9667 29.859H32.2422C32.2422 29.859 32.6556 29.959 32.8279 30.1256L32.9312 30.2589C32.9312 30.3255 32.9312 30.3588 32.9312 30.3921ZM33.4479 27.3269C33.2068 27.127 33.2757 26.9271 33.2757 26.9271L33.3446 26.0608C33.3446 25.6277 33.1723 25.2945 33.1723 25.2945C33.1034 25.0946 32.7934 24.9613 32.759 24.928C32.5523 24.8947 32.3111 24.8947 32.2078 24.8947C32.1734 24.8947 32.1733 24.8947 32.1733 24.8947C31.6566 24.928 31.5189 24.9946 31.45 25.0279C31.4155 25.0279 31.4155 25.0612 31.3811 25.0279C31.3811 25.0279 31.3811 24.9946 31.4155 24.9613C31.45 24.8947 31.4844 24.7614 31.45 24.5948C31.3466 24.3283 31.3466 24.0284 31.3466 23.9618L31.7255 23.4287C32.2767 22.4958 32.1733 21.363 32.1733 21.363C32.0356 19.4305 31.6566 18.3643 31.6566 18.3643C31.1055 16.6318 30.2443 15.0659 30.2443 15.0659C29.142 13.3667 26.7996 13.0335 26.7652 13.0335C25.6284 12.8002 23.6305 12.9002 23.596 12.9002C22.5626 12.9668 21.977 13.2334 21.977 13.2334C21.977 13.2334 21.047 13.5999 20.668 14.1663C20.668 14.1663 20.5991 14.2996 20.5647 14.3995C20.4958 14.4661 20.1858 14.6327 19.738 14.3662C19.359 14.1996 19.2901 13.4666 19.2901 13.4666C19.2901 13.4666 19.1868 13.2001 18.9112 13.2001C17.9812 13.0668 17.43 13.4 17.43 13.4C17.3956 13.4 16.9478 13.7665 16.7755 14.133C16.6722 14.133 16.1899 14.2329 15.6388 15.0325L15.191 15.5656L14.5709 16.0987C14.5709 16.132 14.3298 16.5985 14.4676 17.4981C14.502 17.5647 14.6742 17.698 15.0187 17.8979C15.0876 17.9978 15.0876 18.9307 14.9154 19.164C14.9154 19.1973 14.7431 19.5971 14.7087 19.6637L14.502 19.9969C14.4676 20.0302 14.3642 20.1302 14.3642 20.4634V20.7299C14.3642 20.7299 14.3298 21.1297 14.192 21.2963L13.7442 21.896L13.3308 22.4625C13.3308 22.4625 13.0552 22.9289 12.9863 23.0289C12.9863 23.0622 12.9519 23.0622 12.9174 23.0955C12.8141 23.2288 12.6419 23.3954 12.6074 23.6286C12.6074 23.6286 12.6074 23.9284 12.8141 24.1283C12.9174 24.2283 13.0897 24.2949 13.2964 24.2949H13.3308H13.5375C13.5375 24.3283 13.5375 24.3949 13.5375 24.4615L13.5719 24.6281L13.5375 24.9946C13.5375 24.9946 13.4686 25.2945 13.5375 25.4277C13.5375 25.4277 13.6408 25.5277 13.6064 25.5943L13.5719 25.7609L13.5375 25.8609C13.5375 25.8942 13.4686 26.1607 13.6064 26.2274L13.7786 26.3273C13.7786 26.3273 13.9853 26.4939 13.882 26.6938L13.7097 26.9604C13.7097 26.9604 13.5719 27.127 13.5375 27.3602C13.5375 27.3602 13.4342 27.86 13.7097 28.2931C13.9164 28.593 14.2609 28.7929 14.7431 28.8595L15.6732 28.9595L16.6722 29.126C16.6722 29.126 16.9478 29.1927 16.9478 29.5592V29.6924C16.9478 29.6924 16.9822 29.959 17.0855 30.1589L17.2922 30.6253L17.5334 31.0585L17.7745 31.6249C17.7745 31.6249 17.9812 32.1247 17.9812 32.7577L17.9467 33.9238V33.9571H18.2912H18.3256V32.3579C18.3256 32.3579 18.2567 31.7248 17.9812 31.2584L17.7745 30.8586L17.4645 30.3588C17.4645 30.3588 17.2578 29.959 17.1889 29.3926V29.0927C17.2922 29.0594 17.8434 28.8928 18.3601 28.6596C18.429 28.6263 19.2901 28.0932 19.6346 27.8266C20.3236 27.2602 20.4958 27.127 20.5647 27.0603C20.6336 26.9937 21.1159 26.5939 21.2881 26.3273H21.4259C21.4603 26.3273 21.4948 26.3273 21.5292 26.3607C21.667 26.4606 21.667 26.8271 21.667 26.8271L22.3215 29.6591L21.4948 30.8586L20.5991 32.891L19.8758 35.3565V35.3898H20.358V35.4565C20.3925 33.4574 21.977 30.692 21.977 30.6587L23.4927 28.6596L25.1806 26.8604L26.6618 25.3611C26.6963 25.3278 27.8675 24.5615 28.0053 24.4615C28.0397 24.4282 28.0742 24.4282 28.1086 24.4615C28.2119 24.4948 28.2464 24.6614 28.2464 24.6614C28.3842 24.928 28.4531 25.1945 28.4531 25.1945C28.5909 25.6277 28.5564 25.7609 28.522 25.8276C28.4875 25.8609 28.4531 25.8609 28.4531 25.8609C27.9364 25.9275 27.6952 26.294 27.6952 26.294C27.4197 26.7271 27.4885 27.2269 27.523 27.3935V27.4268C27.4885 27.4268 27.4541 27.4268 27.4541 27.4268C26.8341 27.4268 26.6618 27.8933 26.6618 27.8933C26.2485 28.6596 26.5585 29.4592 26.5585 29.4592C26.5585 29.4592 26.6618 29.959 26.6274 30.3255C26.6274 30.3921 26.5929 30.8919 26.8341 31.0252C27.0063 31.1584 27.1441 31.1918 27.1785 31.1918C27.213 31.2251 27.3163 31.425 27.4886 31.4583C27.523 31.4583 27.523 31.4583 27.523 31.4583C27.7297 31.4583 27.9019 31.325 28.0742 31.0585V31.0252C28.1086 30.9918 28.4875 30.6587 28.4875 30.6587C28.4875 30.6587 28.6942 30.5254 29.0042 30.592C29.0387 30.592 29.3831 30.5587 29.452 30.5587C29.7621 30.5254 29.9343 30.3255 30.0032 30.1922C30.0376 30.4254 30.141 31.1251 30.6921 31.2917C30.6577 31.3917 30.6577 31.5249 30.6577 31.5249C30.5199 32.058 30.9333 32.3579 30.9333 32.3579C31.8289 32.891 32.7245 32.3912 32.7245 32.3912C33.2757 32.0913 33.3101 31.3583 33.3101 31.3583C33.379 30.7919 33.3101 30.4254 33.3101 30.4254C32.8279 29.6924 33.3101 29.1594 33.3101 29.1594C33.4823 29.0261 33.5857 28.7262 33.6546 28.2931C33.7924 27.5934 33.4479 27.3269 33.4479 27.3269Z" fill="#084780"/>
<path d="M15.4659 21.4619C15.4659 21.3619 15.4659 21.2286 15.4659 21.1287C15.4659 21.0954 15.4659 21.062 15.4659 21.062C15.4659 21.0287 15.5004 20.9954 15.5004 20.9954C15.5348 20.9954 15.5693 20.9954 15.6382 20.9954H15.6726C15.7415 20.9954 15.7759 20.9954 15.8448 20.9954C15.9137 20.9954 16.0515 21.0287 16.086 21.0287C16.1204 21.0287 16.1204 21.062 16.1549 21.062C16.1893 21.0954 16.2238 21.0954 16.2582 21.1287C16.2927 21.1287 16.2927 21.1287 16.3271 21.162C16.396 21.1953 16.5338 21.2286 16.5682 21.2619C16.6371 21.2953 16.7405 21.4619 16.7749 21.4952C16.8094 21.5285 16.8438 21.5951 16.8783 21.6284C16.9127 21.6618 16.9816 21.6951 17.016 21.6951C17.0849 21.7284 17.1538 21.6951 17.1538 21.6951H17.1883L17.1538 21.6618C17.1194 21.6284 17.016 21.4619 16.9127 21.2953C16.8094 21.1287 16.7405 21.062 16.7405 21.0287C16.706 20.9954 16.6716 20.9621 16.6027 20.9621C16.5682 20.9621 16.5338 20.9288 16.4993 20.9288C16.4649 20.9288 16.4304 20.8955 16.396 20.8955C16.3615 20.8955 16.3271 20.8621 16.2582 20.8288C16.2238 20.7955 16.1549 20.7955 16.1204 20.7622C16.086 20.7622 16.086 20.7289 16.0515 20.7289C15.9482 20.6955 15.8104 20.6289 15.7415 20.6289C15.6037 20.6289 15.1559 20.6289 15.1215 20.6622C15.087 20.6955 15.0526 20.7289 15.0526 20.7622C15.0526 20.7955 15.087 20.8288 15.087 20.8955C15.087 20.9288 15.1215 20.9288 15.1215 20.9621C15.1215 20.9621 15.1559 21.0287 15.1559 21.0954C15.1559 21.162 15.1559 21.3619 15.1559 21.4619C15.1559 21.5618 15.1215 21.5951 15.1215 21.6618V21.6951C15.1215 21.7284 15.0526 21.795 15.0181 21.8284C14.9492 21.895 14.9492 21.9283 14.9492 21.9283C14.9492 21.9283 14.9492 21.9283 14.9837 21.9283C15.0526 21.9283 15.2592 21.895 15.2937 21.8617C15.3626 21.8617 15.4659 21.5951 15.4659 21.4619Z" fill="#084780"/>
<path d="M16.6376 21.73L16.6032 21.6967C16.5687 21.6634 16.5343 21.6301 16.4998 21.5967C16.4998 21.5967 16.4654 21.5634 16.431 21.5634C16.3965 21.5634 16.3965 21.5301 16.3965 21.5301C16.3621 21.5301 16.3621 21.4968 16.3276 21.4968H16.2932C16.2932 21.4968 16.1898 21.4301 16.1554 21.4301C16.1209 21.4301 16.0865 21.3968 16.052 21.3968C16.052 21.3968 16.052 21.3968 16.0176 21.3635L15.9831 21.3302C15.9487 21.3302 15.7765 21.2969 15.7765 21.2969C15.742 21.2969 15.6731 21.3635 15.6387 21.3635C15.6387 21.3635 15.6387 21.3968 15.6387 21.4301L15.6731 21.4968C15.6731 21.4968 15.7076 21.5301 15.742 21.5301C15.742 21.5634 15.7076 21.6301 15.7076 21.6967C15.7076 21.7633 15.7076 21.83 15.7076 21.8966C15.7076 21.9299 15.7765 22.0299 15.8109 22.0632C15.8454 22.0965 15.9142 22.1298 15.9142 22.1298C15.9142 22.1298 15.9487 22.1298 15.9487 22.0965C15.9831 22.0632 15.9831 22.0299 15.9831 21.9966C15.9831 21.8966 15.9487 21.8633 15.9487 21.83V21.7966C15.9487 21.7633 15.9831 21.6967 16.0176 21.6301C16.052 21.6301 16.052 21.6301 16.0865 21.6634C16.1209 21.6967 16.2587 21.7966 16.2932 21.83L16.3276 21.8633C16.3621 21.8966 16.3965 21.8966 16.3965 21.9632C16.3621 22.0632 16.3276 22.0965 16.2587 22.0965C16.2243 22.1298 16.1209 22.1631 16.0865 22.1631C16.0176 22.1631 15.9142 22.1965 15.8798 22.1965C15.8454 22.1965 15.742 22.1965 15.742 22.1965C15.742 22.1965 15.6731 22.2298 15.6731 22.2631C15.6731 22.2964 15.7076 22.3297 15.7076 22.3297H15.8798C15.8798 22.3297 15.9487 22.3297 15.9831 22.3297C15.9831 22.3297 16.0176 22.3297 16.052 22.3297C16.0865 22.3297 16.1554 22.3297 16.1554 22.3297C16.1898 22.3297 16.2932 22.2964 16.3276 22.2631C16.3965 22.2298 16.6032 22.1298 16.6376 22.0965C16.6721 22.0632 16.6721 22.0299 16.7065 22.0299C16.7065 21.9966 16.7065 21.9632 16.7065 21.9299C16.7065 21.83 16.6721 21.73 16.6376 21.73Z" fill="#084780"/>
<path d="M20.1171 18.2668C20.2204 18.2668 20.5649 18.3334 20.7027 18.4C20.8405 18.4334 20.9094 18.4667 20.9438 18.5C20.9783 18.5333 21.1505 18.6666 21.2539 18.7665C21.2883 18.7999 21.3227 18.8332 21.3572 18.8332C21.3916 18.8665 21.4261 18.8665 21.4261 18.9331C21.4261 18.9331 21.4261 18.9664 21.495 18.9664C21.495 18.9664 21.5294 18.9664 21.5639 18.9664C21.6328 18.9664 21.6672 18.9331 21.7017 18.8998C21.7361 18.8665 21.7361 18.8332 21.7017 18.8332C21.6672 18.7665 21.6672 18.7665 21.6672 18.7665C21.6672 18.7665 21.6328 18.7665 21.5983 18.6666C21.5294 18.6 21.4605 18.5333 21.3916 18.4667C21.3572 18.4334 21.3227 18.4334 21.3227 18.4C21.185 18.3001 21.1161 18.2335 21.0472 18.2001C21.0472 18.2001 21.0127 18.2001 21.0127 18.1668C20.9094 18.1002 20.5994 17.9336 20.2204 17.9336C20.1171 17.9336 19.9104 18.0669 19.876 18.1002L19.9104 18.2335C19.9449 18.2668 20.0482 18.3001 20.1171 18.2668Z" fill="#084780"/>
<path d="M21.529 19.4655C21.5634 19.4655 21.5634 19.4655 21.5979 19.4655C21.6323 19.4655 21.6668 19.4322 21.6668 19.4322C21.6668 19.4322 21.6668 19.3989 21.7357 19.3656C21.7701 19.3656 21.7701 19.3323 21.7357 19.3323C21.7012 19.299 21.3223 19.2656 21.2534 19.299C21.2189 19.299 21.1501 19.3323 21.0812 19.3323C20.9778 19.3656 20.8745 19.3656 20.84 19.3989C20.8056 19.3989 20.7711 19.4322 20.7367 19.4322C20.6333 19.4655 20.5645 19.4989 20.5645 19.5655C20.5645 19.5988 20.5644 19.5988 20.5989 19.5988C20.5989 19.5988 20.6333 19.5988 20.6678 19.5988C20.7367 19.5988 20.84 19.5655 20.9434 19.5322C20.9778 19.5322 21.0123 19.4989 21.0123 19.4989C21.0812 19.4655 21.0812 19.4655 21.15 19.4655C21.1845 19.4655 21.2189 19.4655 21.3223 19.4322C21.4256 19.4655 21.4945 19.4655 21.529 19.4655Z" fill="#084780"/>
<path d="M20.6675 18.7975C20.7709 18.8308 20.9776 18.9641 21.012 19.0307C20.9776 19.064 20.9087 19.0974 20.8053 19.1307C20.6331 19.1973 20.5986 19.2306 20.5642 19.2639C20.5642 19.2639 20.5642 19.2639 20.5986 19.2639C20.6675 19.2639 21.012 19.164 21.0809 19.1307C21.1498 19.0974 21.1842 18.9974 21.2187 18.9974L21.1842 18.8974C21.1842 18.8641 21.1498 18.8308 21.1154 18.7642C21.0465 18.6975 20.7364 18.4976 20.6331 18.4976C20.6331 18.4976 20.0819 18.3977 20.013 18.4643C19.9441 18.4976 20.013 18.6642 20.013 18.6642C20.0475 18.6642 20.1164 18.6642 20.1853 18.6642C20.1853 18.7309 20.1853 18.7975 20.1853 18.8308V18.8641C20.1853 18.9308 20.1853 18.9641 20.2542 19.0307C20.2542 19.0307 20.2542 19.064 20.2886 19.064C20.3231 19.0974 20.3231 19.1307 20.392 19.1307H20.4264C20.4953 19.1307 20.4953 19.0307 20.4953 18.9641C20.4953 18.9308 20.4953 18.8974 20.4953 18.8641C20.4953 18.7975 20.5297 18.7309 20.5642 18.6975C20.5642 18.7975 20.5986 18.7975 20.6675 18.7975Z" fill="#084780"/>
</svg>
