<svg width="86" height="24" viewBox="0 0 86 24" fill="none" xmlns="http://www.w3.org/2000/svg">
<path d="M10.087 7.82668L13.3419 1.19141H6.84961L10.087 7.82668Z" fill="#F3F3F3"/>
<path d="M7.07031 8.20312V12.5113H9.22266L7.07031 8.20312Z" fill="#F3F3F3"/>
<path d="M12.9194 8.20312L10.7627 12.5113H12.9194V8.20312Z" fill="#F3F3F3"/>
<path d="M29.4675 19.5781H27.7209L28.6162 16.7207L29.4675 19.5781ZM34.6234 23.7153L30.2526 12.3906H27.2181L22.834 23.7153H26.4021L26.8873 22.1989H30.2349L30.676 23.7153H34.6234Z" fill="#F3F3F3"/>
<path d="M62.683 18.0499C62.683 19.5794 61.5184 20.7846 60.0278 20.7846C58.5191 20.7846 57.3726 19.5838 57.3726 18.0499C57.3726 16.5335 58.5191 15.3327 60.0278 15.3327C61.5184 15.3327 62.683 16.5335 62.683 18.0499ZM66.0616 18.0499C66.0616 14.741 63.4197 12.1641 60.0278 12.1641C56.6316 12.1641 53.9941 14.741 53.9941 18.0499C53.9941 21.3763 56.636 23.9533 60.0278 23.9533C63.4197 23.9533 66.0616 21.3763 66.0616 18.0499Z" fill="#F3F3F3"/>
<path d="M71.5885 16.2381C71.5885 16.8473 71.1346 17.2549 70.5344 17.2549H70.0319V15.2082H70.5344C71.1346 15.2038 71.5885 15.6114 71.5885 16.2381ZM74.8746 16.0014C74.8746 14.095 73.4452 12.3945 71.1826 12.3945H66.6533V23.7192H70.0319V19.5777L72.3558 23.7148H76.1271L73.3307 18.951C74.3056 18.2979 74.8746 17.1891 74.8746 16.0014Z" fill="#F3F3F3"/>
<path d="M78.2212 23.7148H81.5998V18.78L85.0889 12.3945H81.5513L80.1045 15.4098L78.6451 12.3945H74.7148L78.2212 18.78V23.7148Z" fill="#F3F3F3"/>
<path d="M3.78475 1.18359H0.40625V12.5083H3.78475V1.18359Z" fill="#F3F3F3"/>
<path d="M29.4672 8.37159H27.7206L28.6159 5.5141L29.4672 8.37159ZM19.5787 5.63682V3.99772H20.2844C20.7607 3.99772 21.1356 4.32641 21.1356 4.8085C21.1356 5.30812 20.7563 5.63682 20.2888 5.63682H19.5787ZM34.6231 12.5088L30.2523 1.18407H27.2178L22.8778 12.3904H19.5787V8.34968H20.7431C22.9748 8.34968 24.4215 6.66235 24.4215 4.77344C24.4215 2.88453 22.9748 1.17969 20.7431 1.17969H16.2002V23.7064H19.5787V19.3325H23.5085V16.6153H19.5787V15.4583H23.116V12.4956H26.4018L26.887 10.9792H30.2346L30.6757 12.4956H34.6231V12.5088Z" fill="#F3F3F3"/>
<path d="M42.1786 5.62062L44.8337 3.76239C43.7223 2.0444 41.9933 0.953125 39.7925 0.953125C36.3963 0.953125 33.7588 3.53011 33.7588 6.839C33.7588 9.5036 35.4525 11.6862 37.8739 12.4531C35.4525 13.2157 33.7588 15.3983 33.7588 18.0497C33.7588 21.3761 36.4007 23.9531 39.7925 23.9531C41.9448 23.9531 43.6429 22.8925 44.7764 21.2534L42.086 19.4259C41.5522 20.2235 40.7672 20.7845 39.7925 20.7845C38.284 20.7845 37.1373 19.5836 37.1373 18.0497C37.1373 16.5333 38.284 15.3325 39.7925 15.3325C40.8466 15.3325 41.6802 15.9592 42.183 16.8313L44.8382 14.9731C44.0619 13.7767 42.9857 12.8826 41.6625 12.4531C42.946 12.0324 43.9957 11.1734 44.7764 10.0427L42.086 8.21514C41.5522 9.01278 40.7672 9.57376 39.7925 9.57376C38.284 9.57376 37.1373 8.37293 37.1373 6.839C37.1373 5.3226 38.284 4.12176 39.7925 4.12176C40.8466 4.12176 41.6758 4.74848 42.1786 5.62062Z" fill="#F3F3F3"/>
<path d="M51.1317 12.3943V4.35661H53.7736V1.18359H45.1289V4.35661H47.7532V12.3943H45.1289V15.563H47.7532V23.7146H51.1317V15.563H53.7736V12.3943H51.1317Z" fill="#F3F3F3"/>
</svg>
