<svg width="26" height="26" viewBox="0 0 26 26" fill="none" xmlns="http://www.w3.org/2000/svg">
<g clip-path="url(#clip0_2141_9439)">
<path d="M13.0346 1.46094C9.41216 1.46094 6.37395 2.81235 4.2627 5.39658L4.30213 5.89963H4.73625C6.71955 3.43372 9.59094 2.14161 13.0247 2.14161C16.4584 2.14161 19.3298 3.52224 21.3134 5.99925H21.8069L21.8463 5.5555C19.7441 2.94031 16.6854 1.46094 13.0346 1.46094Z" fill="#65B32E"/>
<path d="M20.238 5.90678C19.2923 4.95703 18.168 4.20394 16.9298 3.69096C15.6916 3.17798 14.3641 2.91527 13.0239 2.91799C11.6836 2.92071 10.3572 3.18879 9.12113 3.70679C7.88503 4.22478 6.76375 4.98242 5.82198 5.936C5.76356 5.99442 5.71331 6.05431 5.6543 6.11361H6.57189C8.32754 4.47216 10.6413 3.55902 13.0447 3.55902C15.4482 3.55902 17.7619 4.47216 19.5176 6.11361H20.4352C20.3662 6.04467 20.2973 5.97573 20.238 5.90678Z" fill="#65B32E"/>
<path d="M22.0825 3.73787C19.6432 1.35187 16.3696 0.010977 12.9574 6.70964e-05C9.54518 -0.0108428 6.26315 1.30909 3.80859 3.67945L3.88747 4.52664C5.05579 3.29692 6.46296 2.31877 8.02271 1.65217C9.58246 0.985562 11.2619 0.644541 12.9581 0.650011C14.6544 0.655482 16.3316 1.00733 17.887 1.68398C19.4424 2.36063 20.8433 3.34783 22.0036 4.58506L22.0825 3.73787Z" fill="#65B32E"/>
<path fill-rule="evenodd" clip-rule="evenodd" d="M1.95375 6.47154C2.01218 7.14345 2.64436 8.12853 2.64436 8.12853C2.86455 7.63471 3.12534 7.16002 3.42407 6.70934C3.59175 6.39383 3.51171 5.83294 3.39485 5.34828V5.33631C3.38492 5.29687 3.34548 5.14905 3.31598 5.03044C3.22834 4.72458 3.13836 4.50781 3.13836 4.50781C2.67063 4.97644 2.28386 5.51938 1.99377 6.11455C1.95483 6.22927 1.94118 6.35105 1.95375 6.47154Z" fill="#65B32E"/>
<path fill-rule="evenodd" clip-rule="evenodd" d="M0.0390625 11.8546V11.9624C0.0589277 12.5838 1.52895 13.294 1.52895 13.294V12.9887C1.52884 12.9326 1.53215 12.8766 1.53888 12.821C1.62179 12.4023 1.6452 11.974 1.60841 11.5487C1.47023 10.8681 0.404523 9.77344 0.404523 9.77344C0.196585 10.4082 0.0768584 11.0686 0.048703 11.736C0.0390625 11.8163 0.0390625 11.894 0.0390625 11.8546Z" fill="#65B32E"/>
<path fill-rule="evenodd" clip-rule="evenodd" d="M2.24005 17.1048C2.00225 16.5328 0.395508 16.168 0.395508 16.168C0.412375 16.2295 0.425545 16.2921 0.434946 16.3552C0.546063 16.9312 0.728392 17.4912 0.977733 18.0221C1.20472 18.5053 2.94117 18.5842 2.94117 18.5842C2.87223 18.456 2.81292 18.3476 2.75362 18.2389C2.57571 17.884 2.43753 17.598 2.24005 17.1048Z" fill="#65B32E"/>
<path fill-rule="evenodd" clip-rule="evenodd" d="M2.76276 16.767V16.8164C2.88107 17.5365 3.19687 17.8815 3.48316 18.4044C3.48316 18.4044 4.18429 17.3095 4.26258 16.5304C4.26258 16.491 4.27251 16.4515 4.27251 16.4021C4.23307 15.8301 4.00609 15.692 3.89741 15.2383C3.89741 15.2482 2.75283 16.0866 2.76276 16.767Z" fill="#65B32E"/>
<path fill-rule="evenodd" clip-rule="evenodd" d="M3.65109 13.0611V13.0117C3.65109 13.0117 3.60172 13.0316 3.58214 13.0409C3.35515 13.1493 2.23043 13.7017 2.14163 14.2147C2.1255 14.3158 2.11885 14.4182 2.12176 14.5206C2.12176 15.083 2.37825 15.4379 2.51643 15.9605C2.51643 15.9605 3.71039 14.8656 3.7399 14.2837V14.274C3.74983 13.7415 3.65109 13.475 3.65109 13.0611Z" fill="#65B32E"/>
<path fill-rule="evenodd" clip-rule="evenodd" d="M3.89701 10.8711C3.89701 10.8711 2.41706 11.0981 2.19971 11.6207C2.08355 12.0107 2.05364 12.4213 2.11207 12.824C2.11207 12.9117 2.122 13.051 2.122 13.0411V13.3271C2.122 13.3271 3.50351 12.5383 3.69953 12.0548C3.75597 11.9112 3.7989 11.7627 3.82778 11.6111C3.8317 11.363 3.85485 11.1156 3.89701 10.8711Z" fill="#65B32E"/>
<path fill-rule="evenodd" clip-rule="evenodd" d="M5.77273 6.90333C5.34855 6.86389 4.20396 6.78502 3.94718 7.03158C3.68304 7.35562 3.47004 7.71816 3.31558 8.10664C3.27614 8.18551 3.2367 8.27432 3.19727 8.36313C3.19727 8.36313 4.78589 8.40257 5.08183 8.0672C5.4765 7.65295 5.63425 7.25828 5.92902 6.91327C5.93077 6.91327 5.87147 6.91327 5.77273 6.90333Z" fill="#65B32E"/>
<path fill-rule="evenodd" clip-rule="evenodd" d="M4.65717 8.85699C4.65717 8.85699 3.19649 8.70917 2.87135 9.13305C2.633 9.55213 2.48195 10.0151 2.4273 10.4941C2.40744 10.573 2.39809 10.6618 2.37793 10.7407C2.37793 10.7407 3.85788 10.4447 4.18362 9.94168C4.34215 9.63539 4.48062 9.31912 4.59815 8.99487C4.60935 8.94573 4.62934 8.89902 4.65717 8.85699Z" fill="#65B32E"/>
<path fill-rule="evenodd" clip-rule="evenodd" d="M1.79532 10.5839C1.81519 10.5051 1.82454 10.4361 1.84469 10.3669C1.94344 9.96256 2.04218 9.69497 2.19 9.19308C2.39712 8.43353 1.48887 7.04297 1.48887 7.04297C1.14357 7.6842 0.846178 7.99971 0.679661 8.83814C0.677737 8.86539 0.671012 8.8921 0.659796 8.91701C0.571863 9.69614 1.79532 10.5839 1.79532 10.5839Z" fill="#65B32E"/>
<path fill-rule="evenodd" clip-rule="evenodd" d="M1.81474 15.711C1.70868 15.2799 1.63611 14.8413 1.59769 14.399C1.53926 13.8367 0.295348 13.1364 0.058427 13.0082C0.0381726 12.9962 0.0186612 12.9831 0 12.9688V13.0564C0 13.3719 0 13.6582 0.00993258 13.9538C0.0290965 14.3559 0.081766 14.7556 0.167393 15.149C0.276067 15.5632 0.858 15.8591 1.90413 16.0368C1.87317 15.9085 1.84396 15.8095 1.81474 15.711Z" fill="#65B32E"/>
<path fill-rule="evenodd" clip-rule="evenodd" d="M23.7999 9.19308C23.938 9.70607 24.0464 9.96256 24.1452 10.3669C24.165 10.4358 24.1744 10.5051 24.1945 10.5839C24.1945 10.5839 25.418 9.69614 25.3193 8.91701C25.3174 8.88978 25.3108 8.86308 25.2997 8.83814C25.132 7.99971 24.8361 7.6842 24.4905 7.04297C24.5004 7.04297 23.6024 8.42389 23.7999 9.19308Z" fill="#65B32E"/>
<path fill-rule="evenodd" clip-rule="evenodd" d="M24.4608 12.8336C24.4675 12.8893 24.4708 12.9453 24.4707 13.0013V13.308C24.4707 13.308 25.941 12.5979 25.9606 11.9765V11.7597C25.9327 11.0923 25.8131 10.4318 25.6054 9.79688C25.6054 9.79688 24.5397 10.8918 24.4015 11.5722C24.3577 11.9932 24.3777 12.4185 24.4608 12.8336Z" fill="#65B32E"/>
<path fill-rule="evenodd" clip-rule="evenodd" d="M26.0001 13.0603V12.9727C25.979 12.9833 25.9594 12.9966 25.9416 13.0121C25.7047 13.1403 24.4614 13.8406 24.4024 14.4029C24.3639 14.8452 24.2914 15.2838 24.1853 15.7149C24.1655 15.8137 24.136 15.9121 24.1064 16.0304C25.1622 15.8528 25.7345 15.5668 25.8432 15.1426C25.9301 14.7501 25.9828 14.3509 26.0009 13.9493L26.0001 13.0603Z" fill="#65B32E"/>
<path fill-rule="evenodd" clip-rule="evenodd" d="M23.7505 17.1029C23.6004 17.4949 23.4258 17.877 23.2276 18.2469C23.1692 18.3553 23.1093 18.464 23.04 18.5922C23.04 18.5922 24.7768 18.5134 25.0035 18.0302C25.2528 17.4992 25.4352 16.9393 25.5463 16.3633C25.5562 16.3048 25.5755 16.2449 25.5857 16.176C25.5956 16.1658 23.9874 16.5207 23.7505 17.1029Z" fill="#65B32E"/>
<path fill-rule="evenodd" clip-rule="evenodd" d="M22.2705 14.2915C22.2997 14.8734 23.494 15.9683 23.494 15.9683C23.6321 15.4554 23.8886 15.0919 23.8886 14.5284C23.8886 14.4297 23.8787 14.3312 23.8691 14.2225C23.7814 13.6999 22.6552 13.1574 22.4286 13.0487C22.405 13.0403 22.382 13.0306 22.3596 13.0195V13.0689C22.3596 13.4831 22.2609 13.7496 22.2807 14.2921C22.2705 14.2818 22.2705 14.2818 22.2705 14.2915Z" fill="#65B32E"/>
<path fill-rule="evenodd" clip-rule="evenodd" d="M23.7998 11.6285C23.5729 11.1059 22.1025 10.8789 22.1025 10.8789C22.1441 11.1202 22.1672 11.3644 22.1715 11.6092C22.1943 11.7622 22.2375 11.9114 22.2997 12.053C22.4969 12.5362 23.8773 13.3252 23.8773 13.3252V13.0392C23.8773 13.0591 23.8773 12.911 23.8872 12.8222C23.9411 12.4225 23.9114 12.0161 23.7998 11.6285Z" fill="#65B32E"/>
<path fill-rule="evenodd" clip-rule="evenodd" d="M21.4021 8.99496C21.5159 9.32066 21.6545 9.63718 21.8166 9.94177C22.1423 10.4448 23.6223 10.7408 23.6223 10.7408C23.6011 10.6596 23.5846 10.5773 23.5729 10.4942C23.5167 10.0155 23.3658 9.55284 23.1289 9.13314C22.8032 8.70896 21.3428 8.85707 21.3428 8.85707C21.3641 8.90615 21.3825 8.94559 21.4021 8.99496Z" fill="#65B32E"/>
<path fill-rule="evenodd" clip-rule="evenodd" d="M22.7947 8.36313C22.7553 8.27549 22.7159 8.18551 22.6764 8.10664C22.5109 7.72369 22.2987 7.36261 22.0448 7.03158C21.7883 6.78502 20.6426 6.86389 20.2193 6.90333C20.1205 6.91327 20.0615 6.92291 20.0615 6.92291C20.3575 7.26821 20.5056 7.66259 20.9087 8.07684C21.2046 8.39264 22.7947 8.36313 22.7947 8.36313Z" fill="#65B32E"/>
<path fill-rule="evenodd" clip-rule="evenodd" d="M23.2367 16.7691C23.2467 16.0972 22.0922 15.25 22.0922 15.25C21.9934 15.7037 21.7568 15.8419 21.717 16.4139C21.7158 16.4568 21.7191 16.4998 21.727 16.5421C21.8146 17.3212 22.5064 18.4162 22.5064 18.4162C22.7924 17.8935 23.1082 17.5398 23.2268 16.8281C23.2341 16.8093 23.2375 16.7892 23.2367 16.7691Z" fill="#65B32E"/>
<path fill-rule="evenodd" clip-rule="evenodd" d="M22.5659 6.70821C22.8646 7.15926 23.1253 7.63435 23.3453 8.12857C23.3453 8.12857 23.9769 7.14232 24.0359 6.47158C24.0491 6.35497 24.0356 6.23691 23.9965 6.12627C23.7099 5.52906 23.3227 4.98557 22.8519 4.51953C22.8519 4.51953 22.7643 4.73659 22.6743 5.04216C22.6423 5.14257 22.616 5.24468 22.5954 5.34803V5.35796C22.4771 5.81982 22.3982 6.39182 22.5659 6.70821Z" fill="#65B32E"/>
<path d="M12.6304 16.6865L12.2848 12.1108C12.2556 11.6372 12.2354 11.0553 12.2354 10.8286C12.1861 11.0751 12.0873 11.5388 11.9494 12.0123L10.6074 16.6865H9.56094L8.33806 12.2194C8.19988 11.7263 8.0617 11.0655 8.02226 10.8189C8.02226 11.0655 7.98283 11.7657 7.94339 12.2294L7.62759 16.6865H6.41406L7.08597 9.30859H8.71375L9.8484 13.4908C9.96169 13.9068 10.0539 14.3282 10.1248 14.7534C10.1894 14.3376 10.2784 13.926 10.3912 13.5206L11.5556 9.31882H13.1834L13.8346 16.6967H12.6304V16.6865Z" fill="#65B32E"/>
<path d="M18.3923 16.688L17.7496 15.5437C17.4173 14.8789 16.9922 14.2647 16.487 13.7196C16.4279 13.6487 16.354 13.5916 16.2705 13.5524C16.1869 13.5131 16.0958 13.4927 16.0035 13.4926V16.6786H14.8008V9.30078H17.0502C18.7078 9.30078 19.4481 10.2575 19.4481 11.4115C19.4481 12.4669 18.7671 13.4333 17.6129 13.4333C17.8793 13.5715 18.3724 14.2805 18.7575 14.9031L19.8427 16.6784H18.3923V16.688ZM16.6853 10.3069H16.0134V12.6346H16.645C17.2877 12.6346 17.6219 12.547 17.8489 12.3288C17.9617 12.209 18.0495 12.0679 18.1071 11.9137C18.1647 11.7595 18.1909 11.5955 18.1843 11.431C18.1852 10.6916 17.7806 10.3069 16.6853 10.3069Z" fill="#65B32E"/>
<path d="M24.6584 18.7982C23.9374 19.0443 23.1803 19.1677 22.4186 19.1631C21.9056 18.6107 21.4022 17.358 21.3824 17.2891C20.6832 18.5977 19.6803 19.7196 18.4579 20.5606C17.2355 21.4016 15.8293 21.9371 14.3571 22.1221C13.4995 22.2406 12.6296 22.2406 11.772 22.1221C10.2994 21.9384 8.8925 21.4035 7.66984 20.5624C6.44718 19.7213 5.44457 18.5986 4.74646 17.2891C4.71725 17.358 4.22354 18.6601 3.71055 19.1631C3.65212 19.1532 3.22707 19.1339 2.78302 19.0644C2.16136 18.9656 1.51019 18.8079 1.48069 18.7979L1.2832 18.7395C1.48039 19.1237 1.90399 19.8832 2.16136 20.2779C2.19057 20.3173 2.68428 21.0176 2.82246 21.1853C2.86849 21.226 2.92874 21.247 2.99015 21.2437C3.01971 21.2452 3.04931 21.2418 3.07779 21.2338L3.66994 21.135C3.71877 21.1248 3.76827 21.1182 3.81806 21.1152C3.90832 21.1125 3.99629 21.1438 4.06462 21.2028C4.09383 21.2227 4.42979 21.5776 4.44936 21.5875C4.47781 21.6163 4.50113 21.6497 4.5183 21.6863V21.6763L4.30125 22.5235C4.28372 22.5751 4.28185 22.6308 4.29589 22.6834C4.30992 22.7361 4.33923 22.7834 4.38012 22.8195C4.38012 22.8195 4.43855 22.8688 4.44907 22.8779C4.73539 23.1278 5.03518 23.3619 5.34709 23.579C5.37975 23.599 5.41748 23.6092 5.45576 23.6082C5.51077 23.6081 5.56492 23.5946 5.61352 23.5688L6.1563 23.3123C6.23196 23.2703 6.31642 23.2467 6.40287 23.2434C6.45495 23.2424 6.50627 23.256 6.55098 23.2828C6.58019 23.3024 7.06397 23.5787 7.09376 23.6082C7.1306 23.6386 7.16094 23.6761 7.18298 23.7185C7.20501 23.7608 7.21829 23.8072 7.22201 23.8548V23.8647L7.23194 24.2001V24.2293L7.24188 24.5352C7.25181 24.6734 7.28131 24.7324 7.37012 24.7817C7.64648 24.91 8.34702 25.196 8.40633 25.2158C8.43433 25.2269 8.46391 25.2335 8.49397 25.2354C8.57158 25.2333 8.64555 25.202 8.70109 25.1478L9.14513 24.763C9.22484 24.677 9.33407 24.6242 9.451 24.6152C9.50943 24.6152 10.0937 24.773 10.132 24.7829C10.1904 24.8096 10.241 24.8509 10.279 24.9027C10.3169 24.9545 10.3411 25.0151 10.349 25.0788L10.5366 25.6508C10.5502 25.702 10.5776 25.7484 10.6159 25.785C10.6542 25.8215 10.7019 25.8468 10.7536 25.858C10.803 25.8679 11.7305 25.9961 11.7799 25.9961C11.8311 25.998 11.8818 25.9862 11.9269 25.9619C11.972 25.9376 12.0098 25.9017 12.0364 25.858L12.3817 25.3648C12.389 25.35 12.3989 25.3367 12.4109 25.3254C12.4208 25.3155 12.4208 25.3055 12.4308 25.3055C12.4407 25.2956 12.4407 25.286 12.4503 25.2763L12.4702 25.2565L12.4901 25.2366L12.5099 25.217C12.5199 25.2071 12.5298 25.2071 12.5298 25.1972C12.5397 25.1972 12.5397 25.1872 12.5497 25.1872C12.5535 25.1835 12.5581 25.1807 12.5632 25.179C12.5682 25.1773 12.5736 25.1767 12.5789 25.1773C12.5888 25.1773 12.5888 25.1674 12.5988 25.1674C12.6087 25.1674 12.6183 25.1574 12.628 25.1574C12.6376 25.1574 12.6379 25.1574 12.6478 25.1475C12.6531 25.1481 12.6585 25.1475 12.6635 25.1458C12.6686 25.1441 12.6732 25.1413 12.677 25.1376H13.3677C13.4439 25.1361 13.519 25.1568 13.5838 25.1971C13.6486 25.2373 13.7004 25.2955 13.7328 25.3645L14.0781 25.8577C14.1039 25.9022 14.1415 25.9387 14.1868 25.9631C14.2321 25.9875 14.2833 25.9988 14.3346 25.9958C14.384 25.9958 15.3115 25.8676 15.3609 25.8577C15.3808 25.8577 15.3901 25.8477 15.4103 25.8477C15.4116 25.8478 15.4129 25.8475 15.4141 25.8471C15.4153 25.8466 15.4164 25.8458 15.4174 25.8449C15.4183 25.844 15.419 25.8429 15.4195 25.8417C15.42 25.8404 15.4202 25.8391 15.4202 25.8378C15.4301 25.8378 15.4401 25.8279 15.4494 25.8179H15.4593C15.4706 25.8059 15.484 25.796 15.4988 25.7887L15.5087 25.7788L15.5379 25.7496V25.7297L15.5479 25.7198C15.5479 25.7098 15.5578 25.7098 15.5578 25.6999C15.5578 25.69 15.5677 25.69 15.5677 25.6803V25.6704C15.5677 25.6605 15.5777 25.6505 15.5777 25.6412L15.7751 25.0692C15.785 25.0473 15.7917 25.0241 15.795 25.0003C15.795 24.9903 15.795 24.9903 15.8049 24.9807C15.8049 24.9707 15.8149 24.9608 15.8149 24.9515C15.8149 24.9421 15.8248 24.9415 15.8248 24.9316C15.8347 24.9217 15.8347 24.912 15.8447 24.9024L15.8546 24.8925L15.8745 24.8729L15.8844 24.8629L15.9043 24.8431L15.9142 24.8332C15.9241 24.8232 15.9341 24.8232 15.9341 24.8136L15.944 24.8036C15.9539 24.7937 15.9639 24.7937 15.9834 24.7838C16.2105 24.713 16.441 24.6537 16.674 24.6062C16.7326 24.6074 16.7903 24.6213 16.843 24.6468C16.8958 24.6723 16.9425 24.7089 16.9799 24.754L17.4239 25.1387C17.451 25.1663 17.4832 25.1882 17.5187 25.2033C17.5543 25.2183 17.5925 25.2262 17.6311 25.2264C17.6611 25.2244 17.6907 25.2177 17.7187 25.2065C17.7763 25.1878 17.8323 25.1647 17.8864 25.1376C18.1823 25.0192 18.4686 24.9009 18.7546 24.7727C18.8829 24.7143 18.8633 24.5851 18.8729 24.4572C18.8829 24.3584 18.8829 24.2696 18.8829 24.2501V24.1916L18.8928 23.8069V23.7873C18.9114 23.7455 18.9345 23.7058 18.9617 23.669C18.9617 23.6677 18.9619 23.6664 18.9624 23.6651C18.9629 23.6639 18.9636 23.6628 18.9646 23.6619C18.9655 23.661 18.9666 23.6602 18.9678 23.6597C18.969 23.6592 18.9704 23.659 18.9717 23.6591C18.9816 23.6491 18.9912 23.6298 19.0009 23.6196L19.0108 23.6097C19.0307 23.5998 19.04 23.5805 19.0602 23.5703C19.0894 23.5504 19.5437 23.2843 19.5831 23.2743C19.6267 23.2552 19.6737 23.2453 19.7213 23.2451C19.8077 23.2485 19.8922 23.2721 19.9679 23.3141L20.513 23.5729C20.5623 23.5966 20.616 23.61 20.6707 23.6123C20.7088 23.6119 20.7462 23.6019 20.7794 23.5831C21.0853 23.3661 21.3812 23.1294 21.6675 22.8928C21.6887 22.8713 21.7117 22.8517 21.7364 22.8344C21.7767 22.7979 21.8056 22.7506 21.8196 22.6981C21.8336 22.6455 21.8321 22.5901 21.8153 22.5384L21.6082 21.7099C21.6093 21.7025 21.6128 21.6956 21.6181 21.6904C21.6281 21.6804 21.638 21.6612 21.6473 21.6509L21.6672 21.6311L21.7256 21.5726L21.9722 21.3161C22.0083 21.2634 22.057 21.2204 22.1139 21.1911C22.1707 21.1618 22.234 21.1472 22.2979 21.1485C22.3473 21.1485 23.0084 21.2668 23.0478 21.2668C23.0763 21.2748 23.1059 21.2782 23.1355 21.2767C23.166 21.2793 23.1967 21.2755 23.2256 21.2654C23.2545 21.2554 23.2809 21.2393 23.3032 21.2183C23.4314 21.0506 23.9459 20.3305 23.9751 20.291C24.212 19.9262 24.6657 19.1172 24.8632 18.7325L24.6584 18.7982Z" fill="#65B32E"/>
</g>
<defs>
<clipPath id="clip0_2141_9439">
<rect width="26" height="26" fill="white"/>
</clipPath>
</defs>
</svg>
