<svg width="147" height="31" viewBox="0 0 147 31" fill="none" xmlns="http://www.w3.org/2000/svg">
<path fill-rule="evenodd" clip-rule="evenodd" d="M24.8632 24.2422L26.6482 25.2653C24.1703 28.6777 20.0928 30.9077 15.4789 30.9077C11.0226 30.9077 7.0666 28.8273 4.56738 25.6108L4.78126 25.5382C4.99423 25.4627 5.2072 25.3872 5.42016 25.3117L6.6032 24.8663C8.73826 27.3166 11.9236 28.8711 15.4789 28.8711C19.328 28.8711 22.7435 27.0492 24.8632 24.2422Z" fill="#8FA84D"/>
<path fill-rule="evenodd" clip-rule="evenodd" d="M13.69 4.3967C13.6491 4.62049 13.6083 4.84433 13.5675 5.06818L13.3541 6.38395C7.93938 7.35421 3.83251 11.9798 3.83251 17.5319C3.83251 19.223 4.2135 20.8282 4.89899 22.2684L3.11548 23.2908C2.25986 21.5459 1.78125 19.5923 1.78125 17.5319C1.78125 10.7426 6.97836 5.11257 13.715 4.26953L13.69 4.3967Z" fill="#8FA84D"/>
<path fill-rule="evenodd" clip-rule="evenodd" d="M16.4971 4.19531C23.5918 4.70027 29.1773 10.4928 29.1773 17.5313C29.1773 19.4436 28.7651 21.2638 28.0189 22.9101L27.8469 22.7605C27.6764 22.6165 27.506 22.4723 27.3355 22.3282L26.3717 21.545C26.86 20.2977 27.126 18.9445 27.126 17.5313C27.126 11.6068 22.4498 6.7373 16.4971 6.23707V4.19531Z" fill="#8FA84D"/>
<path fill-rule="evenodd" clip-rule="evenodd" d="M13.8411 18.3304C13.7214 18.0896 13.6542 17.8185 13.6542 17.5319C13.6542 16.5341 14.4701 15.7239 15.4751 15.7239C16.4801 15.7239 17.2961 16.5341 17.2961 17.5319C17.2961 17.8349 17.2209 18.1207 17.0879 18.3717L17.2115 18.1592L18.1683 18.7076C18.8722 18.5795 19.8188 18.3289 20.3576 18.5111C22.5548 19.2543 29.0638 24.3746 30.5786 26.6198L16.8633 18.7579L17.0163 18.4948C16.6937 19.0024 16.1238 19.3398 15.4751 19.3398C14.8433 19.3398 14.2861 19.0197 13.9596 18.5339L14.0634 18.7126L13.1067 19.2611C12.8664 19.9304 12.6118 20.8696 12.1835 21.2418C10.4366 22.7595 2.71587 25.7959 0 25.9758L13.7153 18.1139L13.8411 18.3304ZM15.7127 15.7239V0C14.5117 2.42512 13.2999 10.582 13.7503 12.8428C13.8607 13.3972 14.5527 14.0858 15.0164 14.627V15.7239H15.7127Z" fill="#1A3C87"/>
<path d="M69.5171 27.6827C69.3566 27.8526 69.1231 28.0061 68.8161 28.1433C68.5084 28.2804 68.1198 28.349 67.6499 28.349C66.9838 28.349 66.4414 28.1093 66.0233 27.6299C65.6052 27.1504 65.3965 26.5272 65.3965 25.7601V25.5781C65.3965 24.7843 65.6028 24.1386 66.0149 23.6409C66.4269 23.1434 66.9651 22.8945 67.6293 22.8945C68.0161 22.8945 68.369 22.9607 68.6888 23.093C69.0085 23.2252 69.2746 23.4043 69.4869 23.63V24.6969H68.7545L68.6158 23.9869C68.5253 23.9043 68.4064 23.8382 68.258 23.7884C68.1102 23.7386 67.9401 23.7138 67.7482 23.7138C67.3168 23.7138 66.9814 23.8849 66.7419 24.2272C66.5024 24.5695 66.3823 25.0173 66.3823 25.5707V25.7601C66.3823 26.299 66.4999 26.7293 66.7352 27.0509C66.9699 27.3725 67.309 27.5334 67.7518 27.5334C67.9503 27.5334 68.1114 27.5152 68.2345 27.4787C68.3575 27.4423 68.4541 27.3999 68.5247 27.3513V26.4519L67.8194 26.3937V25.6472H69.5171V27.6827Z" fill="#6F85BB"/>
<path d="M70.0117 28.2742V27.637L70.5372 27.5278V23.7228L70.0117 23.6135V22.9727H72.0557V23.6135L71.5266 23.7228V27.4586H72.9197L72.9673 26.7922H73.7227V28.2742H70.0117Z" fill="#6F85BB"/>
<path d="M78.5042 25.6618C78.5042 26.4386 78.2979 27.0807 77.884 27.5879C77.4707 28.0953 76.9296 28.349 76.2611 28.349C75.5944 28.349 75.0563 28.0953 74.646 27.5879C74.2358 27.0807 74.0312 26.4386 74.0312 25.6618V25.5817C74.0312 24.8098 74.2352 24.1689 74.6442 23.6592C75.0533 23.1494 75.5908 22.8945 76.2575 22.8945C76.9265 22.8945 77.4677 23.1494 77.8822 23.6592C78.2973 24.1689 78.5042 24.8098 78.5042 25.5817V25.6618ZM77.5184 25.5744C77.5184 25.0258 77.4122 24.5804 77.1998 24.2381C76.9875 23.8958 76.6732 23.7247 76.2575 23.7247C75.8418 23.7247 75.5317 23.8946 75.3272 24.2345C75.1226 24.5743 75.0207 25.021 75.0207 25.5744V25.6618C75.0207 26.2201 75.1239 26.6698 75.3308 27.0109C75.5371 27.3519 75.8472 27.5224 76.2611 27.5224C76.6786 27.5224 76.9929 27.3519 77.2029 27.0109C77.4134 26.6698 77.5184 26.2201 77.5184 25.6618V25.5744Z" fill="#6F85BB"/>
<path d="M81.0938 22.9727C81.6742 22.9727 82.1273 23.0941 82.4525 23.3368C82.7783 23.5796 82.9405 23.9424 82.9405 24.4255C82.9405 24.6707 82.8802 24.8898 82.7595 25.0828C82.6383 25.2757 82.4627 25.4208 82.2323 25.5179C82.5285 25.5858 82.7505 25.7315 82.8983 25.9548C83.0461 26.1781 83.1203 26.4366 83.1203 26.7304C83.1203 27.2377 82.9647 27.6218 82.6528 27.8828C82.3408 28.1437 81.8992 28.2742 81.3279 28.2742H78.9014V27.637L79.4262 27.5278V23.7228L78.9014 23.6135V22.9727H81.0938ZM80.4157 25.9293V27.4586H81.3279C81.5897 27.4586 81.7894 27.3973 81.9276 27.2747C82.0651 27.1521 82.1339 26.9707 82.1339 26.7304C82.1339 26.4706 82.0754 26.2722 81.9577 26.135C81.8407 25.9979 81.6549 25.9293 81.4021 25.9293H80.4157ZM80.4157 25.1938H81.1276C81.3918 25.1938 81.5952 25.1355 81.7375 25.019C81.8799 24.9025 81.9511 24.7326 81.9511 24.5093C81.9511 24.2641 81.8793 24.0833 81.7357 23.9667C81.5927 23.8502 81.3786 23.792 81.0938 23.792H80.4157V25.1938Z" fill="#6F85BB"/>
<path d="M83.4395 27.637L83.7918 27.5824L85.2934 22.9727H86.3064L87.7978 27.5824L88.1501 27.637V28.2742H86.4693V27.637L86.8114 27.5715L86.5948 26.8432H84.9948L84.7782 27.5715L85.1203 27.637V28.2742H83.4395V27.637ZM85.2289 26.0604H86.3607L85.805 24.1925H85.7845L85.2289 26.0604Z" fill="#6F85BB"/>
<path d="M88.4746 28.2742V27.637L89.0001 27.5278V23.7228L88.4746 23.6135V22.9727H90.5186V23.6135L89.9895 23.7228V27.4586H91.3826L91.4302 26.7922H92.1856V28.2742H88.4746Z" fill="#6F85BB"/>
<path d="M99.0045 24.3527L98.984 24.349L97.6627 28.2742H96.9985L95.6833 24.3636L95.6634 24.3673L95.7581 26.694V27.5278L96.2866 27.637V28.2742H94.2432V27.637L94.7687 27.5278V23.7228L94.2432 23.6135V22.9727H96.0597L97.317 26.8796H97.337L98.6045 22.9727H100.428V23.6135L99.8992 23.7228V27.5278L100.428 27.637V28.2742H98.3843V27.637L98.9098 27.5278V26.694L99.0045 24.3527Z" fill="#6F85BB"/>
<path d="M100.729 27.637L101.082 27.5824L102.583 22.9727H103.597L105.088 27.5824L105.44 27.637V28.2742H103.759V27.637L104.102 27.5715L103.885 26.8432H102.285L102.068 27.5715L102.411 27.637V28.2742H100.729V27.637ZM102.519 26.0604H103.651L103.095 24.1925H103.075L102.519 26.0604Z" fill="#6F85BB"/>
<path d="M107.982 22.9727C108.542 22.9727 108.981 23.1104 109.3 23.386C109.618 23.6614 109.778 24.042 109.778 24.5275C109.778 24.7945 109.711 25.0263 109.578 25.2229C109.445 25.4195 109.249 25.5786 108.992 25.6999C109.283 25.7922 109.493 25.9457 109.62 26.1605C109.748 26.3753 109.812 26.6418 109.812 26.9597V27.2292C109.812 27.3457 109.833 27.4361 109.876 27.5004C109.919 27.5648 109.99 27.603 110.09 27.6152L110.211 27.6334V28.2742H109.7C109.377 28.2742 109.15 28.1807 109.019 27.9938C108.888 27.8069 108.822 27.5654 108.822 27.2692V26.967C108.822 26.7097 108.759 26.5077 108.631 26.3608C108.503 26.2139 108.323 26.1368 108.09 26.1296H107.28V27.5278L107.809 27.637V28.2742H105.766V27.637L106.291 27.5278V23.7228L105.766 23.6135V22.9727H107.982ZM107.28 25.3103H107.965C108.24 25.3103 108.447 25.2472 108.585 25.121C108.723 24.9948 108.792 24.8127 108.792 24.5748C108.792 24.3369 108.724 24.1469 108.587 24.005C108.45 23.863 108.248 23.792 107.982 23.792H107.28V25.3103Z" fill="#6F85BB"/>
<path d="M110.537 27.637L111.062 27.5278V23.7228L110.537 23.6135V22.9727H112.553V23.6135L112.052 23.7228V25.1392H112.482L113.431 23.6572L113.14 23.6135V22.9727H115.095V23.6135L114.559 23.7118L113.346 25.4523L114.709 27.546L115.204 27.637V28.2742H113.248V27.637L113.553 27.5933L112.604 26.0604H112.052V27.5278L112.553 27.637V28.2742H110.537V27.637Z" fill="#6F85BB"/>
<path d="M118.685 25.9439H117.014V27.4586H118.607L118.651 26.825H119.404V28.2742H115.499V27.637L116.025 27.5278V23.7228L115.499 23.6135V22.9727H119.396V24.4255H118.637L118.593 23.792H117.014V25.1246H118.685V25.9439Z" fill="#6F85BB"/>
<path d="M124.344 22.9727V24.3855H123.585L123.545 23.792H122.636V27.5278L123.165 27.637V28.2742H121.118V27.637L121.647 27.5278V23.792H120.742L120.701 24.3855H119.945V22.9727H124.344Z" fill="#6F85BB"/>
<path d="M127.015 22.9727C127.579 22.9727 128.025 23.1286 128.352 23.4406C128.678 23.7525 128.841 24.1609 128.841 24.6658C128.841 25.1731 128.678 25.5809 128.352 25.8893C128.025 26.1976 127.579 26.3517 127.015 26.3517H126.181V27.5278L126.709 27.637V28.2742H124.666V27.637L125.191 27.5278V23.7228L124.666 23.6135V22.9727H127.015ZM126.181 25.5324H127.015C127.29 25.5324 127.499 25.4517 127.64 25.2903C127.781 25.1289 127.851 24.9231 127.851 24.6731C127.851 24.4182 127.781 24.2076 127.64 24.0413C127.499 23.8751 127.29 23.792 127.015 23.792H126.181V25.5324Z" fill="#6F85BB"/>
<path d="M129.156 28.2742V27.637L129.682 27.5278V23.7228L129.156 23.6135V22.9727H131.2V23.6135L130.671 23.7228V27.4586H132.064L132.111 26.7922H132.867V28.2742H129.156Z" fill="#6F85BB"/>
<path d="M133.172 27.637L133.525 27.5824L135.026 22.9727H136.039L137.53 27.5824L137.883 27.637V28.2742H136.202V27.637L136.544 27.5715L136.327 26.8432H134.728L134.511 27.5715L134.853 27.637V28.2742H133.172V27.637ZM134.961 26.0604H136.093L135.537 24.1925H135.518L134.961 26.0604Z" fill="#6F85BB"/>
<path d="M142.048 24.7588H141.312L141.211 24.0524C141.113 23.9481 140.991 23.8655 140.843 23.8048C140.695 23.7442 140.52 23.7138 140.319 23.7138C139.89 23.7138 139.56 23.8813 139.328 24.2163C139.096 24.5512 138.981 24.9882 138.981 25.5271V25.7128C138.981 26.2517 139.096 26.6898 139.326 27.0272C139.557 27.3646 139.883 27.5334 140.303 27.5334C140.497 27.5334 140.675 27.503 140.836 27.4423C140.998 27.3817 141.123 27.2991 141.211 27.1947L141.312 26.4884H142.048V27.537C141.849 27.7846 141.595 27.9819 141.287 28.1287C140.979 28.2755 140.634 28.349 140.252 28.349C139.59 28.349 139.048 28.1026 138.625 27.6098C138.202 27.1171 137.991 26.4847 137.991 25.7128V25.5344C137.991 24.7649 138.201 24.1325 138.622 23.6374C139.042 23.1421 139.585 22.8945 140.252 22.8945C140.634 22.8945 140.978 22.9692 141.285 23.1184C141.592 23.2678 141.847 23.465 142.048 23.7101V24.7588Z" fill="#6F85BB"/>
<path d="M145.687 25.9439H144.017V27.4586H145.61L145.654 26.825H146.406V28.2742H142.502V27.637L143.027 27.5278V23.7228L142.502 23.6135V22.9727H146.399V24.4255H145.64L145.596 23.792H144.017V25.1246H145.687V25.9439Z" fill="#6F85BB"/>
<path fill-rule="evenodd" clip-rule="evenodd" d="M115.471 19.1727C115.414 18.9328 115.248 18.2762 114.977 18.2033C114.771 18.1478 114.469 18.3677 114.277 18.4326C113.859 18.5737 113.406 18.6677 112.963 18.6233C111.573 18.4839 111.112 17.3133 111.112 16.0579C112.62 16.0579 114.224 16.2157 115.71 15.9381C115.71 14.7684 115.775 13.2008 115.021 12.2243C114.6 11.6781 113.981 11.4811 113.322 11.4405C112.095 11.3649 110.918 11.7152 110.245 12.8233C109.461 14.1163 109.414 15.868 109.704 17.3158C109.859 18.089 110.182 18.8217 110.814 19.3214C112.133 20.3633 114.138 19.9532 115.471 19.1727ZM125.143 14.3208C125.619 14.3003 126.102 14.2609 126.575 14.201C126.575 13.4789 126.504 12.6193 126.018 12.0455C125.62 11.5748 125.01 11.4689 124.426 11.4433C123.675 11.4103 122.981 11.4649 122.336 11.8962C121.26 12.6167 120.852 13.9285 120.735 15.1594C120.591 16.6802 120.852 18.7731 122.336 19.5726C123.308 20.0962 124.604 20.0075 125.62 19.6716C125.9 19.5792 126.49 19.4116 126.592 19.0933C126.659 18.8866 126.379 18.2139 126.145 18.1862C125.973 18.1659 125.777 18.2955 125.62 18.3523C125.276 18.4775 124.911 18.5869 124.545 18.6233C123.116 18.7662 122.37 17.5145 122.282 16.2376C122.216 15.2725 122.214 13.9562 122.886 13.1836C123.36 12.6396 124.389 12.4809 124.865 13.1253C125.104 13.4496 125.135 13.9304 125.143 14.3208ZM131.291 11.4212C130.706 11.4425 130.155 11.5182 129.62 11.7745C127.911 12.5927 127.653 14.8086 127.819 16.4772C127.964 17.939 128.396 19.5154 130.038 19.8431C130.319 19.8992 130.646 19.9508 130.934 19.9437C131.343 19.9335 131.796 19.8793 132.187 19.7502C134.194 19.0867 134.541 16.9382 134.458 15.0995C134.389 13.5799 133.952 11.9476 132.306 11.5148C131.989 11.4314 131.619 11.4094 131.291 11.4212ZM118.098 17.8829C117.813 17.9117 117.537 17.9923 117.347 18.2206C116.764 18.9213 117.324 20.01 118.217 19.9317C118.523 19.9049 118.829 19.789 119.011 19.5295C119.515 18.8085 118.971 17.7947 118.098 17.8829ZM70.8148 9.88816L70.7551 11.6253L69.5611 11.6852L69.4417 12.8233H70.7551V16.6569C70.7551 17.4711 70.746 18.4453 71.166 19.1724C71.6311 19.9785 72.8106 20.0251 73.6208 19.8514C73.8778 19.7963 74.4715 19.6813 74.5017 19.3498C74.5204 19.1463 74.2911 18.6243 74.086 18.5603C73.9249 18.5102 73.7228 18.6058 73.5611 18.6232C73.0766 18.6752 72.5964 18.5821 72.3798 18.0944C72.1252 17.5206 72.188 16.7899 72.188 16.1777V12.8233H74.2181C74.2495 12.4241 74.3237 12.019 74.3967 11.6253H72.188V9.52875C71.721 9.5977 71.2746 9.78237 70.8148 9.88816ZM80.606 18.9331L80.7852 19.8316C81.1834 19.781 81.584 19.7257 81.9791 19.6519C81.8597 19.006 81.8989 18.3292 81.8542 17.6752C81.7149 15.6312 81.7999 13.5562 81.7999 11.5055C81.482 11.5458 81.1634 11.5824 80.8449 11.6151C80.7254 11.6274 80.5632 11.6069 80.4624 11.6868C80.3454 11.78 80.3683 11.9721 80.3671 12.1045C80.3647 12.4838 80.3671 12.8632 80.3671 13.2426V16.5371C80.3671 16.9189 80.4901 17.5668 80.3055 17.9094C80.1788 18.1448 79.8814 18.2958 79.6503 18.4069C78.8684 18.7828 77.7493 18.7182 77.3891 17.795C77.1424 17.1634 77.2624 16.3646 77.2624 15.6985V11.5055C76.9445 11.5458 76.6265 11.5824 76.3074 11.6151C76.1753 11.6287 75.9846 11.6032 75.8911 11.7213C75.7596 11.8879 75.8296 12.2645 75.8296 12.4639V16.8366C75.8296 17.4731 75.8097 18.097 76.0709 18.6935C76.8805 20.5371 79.4494 20.0691 80.606 18.9331ZM62.9941 8.03125C62.5682 8.15782 62.065 8.17579 61.621 8.21095V11.8649C60.2744 10.9037 58.2991 11.5218 57.427 12.8233C56.6602 13.9683 56.6588 15.5193 56.7808 16.8366C56.846 17.5398 56.9717 18.2838 57.385 18.8732C58.0198 19.7783 59.1456 20.0591 60.1881 19.8722C60.8771 19.7488 61.3127 19.3184 61.8599 18.9331C61.8731 19.2361 61.9413 19.5313 61.9793 19.8316C62.249 19.7974 63.0617 19.8275 63.154 19.5184C63.2203 19.2985 63.1256 19.0363 63.116 18.8133C63.0912 18.2532 63.0538 17.6973 63.0538 17.1361V9.04955C63.0538 8.72909 63.1184 8.32889 62.9941 8.03125ZM91.1133 8.03125C90.6873 8.15782 90.1842 8.17579 89.7401 8.21095V17.9747C89.7401 18.2739 89.6623 18.7059 89.7763 18.9868C89.9585 19.4358 90.8683 19.6712 91.2925 19.778C92.89 20.1807 94.8617 19.7993 95.5989 18.1544C95.8813 17.5236 95.9663 16.8592 96.014 16.1777C96.0966 14.9959 96.0562 13.7027 95.4511 12.6436C94.5636 11.0907 92.3229 11.0661 91.1133 12.2243C91.1332 11.2472 91.173 10.2703 91.173 9.28915C91.173 8.90459 91.2623 8.38772 91.1133 8.03125ZM45.084 11.6852V19.7717H46.5169V11.5055C46.0405 11.5658 45.5561 11.5972 45.084 11.6852ZM97.9192 11.6852V19.7717H99.3521V11.5055C98.8755 11.5658 98.391 11.5972 97.9192 11.6852ZM137.679 12.404C137.544 12.1265 137.482 11.8112 137.441 11.5055C137.042 11.556 136.642 11.6114 136.246 11.6852C136.246 12.3457 136.35 13.0027 136.365 13.6619C136.415 15.6958 136.366 17.7371 136.366 19.7717H137.799V15.0995C137.799 14.5965 137.632 13.726 137.953 13.3079C138.599 12.4646 140.214 12.4825 140.549 13.602C140.758 14.3019 140.665 15.0961 140.665 15.8183V19.7717H142.097V15.0995C142.097 14.6026 141.928 13.718 142.242 13.3049C142.897 12.446 144.479 12.5008 144.83 13.602C145.026 14.2146 144.903 15.0009 144.903 15.6386V19.7717H146.396V15.4589C146.396 14.6221 146.476 13.6841 146.19 12.8832C146.083 12.5831 145.934 12.2878 145.72 12.0501C144.993 11.2471 143.486 11.251 142.575 11.7077C142.231 11.8806 141.951 12.1343 141.679 12.404C140.981 11.0544 138.383 11.0459 137.679 12.404ZM50.1586 12.404L49.9794 11.5055C49.5811 11.556 49.1802 11.6114 48.7854 11.6852C48.7855 12.3457 48.8879 13.0027 48.904 13.6619C48.9536 15.6958 48.9049 17.7371 48.9049 19.7717H50.3377V14.0213C50.3378 13.8189 50.3164 13.6015 50.4334 13.4247C51.0728 12.4582 52.9435 12.4405 53.3593 13.602C53.5989 14.2715 53.5018 15.0598 53.5018 15.7584V19.7717H54.9346V15.3391C54.9346 14.5198 55.0268 13.6046 54.7276 12.8233C54.2227 11.5047 52.5289 11.1039 51.2929 11.5932C50.8501 11.7685 50.4923 12.0719 50.1586 12.404ZM85.4415 13.003C85.307 12.5474 85.272 11.9815 85.2623 11.5055C84.8642 11.556 84.4636 11.6114 84.0684 11.6852C84.0684 12.3457 84.171 13.0027 84.1866 13.6619C84.2367 15.6958 84.1879 17.7371 84.1879 19.7717H85.6207V16.4173C85.6207 15.848 85.5646 15.245 85.6376 14.6802C85.7269 13.9961 86.1136 13.3636 86.7549 13.0739C87.3154 12.8209 87.8518 13.0381 88.4267 13.0629C88.4647 12.5803 88.5739 12.1 88.6656 11.6253C87.5966 11.3794 86.5329 11.2585 85.8126 12.2842C85.6557 12.5076 85.5411 12.7498 85.4415 13.003ZM102.994 12.404L102.815 11.5055C102.416 11.556 102.015 11.6114 101.621 11.6852C101.621 12.3457 101.723 13.0027 101.739 13.6619C101.789 15.6958 101.74 17.7371 101.74 19.7717H103.173V14.0213C103.173 13.8189 103.151 13.6015 103.268 13.4247C103.908 12.4582 105.779 12.4405 106.194 13.602C106.434 14.2715 106.337 15.0598 106.337 15.7584V19.7717H107.77V15.3391C107.77 14.5198 107.862 13.6046 107.563 12.8233C107.058 11.5047 105.364 11.1039 104.128 11.5932C103.685 11.7685 103.327 12.0719 102.994 12.404ZM35.4723 19.7118H36.7259C36.8915 19.7118 37.1472 19.7557 37.2893 19.6502C37.4114 19.5596 37.4251 19.3693 37.4549 19.2326C37.533 18.8734 37.6061 18.5127 37.6883 18.1544C38.0219 16.6988 38.4378 15.2014 38.6364 13.7218C38.976 14.625 39.1098 15.6546 39.3184 16.597C39.5464 17.6271 39.8691 18.6659 40.0095 19.7118H41.9199C42.0811 18.5101 42.4464 17.3003 42.7168 16.1178C43.0541 14.643 43.333 13.15 43.7109 11.6852C43.2908 11.5603 42.777 11.5244 42.3378 11.5055C42.0462 13.7713 41.458 16.0309 41.0244 18.2742C40.6533 17.4088 40.5385 16.3756 40.3288 15.4589C40.0623 14.2934 39.6909 13.1098 39.5319 11.9248C38.9718 11.9251 38.4195 12.0399 37.8603 12.0446C37.7842 12.9789 37.4718 13.9477 37.2564 14.8599C36.9883 15.9947 36.7784 17.145 36.4871 18.2742C36.1786 17.4488 36.1129 16.4993 35.9245 15.6386C35.6308 14.2971 35.2226 12.8746 35.114 11.5055C34.7735 11.5125 34.4372 11.5764 34.0992 11.6154C33.9873 11.6283 33.8205 11.6143 33.7479 11.7213C33.6519 11.8628 33.7594 12.1351 33.7935 12.2842C33.9078 12.7831 34.0235 13.2817 34.1335 13.7817C34.569 15.7599 35.0642 17.7279 35.4723 19.7118ZM92.367 12.7313C91.9688 12.8032 91.456 12.9845 91.2514 13.3648C91.1 13.647 91.173 14.0704 91.173 14.3807V17.7351C91.173 17.908 91.1531 18.1072 91.2683 18.2508C91.6146 18.6814 92.5335 18.6944 93.0234 18.6057C93.5597 18.5087 94.0056 18.1812 94.2246 17.6752C94.3736 17.3322 94.4273 16.9648 94.4665 16.597C94.6028 15.319 94.6933 12.9025 92.9636 12.7139C92.7682 12.6926 92.56 12.6963 92.367 12.7313ZM59.8297 12.7313C58.091 13.0459 58.1435 15.3482 58.3208 16.7168C58.3788 17.1649 58.4222 17.6503 58.687 18.0337C59.049 18.5591 59.7688 18.714 60.3673 18.6057C60.7703 18.5329 61.3579 18.2972 61.56 17.9124C61.709 17.6277 61.621 17.15 61.621 16.8366V14.2609C61.621 13.96 61.7259 13.4079 61.56 13.1461C61.2765 12.7009 60.2864 12.6487 59.8297 12.7313ZM130.755 12.7313C129.44 12.9691 129.322 14.2819 129.322 15.399C129.322 16.663 129.249 18.4039 130.873 18.6163C131.089 18.6443 131.317 18.6444 131.53 18.6057C132.596 18.4129 132.807 17.5265 132.92 16.597C133.088 15.2267 133.153 13.0049 131.411 12.7298C131.195 12.6956 130.97 12.6923 130.755 12.7313ZM64.9048 15.2193V16.4173H68.6658V15.2193H64.9048ZM111.172 14.8599H114.157C114.157 14.3138 114.206 13.5164 113.834 13.0692C113.356 12.4951 112.2 12.6125 111.73 13.1291C111.333 13.5647 111.184 14.2861 111.172 14.8599ZM45.4422 9.14138C44.7563 9.30874 44.562 10.3221 44.9903 10.84C45.2472 11.1508 45.7302 11.1934 46.0989 11.1051C46.8145 10.9338 47.0764 9.92452 46.5975 9.36942C46.3373 9.06782 45.8033 9.05327 45.4422 9.14138ZM98.277 9.14138C97.591 9.30874 97.3974 10.3221 97.8251 10.84C98.0821 11.1508 98.5648 11.1934 98.934 11.1051C99.6489 10.9338 99.9114 9.92452 99.4324 9.36942C99.1723 9.06782 98.6384 9.05327 98.277 9.14138Z" fill="#8EA942"/>
</svg>
