<svg width="153" height="51" viewBox="0 0 153 51" fill="none" xmlns="http://www.w3.org/2000/svg">
<path d="M27.1096 0.756973H23.0429V20.7732H27.1096V0.756973Z" fill="#deeec6"/>
<path d="M27.1096 42.0095H23.0429V50.2711H27.1096V42.0095Z" fill="#deeec6"/>
<path d="M8.40279 23.4901H0.0450363V27.51H8.40279V23.4901Z" fill="#deeec6"/>
<path d="M50.1354 23.4901H41.7777V27.51H50.1354V23.4901Z" fill="#deeec6"/>
<path d="M45.7597 11.3705L38.5217 15.5012L40.555 18.9826L47.7931 14.8518L45.7597 11.3705Z" fill="#deeec6"/>
<path d="M35.1793 38.7769L31.6575 40.7869L35.8364 47.9416L39.3582 45.9316L35.1793 38.7769Z" fill="#deeec6"/>
<path d="M14.3321 3.08422L10.8102 5.09416L14.9891 12.2489L18.5109 10.2389L14.3321 3.08422Z" fill="#deeec6"/>
<path d="M35.8399 3.0466L31.6611 10.2013L35.1829 12.2113L39.3618 5.05654L35.8399 3.0466Z" fill="#deeec6"/>
<path d="M14.982 38.7772L10.8031 45.9319L14.325 47.9419L18.5038 40.7872L14.982 38.7772Z" fill="#deeec6"/>
<path d="M4.40671 11.3788L2.37336 14.8601L9.61138 18.9909L11.6447 15.5096L4.40671 11.3788Z" fill="#deeec6"/>
<path d="M30.2228 26.1238L28.2035 29.617L38.5245 35.4943L45.7323 39.6251L47.7797 36.1319L30.2228 26.1238Z" fill="#deeec6"/>
<path d="M9.60872 32.0289L2.37281 36.1319L4.42018 39.6251L21.949 29.617L19.9017 26.1238L9.60872 32.0289Z" fill="#deeec6"/>
<path d="M84.7445 30.6976C84.2117 31.8342 83.4825 32.8323 82.613 33.6917C82.5289 33.7749 82.4448 33.858 82.3326 33.9412C81.5192 34.6897 80.6218 35.2996 79.6121 35.7432C78.4903 36.2422 77.3123 36.4917 76.0502 36.4917C74.1151 36.4917 72.4042 36.0204 70.8897 35.1056C69.3753 34.1907 68.1973 32.8877 67.3559 31.2243C66.4865 29.5609 66.0658 27.648 66.0658 25.5133C66.0658 23.3786 66.4865 21.4657 67.3279 19.83C68.1693 18.1943 69.3472 16.8913 70.8337 15.9765C72.3201 15.0339 74.0309 14.5626 75.9381 14.5626C77.8452 14.5626 78.35 14.7844 79.4719 15.2557C80.5937 15.6992 81.6034 16.3369 82.5008 17.1409C83.3983 17.9448 84.0995 18.9152 84.6324 19.9964L88.054 18.0557C87.3809 16.725 86.4834 15.5329 85.3055 14.5071C84.0434 13.3982 82.613 12.5111 81.0144 11.9012C79.4158 11.2635 77.733 10.9586 75.9661 10.9586C73.2456 10.9586 70.8337 11.5685 68.7582 12.8437C66.6548 14.0913 65.0281 15.8101 63.8221 18.0003C62.6161 20.1904 62.0272 22.7132 62.0272 25.541C62.0272 28.3688 62.6161 30.8916 63.8221 33.0818C65.0281 35.2719 66.6828 36.9908 68.7863 38.2383C70.9178 39.4859 73.3298 40.1235 76.0502 40.1235C78.7707 40.1235 79.556 39.7908 81.1546 39.1255C82.7813 38.4601 84.2117 37.5452 85.4457 36.3808C85.5859 36.27 85.6981 36.1313 85.8383 35.9927C86.7919 34.9947 87.5772 33.9135 88.1662 32.6936L84.7445 30.753V30.6976Z" fill="#deeec6"/>
<path d="M107.125 19.4696V22.6855C106.536 21.7429 105.779 20.939 104.91 20.329C103.648 19.4419 102.161 18.9983 100.45 18.9983C98.7396 18.9983 97.0008 19.4419 95.6265 20.329C94.2523 21.2162 93.1865 22.436 92.4012 24.0162C91.6159 25.5965 91.2513 27.4262 91.2513 29.5609C91.2513 31.6956 91.644 33.4976 92.4012 35.0779C93.1865 36.6581 94.2523 37.9056 95.6265 38.7928C97.0008 39.6799 98.5994 40.1235 100.45 40.1235C102.301 40.1235 103.648 39.6799 104.91 38.7928C105.807 38.1551 106.536 37.3512 107.153 36.3808L107.294 39.6522H110.968V19.5251H107.125V19.4696ZM104.349 35.7155C103.479 36.3254 102.47 36.6304 101.32 36.6304C100.17 36.6304 99.0762 36.3254 98.1507 35.7155C97.2251 35.1056 96.4959 34.2739 95.9631 33.2204C95.4302 32.1669 95.1778 30.9194 95.1778 29.5332C95.1778 28.147 95.4302 26.8995 95.9631 25.846C96.4679 24.7925 97.1971 23.9608 98.1226 23.3509C99.0481 22.741 100.114 22.436 101.292 22.436C102.47 22.436 103.479 22.741 104.349 23.3509C105.218 23.9608 105.891 24.7925 106.396 25.846C106.873 26.8995 107.125 28.147 107.125 29.5332C107.125 30.9194 106.873 32.1669 106.396 33.2204C105.919 34.2739 105.218 35.1056 104.349 35.7155Z" fill="#deeec6"/>
<path d="M128.609 35.7155C128.328 35.9095 128.02 36.0759 127.711 36.2145C126.982 36.5195 126.169 36.6581 125.215 36.6581C124.261 36.6581 122.859 36.3808 121.878 35.8264C120.896 35.2719 120.139 34.4679 119.55 33.4422C119.185 32.7491 118.933 31.9728 118.792 31.1411C118.764 30.8916 118.736 30.6144 118.708 30.3372H134.414C134.414 28.0361 134.022 26.0123 133.208 24.3212C132.395 22.6301 131.301 21.2994 129.899 20.3845C128.496 19.4696 126.842 18.9983 124.963 18.9983C123.084 18.9983 121.232 19.4419 119.69 20.3568C118.147 21.2439 116.941 22.4915 116.072 24.0717C115.371 25.347 114.95 26.7886 114.81 28.3965C114.81 28.5629 114.81 28.7292 114.782 28.8678C114.782 29.0896 114.782 29.3114 114.782 29.5609C114.782 31.6402 115.231 33.4699 116.1 35.0501C116.969 36.6304 118.175 37.8779 119.69 38.7651C121.204 39.6522 122.971 40.1235 124.963 40.1235C126.954 40.1235 127.767 39.9017 128.945 39.4859C129.815 39.1809 130.572 38.7651 131.273 38.266C131.525 38.072 131.778 37.8779 132.03 37.6561C132.816 36.9353 133.461 36.1036 133.993 35.1887L130.796 33.359C130.291 34.3293 129.562 35.1333 128.665 35.7432L128.609 35.7155ZM119.802 24.8479C120.391 24.0162 121.148 23.3786 122.046 22.935C122.943 22.4915 123.897 22.2697 124.878 22.2697C125.86 22.2697 126.786 22.4915 127.599 22.935C128.412 23.3786 129.057 24.0162 129.562 24.8757C129.955 25.5687 130.207 26.3727 130.263 27.3153H118.961C118.961 27.0935 119.017 26.8717 119.073 26.65C119.213 25.9846 119.466 25.3747 119.83 24.8757L119.802 24.8479Z" fill="#deeec6"/>
<path d="M138.257 39.5972V11.4026H142.127V39.5972H138.257Z" fill="#deeec6"/>
<path d="M149.699 15.2007C149.082 15.2007 148.521 14.9789 148.073 14.5076C147.624 14.0363 147.372 13.4818 147.372 12.8719C147.372 12.262 147.596 11.6798 148.073 11.2362C148.521 10.7926 149.082 10.5709 149.699 10.5709C150.316 10.5709 150.905 10.7926 151.354 11.2362C151.803 11.6798 152.027 12.2343 152.027 12.8719C152.027 13.5095 151.803 14.0363 151.354 14.5076C150.905 14.9789 150.344 15.2007 149.699 15.2007ZM147.736 39.5972V19.4701H151.607V39.5972H147.736Z" fill="#deeec6"/>
</svg>
