<?xml version="1.0" standalone="no"?>
<!DOCTYPE svg PUBLIC "-//W3C//DTD SVG 1.1//EN" "http://www.w3.org/Graphics/SVG/1.1/DTD/svg11.dtd">
<svg xmlns="http://www.w3.org/2000/svg">
<defs >
<font id="ZenKakuGothicNew" horiz-adv-x="979" ><font-face
    font-family="Zen Kaku Gothic New Black"
    units-per-em="1000"
    panose-1="0 0 0 0 0 0 0 0 0 0"
    ascent="1160"
    descent="-288"
    alphabetic="0" />
<glyph unicode=" " glyph-name="space" horiz-adv-x="280" />
<glyph unicode="!" glyph-name="exclam" horiz-adv-x="297" d="M101 206L80 700H217L196 206H101ZM148 -15Q114 -15 91 8T67 66Q67 100 90 123T148 147Q182 147 206 124T230 66Q230 32 206 9T148 -15Z" />
<glyph unicode="&quot;" glyph-name="quotedbl" horiz-adv-x="476" d="M76 460L60 794H199L183 460H76ZM293 460L278 794H416L401 460H293Z" />
<glyph unicode="#" glyph-name="numbersign" horiz-adv-x="599" d="M99 0L126 197H33V291H139L155 410H62V504H168L195 700H296L269 504H372L399 700H500L473 504H566V410H460L444 291H537V197H431L404 0H303L330 197H227L200 0H99ZM240 291H342L359 410H257L240 291Z" />
<glyph unicode="$" glyph-name="dollar" horiz-adv-x="628" d="M291 -61V-14Q212 -7 147 33T42 159L151 220Q175 176 207 149T291 113V303Q227 318 179 342T105 406T78 509Q78 596 135 653T291 718V772H363V716Q447 706 503 664T587 569L484 492Q465 522 438 551T363
590V417Q479 389 531 334T584 198Q584 101 525 48T363 -14V-61H291ZM363 111Q413 117 430 139T447 195Q447 224 433 243T363 281V111ZM291 438V594Q255 588 234 569T213 516Q213 503 217 490T238 464T291 438Z" />
<glyph unicode="%" glyph-name="percent" horiz-adv-x="777" d="M202 344Q130 344 86 394T42 529Q42 613 86 662T202 712Q273 712 317 663T362 529Q362 444 318 394T202 344ZM576 -11Q505 -11 461 38T416 172Q416 257 460 306T576 356Q648 356 692 307T736 172Q736
87 692 38T576 -11ZM163 -23L107 17L617 725L672 685L163 -23ZM576 80Q645 80 645 172Q645 264 576 264Q507 264 507 172Q507 80 576 80ZM202 436Q270 436 270 529Q270 620 202 620Q133 620 133 529Q133 436 202 436Z" />
<glyph unicode="&amp;" glyph-name="ampersand" horiz-adv-x="672" d="M253 -17Q146 -17 90 35T33 184Q33 232 53 268T107 331T178 381Q143 423 123 459T103 548Q103 604 131 642T203 699T299 719Q360 719 403 697T469 636T493 550Q493 504 473 469T420 408T350
359L453 239Q477 269 501 304T553 384L642 304Q614 262 587 222T531 147L656 0H497L447 60Q405 25 357 4T253 -17ZM262 100Q288 100 316 113T372 149L248 297Q214 274 192 247T169 184Q169 135 193 118T262 100ZM279 440Q315 463 339 489T364 549Q364 581 344 596T301
612Q273 612 249 595T225 545Q225 514 241 490T279 440Z" />
<glyph unicode="&apos;" glyph-name="quotesingle" horiz-adv-x="259" d="M76 460L60 794H199L183 460H76Z" />
<glyph unicode="(" glyph-name="parenleft" horiz-adv-x="405" d="M253 -164Q171 -52 126 73T80 333Q80 469 125 594T253 831L365 775Q317 705 282 636T227 493T207 333Q207 248 226 174T281 31T365 -108L253 -164Z" />
<glyph unicode=")" glyph-name="parenright" horiz-adv-x="405" d="M152 -164L40 -108Q88 -38 124 31T179 174T199 333Q199 419 180 493T124 636T40 775L152 831Q234 719 279 594T325 333Q325 198 280 73T152 -164Z" />
<glyph unicode="*" glyph-name="asterisk" horiz-adv-x="521" d="M181 300L99 360L178 469L50 511L81 607L210 565V700H311V565L439 607L471 511L342 469L422 359L340 300L260 410L181 300Z" />
<glyph unicode="+" glyph-name="plus" horiz-adv-x="833" d="M462 27H371V309H89V400H372V683H463V401L745 400V310L463 309L462 27Z" />
<glyph unicode="," glyph-name="comma" horiz-adv-x="305" d="M102 -175L67 -115Q119 -102 151 -66T183 7Q183 12 183 15T182 23Q171 10 156 1T123 -8Q93 -8 72 12T50 66Q50 101 75 120T135 139Q187 139 221 101T255 3Q255 -61 213 -106T102 -175Z" />
<glyph unicode="-" glyph-name="hyphen" horiz-adv-x="445" d="M60 179V308H385V179H60Z" />
<glyph unicode="." glyph-name="period" horiz-adv-x="262" d="M131 -11Q97 -11 74 12T50 69Q50 103 73 126T131 150Q164 150 188 127T212 69Q212 36 188 13T131 -11Z" />
<glyph unicode="/" glyph-name="slash" horiz-adv-x="544" d="M112 -50L42 -15L432 752L502 716L112 -50Z" />
<glyph unicode="0" glyph-name="zero" horiz-adv-x="502" d="M252 -10Q170 -10 124 31T60 152T42 350Q42 469 60 549T124 670T252 711Q334 711 379 670T442 549T461 350Q461 232 443 152T379 31T252 -10ZM252 104Q286 104 305 125T333 200T342 350Q342 446 334
500T306 575T252 597Q218 597 198 576T170 500T161 350Q161 254 169 201T198 126T252 104Z" />
<glyph unicode="1" glyph-name="one" horiz-adv-x="416" d="M180 0V548L63 470L0 572L208 701H299V0H180Z" />
<glyph unicode="2" glyph-name="two" horiz-adv-x="450" d="M25 0V36Q25 83 40 128T90 223T187 330Q217 359 244 388T288 445T306 499Q307 546 286 569T223 592Q183 592 165 563T147 481H28Q28 588 82 647T223 706Q281 706 327 682T400 611T425 496Q424 448 404
409T349 333T269 252Q226 209 193 171T153 109H411V0H25Z" />
<glyph unicode="3" glyph-name="three" horiz-adv-x="481" d="M217 -10Q145 -10 93 27T17 138L127 174Q131 164 140 148T167 118T214 104Q260 104 287 126T315 204Q315 253 289 282T210 312H155V421H210Q257 421 277 448T298 515Q298 562 272 579T214 597Q190
597 174 583T148 552T134 525L26 569Q52 636 102 673T217 711Q279 711 325 687T397 620T423 520Q423 469 396 429T328 369Q377 350 408 304T439 199Q439 102 380 46T217 -10Z" />
<glyph unicode="4" glyph-name="four" horiz-adv-x="494" d="M277 0V147H8V239L277 703H389V251H486V147H389V0H277ZM125 251H277V516L125 251Z" />
<glyph unicode="5" glyph-name="five" horiz-adv-x="471" d="M222 -6Q158 -6 104 26T17 110L118 173Q136 144 162 126T222 108Q275 108 300 139T326 226Q326 289 304 315T243 341Q217 341 198 331T168 298H58V700H420V591H177V427Q192 438 210 444T246 450Q302
450 347 426T419 352T446 226Q446 115 385 55T222 -6Z" />
<glyph unicode="6" glyph-name="six" horiz-adv-x="497" d="M262 -10Q220 -10 180 3T108 52T58 154T42 326Q45 526 106 618T282 711Q335 711 385 682T463 608L374 540Q357 568 334 584T282 600Q224 600 192 549T157 379Q174 399 203 411T260 423Q317 423 362 397T432
325T458 214Q458 149 434 99T366 19T262 -10ZM254 104Q292 104 314 133T337 214Q337 261 315 288T257 316Q215 316 193 289T171 216Q172 162 193 133T254 104Z" />
<glyph unicode="7" glyph-name="seven" horiz-adv-x="417" d="M109 0Q117 52 135 126T176 283T226 446T277 590H8V700H408V616Q390 573 369 512T327 382T288 241T255 108T232 0H109Z" />
<glyph unicode="8" glyph-name="eight" horiz-adv-x="508" d="M254 -10Q191 -10 144 17T69 94T42 209Q42 260 68 302T132 368Q101 391 80 426T59 510Q59 570 84 615T153 685T254 711Q312 711 356 686T425 615T450 510Q450 461 429 426T377 368Q415 345 441 303T467
209Q467 143 440 94T364 18T254 -10ZM254 104Q301 104 324 130T347 211Q347 261 324 290T254 319Q208 319 185 290T161 211Q161 156 184 130T254 104ZM254 413Q330 413 330 508Q330 554 308 575T254 597Q222 597 200 576T178 508Q178 413 254 413Z" />
<glyph unicode="9" glyph-name="nine" horiz-adv-x="480" d="M197 -10Q145 -10 96 20T17 93L106 161Q123 133 146 117T197 101Q256 101 287 152T322 322Q306 303 277 291T220 278Q163 278 118 303T47 376T21 487Q21 552 45 602T114 682T217 711Q260 711 300 698T371
648T421 546T438 374Q434 175 373 83T197 -10ZM222 384Q265 384 287 411T309 485Q308 539 286 568T225 597Q188 597 166 568T143 487Q143 441 165 413T222 384Z" />
<glyph unicode=":" glyph-name="colon" horiz-adv-x="262" d="M131 -11Q97 -11 74 12T50 69Q50 103 73 126T131 150Q164 150 188 127T212 69Q212 36 188 13T131 -11ZM131 333Q97 333 74 356T50 414Q50 447 73 470T131 494Q164 494 188 471T212 414Q212 380 188
357T131 333Z" />
<glyph unicode=";" glyph-name="semicolon" horiz-adv-x="288" d="M102 -175L67 -115Q119 -102 151 -66T183 7Q183 12 183 15T182 23Q171 10 156 1T123 -8Q93 -8 72 12T50 66Q50 101 75 120T135 139Q187 139 221 101T255 3Q255 -61 213 -106T102 -175ZM131 333Q97
333 74 356T50 414Q50 447 73 470T131 494Q164 494 188 471T212 414Q212 380 188 357T131 333Z" />
<glyph unicode="&lt;" glyph-name="less" horiz-adv-x="600" d="M550 -16L50 179V304L550 499V389L162 241L550 94V-16Z" />
<glyph unicode="=" glyph-name="equal" horiz-adv-x="833" d="M92 402V495H741V402H92ZM741 249V157H92V249H741Z" />
<glyph unicode="&gt;" glyph-name="greater" horiz-adv-x="600" d="M50 -16V94L437 241L50 389V499L550 304V179L50 -16Z" />
<glyph unicode="?" glyph-name="question" horiz-adv-x="493" d="M201 206L182 414Q253 419 288 443T324 514Q324 552 305 574T248 597Q210 597 189 573T162 511L33 531Q38 585 67 625T142 689T248 712Q310 712 358 689T433 621T460 514Q460 444 417 401T306 340L296
206H201ZM248 -15Q214 -15 191 8T167 66Q167 100 190 123T248 147Q282 147 306 124T330 66Q330 32 306 9T248 -15Z" />
<glyph unicode="@" glyph-name="at" horiz-adv-x="794" d="M413 -15Q334 -15 265 8T144 77T62 188T33 337Q33 415 61 484T141 605T263 686T417 716Q486 716 548 691T658 621T733 517T761 388Q761 334 738 285T664 204T531 173Q466 173 444 207Q402 173 347 173Q311
173 279 186T228 229T208 309Q208 379 235 428T307 503T407 530Q455 530 487 495L500 529H585L533 282Q527 255 565 255Q600 255 622 274T655 324T666 388Q666 456 635 510T548 595T417 627Q330 627 266 591T168 489T133 337Q133 250 168 191T266 102T413 71Q495
71 549 95T650 167L705 112Q658 57 583 21T413 -15ZM362 262Q400 262 421 282T455 354L465 422Q453 440 439 445T411 451Q388 451 365 436T327 391T312 320Q312 286 326 274T362 262Z" />
<glyph unicode="A" glyph-name="A" horiz-adv-x="657" d="M8 0L271 700H386L649 0H502L455 139H198L151 0H8ZM240 259H414L328 513L240 259Z" />
<glyph unicode="B" glyph-name="B" horiz-adv-x="640" d="M67 0V700H372Q427 700 471 680T542 621T569 523Q569 461 542 420T472 366Q507 361 535 338T581 276T598 190Q598 91 539 46T381 0H67ZM197 120H363Q410 120 434 141T458 208Q458 252 430 273T363 295H197V120ZM197
416H346Q427 416 427 502Q427 541 406 560T346 580H197V416Z" />
<glyph unicode="C" glyph-name="C" horiz-adv-x="672" d="M363 -17Q268 -17 193 28T76 155T33 350Q33 463 75 545T193 673T363 719Q452 719 523 679T638 567L522 500Q497 544 457 568T363 592Q304 592 261 562T193 477T169 350Q169 278 193 224T260 140T363 109Q416
109 456 133T522 201L638 134Q595 63 524 23T363 -17Z" />
<glyph unicode="D" glyph-name="D" horiz-adv-x="673" d="M67 0V700H298Q400 700 477 663T597 549T640 350Q640 230 597 153T477 38T298 0H67ZM197 120H288Q386 120 445 176T504 350Q504 469 445 524T288 580H197V120Z" />
<glyph unicode="E" glyph-name="E" horiz-adv-x="588" d="M67 0V700H544V580H197V417H514V297H197V120H555V0H67Z" />
<glyph unicode="F" glyph-name="F" horiz-adv-x="570" d="M67 0V700H553V580H197V417H523V297H197V0H67Z" />
<glyph unicode="G" glyph-name="G" horiz-adv-x="665" d="M358 -17Q263 -17 190 28T75 155T33 350Q33 463 74 545T189 673T358 719Q438 719 505 691T615 621L533 519Q505 551 458 571T358 592Q299 592 257 562T192 477T169 350Q169 278 191 224T256 140T358 109Q404
109 433 117T482 139V274H376V394H614V53Q563 19 496 1T358 -17Z" />
<glyph unicode="H" glyph-name="H" horiz-adv-x="693" d="M67 0V700H197V429H496V700H627V0H496V309H197V0H67Z" />
<glyph unicode="I" glyph-name="I" horiz-adv-x="264" d="M67 0V700H197V0H67Z" />
<glyph unicode="J" glyph-name="J" horiz-adv-x="533" d="M246 -17Q164 -17 114 13T40 98T17 224H147Q147 164 172 137T246 110Q295 110 319 137T344 224V700H475V224Q475 153 452 99T379 14T246 -17Z" />
<glyph unicode="K" glyph-name="K" horiz-adv-x="611" d="M67 0V700H197V397L439 700H600L337 375L602 0H438L197 359V0H67Z" />
<glyph unicode="L" glyph-name="L" horiz-adv-x="572" d="M67 0V700H197V120H556V0H67Z" />
<glyph unicode="M" glyph-name="M" horiz-adv-x="772" d="M67 0V700H197L387 370L575 700H706V0H574V475L424 203H348L198 475V0H67Z" />
<glyph unicode="N" glyph-name="N" horiz-adv-x="707" d="M67 0V700H197L510 227V700H641V0H517L197 489V0H67Z" />
<glyph unicode="O" glyph-name="O" horiz-adv-x="726" d="M363 -17Q268 -17 193 28T76 155T33 350Q33 463 75 545T193 673T363 719Q458 719 532 674T649 546T692 350Q692 238 650 156T533 28T363 -17ZM363 109Q423 109 466 139T533 224T557 350Q557 423 534 477T467
561T363 592Q304 592 261 562T193 477T169 350Q169 278 193 224T260 140T363 109Z" />
<glyph unicode="P" glyph-name="P" horiz-adv-x="632" d="M67 0V700H391Q457 700 505 680T580 615T607 494Q607 418 581 373T506 307T391 286H197V0H67ZM197 407H373Q418 407 444 427T470 494Q470 540 444 560T373 580H197V407Z" />
<glyph unicode="Q" glyph-name="Q" horiz-adv-x="726" d="M363 -17Q268 -17 193 28T76 155T33 350Q33 463 75 545T193 673T363 719Q458 719 532 674T649 546T692 350Q692 247 655 167L758 89L676 -17L576 59Q534 22 480 3T363 -17ZM363 109Q423 109 469 142L380
211L460 313L543 250Q557 297 557 350Q557 423 534 477T467 561T363 592Q304 592 261 562T193 477T169 350Q169 278 193 224T260 140T363 109Z" />
<glyph unicode="R" glyph-name="R" horiz-adv-x="641" d="M67 0V700H391Q457 700 505 680T580 615T607 494Q607 400 567 353T455 292L597 0H446L322 286H197V0H67ZM197 407H373Q418 407 444 427T470 494Q470 540 444 560T373 580H197V407Z" />
<glyph unicode="S" glyph-name="S" horiz-adv-x="628" d="M327 -15Q237 -15 162 24T42 159L151 219Q180 167 221 138T332 109Q401 109 424 132T447 195Q447 220 436 238T386 272T267 308Q170 331 124 382T78 509Q78 572 108 619T192 692T321 719Q389 719 441 698T529
643T587 569L484 492Q469 516 448 539T395 579T319 595Q272 595 243 576T213 515Q213 499 221 483T261 450T362 417Q479 389 531 334T584 197Q584 94 515 40T327 -15Z" />
<glyph unicode="T" glyph-name="T" horiz-adv-x="592" d="M231 0V580H25V700H567V580H362V0H231Z" />
<glyph unicode="U" glyph-name="U" horiz-adv-x="662" d="M331 -13Q197 -13 128 55T58 263V700H189V270Q189 185 227 149T331 113Q396 113 434 149T472 270V700H603V263Q603 124 534 56T331 -13Z" />
<glyph unicode="V" glyph-name="V" horiz-adv-x="639" d="M253 0L8 700H147L319 175L492 700H631L385 0H253Z" />
<glyph unicode="W" glyph-name="W" horiz-adv-x="831" d="M169 0L17 700H151L239 234L357 700H473L591 234L679 700H814L662 0H543L415 499L287 0H169Z" />
<glyph unicode="X" glyph-name="X" horiz-adv-x="633" d="M17 0L247 364L32 700H186L317 482L447 700H601L387 364L617 0H462L317 246L171 0H17Z" />
<glyph unicode="Y" glyph-name="Y" horiz-adv-x="637" d="M253 0V296L17 700H168L319 437L469 700H621L384 296V0H253Z" />
<glyph unicode="Z" glyph-name="Z" horiz-adv-x="575" d="M33 0V120L371 580H45V700H531V580L194 120H542V0H33Z" />
<glyph unicode="[" glyph-name="bracketleft" horiz-adv-x="350" d="M80 -156V824H310V724H204V-56H310V-156H80Z" />
<glyph unicode="\" glyph-name="backslash" horiz-adv-x="544" d="M432 -50L42 716L112 752L502 -15L432 -50Z" />
<glyph unicode="]" glyph-name="bracketright" horiz-adv-x="350" d="M40 -156V-56H147V724H40V824H270V-156H40Z" />
<glyph unicode="^" glyph-name="asciicircum" horiz-adv-x="534" d="M33 301L213 700H321L501 301H380L267 575L154 301H33Z" />
<glyph unicode="_" glyph-name="underscore" horiz-adv-x="713" d="M60 -120V-61H653V-120H60Z" />
<glyph unicode="`" glyph-name="grave" horiz-adv-x="381" d="M293 528L50 695L125 783L331 572L293 528Z" />
<glyph unicode="a" glyph-name="a" horiz-adv-x="534" d="M223 -6Q144 -10 92 28T39 138Q39 189 69 225T148 282T249 304Q272 306 293 301T332 286V318Q332 360 314 372T263 385Q220 385 175 370T96 330L39 427Q81 453 139 473T263 494Q356 494 404 456T452 318V108Q452
87 461 84T504 91V14Q488 7 464 1T411 -6Q352 -6 336 34Q290 -1 223 -6ZM220 102Q273 105 304 122T334 171Q333 194 312 201T259 206Q213 204 186 183T160 137Q161 120 175 111T220 102Z" />
<glyph unicode="b" glyph-name="b" horiz-adv-x="567" d="M299 -11Q224 -11 173 46L167 0H58V711H184V449Q234 494 299 494Q367 494 420 465T503 379T534 241Q534 161 504 105T420 19T299 -11ZM294 103Q342 103 374 138T407 241Q407 309 375 344T294 380Q246 380
214 345T182 241Q182 174 214 139T294 103Z" />
<glyph unicode="c" glyph-name="c" horiz-adv-x="492" d="M268 -11Q201 -11 148 20T64 108T33 241Q33 318 63 374T147 462T268 494Q329 494 378 469T459 398L359 324Q332 380 268 380Q220 380 191 345T161 241Q161 174 190 139T268 103Q331 103 360 158L459 85Q428
39 379 14T268 -11Z" />
<glyph unicode="d" glyph-name="d" horiz-adv-x="567" d="M268 -11Q201 -11 148 18T64 104T33 241Q33 322 63 378T147 464T268 494Q335 494 383 449V711H509V0H400L395 46Q344 -11 268 -11ZM273 103Q321 103 353 138T386 241Q386 309 354 344T273 380Q225 380
193 345T161 241Q161 174 193 139T273 103Z" />
<glyph unicode="e" glyph-name="e" horiz-adv-x="520" d="M271 -11Q165 -11 99 51T33 241Q33 320 62 376T144 463T264 494Q332 494 379 462T452 372T477 241V214H157Q162 147 193 123T273 98Q317 98 345 119T395 182L487 117Q448 48 395 19T271 -11ZM162 310H353Q335
396 262 396Q222 396 197 376T162 310Z" />
<glyph unicode="f" glyph-name="f" horiz-adv-x="371" d="M107 0V374H17V482H107V565Q107 654 147 688T268 723Q294 723 320 720T362 713V599Q347 605 331 608T297 612Q232 612 232 549V482H362V374H232V0H107Z" />
<glyph unicode="g" glyph-name="g" horiz-adv-x="547" d="M257 -195Q180 -195 127 -167T37 -77L138 -10Q158 -46 186 -63T257 -81Q312 -81 337 -48T363 59V70Q317 31 253 31Q189 31 140 56T62 134T33 263Q33 340 61 391T139 468T253 494Q325 494 374 445L379 482H488V59Q488
-58 434 -126T257 -195ZM263 140Q311 140 341 173T372 263Q372 320 342 352T263 384Q215 384 188 352T161 263Q161 206 188 173T263 140Z" />
<glyph unicode="h" glyph-name="h" horiz-adv-x="532" d="M58 0V711H184V428Q198 454 229 474T303 494Q378 494 425 446T473 304V0H347V273Q347 326 327 353T271 380Q233 380 209 353T184 266V0H58Z" />
<glyph unicode="i" glyph-name="i" horiz-adv-x="270" d="M73 0V482H199V0H73ZM135 554Q103 554 81 577T58 632Q58 664 80 686T135 709Q167 709 189 687T212 632Q212 600 190 577T135 554Z" />
<glyph unicode="j" glyph-name="j" horiz-adv-x="261" d="M27 -195Q1 -195 -25 -192T-67 -185V-62Q-48 -67 -33 -69T-1 -71Q39 -71 51 -57T64 -5V482H189V-5Q189 -106 152 -150T27 -195ZM126 554Q94 554 72 577T49 632Q49 664 71 686T126 709Q158 709 180 687T202
632Q202 600 180 577T126 554Z" />
<glyph unicode="k" glyph-name="k" horiz-adv-x="515" d="M58 0V711H184V282L337 482H487L313 265L498 0H349L184 245V0H58Z" />
<glyph unicode="l" glyph-name="l" horiz-adv-x="242" d="M58 0V711H184V0H58Z" />
<glyph unicode="m" glyph-name="m" horiz-adv-x="783" d="M58 0V482H170L178 428Q192 457 223 475T297 494Q342 494 376 473T431 413Q451 448 487 471T567 494Q637 494 681 444T725 304V0H598V273Q598 320 581 350T534 380Q496 380 475 352T454 266V0H328V273Q328
320 310 350T262 380Q184 380 184 266V0H58Z" />
<glyph unicode="n" glyph-name="n" horiz-adv-x="532" d="M58 0V482H170L177 428Q197 454 228 474T303 494Q378 494 425 446T473 304V0H347V273Q347 326 327 353T271 380Q233 380 209 353T184 266V0H58Z" />
<glyph unicode="o" glyph-name="o" horiz-adv-x="537" d="M268 -11Q201 -11 148 20T64 108T33 241Q33 318 63 374T147 462T268 494Q336 494 389 463T472 375T503 241Q503 165 473 108T389 20T268 -11ZM268 103Q316 103 346 138T377 241Q377 309 347 344T268 380Q220
380 191 345T161 241Q161 174 190 139T268 103Z" />
<glyph unicode="p" glyph-name="p" horiz-adv-x="567" d="M58 -194V482H167L173 437Q224 494 299 494Q367 494 420 465T503 379T534 241Q534 161 504 105T420 19T299 -11Q234 -11 184 34V-194H58ZM294 103Q342 103 374 138T407 241Q407 309 375 344T294 380Q246
380 214 345T182 241Q182 174 214 139T294 103Z" />
<glyph unicode="q" glyph-name="q" horiz-adv-x="567" d="M383 -194V34Q335 -11 268 -11Q201 -11 148 18T64 104T33 241Q33 322 63 378T147 464T268 494Q344 494 395 437L400 482H509V-194H383ZM273 103Q321 103 353 138T386 241Q386 309 354 344T273 380Q225
380 193 345T161 241Q161 174 193 139T273 103Z" />
<glyph unicode="r" glyph-name="r" horiz-adv-x="383" d="M58 0V482H171L179 417Q197 452 234 473T312 494Q329 494 343 492T367 486V364Q352 369 335 371T293 374Q247 374 216 345T184 258V0H58Z" />
<glyph unicode="s" glyph-name="s" horiz-adv-x="462" d="M233 -10Q175 -10 122 9T25 74L102 159Q159 99 240 99Q278 99 293 108T308 144Q308 155 301 163T270 179T199 196Q126 210 87 244T47 346Q47 391 71 424T136 476T230 495Q344 495 414 431L345 341Q321
364 292 374T232 385Q199 385 187 375T175 350Q175 340 181 332T207 317T269 299Q352 280 394 242T437 139Q437 64 380 27T233 -10Z" />
<glyph unicode="t" glyph-name="t" horiz-adv-x="387" d="M257 -11Q209 -11 176 -1T125 39T107 121V374H17V482H107V649H232V482H362V374H232V154Q232 123 247 112T292 101Q312 101 331 107T362 120V6Q343 -2 315 -6T257 -11Z" />
<glyph unicode="u" glyph-name="u" horiz-adv-x="523" d="M220 -11Q145 -11 98 37T50 179V482H176V209Q176 157 197 130T252 103Q290 103 314 130T339 217V482H465V0H353L346 54Q327 29 296 9T220 -11Z" />
<glyph unicode="v" glyph-name="v" horiz-adv-x="511" d="M198 0L17 482H146L258 159L372 482H494L319 0H198Z" />
<glyph unicode="w" glyph-name="w" horiz-adv-x="688" d="M154 0L17 482H137L214 176L292 482H397L474 176L552 482H672L534 0H424L344 309L264 0H154Z" />
<glyph unicode="x" glyph-name="x" horiz-adv-x="544" d="M17 0L204 254L37 482H182L272 349L363 482H502L338 258L527 0H379L270 162L162 0H17Z" />
<glyph unicode="y" glyph-name="y" horiz-adv-x="505" d="M127 -195Q102 -195 80 -194T41 -188V-73Q74 -82 113 -82Q140 -82 153 -77T173 -58T190 -21L198 1L8 482H139L253 152L360 482H488L297 -58Q281 -103 261 -133T209 -179T127 -195Z" />
<glyph unicode="z" glyph-name="z" horiz-adv-x="433" d="M25 0V102L248 380H36V482H397V380L172 103H408V0H25Z" />
<glyph unicode="{" glyph-name="braceleft" horiz-adv-x="479" d="M333 -156Q258 -156 219 -119T180 4V205Q180 236 163 252T119 274T60 281V387Q92 387 119 393T163 416T180 463V664Q180 750 219 787T333 824H439V724H381Q333 724 319 709T304 653V455Q304 405
285 379T238 344T185 334Q210 334 237 324T284 287T304 212V14Q304 -26 318 -41T381 -56H439V-156H333Z" />
<glyph unicode="|" glyph-name="bar" horiz-adv-x="237" d="M67 -28V729H170V-28H67Z" />
<glyph unicode="}" glyph-name="braceright" horiz-adv-x="479" d="M40 -156V-56H98Q146 -56 160 -41T175 14V212Q175 261 194 287T241 323T294 334Q269 334 242 343T195 379T175 455V653Q175 693 161 708T98 724H40V824H146Q221 824 260 787T299 664V463Q299
433 316 417T360 394T419 387V281Q388 281 361 275T316 252T299 205V4Q299 -82 260 -119T146 -156H40Z" />
<glyph unicode="~" glyph-name="asciitilde" horiz-adv-x="597" d="M121 261L42 333Q68 376 106 403T197 431Q225 431 252 421T306 399T355 376T398 366Q422 366 441 383T476 421L555 349Q530 306 491 279T399 252Q370 252 344 261T292 284T244 306T198 316Q175
316 156 299T121 261Z" />
<glyph unicode="&#xa0;" glyph-name="uni00A0" horiz-adv-x="280" />
<glyph unicode="&#xa1;" glyph-name="exclamdown" horiz-adv-x="297" d="M196 495L217 1H80L101 495H196ZM149 716Q183 716 206 693T230 635Q230 601 207 578T149 554Q115 554 91 577T67 635Q67 669 91 692T149 716Z" />
<glyph unicode="&#xa2;" glyph-name="cent" horiz-adv-x="833" d="M380 -61V103Q319 111 272 144T197 230T170 353Q170 423 197 476T271 562T380 603V772H453V604Q505 597 550 573T622 509L522 436Q512 456 494 468T453 487V219Q475 224 493 237T522 269L622 196Q595
157 550 133T453 103V-61H380ZM380 219V487Q343 476 320 442T297 353Q297 298 320 264T380 219Z" />
<glyph unicode="&#xa3;" glyph-name="sterling" horiz-adv-x="833" d="M241 -15L167 94Q223 129 245 176T268 269Q268 275 268 280T267 291H167V399H239Q231 422 225 448T219 510Q219 609 281 662T449 716Q541 716 601 672T677 539L537 517Q531 552 514 573T449
595Q359 595 359 510Q359 476 366 450T382 399H533V291H407Q408 286 408 281T408 269Q408 200 346 127H356Q398 127 427 124T484 118T550 114Q598 114 640 144L697 24Q665 3 627 -6T550 -15Q515 -15 491 -11T447 0T406 10T356 15Q319 15 296 9T241 -15Z" />
<glyph unicode="&#xa4;" glyph-name="currency" horiz-adv-x="698" d="M358 75Q300 75 253 93T171 144L105 65L53 108L128 199H130Q95 264 95 352Q95 466 153 539H152L73 634L126 677L202 585Q267 629 358 629Q449 629 513 585L589 677L642 634L563 538Q620 466
620 352Q620 264 585 199H587L662 108L610 65L544 144Q510 111 463 93T358 75ZM358 202Q423 202 458 241T494 352Q494 423 459 462T358 502Q293 502 257 463T221 352Q221 281 257 242T358 202Z" />
<glyph unicode="&#xa5;" glyph-name="yen" horiz-adv-x="833" d="M351 0V161H175V261H351V299L337 324H175V425H277L114 700H267L417 437L567 700H719L557 425H658V324H497L482 299V261H658V161H482V0H351Z" />
<glyph unicode="&#xa6;" glyph-name="brokenbar" horiz-adv-x="237" d="M67 -28V278H170V-28H67ZM67 423V729H170V423H67Z" />
<glyph unicode="&#xa7;" glyph-name="section" horiz-adv-x="833" d="M421 -10Q347 -10 299 15T215 98L317 142Q349 113 370 102T416 90Q439 90 455 101T472 132Q472 156 440 175T347 218Q299 238 270 256T226 298T212 361Q212 394 233 427T289 477Q265 497 251
522T237 579Q237 628 263 659T330 705T412 720Q476 720 525 696T599 622L520 570Q483 600 463 610T417 620Q395 620 378 610T361 579Q361 554 393 535T486 493Q534 474 564 456T607 413T621 349Q621 316 600 284T544 234Q569 213 583 188T597 132Q597 83 570 52T503
5T421 -10ZM482 274Q512 293 512 326Q512 355 486 372T392 418Q382 423 372 427T351 437Q322 417 322 384Q322 356 348 339T441 293Q452 289 462 284T482 274Z" />
<glyph unicode="&#xa8;" glyph-name="dieresis" horiz-adv-x="421" d="M113 564Q88 564 69 583T50 627Q50 653 69 671T113 690Q139 690 157 672T176 627Q176 602 158 583T113 564ZM308 564Q283 564 264 583T245 627Q245 653 264 671T308 690Q334 690 352 672T371
627Q371 602 353 583T308 564Z" />
<glyph unicode="&#xa9;" glyph-name="copyright" horiz-adv-x="840" d="M420 -10Q345 -10 280 18T166 95T88 210T60 350Q60 425 88 490T165 604T280 682T420 710Q495 710 560 682T674 605T752 490T780 350Q780 275 752 210T675 96T560 18T420 -10ZM420 70Q478
70 529 91T618 151T678 241T700 350Q700 408 679 459T619 548T529 608T420 630Q362 630 311 609T222 549T162 459T140 350Q140 292 161 241T221 152T311 92T420 70ZM423 121Q363 121 317 149T243 228T216 350Q216 421 243 472T316 552T423 581Q475 581 519 560T597
501L533 452Q499 478 474 490T423 502Q368 502 335 460T301 350Q301 283 334 242T423 200Q449 200 475 212T539 249L608 211Q572 171 526 146T423 121Z" />
<glyph unicode="&#xaa;" glyph-name="ordfeminine" horiz-adv-x="534" d="M223 287Q144 283 92 321T39 431Q39 482 69 518T148 575T249 597Q272 599 293 594T332 579V611Q332 653 314 665T263 678Q220 678 175 663T96 623L39 720Q81 746 139 766T263 787Q356 787
404 749T452 611V401Q452 380 461 377T504 384V307Q488 300 464 294T411 287Q352 287 336 327Q290 292 223 287ZM220 395Q273 398 304 415T334 464Q333 487 312 494T259 499Q213 497 186 476T160 430Q161 413 175 404T220 395ZM109 355V484H434V355H109Z" />
<glyph unicode="&#xab;" glyph-name="guillemotleft" horiz-adv-x="608" d="M40 284L194 475H328L174 284L328 93H194L40 284ZM260 284L414 475H548L394 284L548 93H414L260 284Z" />
<glyph unicode="&#xac;" glyph-name="logicalnot" horiz-adv-x="833" d="M638 182V405H79V499H732V182H638Z" />
<glyph unicode="&#xad;" glyph-name="uni00AD" horiz-adv-x="445" d="M60 179V308H385V179H60Z" />
<glyph unicode="&#xae;" glyph-name="registered" horiz-adv-x="740" d="M370 90Q306 90 250 114T151 181T84 280T60 400Q60 464 84 520T151 619T250 686T370 710Q434 710 490 686T589 619T656 520T680 400Q680 336 656 280T589 181T490 114T370 90ZM370 165Q435
165 488 196T573 281T605 400Q605 465 574 518T489 603T370 635Q305 635 252 604T167 519T135 400Q135 335 166 282T251 197T370 165ZM243 225V575H409Q458 575 489 552T520 467Q520 418 501 394T451 361L513 225H420L370 357H323V225H243ZM323 431H397Q414 431
425 439T436 467Q436 486 425 493T397 501H323V431Z" />
<glyph unicode="&#xaf;" glyph-name="overscore" horiz-adv-x="298" d="M266 605H32V687H266V605Z" />
<glyph unicode="&#xb0;" glyph-name="degree" horiz-adv-x="833" d="M131 536Q87 536 57 567T26 641Q26 685 56 715T131 746Q174 746 204 716T235 641Q235 598 205 567T131 536ZM131 586Q154 586 169 602T185 641Q185 664 169 680T130 696Q108 696 92 680T76 641Q76
619 92 603T131 586Z" />
<glyph unicode="&#xb1;" glyph-name="plusminus" horiz-adv-x="833" d="M370 173V385H92V479H370V690H463V479H741V385H463V173H370ZM92 32V125H741V32H92Z" />
<glyph unicode="&#xb2;" glyph-name="uni00B2" horiz-adv-x="325" d="M15 200V229Q15 262 24 293T58 361T130 441Q160 469 184 498T210 551Q211 580 198 593T161 606Q135 606 126 587T117 535H17Q17 615 57 658T161 701Q227 701 269 661T310 541Q309 495 278 458T199
376Q184 362 167 345T138 313T123 291H299V200H15Z" />
<glyph unicode="&#xb3;" glyph-name="uni00B3" horiz-adv-x="369" d="M163 193Q112 193 74 218T17 298L109 328Q111 327 115 317T131 298T161 289Q188 289 205 301T222 348Q222 377 207 395T159 414H113V505H159Q188 505 199 522T210 562Q210 590 195 599T161
609Q146 609 137 600T122 581T115 568L24 605Q44 652 80 678T163 705Q232 705 274 666T316 566Q316 532 297 504T250 462Q284 449 305 417T327 344Q327 272 282 233T163 193Z" />
<glyph unicode="&#xb4;" glyph-name="acute" horiz-adv-x="403" d="M136 528L98 572L304 783L379 695L136 528Z" />
<glyph unicode="&#xb5;" glyph-name="uni00B5" horiz-adv-x="522" d="M50 -194L54 482H183L180 170Q180 133 200 117T252 101Q290 101 312 117T335 185V482H464L461 0H359L355 31Q338 12 317 1T264 -11Q216 -11 179 12L178 -194H50Z" />
<glyph unicode="&#xb6;" glyph-name="paragraph" horiz-adv-x="833" d="M368 -21V379Q280 383 229 431T178 555Q178 633 232 682T377 732H638V683H575V-21H517V683H426V-21H368Z" />
<glyph unicode="&#xb7;" glyph-name="middot" horiz-adv-x="262" d="M131 333Q97 333 74 356T50 414Q50 447 73 470T131 494Q164 494 188 471T212 414Q212 380 188 357T131 333Z" />
<glyph unicode="&#xb8;" glyph-name="cedilla" horiz-adv-x="500" d="M141 -193V-133Q212 -133 235 -126T258 -105Q258 -77 164 -77L186 0H249L240 -29Q287 -35 317 -54T348 -105Q348 -157 292 -175T141 -193Z" />
<glyph unicode="&#xb9;" glyph-name="uni00B9" horiz-adv-x="310" d="M131 200V569L53 517L0 603L154 697H231V200H131Z" />
<glyph unicode="&#xba;" glyph-name="ordmasculine" horiz-adv-x="537" d="M268 282Q201 282 148 313T64 401T33 534Q33 611 63 667T147 755T268 787Q336 787 389 756T472 668T503 534Q503 458 473 401T389 313T268 282ZM268 396Q316 396 346 431T377 534Q377
602 347 637T268 673Q220 673 191 638T161 534Q161 467 190 432T268 396ZM106 355V484H431V355H106Z" />
<glyph unicode="&#xbb;" glyph-name="guillemotright" horiz-adv-x="608" d="M348 284L194 93H60L214 284L60 475H194L348 284ZM568 284L414 93H280L434 284L280 475H414L568 284Z" />
<glyph unicode="&#xbc;" glyph-name="onequarter" horiz-adv-x="846" d="M131 200V569L53 517L0 603L154 697H231V200H131ZM204 -23L148 17L658 725L713 685L204 -23ZM676 0V97H488V174L675 499H770V183H838V97H770V0H676ZM584 183H676V345L584 183Z" />
<glyph unicode="&#xbd;" glyph-name="onehalf" horiz-adv-x="874" d="M131 200V569L53 517L0 603L154 697H231V200H131ZM185 -23L129 17L639 725L694 685L185 -23ZM554 0V29Q554 62 563 93T597 161T669 241Q699 269 723 298T749 351Q750 380 737 393T700 406Q674
406 665 387T656 335H556Q556 415 596 458T700 501Q766 501 808 461T849 341Q848 295 817 258T738 176Q723 162 706 145T677 113T662 91H838V0H554Z" />
<glyph unicode="&#xbe;" glyph-name="threequarters" horiz-adv-x="872" d="M163 193Q112 193 74 218T17 298L109 328Q111 327 115 317T131 298T161 289Q188 289 205 301T222 348Q222 377 207 395T159 414H113V505H159Q188 505 199 522T210 562Q210 590 195 599T161
609Q146 609 137 600T122 581T115 568L24 605Q44 652 80 678T163 705Q232 705 274 666T316 566Q316 532 297 504T250 462Q284 449 305 417T327 344Q327 272 282 233T163 193ZM267 -23L211 17L721 725L776 685L267 -23ZM702 0V97H514V174L701 499H796V183H864V97H796V0H702ZM610
183H702V345L610 183Z" />
<glyph unicode="&#xbf;" glyph-name="questiondown" horiz-adv-x="493" d="M292 491L311 283Q240 278 205 254T169 183Q169 146 188 123T245 100Q283 100 304 124T331 186L460 166Q455 113 427 72T351 8T245 -15Q183 -15 135 8T60 76T33 183Q33 254 76 296T187
357L197 491H292ZM245 712Q279 712 302 689T326 631Q326 597 303 574T245 550Q211 550 187 573T163 631Q163 665 187 688T245 712Z" />
<glyph unicode="&#xc0;" glyph-name="Agrave" horiz-adv-x="657" d="M8 0L271 700H386L649 0H502L455 139H198L151 0H8ZM240 259H414L328 513L240 259ZM402 746L159 913L234 1001L440 790L402 746Z" />
<glyph unicode="&#xc1;" glyph-name="Aacute" horiz-adv-x="657" d="M8 0L271 700H386L649 0H502L455 139H198L151 0H8ZM240 259H414L328 513L240 259ZM256 746L218 790L424 1001L499 913L256 746Z" />
<glyph unicode="&#xc2;" glyph-name="Acircumflex" horiz-adv-x="657" d="M8 0L271 700H386L649 0H502L455 139H198L151 0H8ZM240 259H414L328 513L240 259ZM290 946H368L494 800L456 756L329 846L201 756L163 800L290 946Z" />
<glyph unicode="&#xc3;" glyph-name="Atilde" horiz-adv-x="657" d="M8 0L271 700H386L649 0H502L455 139H198L151 0H8ZM240 259H414L328 513L240 259ZM218 803L159 863Q175 898 204 920T265 943Q290 943 312 930T355 904T391 890Q405 890 417 904T439 935L498
876Q482 841 453 819T391 796Q366 796 345 809T304 836T266 849Q252 849 240 835T218 803Z" />
<glyph unicode="&#xc4;" glyph-name="Adieresis" horiz-adv-x="657" d="M8 0L271 700H386L649 0H502L455 139H198L151 0H8ZM240 259H414L328 513L240 259ZM231 762Q206 762 187 781T168 825Q168 851 187 869T231 888Q257 888 275 870T294 825Q294 800 276 781T231
762ZM426 762Q401 762 382 781T363 825Q363 851 382 869T426 888Q452 888 470 870T489 825Q489 800 471 781T426 762Z" />
<glyph unicode="&#xc5;" glyph-name="Aring" horiz-adv-x="657" d="M8 0L271 700H386L649 0H502L455 139H198L151 0H8ZM240 259H414L328 513L240 259ZM329 738Q283 738 251 770T219 848Q219 894 251 926T329 958Q375 958 407 926T439 848Q439 818 424 793T385
753T329 738ZM329 798Q349 798 364 813T379 848Q379 868 364 883T329 898Q308 898 294 883T279 848Q279 828 293 813T329 798Z" />
<glyph unicode="&#xc6;" glyph-name="AE" horiz-adv-x="918" d="M8 0L391 700H874V580H577V417H844V297H577V120H885V0H447V139H234L161 0H8ZM297 259H447V546L297 259Z" />
<glyph unicode="&#xc7;" glyph-name="Ccedilla" horiz-adv-x="672" d="M363 -17Q268 -17 193 28T76 155T33 350Q33 463 75 545T193 673T363 719Q452 719 523 679T638 567L522 500Q497 544 457 568T363 592Q304 592 261 562T193 477T169 350Q169 278 193 224T260
140T363 109Q416 109 456 133T522 201L638 134Q595 63 524 23T363 -17ZM272 -193V-133Q343 -133 366 -126T389 -105Q389 -77 295 -77L317 0H380L371 -29Q418 -35 448 -54T479 -105Q479 -157 423 -175T272 -193Z" />
<glyph unicode="&#xc8;" glyph-name="Egrave" horiz-adv-x="588" d="M67 0V700H544V580H197V417H514V297H197V120H555V0H67ZM367 746L124 913L199 1001L405 790L367 746Z" />
<glyph unicode="&#xc9;" glyph-name="Eacute" horiz-adv-x="588" d="M67 0V700H544V580H197V417H514V297H197V120H555V0H67ZM221 746L183 790L389 1001L464 913L221 746Z" />
<glyph unicode="&#xca;" glyph-name="Ecircumflex" horiz-adv-x="588" d="M67 0V700H544V580H197V417H514V297H197V120H555V0H67ZM255 946H333L459 800L421 756L294 846L166 756L128 800L255 946Z" />
<glyph unicode="&#xcb;" glyph-name="Edieresis" horiz-adv-x="588" d="M67 0V700H544V580H197V417H514V297H197V120H555V0H67ZM196 762Q171 762 152 781T133 825Q133 851 152 869T196 888Q222 888 240 870T259 825Q259 800 241 781T196 762ZM391 762Q366 762
347 781T328 825Q328 851 347 869T391 888Q417 888 435 870T454 825Q454 800 436 781T391 762Z" />
<glyph unicode="&#xcc;" glyph-name="Igrave" horiz-adv-x="264" d="M67 0V700H197V0H67ZM205 746L-38 913L37 1001L243 790L205 746Z" />
<glyph unicode="&#xcd;" glyph-name="Iacute" horiz-adv-x="264" d="M67 0V700H197V0H67ZM59 746L21 790L227 1001L302 913L59 746Z" />
<glyph unicode="&#xce;" glyph-name="Icircumflex" horiz-adv-x="264" d="M67 0V700H197V0H67ZM93 946H171L297 800L259 756L132 846L4 756L-34 800L93 946Z" />
<glyph unicode="&#xcf;" glyph-name="Idieresis" horiz-adv-x="264" d="M67 0V700H197V0H67ZM34 762Q9 762 -10 781T-29 825Q-29 851 -10 869T34 888Q60 888 78 870T97 825Q97 800 79 781T34 762ZM229 762Q204 762 185 781T166 825Q166 851 185 869T229 888Q255
888 273 870T292 825Q292 800 274 781T229 762Z" />
<glyph unicode="&#xd0;" glyph-name="Eth" horiz-adv-x="673" d="M67 0V290H4V410H67V700H298Q400 700 477 663T597 549T640 350Q640 230 597 153T477 38T298 0H67ZM197 120H288Q386 120 445 176T504 350Q504 469 445 524T288 580H197V410H330V290H197V120Z" />
<glyph unicode="&#xd1;" glyph-name="Ntilde" horiz-adv-x="707" d="M67 0V700H197L510 227V700H641V0H517L197 489V0H67ZM243 803L184 863Q200 898 229 920T290 943Q315 943 337 930T380 904T416 890Q430 890 442 904T464 935L523 876Q507 841 478 819T416 796Q391
796 370 809T329 836T291 849Q277 849 265 835T243 803Z" />
<glyph unicode="&#xd2;" glyph-name="Ograve" horiz-adv-x="726" d="M363 -17Q268 -17 193 28T76 155T33 350Q33 463 75 545T193 673T363 719Q458 719 532 674T649 546T692 350Q692 238 650 156T533 28T363 -17ZM363 109Q423 109 466 139T533 224T557 350Q557
423 534 477T467 561T363 592Q304 592 261 562T193 477T169 350Q169 278 193 224T260 140T363 109ZM436 746L193 913L268 1001L474 790L436 746Z" />
<glyph unicode="&#xd3;" glyph-name="Oacute" horiz-adv-x="726" d="M363 -17Q268 -17 193 28T76 155T33 350Q33 463 75 545T193 673T363 719Q458 719 532 674T649 546T692 350Q692 238 650 156T533 28T363 -17ZM363 109Q423 109 466 139T533 224T557 350Q557
423 534 477T467 561T363 592Q304 592 261 562T193 477T169 350Q169 278 193 224T260 140T363 109ZM290 746L252 790L458 1001L533 913L290 746Z" />
<glyph unicode="&#xd4;" glyph-name="Ocircumflex" horiz-adv-x="726" d="M363 -17Q268 -17 193 28T76 155T33 350Q33 463 75 545T193 673T363 719Q458 719 532 674T649 546T692 350Q692 238 650 156T533 28T363 -17ZM363 109Q423 109 466 139T533 224T557 350Q557
423 534 477T467 561T363 592Q304 592 261 562T193 477T169 350Q169 278 193 224T260 140T363 109ZM324 946H402L528 800L490 756L363 846L235 756L197 800L324 946Z" />
<glyph unicode="&#xd5;" glyph-name="Otilde" horiz-adv-x="726" d="M363 -17Q268 -17 193 28T76 155T33 350Q33 463 75 545T193 673T363 719Q458 719 532 674T649 546T692 350Q692 238 650 156T533 28T363 -17ZM363 109Q423 109 466 139T533 224T557 350Q557
423 534 477T467 561T363 592Q304 592 261 562T193 477T169 350Q169 278 193 224T260 140T363 109ZM252 803L193 863Q209 898 238 920T299 943Q324 943 346 930T389 904T425 890Q439 890 451 904T473 935L532 876Q516 841 487 819T425 796Q400 796 379 809T338
836T300 849Q286 849 274 835T252 803Z" />
<glyph unicode="&#xd6;" glyph-name="Odieresis" horiz-adv-x="726" d="M363 -17Q268 -17 193 28T76 155T33 350Q33 463 75 545T193 673T363 719Q458 719 532 674T649 546T692 350Q692 238 650 156T533 28T363 -17ZM363 109Q423 109 466 139T533 224T557 350Q557
423 534 477T467 561T363 592Q304 592 261 562T193 477T169 350Q169 278 193 224T260 140T363 109ZM265 762Q240 762 221 781T202 825Q202 851 221 869T265 888Q291 888 309 870T328 825Q328 800 310 781T265 762ZM460 762Q435 762 416 781T397 825Q397 851 416
869T460 888Q486 888 504 870T523 825Q523 800 505 781T460 762Z" />
<glyph unicode="&#xd7;" glyph-name="multiply" horiz-adv-x="833" d="M182 56L117 120L352 355L117 590L182 654L417 419L652 654L717 590L482 355L716 120L652 56L417 290L182 56Z" />
<glyph unicode="&#xd8;" glyph-name="Oslash" horiz-adv-x="726" d="M363 -17Q293 -17 233 8L203 -51L133 -16L165 47Q104 94 69 171T33 350Q33 463 75 545T193 673T363 719Q433 719 494 693L523 751L593 715L562 653Q622 606 657 529T692 350Q692 238 650 156T533
28T363 -17ZM227 169L435 578Q402 592 363 592Q304 592 261 562T193 477T169 350Q169 293 184 247T227 169ZM363 109Q423 109 466 139T533 224T557 350Q557 465 500 531L291 123Q324 109 363 109Z" />
<glyph unicode="&#xd9;" glyph-name="Ugrave" horiz-adv-x="662" d="M331 -13Q197 -13 128 55T58 263V700H189V270Q189 185 227 149T331 113Q396 113 434 149T472 270V700H603V263Q603 124 534 56T331 -13ZM404 746L161 913L236 1001L442 790L404 746Z" />
<glyph unicode="&#xda;" glyph-name="Uacute" horiz-adv-x="662" d="M331 -13Q197 -13 128 55T58 263V700H189V270Q189 185 227 149T331 113Q396 113 434 149T472 270V700H603V263Q603 124 534 56T331 -13ZM258 746L220 790L426 1001L501 913L258 746Z" />
<glyph unicode="&#xdb;" glyph-name="Ucircumflex" horiz-adv-x="662" d="M331 -13Q197 -13 128 55T58 263V700H189V270Q189 185 227 149T331 113Q396 113 434 149T472 270V700H603V263Q603 124 534 56T331 -13ZM292 946H370L496 800L458 756L331 846L203 756L165
800L292 946Z" />
<glyph unicode="&#xdc;" glyph-name="Udieresis" horiz-adv-x="662" d="M331 -13Q197 -13 128 55T58 263V700H189V270Q189 185 227 149T331 113Q396 113 434 149T472 270V700H603V263Q603 124 534 56T331 -13ZM233 762Q208 762 189 781T170 825Q170 851 189 869T233
888Q259 888 277 870T296 825Q296 800 278 781T233 762ZM428 762Q403 762 384 781T365 825Q365 851 384 869T428 888Q454 888 472 870T491 825Q491 800 473 781T428 762Z" />
<glyph unicode="&#xdd;" glyph-name="Yacute" horiz-adv-x="637" d="M253 0V296L17 700H168L319 437L469 700H621L384 296V0H253ZM246 746L208 790L414 1001L489 913L246 746Z" />
<glyph unicode="&#xde;" glyph-name="Thorn" horiz-adv-x="632" d="M67 0V700H197V557H391Q457 557 505 537T580 472T607 351Q607 275 581 230T506 164T391 143H197V0H67ZM197 264H373Q418 264 444 284T470 351Q470 397 444 417T373 437H197V264Z" />
<glyph unicode="&#xdf;" glyph-name="germandbls" horiz-adv-x="701" d="M478 -10Q427 -10 381 9T296 74L369 159Q416 99 485 99Q517 99 535 112T554 158Q554 174 546 182T520 203T471 241Q435 273 415 296T386 340T377 385Q377 414 388 434T413 472T438 507T449
547Q449 577 421 594T352 612Q300 612 266 585T232 499V0H107V374H17V482H107V515Q107 607 166 665T345 723Q461 723 516 676T571 557Q571 533 560 511T535 469T509 432T498 399Q498 386 506 374T537 344Q580 312 611 287T659 233T676 159Q676 74 621 32T478 -10Z"
/>
<glyph unicode="&#xe0;" glyph-name="agrave" horiz-adv-x="534" d="M223 -6Q144 -10 92 28T39 138Q39 189 69 225T148 282T249 304Q272 306 293 301T332 286V318Q332 360 314 372T263 385Q220 385 175 370T96 330L39 427Q81 453 139 473T263 494Q356 494 404
456T452 318V108Q452 87 461 84T504 91V14Q488 7 464 1T411 -6Q352 -6 336 34Q290 -1 223 -6ZM220 102Q273 105 304 122T334 171Q333 194 312 201T259 206Q213 204 186 183T160 137Q161 120 175 111T220 102ZM315 528L72 695L147 783L353 572L315 528Z" />
<glyph unicode="&#xe1;" glyph-name="aacute" horiz-adv-x="534" d="M223 -6Q144 -10 92 28T39 138Q39 189 69 225T148 282T249 304Q272 306 293 301T332 286V318Q332 360 314 372T263 385Q220 385 175 370T96 330L39 427Q81 453 139 473T263 494Q356 494 404
456T452 318V108Q452 87 461 84T504 91V14Q488 7 464 1T411 -6Q352 -6 336 34Q290 -1 223 -6ZM220 102Q273 105 304 122T334 171Q333 194 312 201T259 206Q213 204 186 183T160 137Q161 120 175 111T220 102ZM169 528L131 572L337 783L412 695L169 528Z" />
<glyph unicode="&#xe2;" glyph-name="acircumflex" horiz-adv-x="534" d="M223 -6Q144 -10 92 28T39 138Q39 189 69 225T148 282T249 304Q272 306 293 301T332 286V318Q332 360 314 372T263 385Q220 385 175 370T96 330L39 427Q81 453 139 473T263 494Q356 494
404 456T452 318V108Q452 87 461 84T504 91V14Q488 7 464 1T411 -6Q352 -6 336 34Q290 -1 223 -6ZM220 102Q273 105 304 122T334 171Q333 194 312 201T259 206Q213 204 186 183T160 137Q161 120 175 111T220 102ZM203 728H281L407 582L369 538L242 628L114 538L76
582L203 728Z" />
<glyph unicode="&#xe3;" glyph-name="atilde" horiz-adv-x="534" d="M223 -6Q144 -10 92 28T39 138Q39 189 69 225T148 282T249 304Q272 306 293 301T332 286V318Q332 360 314 372T263 385Q220 385 175 370T96 330L39 427Q81 453 139 473T263 494Q356 494 404
456T452 318V108Q452 87 461 84T504 91V14Q488 7 464 1T411 -6Q352 -6 336 34Q290 -1 223 -6ZM220 102Q273 105 304 122T334 171Q333 194 312 201T259 206Q213 204 186 183T160 137Q161 120 175 111T220 102ZM131 585L72 645Q88 680 117 702T178 725Q203 725 225
712T268 686T304 672Q318 672 330 686T352 717L411 658Q395 623 366 601T304 578Q279 578 258 591T217 618T179 631Q165 631 153 617T131 585Z" />
<glyph unicode="&#xe4;" glyph-name="adieresis" horiz-adv-x="534" d="M223 -6Q144 -10 92 28T39 138Q39 189 69 225T148 282T249 304Q272 306 293 301T332 286V318Q332 360 314 372T263 385Q220 385 175 370T96 330L39 427Q81 453 139 473T263 494Q356 494 404
456T452 318V108Q452 87 461 84T504 91V14Q488 7 464 1T411 -6Q352 -6 336 34Q290 -1 223 -6ZM220 102Q273 105 304 122T334 171Q333 194 312 201T259 206Q213 204 186 183T160 137Q161 120 175 111T220 102ZM144 544Q119 544 100 563T81 607Q81 633 100 651T144
670Q170 670 188 652T207 607Q207 582 189 563T144 544ZM339 544Q314 544 295 563T276 607Q276 633 295 651T339 670Q365 670 383 652T402 607Q402 582 384 563T339 544Z" />
<glyph unicode="&#xe5;" glyph-name="aring" horiz-adv-x="534" d="M223 -6Q144 -10 92 28T39 138Q39 189 69 225T148 282T249 304Q272 306 293 301T332 286V318Q332 360 314 372T263 385Q220 385 175 370T96 330L39 427Q81 453 139 473T263 494Q356 494 404 456T452
318V108Q452 87 461 84T504 91V14Q488 7 464 1T411 -6Q352 -6 336 34Q290 -1 223 -6ZM220 102Q273 105 304 122T334 171Q333 194 312 201T259 206Q213 204 186 183T160 137Q161 120 175 111T220 102ZM242 520Q196 520 164 552T132 630Q132 676 164 708T242 740Q288
740 320 708T352 630Q352 600 337 575T298 535T242 520ZM242 580Q262 580 277 595T292 630Q292 650 277 665T242 680Q221 680 207 665T192 630Q192 610 206 595T242 580Z" />
<glyph unicode="&#xe6;" glyph-name="ae" horiz-adv-x="821" d="M223 -6Q144 -10 92 28T39 138Q39 189 69 225T148 282T249 304Q272 306 293 301T332 286V318Q332 360 314 372T263 385Q220 385 175 370T96 330L39 427Q81 453 139 473T263 494Q316 494 354 483T416
444Q476 494 565 494Q633 494 680 462T753 372T778 241V214H458Q463 147 494 123T574 98Q618 98 646 119T696 182L788 117Q749 48 696 19T572 -11Q514 -11 467 7T388 64Q351 31 310 14T223 -6ZM220 102Q273 105 304 122T334 171Q333 194 312 201T259 206Q213 204
186 183T160 137Q161 120 175 111T220 102ZM463 310H654Q636 396 563 396Q523 396 498 376T463 310Z" />
<glyph unicode="&#xe7;" glyph-name="ccedilla" horiz-adv-x="492" d="M268 -11Q201 -11 148 20T64 108T33 241Q33 318 63 374T147 462T268 494Q329 494 378 469T459 398L359 324Q332 380 268 380Q220 380 191 345T161 241Q161 174 190 139T268 103Q331 103 360
158L459 85Q428 39 379 14T268 -11ZM176 -193V-133Q247 -133 270 -126T293 -105Q293 -77 199 -77L221 0H284L275 -29Q322 -35 352 -54T383 -105Q383 -157 327 -175T176 -193Z" />
<glyph unicode="&#xe8;" glyph-name="egrave" horiz-adv-x="520" d="M271 -11Q165 -11 99 51T33 241Q33 320 62 376T144 463T264 494Q332 494 379 462T452 372T477 241V214H157Q162 147 193 123T273 98Q317 98 345 119T395 182L487 117Q448 48 395 19T271 -11ZM162
310H353Q335 396 262 396Q222 396 197 376T162 310ZM333 528L90 695L165 783L371 572L333 528Z" />
<glyph unicode="&#xe9;" glyph-name="eacute" horiz-adv-x="520" d="M271 -11Q165 -11 99 51T33 241Q33 320 62 376T144 463T264 494Q332 494 379 462T452 372T477 241V214H157Q162 147 193 123T273 98Q317 98 345 119T395 182L487 117Q448 48 395 19T271 -11ZM162
310H353Q335 396 262 396Q222 396 197 376T162 310ZM187 528L149 572L355 783L430 695L187 528Z" />
<glyph unicode="&#xea;" glyph-name="ecircumflex" horiz-adv-x="520" d="M271 -11Q165 -11 99 51T33 241Q33 320 62 376T144 463T264 494Q332 494 379 462T452 372T477 241V214H157Q162 147 193 123T273 98Q317 98 345 119T395 182L487 117Q448 48 395 19T271
-11ZM162 310H353Q335 396 262 396Q222 396 197 376T162 310ZM221 728H299L425 582L387 538L260 628L132 538L94 582L221 728Z" />
<glyph unicode="&#xeb;" glyph-name="edieresis" horiz-adv-x="520" d="M271 -11Q165 -11 99 51T33 241Q33 320 62 376T144 463T264 494Q332 494 379 462T452 372T477 241V214H157Q162 147 193 123T273 98Q317 98 345 119T395 182L487 117Q448 48 395 19T271 -11ZM162
310H353Q335 396 262 396Q222 396 197 376T162 310ZM162 544Q137 544 118 563T99 607Q99 633 118 651T162 670Q188 670 206 652T225 607Q225 582 207 563T162 544ZM357 544Q332 544 313 563T294 607Q294 633 313 651T357 670Q383 670 401 652T420 607Q420 582 402
563T357 544Z" />
<glyph unicode="&#xec;" glyph-name="igrave" horiz-adv-x="270" d="M73 0V482H199V0H73ZM464 528L221 695L296 783L502 572L464 528Z" />
<glyph unicode="&#xed;" glyph-name="iacute" horiz-adv-x="270" d="M73 0V482H199V0H73ZM318 528L280 572L486 783L561 695L318 528Z" />
<glyph unicode="&#xee;" glyph-name="icircumflex" horiz-adv-x="270" d="M73 0V482H199V0H73ZM352 728H430L556 582L518 538L391 628L263 538L225 582L352 728Z" />
<glyph unicode="&#xef;" glyph-name="idieresis" horiz-adv-x="270" d="M73 0V482H199V0H73ZM293 544Q268 544 249 563T230 607Q230 633 249 651T293 670Q319 670 337 652T356 607Q356 582 338 563T293 544ZM488 544Q463 544 444 563T425 607Q425 633 444 651T488
670Q514 670 532 652T551 607Q551 582 533 563T488 544Z" />
<glyph unicode="&#xf0;" glyph-name="eth" horiz-adv-x="537" d="M268 -11Q201 -11 148 20T64 108T33 241Q33 318 63 372T147 455T268 484Q282 484 295 483Q267 515 231 544L158 471L86 543L145 602Q115 620 81 636L156 729Q196 712 233 690L305 762L377 690L318
631Q370 588 412 531T478 402T503 241Q503 165 473 108T389 20T268 -11ZM268 103Q316 103 346 138T377 241Q377 309 347 344T268 380Q220 380 191 345T161 241Q161 174 190 139T268 103Z" />
<glyph unicode="&#xf1;" glyph-name="ntilde" horiz-adv-x="532" d="M58 0V482H170L177 428Q197 454 228 474T303 494Q378 494 425 446T473 304V0H347V273Q347 326 327 353T271 380Q233 380 209 353T184 266V0H58ZM155 585L96 645Q112 680 141 702T202 725Q227
725 249 712T292 686T328 672Q342 672 354 686T376 717L435 658Q419 623 390 601T328 578Q303 578 282 591T241 618T203 631Q189 631 177 617T155 585Z" />
<glyph unicode="&#xf2;" glyph-name="ograve" horiz-adv-x="537" d="M268 -11Q201 -11 148 20T64 108T33 241Q33 318 63 374T147 462T268 494Q336 494 389 463T472 375T503 241Q503 165 473 108T389 20T268 -11ZM268 103Q316 103 346 138T377 241Q377 309 347
344T268 380Q220 380 191 345T161 241Q161 174 190 139T268 103ZM342 528L99 695L174 783L380 572L342 528Z" />
<glyph unicode="&#xf3;" glyph-name="oacute" horiz-adv-x="537" d="M268 -11Q201 -11 148 20T64 108T33 241Q33 318 63 374T147 462T268 494Q336 494 389 463T472 375T503 241Q503 165 473 108T389 20T268 -11ZM268 103Q316 103 346 138T377 241Q377 309 347
344T268 380Q220 380 191 345T161 241Q161 174 190 139T268 103ZM196 528L158 572L364 783L439 695L196 528Z" />
<glyph unicode="&#xf4;" glyph-name="ocircumflex" horiz-adv-x="537" d="M268 -11Q201 -11 148 20T64 108T33 241Q33 318 63 374T147 462T268 494Q336 494 389 463T472 375T503 241Q503 165 473 108T389 20T268 -11ZM268 103Q316 103 346 138T377 241Q377 309
347 344T268 380Q220 380 191 345T161 241Q161 174 190 139T268 103ZM230 728H308L434 582L396 538L269 628L141 538L103 582L230 728Z" />
<glyph unicode="&#xf5;" glyph-name="otilde" horiz-adv-x="537" d="M268 -11Q201 -11 148 20T64 108T33 241Q33 318 63 374T147 462T268 494Q336 494 389 463T472 375T503 241Q503 165 473 108T389 20T268 -11ZM268 103Q316 103 346 138T377 241Q377 309 347
344T268 380Q220 380 191 345T161 241Q161 174 190 139T268 103ZM158 585L99 645Q115 680 144 702T205 725Q230 725 252 712T295 686T331 672Q345 672 357 686T379 717L438 658Q422 623 393 601T331 578Q306 578 285 591T244 618T206 631Q192 631 180 617T158 585Z"
/>
<glyph unicode="&#xf6;" glyph-name="odieresis" horiz-adv-x="537" d="M268 -11Q201 -11 148 20T64 108T33 241Q33 318 63 374T147 462T268 494Q336 494 389 463T472 375T503 241Q503 165 473 108T389 20T268 -11ZM268 103Q316 103 346 138T377 241Q377 309 347
344T268 380Q220 380 191 345T161 241Q161 174 190 139T268 103ZM171 544Q146 544 127 563T108 607Q108 633 127 651T171 670Q197 670 215 652T234 607Q234 582 216 563T171 544ZM366 544Q341 544 322 563T303 607Q303 633 322 651T366 670Q392 670 410 652T429
607Q429 582 411 563T366 544Z" />
<glyph unicode="&#xf7;" glyph-name="divide" horiz-adv-x="833" d="M92 309V402H741V309H92ZM417 55Q383 55 360 79T336 136Q336 170 359 193T417 217Q450 217 473 194T497 136Q497 103 474 79T417 55ZM417 494Q383 494 360 517T336 574Q336 608 359 631T417
655Q450 655 473 632T497 574Q497 540 474 517T417 494Z" />
<glyph unicode="&#xf8;" glyph-name="oslash" horiz-adv-x="537" d="M268 -11Q217 -11 173 7L148 -36L88 -1L114 44Q76 77 55 127T33 241Q33 318 63 374T147 462T268 494Q319 494 363 475L388 518L448 483L422 439Q460 405 481 355T503 241Q503 165 473 108T389
20T268 -11ZM268 103Q316 103 346 138T377 241Q377 293 358 327L232 109Q248 103 268 103ZM179 156L305 374Q288 380 268 380Q220 380 191 345T161 241Q161 190 179 156Z" />
<glyph unicode="&#xf9;" glyph-name="ugrave" horiz-adv-x="523" d="M220 -11Q145 -11 98 37T50 179V482H176V209Q176 157 197 130T252 103Q290 103 314 130T339 217V482H465V0H353L346 54Q327 29 296 9T220 -11ZM335 528L92 695L167 783L373 572L335 528Z" />
<glyph unicode="&#xfa;" glyph-name="uacute" horiz-adv-x="523" d="M220 -11Q145 -11 98 37T50 179V482H176V209Q176 157 197 130T252 103Q290 103 314 130T339 217V482H465V0H353L346 54Q327 29 296 9T220 -11ZM189 528L151 572L357 783L432 695L189 528Z" />
<glyph unicode="&#xfb;" glyph-name="ucircumflex" horiz-adv-x="523" d="M220 -11Q145 -11 98 37T50 179V482H176V209Q176 157 197 130T252 103Q290 103 314 130T339 217V482H465V0H353L346 54Q327 29 296 9T220 -11ZM223 728H301L427 582L389 538L262 628L134
538L96 582L223 728Z" />
<glyph unicode="&#xfc;" glyph-name="udieresis" horiz-adv-x="523" d="M220 -11Q145 -11 98 37T50 179V482H176V209Q176 157 197 130T252 103Q290 103 314 130T339 217V482H465V0H353L346 54Q327 29 296 9T220 -11ZM164 544Q139 544 120 563T101 607Q101 633
120 651T164 670Q190 670 208 652T227 607Q227 582 209 563T164 544ZM359 544Q334 544 315 563T296 607Q296 633 315 651T359 670Q385 670 403 652T422 607Q422 582 404 563T359 544Z" />
<glyph unicode="&#xfd;" glyph-name="yacute" horiz-adv-x="505" d="M127 -195Q102 -195 80 -194T41 -188V-73Q74 -82 113 -82Q140 -82 153 -77T173 -58T190 -21L198 1L8 482H139L253 152L360 482H488L297 -58Q281 -103 261 -133T209 -179T127 -195ZM180 528L142
572L348 783L423 695L180 528Z" />
<glyph unicode="&#xfe;" glyph-name="thorn" horiz-adv-x="568" d="M58 -194V700H184V449Q234 494 299 494Q367 494 420 465T503 379T534 241Q534 161 504 105T420 19T299 -11Q234 -11 184 34V-194H58ZM294 103Q342 103 374 138T407 241Q407 309 375 344T294 380Q246
380 214 345T182 241Q182 174 214 139T294 103Z" />
<glyph unicode="&#xff;" glyph-name="ydieresis" horiz-adv-x="505" d="M127 -195Q102 -195 80 -194T41 -188V-73Q74 -82 113 -82Q140 -82 153 -77T173 -58T190 -21L198 1L8 482H139L253 152L360 482H488L297 -58Q281 -103 261 -133T209 -179T127 -195ZM155 544Q130
544 111 563T92 607Q92 633 111 651T155 670Q181 670 199 652T218 607Q218 582 200 563T155 544ZM350 544Q325 544 306 563T287 607Q287 633 306 651T350 670Q376 670 394 652T413 607Q413 582 395 563T350 544Z" />
<glyph unicode="&#x2013;" glyph-name="endash" horiz-adv-x="532" d="M65 179V308H467V179H65Z" />
<glyph unicode="&#x2014;" glyph-name="emdash" horiz-adv-x="1000" d="M0 355V405H1000V355H0Z" />
<glyph unicode="&#x2018;" glyph-name="quoteleft" horiz-adv-x="285" d="M193 723L228 663Q176 650 144 615T112 541Q112 537 112 533T113 525Q124 539 140 547T172 556Q202 556 223 537T245 482Q245 448 220 429T160 409Q108 409 74 447T40 545Q40 609 82 654T193 723Z" />
<glyph unicode="&#x2019;" glyph-name="quoteright" horiz-adv-x="285" d="M92 399L57 459Q109 472 141 508T173 581Q173 586 173 589T172 597Q161 584 146 575T113 566Q83 566 62 586T40 640Q40 675 65 694T125 713Q177 713 211 675T245 577Q245 513 203 468T92 399Z" />
<glyph unicode="&#x201a;" glyph-name="quotesinglbase" horiz-adv-x="305" d="M102 -175L67 -115Q119 -102 151 -66T183 7Q183 12 183 15T182 23Q171 10 156 1T123 -8Q93 -8 72 12T50 66Q50 101 75 120T135 139Q187 139 221 101T255 3Q255 -61 213 -106T102 -175Z" />
<glyph unicode="&#x201c;" glyph-name="quotedblleft" horiz-adv-x="527" d="M193 723L228 663Q176 650 144 615T112 541Q112 537 112 533T113 525Q124 539 140 547T172 556Q202 556 223 537T245 482Q245 448 220 429T160 409Q108 409 74 447T40 545Q40 609 82
654T193 723ZM435 723L470 663Q418 650 386 615T354 541Q354 537 354 533T355 525Q366 539 382 547T414 556Q444 556 465 537T487 482Q487 448 462 429T402 409Q350 409 316 447T282 545Q282 609 324 654T435 723Z" />
<glyph unicode="&#x201d;" glyph-name="quotedblright" horiz-adv-x="527" d="M92 399L57 459Q109 472 141 508T173 581Q173 586 173 589T172 597Q161 584 146 575T113 566Q83 566 62 586T40 640Q40 675 65 694T125 713Q177 713 211 675T245 577Q245 513 203 468T92
399ZM334 399L299 459Q351 472 383 508T415 581Q415 586 415 589T414 597Q403 584 388 575T355 566Q325 566 304 586T282 640Q282 675 307 694T367 713Q419 713 453 675T487 577Q487 513 445 468T334 399Z" />
<glyph unicode="&#x201e;" glyph-name="quotedblbase" horiz-adv-x="543" d="M340 -175L305 -115Q357 -102 389 -66T421 7Q421 12 421 15T420 23Q409 10 394 1T361 -8Q331 -8 310 12T288 66Q288 101 313 120T373 139Q425 139 459 101T493 3Q493 -61 451 -106T340
-175ZM102 -175L67 -115Q119 -102 151 -66T183 7Q183 12 183 15T182 23Q171 10 156 1T123 -8Q93 -8 72 12T50 66Q50 101 75 120T135 139Q187 139 221 101T255 3Q255 -61 213 -106T102 -175Z" />
<glyph unicode="&#x2022;" glyph-name="bullet" horiz-adv-x="362" d="M181 254Q148 254 121 270T77 314T60 375Q60 408 76 435T120 478T181 494Q214 494 241 478T285 435T302 375Q302 342 286 315T242 271T181 254Z" />
<glyph unicode="&#x2039;" glyph-name="guilsinglleft" horiz-adv-x="408" d="M40 284L214 475H348L174 284L348 93H214L40 284Z" />
<glyph unicode="&#x203a;" glyph-name="guilsinglright" horiz-adv-x="408" d="M368 284L194 93H60L234 284L60 475H194L368 284Z" />
</font>
</defs>
</svg>
