<?xml version="1.0" standalone="no"?>
<!DOCTYPE svg PUBLIC "-//W3C//DTD SVG 1.1//EN" "http://www.w3.org/Graphics/SVG/1.1/DTD/svg11.dtd">
<svg xmlns="http://www.w3.org/2000/svg">
<defs >
<font id="ZenKakuGothicNew" horiz-adv-x="979" ><font-face
    font-family="Zen Kaku Gothic New Medium"
    units-per-em="1000"
    panose-1="0 0 0 0 0 0 0 0 0 0"
    ascent="1160"
    descent="-288"
    alphabetic="0" />
<glyph unicode=" " glyph-name="space" horiz-adv-x="280" />
<glyph unicode="!" glyph-name="exclam" horiz-adv-x="287" d="M108 194L96 702H192L179 194H108ZM144 -13Q116 -13 97 6T77 53Q77 82 96 101T144 120Q172 120 191 101T211 53Q211 25 192 6T144 -13Z" />
<glyph unicode="&quot;" glyph-name="quotedbl" horiz-adv-x="387" d="M74 482L65 767H152L143 482H74ZM244 482L235 767H322L313 482H244Z" />
<glyph unicode="#" glyph-name="numbersign" horiz-adv-x="597" d="M115 0L144 211H41V281H153L172 419H70V490H182L211 700H285L256 490H380L409 700H483L454 490H556V419H444L426 281H527V211H417L388 0H313L342 211H218L190 0H115ZM228 281H351L370 419H247L228 281Z" />
<glyph unicode="$" glyph-name="dollar" horiz-adv-x="617" d="M287 -67V-13Q213 -7 152 27T50 129L125 176Q154 134 193 109T287 77V316Q190 336 135 382T80 516Q80 600 136 654T287 716V775H344V714Q415 707 467 675T556 596L486 539Q458 570 425 594T344 625V397Q462
371 514 320T566 186Q566 95 504 44T344 -13V-67H287ZM344 76Q402 81 436 108T470 185Q470 212 461 233T424 271T344 301V76ZM287 412V627Q238 622 207 595T175 520Q175 482 198 456T287 412Z" />
<glyph unicode="%" glyph-name="percent" horiz-adv-x="771" d="M201 358Q133 358 92 406T50 536Q50 617 91 664T201 712Q269 712 310 665T352 536Q352 454 311 406T201 358ZM571 -11Q504 -11 462 36T420 165Q420 246 462 294T571 342Q639 342 680 294T722 165Q722
84 681 37T571 -11ZM153 -20L108 12L618 723L662 690L153 -20ZM571 57Q611 57 632 85T653 165Q653 217 632 245T571 273Q531 273 510 245T489 165Q489 113 510 85T571 57ZM201 428Q240 428 261 456T282 536Q282 587 261 615T201 643Q161 643 140 615T119 536Q119
484 140 456T201 428Z" />
<glyph unicode="&amp;" glyph-name="ampersand" horiz-adv-x="662" d="M251 -15Q149 -15 95 36T41 178Q41 228 63 265T122 330T200 381Q157 427 135 466T112 554Q112 607 138 643T207 698T296 717Q352 717 392 696T455 639T477 557Q477 510 455 476T399 414T324
364L457 205Q483 237 508 273T559 349L633 309Q605 264 575 221T513 140L629 0H517L453 77Q408 36 358 11T251 -15ZM256 69Q293 69 328 88T399 141L251 320Q204 292 170 259T136 178Q136 120 167 95T256 69ZM272 423Q319 451 352 482T386 556Q386 594 361 616T297
638Q257 638 229 616T200 552Q200 516 219 489T272 423Z" />
<glyph unicode="&apos;" glyph-name="quotesingle" horiz-adv-x="217" d="M74 482L65 767H152L143 482H74Z" />
<glyph unicode="(" glyph-name="parenleft" horiz-adv-x="360" d="M244 -157Q168 -48 127 74T85 323Q85 453 127 577T243 802L314 763Q246 669 207 558T167 323Q167 202 206 94T315 -119L244 -157Z" />
<glyph unicode=")" glyph-name="parenright" horiz-adv-x="360" d="M116 -157L45 -119Q116 -15 154 93T193 323Q193 446 154 557T46 763L117 802Q191 702 233 578T275 323Q275 196 234 74T116 -157Z" />
<glyph unicode="*" glyph-name="asterisk" horiz-adv-x="513" d="M172 324L111 368L196 485L59 530L81 601L220 556V700H294V556L431 601L455 530L317 485L402 367L342 324L256 442L172 324Z" />
<glyph unicode="+" glyph-name="plus" horiz-adv-x="883" d="M476 24H407V321H110V389L408 390V687H476V391L773 390V322L476 321V24Z" />
<glyph unicode="," glyph-name="comma" horiz-adv-x="289" d="M100 -158L74 -111Q121 -99 148 -70T175 -5Q175 11 170 23Q163 9 149 0T119 -9Q94 -9 77 7T59 51Q59 79 79 94T127 111Q171 113 201 80T231 -7Q231 -62 195 -100T100 -158Z" />
<glyph unicode="-" glyph-name="hyphen" horiz-adv-x="426" d="M65 209V292H361V209H65Z" />
<glyph unicode="." glyph-name="period" horiz-adv-x="251" d="M126 -11Q98 -11 79 8T59 55Q59 83 78 102T126 122Q153 122 172 103T192 55Q192 28 173 9T126 -11Z" />
<glyph unicode="/" glyph-name="slash" horiz-adv-x="545" d="M104 -46L50 -19L441 748L495 720L104 -46Z" />
<glyph unicode="0" glyph-name="zero" horiz-adv-x="503" d="M252 -11Q138 -11 94 78T50 350Q50 533 94 622T252 712Q365 712 409 623T453 350Q453 167 409 78T252 -11ZM252 72Q294 72 319 97T356 184T368 350Q368 456 357 517T320 603T252 629Q211 629 185 604T147
517T135 350Q135 245 147 184T185 98T252 72Z" />
<glyph unicode="1" glyph-name="one" horiz-adv-x="398" d="M183 0V591L51 507L6 579L203 702H268V0H183Z" />
<glyph unicode="2" glyph-name="two" horiz-adv-x="447" d="M32 0V28Q32 102 74 170T198 315Q232 348 261 380T310 445T330 507Q332 566 303 595T221 624Q175 624 148 591T121 495H36Q36 593 87 649T221 706Q279 706 323 683T392 614T415 505Q414 458 392 418T335
339T257 259Q209 210 170 165T123 79H405V0H32Z" />
<glyph unicode="3" glyph-name="three" horiz-adv-x="483" d="M218 -11Q147 -11 96 28T24 138L103 165Q109 144 123 123T160 86T216 71Q276 71 310 101T344 197Q344 256 308 292T210 328H169V407H210Q267 407 296 440T326 524Q326 581 293 605T216 629Q187 629
166 614T131 578T110 536L32 567Q58 637 108 674T218 711Q306 711 360 662T415 527Q415 473 387 431T313 369Q366 350 399 303T432 194Q432 103 378 46T218 -11Z" />
<glyph unicode="4" glyph-name="four" horiz-adv-x="494" d="M297 0V163H14V229L299 704H377V240H479V163H377V0H297ZM103 240H297V563L103 240Z" />
<glyph unicode="5" glyph-name="five" horiz-adv-x="469" d="M221 -6Q161 -6 108 24T24 105L96 151Q119 116 150 96T221 76Q285 76 318 113T352 219Q352 285 323 321T241 357Q210 357 184 342T146 301H67V700H412V621H153V402Q192 436 242 436Q298 436 342 411T411
338T437 219Q437 110 378 52T221 -6Z" />
<glyph unicode="6" glyph-name="six" horiz-adv-x="495" d="M260 -11Q216 -11 177 5T109 60T64 166T50 337Q54 531 113 621T281 712Q334 712 378 686T451 618L387 568Q368 597 343 614T282 631Q227 631 195 595T148 493T133 341Q152 374 186 392T261 411Q315 411
358 386T426 316T451 206Q451 143 427 94T360 17T260 -11ZM255 71Q308 71 336 110T364 206Q364 263 335 297T259 332Q207 332 174 295T146 199Q151 137 179 104T255 71Z" />
<glyph unicode="7" glyph-name="seven" horiz-adv-x="414" d="M126 0Q133 44 146 104T178 231T217 368T260 503T303 620H14V700H399V640Q379 594 357 530T313 394T272 249T237 112T214 0H126Z" />
<glyph unicode="8" glyph-name="eight" horiz-adv-x="509" d="M255 -11Q195 -11 149 15T76 90T50 200Q50 258 79 302T152 369Q115 392 92 429T68 519Q68 576 92 619T158 687T255 711Q310 711 352 687T418 620T442 519Q442 467 418 430T357 369Q401 347 430 303T459
200Q459 138 433 90T361 16T255 -11ZM255 71Q310 71 342 104T374 201Q374 263 342 298T255 333Q200 333 168 298T135 201Q135 137 167 104T255 71ZM255 403Q303 403 329 433T356 518Q356 571 328 600T255 629Q210 629 182 600T154 518Q154 464 180 434T255 403Z"
/>
<glyph unicode="9" glyph-name="nine" horiz-adv-x="477" d="M195 -11Q143 -11 99 15T26 83L90 132Q110 104 135 87T195 69Q251 69 283 106T329 209T343 360Q325 327 291 309T216 290Q163 290 120 314T52 385T26 495Q26 558 50 607T117 684T217 712Q261 712 300
696T368 641T413 535T427 364Q423 169 364 79T195 -11ZM218 367Q270 367 303 405T331 502Q326 564 298 596T222 629Q170 629 142 590T113 495Q113 438 142 403T218 367Z" />
<glyph unicode=":" glyph-name="colon" horiz-adv-x="251" d="M126 359Q98 359 79 378T59 426Q59 454 78 473T126 492Q153 492 172 473T192 426Q192 398 173 379T126 359ZM126 -11Q98 -11 79 8T59 55Q59 83 78 102T126 122Q153 122 172 103T192 55Q192 28 173 9T126 -11Z" />
<glyph unicode=";" glyph-name="semicolon" horiz-adv-x="272" d="M100 -158L74 -111Q121 -99 148 -70T175 -5Q175 11 170 23Q163 9 149 0T119 -9Q94 -9 77 7T59 51Q59 79 79 94T127 111Q171 113 201 80T231 -7Q231 -62 195 -100T100 -158ZM126 359Q98 359 79
378T59 426Q59 454 78 473T126 492Q153 492 172 473T192 426Q192 398 173 379T126 359Z" />
<glyph unicode="&lt;" glyph-name="less" horiz-adv-x="622" d="M563 -17L59 197V284L563 498V417L144 240L563 64V-17Z" />
<glyph unicode="=" glyph-name="equal" horiz-adv-x="883" d="M771 228V159H112V228H771ZM112 428V497H771V428H112Z" />
<glyph unicode="&gt;" glyph-name="greater" horiz-adv-x="622" d="M59 -17V64L477 240L59 417V498L563 284V197L59 -17Z" />
<glyph unicode="?" glyph-name="question" horiz-adv-x="501" d="M215 194L204 389Q279 397 322 426T365 513Q365 567 334 598T250 629Q204 629 173 603T131 533L41 550Q55 623 112 667T250 712Q311 712 358 689T433 621T460 513Q460 442 415 397T292 333L286
194H215ZM250 -13Q222 -13 203 6T184 53Q184 82 203 101T250 120Q279 120 298 101T318 53Q318 25 299 6T250 -13Z" />
<glyph unicode="@" glyph-name="at" horiz-adv-x="808" d="M420 -14Q314 -14 228 28T92 148T41 336Q41 416 69 484T149 605T271 686T424 715Q493 715 555 690T664 619T739 513T767 384Q767 328 744 281T673 204T550 175Q481 175 461 214Q422 175 356 175Q315 175
282 193T234 248T229 341Q238 427 290 475T413 523Q474 523 507 479L521 519H586L529 277Q524 256 533 247T571 238Q633 238 664 280T696 384Q696 458 660 517T563 612T424 647Q334 647 265 608T155 499T115 336Q115 246 153 183T261 85T420 51Q496 51 553 76T654
145L702 105Q653 50 581 18T420 -14ZM365 242Q400 242 428 259T471 329L489 416Q480 439 460 450T416 462Q378 462 345 431T304 343Q294 294 310 268T365 242Z" />
<glyph unicode="A" glyph-name="A" horiz-adv-x="655" d="M14 0L287 700H368L641 0H538L471 179H182L115 0H14ZM213 265H440L328 569L213 265Z" />
<glyph unicode="B" glyph-name="B" horiz-adv-x="634" d="M77 0V700H354Q447 700 499 655T552 523Q552 464 525 424T454 368Q511 355 547 306T584 188Q584 94 529 47T367 0H77ZM168 86H356Q424 86 455 113T486 199Q486 255 449 286T355 317H168V86ZM168 404H344Q397
404 425 433T453 510Q453 614 338 614H168V404Z" />
<glyph unicode="C" glyph-name="C" horiz-adv-x="671" d="M365 -15Q270 -15 197 30T83 157T41 350Q41 461 82 543T197 671T365 717Q451 717 519 680T630 574L549 526Q518 574 471 600T365 626Q297 626 246 592T165 497T136 350Q136 266 165 205T245 109T365 75Q424
75 471 101T549 175L630 127Q587 60 519 23T365 -15Z" />
<glyph unicode="D" glyph-name="D" horiz-adv-x="673" d="M77 0V700H292Q402 700 477 657T592 536T632 350Q632 244 593 165T478 43T292 0H77ZM168 86H286Q370 86 425 119T509 212T537 350Q537 429 509 488T426 580T286 614H168V86Z" />
<glyph unicode="E" glyph-name="E" horiz-adv-x="583" d="M77 0V700H530V614H168V401H498V314H168V86H542V0H77Z" />
<glyph unicode="F" glyph-name="F" horiz-adv-x="559" d="M77 0V700H535V614H168V401H504V314H168V0H77Z" />
<glyph unicode="G" glyph-name="G" horiz-adv-x="669" d="M366 -15Q272 -15 199 31T83 159T41 351Q41 461 83 543T198 671T366 717Q442 717 505 690T611 619L551 548Q519 585 471 605T366 626Q296 626 245 592T165 495T136 351Q136 269 164 207T244 110T366 75Q416
75 451 84T516 112V288H386V374H610V53Q570 25 508 5T366 -15Z" />
<glyph unicode="H" glyph-name="H" horiz-adv-x="687" d="M77 0V700H168V410H519V700H611V0H519V325H168V0H77Z" />
<glyph unicode="I" glyph-name="I" horiz-adv-x="245" d="M77 0V700H168V0H77Z" />
<glyph unicode="J" glyph-name="J" horiz-adv-x="529" d="M242 -15Q127 -15 76 48T24 218H115Q115 145 147 110T242 75Q306 75 337 110T368 218V700H461V218Q461 112 410 49T242 -15Z" />
<glyph unicode="K" glyph-name="K" horiz-adv-x="608" d="M77 0V700H168V395L462 700H580L262 373L593 0H474L168 355V0H77Z" />
<glyph unicode="L" glyph-name="L" horiz-adv-x="566" d="M77 0V700H168V86H543V0H77Z" />
<glyph unicode="M" glyph-name="M" horiz-adv-x="772" d="M77 0V700H168L386 353L603 700H696V0H602V541L412 233H360L169 541V0H77Z" />
<glyph unicode="N" glyph-name="N" horiz-adv-x="695" d="M77 0V700H168L527 161V700H619V0H531L168 549V0H77Z" />
<glyph unicode="O" glyph-name="O" horiz-adv-x="730" d="M365 -15Q270 -15 197 30T83 157T41 350Q41 461 82 543T197 671T365 717Q460 717 532 672T646 544T688 350Q688 239 647 157T533 30T365 -15ZM365 75Q433 75 484 109T564 204T593 350Q593 435 565 496T485
592T365 626Q297 626 246 592T165 497T136 350Q136 266 165 205T245 109T365 75Z" />
<glyph unicode="P" glyph-name="P" horiz-adv-x="630" d="M77 0V700H390Q489 700 543 654T598 508Q598 407 544 360T390 313H168V0H77ZM168 400H379Q439 400 470 425T502 508Q502 564 471 589T379 614H168V400Z" />
<glyph unicode="Q" glyph-name="Q" horiz-adv-x="730" d="M365 -15Q270 -15 197 30T83 157T41 350Q41 461 82 543T197 671T365 717Q460 717 532 672T646 544T688 350Q688 293 677 243T643 151L754 62L696 -12L587 75Q546 32 490 9T365 -15ZM365 75Q454 75 512
133L409 217L466 289L565 210Q593 269 593 350Q593 435 565 496T485 592T365 626Q297 626 246 592T165 497T136 350Q136 266 165 205T245 109T365 75Z" />
<glyph unicode="R" glyph-name="R" horiz-adv-x="641" d="M77 0V700H390Q489 700 543 654T598 508Q598 419 555 372T430 317L593 0H486L334 313H168V0H77ZM168 400H379Q439 400 470 425T502 508Q502 564 471 589T379 614H168V400Z" />
<glyph unicode="S" glyph-name="S" horiz-adv-x="617" d="M319 -13Q235 -13 165 20T50 129L125 175Q158 127 205 101T322 75Q392 75 431 103T470 185Q470 217 456 240T400 283T273 319Q80 361 80 516Q80 576 109 621T190 691T311 717Q395 717 455 682T556 596L486
539Q454 574 413 601T310 628Q252 628 214 601T175 520Q175 492 187 470T234 430T333 399Q457 373 511 321T566 186Q566 122 535 78T448 10T319 -13Z" />
<glyph unicode="T" glyph-name="T" horiz-adv-x="596" d="M252 0V614H32V700H563V614H344V0H252Z" />
<glyph unicode="U" glyph-name="U" horiz-adv-x="656" d="M328 -12Q201 -12 134 58T67 268V700H160V272Q160 175 203 126T328 77Q409 77 452 126T495 272V700H588V268Q588 129 521 59T328 -12Z" />
<glyph unicode="V" glyph-name="V" horiz-adv-x="627" d="M268 0L14 700H113L313 129L514 700H613L358 0H268Z" />
<glyph unicode="W" glyph-name="W" horiz-adv-x="838" d="M187 0L24 700H118L235 166L379 700H458L603 166L719 700H815L652 0H568L419 548L269 0H187Z" />
<glyph unicode="X" glyph-name="X" horiz-adv-x="613" d="M24 0L257 367L43 700H152L307 450L461 700H570L357 367L590 0H480L307 283L133 0H24Z" />
<glyph unicode="Y" glyph-name="Y" horiz-adv-x="608" d="M258 0V298L24 700H130L305 398L478 700H585L351 298V0H258Z" />
<glyph unicode="Z" glyph-name="Z" horiz-adv-x="562" d="M41 0V86L402 614H54V700H515V614L154 86H521V0H41Z" />
<glyph unicode="[" glyph-name="bracketleft" horiz-adv-x="316" d="M85 -149V795H271V727H165V-81H271V-149H85Z" />
<glyph unicode="\" glyph-name="backslash" horiz-adv-x="545" d="M441 -46L50 720L104 748L495 -19L441 -46Z" />
<glyph unicode="]" glyph-name="bracketright" horiz-adv-x="316" d="M45 -149V-81H151V727H45V795H231V-149H45Z" />
<glyph unicode="^" glyph-name="asciicircum" horiz-adv-x="556" d="M41 282L239 700H316L515 282H426L278 608L129 282H41Z" />
<glyph unicode="_" glyph-name="underscore" horiz-adv-x="665" d="M65 -92V-44H600V-92H65Z" />
<glyph unicode="`" glyph-name="grave" horiz-adv-x="365" d="M285 529L50 688L108 759L315 565L285 529Z" />
<glyph unicode="a" glyph-name="a" horiz-adv-x="535" d="M211 -8Q138 -10 91 25T43 128Q43 177 74 213T155 269T258 290Q289 292 315 285T360 263V323Q360 379 337 396T264 413Q222 413 175 398T94 360L52 430Q93 456 149 474T264 492Q356 492 401 456T446 323V82Q446
63 456 60T501 65V7Q488 2 468 -3T427 -8Q395 -8 381 4T362 47Q335 20 294 7T211 -8ZM212 71Q254 72 288 83T343 116T361 168Q359 196 333 208T265 218Q228 217 197 205T148 172T129 127Q130 99 152 85T212 71Z" />
<glyph unicode="b" glyph-name="b" horiz-adv-x="567" d="M299 -11Q252 -11 214 10T150 69L147 0H67V717H157V419Q182 454 218 473T299 492Q365 492 416 462T496 375T526 240Q526 163 497 107T416 20T299 -11ZM296 71Q357 71 397 116T437 240Q437 320 397 365T296
410Q235 410 196 365T156 240Q156 161 195 116T296 71Z" />
<glyph unicode="c" glyph-name="c" horiz-adv-x="488" d="M269 -11Q203 -11 152 20T71 108T41 240Q41 315 70 372T151 460T269 492Q324 492 370 470T447 404L376 351Q339 410 269 410Q208 410 170 365T131 240Q131 161 169 116T269 71Q339 71 377 129L447 77Q416
34 370 12T269 -11Z" />
<glyph unicode="d" glyph-name="d" horiz-adv-x="567" d="M269 -11Q203 -11 152 19T71 106T41 240Q41 318 70 374T151 461T269 492Q313 492 349 473T411 419V717H500V0H421L418 69Q393 32 355 11T269 -11ZM272 71Q333 71 372 116T412 240Q412 320 373 365T272
410Q211 410 171 365T131 240Q131 161 171 116T272 71Z" />
<glyph unicode="e" glyph-name="e" horiz-adv-x="522" d="M271 -11Q203 -11 151 18T70 103T41 240Q41 317 70 373T149 461T266 492Q332 492 378 460T449 373T474 255V231H129Q131 151 169 110T272 68Q323 68 356 93T413 168L481 123Q447 53 395 21T271 -11ZM134
303H386Q378 355 346 387T265 419Q213 419 179 390T134 303Z" />
<glyph unicode="f" glyph-name="f" horiz-adv-x="365" d="M119 0V402H24V480H119V570Q119 629 138 663T191 711T270 725Q317 725 350 715V633Q337 638 321 641T287 645Q251 645 230 626T208 561V480H350V402H208V0H119Z" />
<glyph unicode="g" glyph-name="g" horiz-adv-x="548" d="M260 -207Q120 -207 51 -97L123 -48Q168 -124 260 -124Q325 -124 358 -83T391 46V99Q367 69 333 52T256 35Q194 35 145 62T69 140T41 264Q41 337 68 387T145 465T256 492Q300 492 336 474T398 422L401
480H480V46Q480 -78 424 -142T260 -207ZM262 114Q321 114 359 155T397 264Q397 332 359 372T262 412Q204 412 168 372T131 264Q131 196 167 155T262 114Z" />
<glyph unicode="h" glyph-name="h" horiz-adv-x="530" d="M67 0V717H157V418Q175 448 210 470T291 492Q367 492 414 444T462 303V0H373V284Q373 347 345 378T272 410Q221 410 189 377T157 287V0H67Z" />
<glyph unicode="i" glyph-name="i" horiz-adv-x="254" d="M83 0V480H172V0H83ZM127 570Q102 570 85 587T67 630Q67 655 84 672T127 690Q151 690 168 673T186 630Q186 605 169 588T127 570Z" />
<glyph unicode="j" glyph-name="j" horiz-adv-x="247" d="M13 -207Q-7 -207 -29 -204T-65 -197V-109Q-35 -118 -3 -118Q42 -118 58 -99T75 -29V480H164V-29Q164 -126 128 -166T13 -207ZM120 570Q95 570 78 587T60 630Q60 655 77 672T120 690Q144 690 161 673T179
630Q179 605 162 588T120 570Z" />
<glyph unicode="k" glyph-name="k" horiz-adv-x="494" d="M67 0V717H157V282L347 480H459L244 263L470 0H360L157 243V0H67Z" />
<glyph unicode="l" glyph-name="l" horiz-adv-x="224" d="M67 0V717H157V0H67Z" />
<glyph unicode="m" glyph-name="m" horiz-adv-x="792" d="M67 0V480H148L153 414Q169 448 203 470T283 492Q335 492 371 468T423 400Q441 440 477 466T566 492Q639 492 682 444T725 304V0H634V286Q634 349 611 379T546 410Q497 410 469 374T440 282V0H351V286Q351
349 327 379T262 410Q213 410 185 374T157 283V0H67Z" />
<glyph unicode="n" glyph-name="n" horiz-adv-x="530" d="M67 0V480H148L153 418Q174 448 209 470T291 492Q367 492 414 444T462 303V0H373V284Q373 347 345 378T272 410Q221 410 189 377T157 287V0H67Z" />
<glyph unicode="o" glyph-name="o" horiz-adv-x="538" d="M269 -11Q203 -11 152 20T71 109T41 241Q41 316 70 372T151 460T269 492Q335 492 386 461T467 373T497 241Q497 166 468 109T387 21T269 -11ZM269 71Q330 71 368 116T407 241Q407 320 369 365T269 410Q208
410 170 365T131 241Q131 162 169 117T269 71Z" />
<glyph unicode="p" glyph-name="p" horiz-adv-x="567" d="M67 -202V480H147L150 412Q176 450 214 471T299 492Q365 492 416 462T496 375T526 241Q526 164 497 107T416 20T299 -11Q254 -11 218 8T157 62V-202H67ZM296 71Q357 71 397 116T437 241Q437 320 397 365T296
410Q235 410 196 365T156 241Q156 162 195 117T296 71Z" />
<glyph unicode="q" glyph-name="q" horiz-adv-x="567" d="M411 -202V62Q386 28 350 9T269 -11Q203 -11 152 19T71 107T41 241Q41 318 70 374T151 461T269 492Q316 492 354 471T418 412L421 480H500V-202H411ZM272 71Q333 71 372 116T412 241Q412 320 373 365T272
410Q211 410 171 365T131 241Q131 162 171 117T272 71Z" />
<glyph unicode="r" glyph-name="r" horiz-adv-x="379" d="M67 0V480H149L154 405Q174 444 214 468T302 492Q318 492 332 490T356 486V399Q345 402 328 404T291 406Q235 406 196 370T157 274V0H67Z" />
<glyph unicode="s" glyph-name="s" horiz-adv-x="460" d="M236 -10Q175 -10 122 12T32 80L91 138Q145 69 240 69Q284 69 310 85T336 138Q336 168 309 182T213 210Q168 219 133 234T76 277T55 352Q55 396 79 427T142 476T230 493Q347 493 408 418L355 357Q333 386
301 399T231 413Q188 413 167 396T146 354Q146 326 170 313T257 286Q307 275 345 257T405 210T427 135Q427 66 375 28T236 -10Z" />
<glyph unicode="t" glyph-name="t" horiz-adv-x="381" d="M259 -11Q191 -11 156 15T121 117V402H24V480H121V652H210V480H349V402H210V136Q210 97 227 84T280 70Q298 70 317 75T349 87V4Q333 -3 308 -7T259 -11Z" />
<glyph unicode="u" glyph-name="u" horiz-adv-x="521" d="M229 -11Q153 -11 106 37T59 178V480H148V196Q148 134 176 103T248 71Q299 71 331 104T364 195V480H453V0H372L368 62Q347 32 312 11T229 -11Z" />
<glyph unicode="v" glyph-name="v" horiz-adv-x="493" d="M209 0L24 480H116L250 119L382 480H470L291 0H209Z" />
<glyph unicode="w" glyph-name="w" horiz-adv-x="685" d="M168 0L24 480H110L208 132L306 480H379L477 132L576 480H662L517 0H442L343 350L244 0H168Z" />
<glyph unicode="x" glyph-name="x" horiz-adv-x="524" d="M24 0L212 256L47 480H152L262 325L373 480H474L310 258L501 0H395L261 189L128 0H24Z" />
<glyph unicode="y" glyph-name="y" horiz-adv-x="492" d="M111 -207Q68 -207 34 -199V-116Q49 -120 67 -122T103 -125Q141 -125 156 -110T186 -57L208 1L18 480H112L247 110L377 480H469L263 -84Q241 -145 208 -176T111 -207Z" />
<glyph unicode="z" glyph-name="z" horiz-adv-x="436" d="M32 0V75L290 405H47V480H397V405L138 76H404V0H32Z" />
<glyph unicode="{" glyph-name="braceleft" horiz-adv-x="406" d="M284 -149Q226 -149 194 -113T162 -4V176Q162 233 135 260T65 289V357Q107 359 134 386T162 469V650Q162 723 194 759T284 795H361V727H308Q271 727 257 708T242 645V466Q242 417 229 388T195
345T152 323Q174 317 194 302T228 258T242 180V1Q242 -42 256 -61T308 -81H361V-149H284Z" />
<glyph unicode="|" glyph-name="bar" horiz-adv-x="228" d="M77 -29V729H152V-29H77Z" />
<glyph unicode="}" glyph-name="braceright" horiz-adv-x="406" d="M45 -149V-81H98Q134 -81 149 -62T164 1V180Q164 229 177 258T212 302T254 323Q233 330 212 344T178 388T164 466V645Q164 688 149 707T98 727H45V795H121Q180 795 212 759T244 650V469Q244 413
271 386T341 357V289Q299 287 272 260T244 176V-4Q244 -77 212 -113T121 -149H45Z" />
<glyph unicode="~" glyph-name="asciitilde" horiz-adv-x="606" d="M109 269L50 319Q73 358 108 387T195 416Q221 416 250 406T309 382T364 359T409 348Q435 348 456 365T496 411L555 361Q533 323 497 294T409 265Q384 265 355 275T297 299T242 322T196 333Q168
333 147 314T109 269Z" />
<glyph unicode="&#xa0;" glyph-name="uni00A0" horiz-adv-x="280" />
<glyph unicode="&#xa1;" glyph-name="exclamdown" horiz-adv-x="287" d="M179 509L192 1H96L108 509H179ZM144 716Q172 716 191 697T211 649Q211 621 192 602T144 582Q116 582 97 601T77 649Q77 677 96 696T144 716Z" />
<glyph unicode="&#xa2;" glyph-name="cent" horiz-adv-x="883" d="M411 -67V105Q353 113 308 146T238 232T212 354Q212 422 237 475T308 561T411 603V775H468V604Q519 600 562 578T634 517L563 464Q547 488 522 502T468 520V187Q497 190 522 204T563 242L634 189Q606
152 562 130T468 103V-67H411ZM411 188V519Q362 506 332 464T302 354Q302 287 332 244T411 188Z" />
<glyph unicode="&#xa3;" glyph-name="sterling" horiz-adv-x="883" d="M245 -14L193 64Q255 104 282 155T310 263Q310 276 309 287T305 308H193V387H283Q273 413 266 442T258 513Q258 608 317 661T477 715Q563 715 621 670T693 539L595 523Q588 565 562 596T477
628Q421 628 388 600T355 513Q355 476 364 446T384 387H548V308H403Q405 298 406 287T408 263Q408 174 330 93Q344 98 356 100T378 102Q419 102 450 96T513 84T584 78Q613 78 636 85T678 106L720 22Q665 -13 584 -13Q539 -13 507 -5T446 12T378 21Q344 21 315 15T245
-14Z" />
<glyph unicode="&#xa4;" glyph-name="currency" horiz-adv-x="602" d="M310 105Q225 105 166 148L90 56L47 90L127 187Q77 251 77 352Q77 453 127 517L47 614L90 648L166 556Q225 599 310 599Q395 599 453 556L529 648L572 614L492 518Q542 453 542 352Q542 251
492 186L572 90L529 56L453 148Q395 105 310 105ZM310 195Q378 195 415 236T452 352Q452 426 415 467T310 509Q242 509 205 468T167 352Q167 277 204 236T310 195Z" />
<glyph unicode="&#xa5;" glyph-name="yen" horiz-adv-x="883" d="M396 0V177H211V251H396V300L379 328H211V402H335L160 700H268L442 398L615 700H723L548 402H672V328H504L488 300V251H672V177H488V0H396Z" />
<glyph unicode="&#xa6;" glyph-name="brokenbar" horiz-adv-x="228" d="M77 -29V279H152V-29H77ZM77 421V729H152V421H77Z" />
<glyph unicode="&#xa7;" glyph-name="section" horiz-adv-x="883" d="M440 -25Q310 -25 254 80L325 123Q364 50 437 50Q472 50 501 65T530 116Q530 144 499 167T390 221Q311 253 277 283T242 365Q242 403 266 435T335 487Q304 508 286 534T267 595Q267 642 291
673T357 720T445 736Q501 736 549 711T623 642L554 596Q540 622 512 642T448 662Q407 662 381 645T355 595Q355 566 390 543T495 493Q573 462 606 432T640 348Q640 307 614 276T550 227Q582 205 600 178T619 116Q619 71 595 40T531 -8T440 -25ZM500 258Q537 273
549 294T561 334Q561 352 551 367T514 398T434 435Q421 440 409 445T385 456Q346 440 334 419T322 379Q322 362 332 347T371 316T451 279Q464 274 476 269T500 258Z" />
<glyph unicode="&#xa8;" glyph-name="dieresis" horiz-adv-x="402" d="M106 571Q83 571 67 588T50 627Q50 650 66 666T106 683Q129 683 145 667T162 627Q162 605 146 588T106 571ZM296 571Q274 571 258 588T241 627Q241 650 257 666T296 683Q319 683 335 667T352
627Q352 605 336 588T296 571Z" />
<glyph unicode="&#xa9;" glyph-name="copyright" horiz-adv-x="840" d="M420 -10Q345 -10 280 18T166 95T88 210T60 350Q60 425 88 490T165 604T280 682T420 710Q495 710 560 682T674 605T752 490T780 350Q780 275 752 210T675 96T560 18T420 -10ZM420 52Q482
52 536 75T631 139T695 234T718 350Q718 412 695 466T631 561T536 625T420 648Q358 648 304 625T209 561T145 466T122 350Q122 288 145 234T209 139T304 75T420 52ZM420 118Q360 118 314 147T241 228T214 350Q214 421 240 473T313 554T420 583Q524 583 588 498L536
460Q516 488 487 505T420 522Q356 522 317 475T278 350Q278 273 317 226T420 179Q456 179 485 195T537 242L584 199Q556 161 514 140T420 118Z" />
<glyph unicode="&#xaa;" glyph-name="ordfeminine" horiz-adv-x="535" d="M211 285Q138 283 91 318T43 421Q43 470 74 506T155 562T258 583Q289 585 315 578T360 556V616Q360 672 337 689T264 706Q222 706 175 691T94 653L52 723Q93 749 149 767T264 785Q356 785
401 749T446 616V375Q446 356 456 353T501 358V300Q488 295 468 290T427 285Q395 285 381 297T362 340Q335 313 294 300T211 285ZM212 364Q254 365 288 376T343 409T361 461Q359 489 333 501T265 511Q228 510 197 498T148 465T129 420Q130 392 152 378T212 364ZM124
385V468H420V385H124Z" />
<glyph unicode="&#xab;" glyph-name="guillemotleft" horiz-adv-x="580" d="M44 284L206 475H304L142 284L304 93H206L44 284ZM252 284L414 475H512L350 284L512 93H414L252 284Z" />
<glyph unicode="&#xac;" glyph-name="logicalnot" horiz-adv-x="883" d="M691 187V423H98V493H761V187H691Z" />
<glyph unicode="&#xad;" glyph-name="uni00AD" horiz-adv-x="426" d="M65 209V292H361V209H65Z" />
<glyph unicode="&#xae;" glyph-name="registered" horiz-adv-x="748" d="M378 90Q314 90 258 114T159 181T92 280T68 400Q68 464 92 520T159 619T258 686T378 710Q442 710 498 686T597 619T664 520T688 400Q688 336 664 280T597 181T498 114T378 90ZM378 149Q447
149 504 183T595 274T629 400Q629 470 595 526T504 617T378 651Q309 651 252 617T161 527T127 400Q127 331 161 274T252 183T378 149ZM253 225V575H414Q463 575 492 552T521 473Q521 427 501 403T445 373L517 225H446L381 370H315V225H253ZM315 428H405Q427 428
441 437T456 473Q456 498 442 507T405 517H315V428Z" />
<glyph unicode="&#xaf;" glyph-name="overscore" horiz-adv-x="298" d="M266 625H32V687H266V625Z" />
<glyph unicode="&#xb0;" glyph-name="degree" horiz-adv-x="636" d="M147 553Q101 553 70 584T38 661Q38 706 69 737T147 769Q191 769 222 738T254 661Q254 616 223 585T147 553ZM147 595Q174 595 193 614T212 661Q212 689 193 707T146 726Q119 726 100 707T81
661Q81 634 100 615T147 595Z" />
<glyph unicode="&#xb1;" glyph-name="plusminus" horiz-adv-x="883" d="M407 153V390H112V460H407V696H476V460H771V390H476V153H407ZM112 28V97H771V28H112Z" />
<glyph unicode="&#xb2;" glyph-name="uni00B2" horiz-adv-x="323" d="M21 200V223Q21 273 47 320T139 430Q173 462 200 495T228 555Q230 594 212 612T160 630Q129 630 113 608T97 546H23Q23 619 61 660T160 701Q225 701 264 663T302 551Q301 502 268 463T190 381Q160
352 133 321T100 268H294V200H21Z" />
<glyph unicode="&#xb3;" glyph-name="uni00B3" horiz-adv-x="374" d="M166 193Q115 193 78 219T24 298L92 321Q96 311 104 298T127 274T164 264Q202 264 224 282T246 342Q246 380 224 403T160 426H125V495H160Q197 495 215 516T233 568Q233 605 212 619T164 633Q145
633 132 623T111 600T98 576L30 604Q49 651 85 678T166 705Q231 705 271 668T311 571Q311 534 291 505T240 462Q277 449 300 417T323 340Q323 273 282 233T166 193Z" />
<glyph unicode="&#xb4;" glyph-name="acute" horiz-adv-x="385" d="M125 529L95 565L302 759L360 688L125 529Z" />
<glyph unicode="&#xb5;" glyph-name="uni00B5" horiz-adv-x="520" d="M59 -194L63 480H155L152 164Q151 120 179 95T254 70Q310 70 335 98T361 181V480H452L450 0H379L373 43Q356 19 330 4T265 -11Q231 -11 201 0T151 34L150 -194H59Z" />
<glyph unicode="&#xb6;" glyph-name="paragraph" horiz-adv-x="883" d="M396 -43V381Q333 383 287 407T215 472T189 567Q189 650 246 702T400 755H676V712H609V-43H561V712H445V-43H396Z" />
<glyph unicode="&#xb7;" glyph-name="middot" horiz-adv-x="251" d="M126 359Q98 359 79 378T59 426Q59 454 78 473T126 492Q153 492 172 473T192 426Q192 398 173 379T126 359Z" />
<glyph unicode="&#xb8;" glyph-name="cedilla" horiz-adv-x="406" d="M105 -183V-135Q173 -135 200 -129T228 -107Q228 -76 131 -76L153 0H204L192 -36Q237 -41 266 -59T295 -107Q295 -151 246 -167T105 -183Z" />
<glyph unicode="&#xb9;" glyph-name="uni00B9" horiz-adv-x="297" d="M134 200V602L45 545L6 609L152 698H208V200H134Z" />
<glyph unicode="&#xba;" glyph-name="ordmasculine" horiz-adv-x="538" d="M269 282Q203 282 152 313T71 402T41 534Q41 609 70 665T151 753T269 785Q335 785 386 754T467 666T497 534Q497 459 468 402T387 314T269 282ZM269 364Q330 364 368 409T407 534Q407
613 369 658T269 703Q208 703 170 658T131 534Q131 455 169 410T269 364ZM121 385V468H417V385H121Z" />
<glyph unicode="&#xbb;" glyph-name="guillemotright" horiz-adv-x="580" d="M328 284L166 93H68L230 284L68 475H166L328 284ZM536 284L374 93H276L438 284L276 475H374L536 284Z" />
<glyph unicode="&#xbc;" glyph-name="onequarter" horiz-adv-x="841" d="M134 200V602L45 545L6 609L152 698H208V200H134ZM195 -20L150 12L660 723L704 690L195 -20ZM685 0V109H487V167L686 499H755V175H826V109H755V0H685ZM561 175H685V381L561 175Z" />
<glyph unicode="&#xbd;" glyph-name="onehalf" horiz-adv-x="873" d="M134 200V602L45 545L6 609L152 698H208V200H134ZM174 -20L129 12L639 723L683 690L174 -20ZM560 0V23Q560 73 586 120T678 230Q712 262 739 295T767 355Q769 394 751 412T699 430Q668 430
652 408T636 346H562Q562 419 600 460T699 501Q764 501 803 463T841 351Q840 302 807 263T729 181Q699 152 672 121T639 68H833V0H560Z" />
<glyph unicode="&#xbe;" glyph-name="threequarters" horiz-adv-x="870" d="M166 193Q115 193 78 219T24 298L92 321Q96 311 104 298T127 274T164 264Q202 264 224 282T246 342Q246 380 224 403T160 426H125V495H160Q197 495 215 516T233 568Q233 605 212 619T164
633Q145 633 132 623T111 600T98 576L30 604Q49 651 85 678T166 705Q231 705 271 668T311 571Q311 534 291 505T240 462Q277 449 300 417T323 340Q323 273 282 233T166 193ZM253 -20L208 12L718 723L762 690L253 -20ZM714 0V109H516V167L715 499H784V175H855V109H784V0H714ZM590
175H714V381L590 175Z" />
<glyph unicode="&#xbf;" glyph-name="questiondown" horiz-adv-x="501" d="M286 505L297 310Q223 302 180 273T137 186Q137 132 168 101T251 70Q298 70 328 96T370 166L460 149Q447 76 390 32T251 -13Q190 -13 143 10T68 79T41 186Q41 257 86 302T209 366L215
505H286ZM251 712Q279 712 298 693T318 646Q318 618 299 599T251 579Q223 579 203 598T183 646Q183 674 203 693T251 712Z" />
<glyph unicode="&#xc0;" glyph-name="Agrave" horiz-adv-x="655" d="M14 0L287 700H368L641 0H538L471 179H182L115 0H14ZM213 265H440L328 569L213 265ZM400 749L165 908L223 979L430 785L400 749Z" />
<glyph unicode="&#xc1;" glyph-name="Aacute" horiz-adv-x="655" d="M14 0L287 700H368L641 0H538L471 179H182L115 0H14ZM213 265H440L328 569L213 265ZM256 749L226 785L433 979L491 908L256 749Z" />
<glyph unicode="&#xc2;" glyph-name="Acircumflex" horiz-adv-x="655" d="M14 0L287 700H368L641 0H538L471 179H182L115 0H14ZM213 265H440L328 569L213 265ZM297 939H359L489 791L458 758L328 858L197 758L166 791L297 939Z" />
<glyph unicode="&#xc3;" glyph-name="Atilde" horiz-adv-x="655" d="M14 0L287 700H368L641 0H538L471 179H182L115 0H14ZM213 265H440L328 569L213 265ZM205 799L160 843Q174 877 200 902T258 928Q283 928 307 913T355 883T396 867Q412 867 425 883T450 925L495
883Q479 844 452 821T396 797Q372 797 348 812T301 843T259 858Q242 858 229 840T205 799Z" />
<glyph unicode="&#xc4;" glyph-name="Adieresis" horiz-adv-x="655" d="M14 0L287 700H368L641 0H538L471 179H182L115 0H14ZM213 265H440L328 569L213 265ZM233 767Q210 767 194 784T177 823Q177 846 193 862T233 879Q256 879 272 863T289 823Q289 801 273 784T233
767ZM423 767Q401 767 385 784T368 823Q368 846 384 862T423 879Q446 879 462 863T479 823Q479 801 463 784T423 767Z" />
<glyph unicode="&#xc5;" glyph-name="Aring" horiz-adv-x="655" d="M14 0L287 700H368L641 0H538L471 179H182L115 0H14ZM213 265H440L328 569L213 265ZM328 740Q284 740 253 771T222 846Q222 890 253 921T328 952Q372 952 403 921T434 846Q434 803 403 772T328
740ZM328 789Q351 789 368 806T386 846Q386 869 369 886T328 903Q304 903 288 886T271 846Q271 823 287 806T328 789Z" />
<glyph unicode="&#xc6;" glyph-name="AE" horiz-adv-x="905" d="M14 0L407 700H852V614H536V401H820V314H536V86H864V0H445V179H220L123 0H14ZM267 265H445V592L267 265Z" />
<glyph unicode="&#xc7;" glyph-name="Ccedilla" horiz-adv-x="671" d="M365 -15Q270 -15 197 30T83 157T41 350Q41 461 82 543T197 671T365 717Q451 717 519 680T630 574L549 526Q518 574 471 600T365 626Q297 626 246 592T165 497T136 350Q136 266 165 205T245
109T365 75Q424 75 471 101T549 175L630 127Q587 60 519 23T365 -15ZM278 -183V-135Q346 -135 373 -129T401 -107Q401 -76 304 -76L326 0H377L365 -36Q410 -41 439 -59T468 -107Q468 -151 419 -167T278 -183Z" />
<glyph unicode="&#xc8;" glyph-name="Egrave" horiz-adv-x="583" d="M77 0V700H530V614H168V401H498V314H168V86H542V0H77ZM364 749L129 908L187 979L394 785L364 749Z" />
<glyph unicode="&#xc9;" glyph-name="Eacute" horiz-adv-x="583" d="M77 0V700H530V614H168V401H498V314H168V86H542V0H77ZM220 749L190 785L397 979L455 908L220 749Z" />
<glyph unicode="&#xca;" glyph-name="Ecircumflex" horiz-adv-x="583" d="M77 0V700H530V614H168V401H498V314H168V86H542V0H77ZM261 939H323L453 791L422 758L292 858L161 758L130 791L261 939Z" />
<glyph unicode="&#xcb;" glyph-name="Edieresis" horiz-adv-x="583" d="M77 0V700H530V614H168V401H498V314H168V86H542V0H77ZM197 767Q174 767 158 784T141 823Q141 846 157 862T197 879Q220 879 236 863T253 823Q253 801 237 784T197 767ZM387 767Q365 767 349
784T332 823Q332 846 348 862T387 879Q410 879 426 863T443 823Q443 801 427 784T387 767Z" />
<glyph unicode="&#xcc;" glyph-name="Igrave" horiz-adv-x="245" d="M77 0V700H168V0H77ZM194 749L-41 908L17 979L224 785L194 749Z" />
<glyph unicode="&#xcd;" glyph-name="Iacute" horiz-adv-x="245" d="M77 0V700H168V0H77ZM50 749L20 785L227 979L285 908L50 749Z" />
<glyph unicode="&#xce;" glyph-name="Icircumflex" horiz-adv-x="245" d="M77 0V700H168V0H77ZM91 939H153L283 791L252 758L122 858L-9 758L-40 791L91 939Z" />
<glyph unicode="&#xcf;" glyph-name="Idieresis" horiz-adv-x="245" d="M77 0V700H168V0H77ZM27 767Q4 767 -12 784T-29 823Q-29 846 -13 862T27 879Q50 879 66 863T83 823Q83 801 67 784T27 767ZM217 767Q195 767 179 784T162 823Q162 846 178 862T217 879Q240
879 256 863T273 823Q273 801 257 784T217 767Z" />
<glyph unicode="&#xd0;" glyph-name="Eth" horiz-adv-x="673" d="M77 0V307H5V393H77V700H292Q402 700 477 657T592 536T632 350Q632 244 593 165T478 43T292 0H77ZM168 86H286Q370 86 425 119T509 212T537 350Q537 429 509 488T426 580T286 614H168V393H311V307H168V86Z" />
<glyph unicode="&#xd1;" glyph-name="Ntilde" horiz-adv-x="695" d="M77 0V700H168L527 161V700H619V0H531L168 549V0H77ZM225 799L180 843Q194 877 220 902T278 928Q303 928 327 913T375 883T416 867Q432 867 445 883T470 925L515 883Q499 844 472 821T416 797Q392
797 368 812T321 843T279 858Q262 858 249 840T225 799Z" />
<glyph unicode="&#xd2;" glyph-name="Ograve" horiz-adv-x="730" d="M365 -15Q270 -15 197 30T83 157T41 350Q41 461 82 543T197 671T365 717Q460 717 532 672T646 544T688 350Q688 239 647 157T533 30T365 -15ZM365 75Q433 75 484 109T564 204T593 350Q593 435
565 496T485 592T365 626Q297 626 246 592T165 497T136 350Q136 266 165 205T245 109T365 75ZM437 749L202 908L260 979L467 785L437 749Z" />
<glyph unicode="&#xd3;" glyph-name="Oacute" horiz-adv-x="730" d="M365 -15Q270 -15 197 30T83 157T41 350Q41 461 82 543T197 671T365 717Q460 717 532 672T646 544T688 350Q688 239 647 157T533 30T365 -15ZM365 75Q433 75 484 109T564 204T593 350Q593 435
565 496T485 592T365 626Q297 626 246 592T165 497T136 350Q136 266 165 205T245 109T365 75ZM293 749L263 785L470 979L528 908L293 749Z" />
<glyph unicode="&#xd4;" glyph-name="Ocircumflex" horiz-adv-x="730" d="M365 -15Q270 -15 197 30T83 157T41 350Q41 461 82 543T197 671T365 717Q460 717 532 672T646 544T688 350Q688 239 647 157T533 30T365 -15ZM365 75Q433 75 484 109T564 204T593 350Q593
435 565 496T485 592T365 626Q297 626 246 592T165 497T136 350Q136 266 165 205T245 109T365 75ZM334 939H396L526 791L495 758L365 858L234 758L203 791L334 939Z" />
<glyph unicode="&#xd5;" glyph-name="Otilde" horiz-adv-x="730" d="M365 -15Q270 -15 197 30T83 157T41 350Q41 461 82 543T197 671T365 717Q460 717 532 672T646 544T688 350Q688 239 647 157T533 30T365 -15ZM365 75Q433 75 484 109T564 204T593 350Q593 435
565 496T485 592T365 626Q297 626 246 592T165 497T136 350Q136 266 165 205T245 109T365 75ZM242 799L197 843Q211 877 237 902T295 928Q320 928 344 913T392 883T433 867Q449 867 462 883T487 925L532 883Q516 844 489 821T433 797Q409 797 385 812T338 843T296
858Q279 858 266 840T242 799Z" />
<glyph unicode="&#xd6;" glyph-name="Odieresis" horiz-adv-x="730" d="M365 -15Q270 -15 197 30T83 157T41 350Q41 461 82 543T197 671T365 717Q460 717 532 672T646 544T688 350Q688 239 647 157T533 30T365 -15ZM365 75Q433 75 484 109T564 204T593 350Q593
435 565 496T485 592T365 626Q297 626 246 592T165 497T136 350Q136 266 165 205T245 109T365 75ZM270 767Q247 767 231 784T214 823Q214 846 230 862T270 879Q293 879 309 863T326 823Q326 801 310 784T270 767ZM460 767Q438 767 422 784T405 823Q405 846 421
862T460 879Q483 879 499 863T516 823Q516 801 500 784T460 767Z" />
<glyph unicode="&#xd7;" glyph-name="multiply" horiz-adv-x="883" d="M190 56L142 104L393 356L142 607L190 655L442 404L693 655L742 607L491 356L741 104L693 56L442 307L190 56Z" />
<glyph unicode="&#xd8;" glyph-name="Oslash" horiz-adv-x="730" d="M365 -15Q291 -15 228 14L197 -47L143 -20L176 45Q113 91 77 169T41 350Q41 461 82 543T197 671T365 717Q440 717 503 687L533 747L588 719L556 655Q617 609 652 531T688 350Q688 239 647 157T533
30T365 -15ZM219 129L461 605Q417 626 365 626Q297 626 246 592T165 497T136 350Q136 277 158 221T219 129ZM365 75Q433 75 484 109T564 204T593 350Q593 422 572 478T512 570L270 95Q313 75 365 75Z" />
<glyph unicode="&#xd9;" glyph-name="Ugrave" horiz-adv-x="656" d="M328 -12Q201 -12 134 58T67 268V700H160V272Q160 175 203 126T328 77Q409 77 452 126T495 272V700H588V268Q588 129 521 59T328 -12ZM400 749L165 908L223 979L430 785L400 749Z" />
<glyph unicode="&#xda;" glyph-name="Uacute" horiz-adv-x="656" d="M328 -12Q201 -12 134 58T67 268V700H160V272Q160 175 203 126T328 77Q409 77 452 126T495 272V700H588V268Q588 129 521 59T328 -12ZM256 749L226 785L433 979L491 908L256 749Z" />
<glyph unicode="&#xdb;" glyph-name="Ucircumflex" horiz-adv-x="656" d="M328 -12Q201 -12 134 58T67 268V700H160V272Q160 175 203 126T328 77Q409 77 452 126T495 272V700H588V268Q588 129 521 59T328 -12ZM297 939H359L489 791L458 758L328 858L197 758L166
791L297 939Z" />
<glyph unicode="&#xdc;" glyph-name="Udieresis" horiz-adv-x="656" d="M328 -12Q201 -12 134 58T67 268V700H160V272Q160 175 203 126T328 77Q409 77 452 126T495 272V700H588V268Q588 129 521 59T328 -12ZM233 767Q210 767 194 784T177 823Q177 846 193 862T233
879Q256 879 272 863T289 823Q289 801 273 784T233 767ZM423 767Q401 767 385 784T368 823Q368 846 384 862T423 879Q446 879 462 863T479 823Q479 801 463 784T423 767Z" />
<glyph unicode="&#xdd;" glyph-name="Yacute" horiz-adv-x="608" d="M258 0V298L24 700H130L305 398L478 700H585L351 298V0H258ZM233 749L203 785L410 979L468 908L233 749Z" />
<glyph unicode="&#xde;" glyph-name="Thorn" horiz-adv-x="630" d="M77 0V700H168V544H390Q489 544 543 498T598 351Q598 250 544 204T390 157H168V0H77ZM168 243H379Q439 243 470 268T502 351Q502 407 471 432T379 458H168V243Z" />
<glyph unicode="&#xdf;" glyph-name="germandbls" horiz-adv-x="692" d="M464 -10Q404 -10 353 12T267 80L323 138Q375 69 468 69Q510 69 541 91T572 165Q572 184 560 199T522 235T452 287Q434 301 418 312T393 340T383 389Q383 417 394 438T421 479T448 520T460
567Q460 604 429 624T343 645Q286 645 247 619T208 531V0H119V402H24V480H119V540Q119 632 179 678T339 725Q442 725 494 681T547 567Q547 540 536 518T509 475T482 438T470 403Q470 386 475 380T494 363Q541 330 578 302T637 241T659 165Q659 82 605 36T464 -10Z"
/>
<glyph unicode="&#xe0;" glyph-name="agrave" horiz-adv-x="535" d="M211 -8Q138 -10 91 25T43 128Q43 177 74 213T155 269T258 290Q289 292 315 285T360 263V323Q360 379 337 396T264 413Q222 413 175 398T94 360L52 430Q93 456 149 474T264 492Q356 492 401
456T446 323V82Q446 63 456 60T501 65V7Q488 2 468 -3T427 -8Q395 -8 381 4T362 47Q335 20 294 7T211 -8ZM212 71Q254 72 288 83T343 116T361 168Q359 196 333 208T265 218Q228 217 197 205T148 172T129 127Q130 99 152 85T212 71ZM313 529L78 688L136 759L343
565L313 529Z" />
<glyph unicode="&#xe1;" glyph-name="aacute" horiz-adv-x="535" d="M211 -8Q138 -10 91 25T43 128Q43 177 74 213T155 269T258 290Q289 292 315 285T360 263V323Q360 379 337 396T264 413Q222 413 175 398T94 360L52 430Q93 456 149 474T264 492Q356 492 401
456T446 323V82Q446 63 456 60T501 65V7Q488 2 468 -3T427 -8Q395 -8 381 4T362 47Q335 20 294 7T211 -8ZM212 71Q254 72 288 83T343 116T361 168Q359 196 333 208T265 218Q228 217 197 205T148 172T129 127Q130 99 152 85T212 71ZM169 529L139 565L346 759L404
688L169 529Z" />
<glyph unicode="&#xe2;" glyph-name="acircumflex" horiz-adv-x="535" d="M211 -8Q138 -10 91 25T43 128Q43 177 74 213T155 269T258 290Q289 292 315 285T360 263V323Q360 379 337 396T264 413Q222 413 175 398T94 360L52 430Q93 456 149 474T264 492Q356 492
401 456T446 323V82Q446 63 456 60T501 65V7Q488 2 468 -3T427 -8Q395 -8 381 4T362 47Q335 20 294 7T211 -8ZM212 71Q254 72 288 83T343 116T361 168Q359 196 333 208T265 218Q228 217 197 205T148 172T129 127Q130 99 152 85T212 71ZM210 719H272L402 571L371
538L241 638L110 538L79 571L210 719Z" />
<glyph unicode="&#xe3;" glyph-name="atilde" horiz-adv-x="535" d="M211 -8Q138 -10 91 25T43 128Q43 177 74 213T155 269T258 290Q289 292 315 285T360 263V323Q360 379 337 396T264 413Q222 413 175 398T94 360L52 430Q93 456 149 474T264 492Q356 492 401
456T446 323V82Q446 63 456 60T501 65V7Q488 2 468 -3T427 -8Q395 -8 381 4T362 47Q335 20 294 7T211 -8ZM212 71Q254 72 288 83T343 116T361 168Q359 196 333 208T265 218Q228 217 197 205T148 172T129 127Q130 99 152 85T212 71ZM118 579L73 623Q87 657 113 682T171
708Q196 708 220 693T268 663T309 647Q325 647 338 663T363 705L408 663Q392 624 365 601T309 577Q285 577 261 592T214 623T172 638Q155 638 142 620T118 579Z" />
<glyph unicode="&#xe4;" glyph-name="adieresis" horiz-adv-x="535" d="M211 -8Q138 -10 91 25T43 128Q43 177 74 213T155 269T258 290Q289 292 315 285T360 263V323Q360 379 337 396T264 413Q222 413 175 398T94 360L52 430Q93 456 149 474T264 492Q356 492 401
456T446 323V82Q446 63 456 60T501 65V7Q488 2 468 -3T427 -8Q395 -8 381 4T362 47Q335 20 294 7T211 -8ZM212 71Q254 72 288 83T343 116T361 168Q359 196 333 208T265 218Q228 217 197 205T148 172T129 127Q130 99 152 85T212 71ZM146 547Q123 547 107 564T90
603Q90 626 106 642T146 659Q169 659 185 643T202 603Q202 581 186 564T146 547ZM336 547Q314 547 298 564T281 603Q281 626 297 642T336 659Q359 659 375 643T392 603Q392 581 376 564T336 547Z" />
<glyph unicode="&#xe5;" glyph-name="aring" horiz-adv-x="535" d="M211 -8Q138 -10 91 25T43 128Q43 177 74 213T155 269T258 290Q289 292 315 285T360 263V323Q360 379 337 396T264 413Q222 413 175 398T94 360L52 430Q93 456 149 474T264 492Q356 492 401 456T446
323V82Q446 63 456 60T501 65V7Q488 2 468 -3T427 -8Q395 -8 381 4T362 47Q335 20 294 7T211 -8ZM212 71Q254 72 288 83T343 116T361 168Q359 196 333 208T265 218Q228 217 197 205T148 172T129 127Q130 99 152 85T212 71ZM241 520Q197 520 166 551T135 626Q135
670 166 701T241 732Q285 732 316 701T347 626Q347 583 316 552T241 520ZM241 569Q264 569 281 586T299 626Q299 649 282 666T241 683Q217 683 201 666T184 626Q184 603 200 586T241 569Z" />
<glyph unicode="&#xe6;" glyph-name="ae" horiz-adv-x="844" d="M211 -8Q138 -10 91 25T43 128Q43 177 74 213T155 269T258 290Q289 292 315 285T360 263V323Q360 379 337 396T264 413Q222 413 175 398T94 360L52 430Q93 456 149 474T264 492Q325 492 365 477T426
424Q456 457 497 474T588 492Q654 492 700 460T771 373T796 255V231H451Q452 151 490 110T593 68Q644 68 678 93T734 168L803 123Q768 53 716 21T592 -11Q532 -11 485 12T406 78Q366 36 319 15T211 -8ZM212 71Q254 72 288 83T343 116T361 168Q359 196 333 208T265
218Q228 217 197 205T148 172T129 127Q130 99 152 85T212 71ZM455 303H707Q699 355 667 387T587 419Q535 419 501 390T455 303Z" />
<glyph unicode="&#xe7;" glyph-name="ccedilla" horiz-adv-x="488" d="M269 -11Q203 -11 152 20T71 108T41 240Q41 315 70 372T151 460T269 492Q324 492 370 470T447 404L376 351Q339 410 269 410Q208 410 170 365T131 240Q131 161 169 116T269 71Q339 71 377
129L447 77Q416 34 370 12T269 -11ZM186 -183V-135Q254 -135 281 -129T309 -107Q309 -76 212 -76L234 0H285L273 -36Q318 -41 347 -59T376 -107Q376 -151 327 -167T186 -183Z" />
<glyph unicode="&#xe8;" glyph-name="egrave" horiz-adv-x="522" d="M271 -11Q203 -11 151 18T70 103T41 240Q41 317 70 373T149 461T266 492Q332 492 378 460T449 373T474 255V231H129Q131 151 169 110T272 68Q323 68 356 93T413 168L481 123Q447 53 395 21T271
-11ZM134 303H386Q378 355 346 387T265 419Q213 419 179 390T134 303ZM333 529L98 688L156 759L363 565L333 529Z" />
<glyph unicode="&#xe9;" glyph-name="eacute" horiz-adv-x="522" d="M271 -11Q203 -11 151 18T70 103T41 240Q41 317 70 373T149 461T266 492Q332 492 378 460T449 373T474 255V231H129Q131 151 169 110T272 68Q323 68 356 93T413 168L481 123Q447 53 395 21T271
-11ZM134 303H386Q378 355 346 387T265 419Q213 419 179 390T134 303ZM189 529L159 565L366 759L424 688L189 529Z" />
<glyph unicode="&#xea;" glyph-name="ecircumflex" horiz-adv-x="522" d="M271 -11Q203 -11 151 18T70 103T41 240Q41 317 70 373T149 461T266 492Q332 492 378 460T449 373T474 255V231H129Q131 151 169 110T272 68Q323 68 356 93T413 168L481 123Q447 53 395
21T271 -11ZM134 303H386Q378 355 346 387T265 419Q213 419 179 390T134 303ZM230 719H292L422 571L391 538L261 638L130 538L99 571L230 719Z" />
<glyph unicode="&#xeb;" glyph-name="edieresis" horiz-adv-x="522" d="M271 -11Q203 -11 151 18T70 103T41 240Q41 317 70 373T149 461T266 492Q332 492 378 460T449 373T474 255V231H129Q131 151 169 110T272 68Q323 68 356 93T413 168L481 123Q447 53 395 21T271
-11ZM134 303H386Q378 355 346 387T265 419Q213 419 179 390T134 303ZM166 547Q143 547 127 564T110 603Q110 626 126 642T166 659Q189 659 205 643T222 603Q222 581 206 564T166 547ZM356 547Q334 547 318 564T301 603Q301 626 317 642T356 659Q379 659 395 643T412
603Q412 581 396 564T356 547Z" />
<glyph unicode="&#xec;" glyph-name="igrave" horiz-adv-x="254" d="M83 0V480H172V0H83ZM455 529L220 688L278 759L485 565L455 529Z" />
<glyph unicode="&#xed;" glyph-name="iacute" horiz-adv-x="254" d="M83 0V480H172V0H83ZM311 529L281 565L488 759L546 688L311 529Z" />
<glyph unicode="&#xee;" glyph-name="icircumflex" horiz-adv-x="254" d="M83 0V480H172V0H83ZM352 719H414L544 571L513 538L383 638L252 538L221 571L352 719Z" />
<glyph unicode="&#xef;" glyph-name="idieresis" horiz-adv-x="254" d="M83 0V480H172V0H83ZM288 547Q265 547 249 564T232 603Q232 626 248 642T288 659Q311 659 327 643T344 603Q344 581 328 564T288 547ZM478 547Q456 547 440 564T423 603Q423 626 439 642T478
659Q501 659 517 643T534 603Q534 581 518 564T478 547Z" />
<glyph unicode="&#xf0;" glyph-name="eth" horiz-adv-x="538" d="M269 -11Q203 -11 152 20T71 109T41 241Q41 316 70 371T151 456T269 486Q306 486 340 476Q305 527 253 572L181 500L128 553L193 617Q158 640 118 661L170 729Q191 719 212 707T256 680L324 748L377
696L315 634Q365 591 406 534T472 403T497 241Q497 166 468 109T387 21T269 -11ZM269 71Q330 71 368 116T407 241Q407 320 369 365T269 410Q208 410 170 365T131 241Q131 162 169 117T269 71Z" />
<glyph unicode="&#xf1;" glyph-name="ntilde" horiz-adv-x="530" d="M67 0V480H148L153 418Q174 448 209 470T291 492Q367 492 414 444T462 303V0H373V284Q373 347 345 378T272 410Q221 410 189 377T157 287V0H67ZM142 579L97 623Q111 657 137 682T195 708Q220
708 244 693T292 663T333 647Q349 647 362 663T387 705L432 663Q416 624 389 601T333 577Q309 577 285 592T238 623T196 638Q179 638 166 620T142 579Z" />
<glyph unicode="&#xf2;" glyph-name="ograve" horiz-adv-x="538" d="M269 -11Q203 -11 152 20T71 109T41 241Q41 316 70 372T151 460T269 492Q335 492 386 461T467 373T497 241Q497 166 468 109T387 21T269 -11ZM269 71Q330 71 368 116T407 241Q407 320 369 365T269
410Q208 410 170 365T131 241Q131 162 169 117T269 71ZM341 529L106 688L164 759L371 565L341 529Z" />
<glyph unicode="&#xf3;" glyph-name="oacute" horiz-adv-x="538" d="M269 -11Q203 -11 152 20T71 109T41 241Q41 316 70 372T151 460T269 492Q335 492 386 461T467 373T497 241Q497 166 468 109T387 21T269 -11ZM269 71Q330 71 368 116T407 241Q407 320 369 365T269
410Q208 410 170 365T131 241Q131 162 169 117T269 71ZM197 529L167 565L374 759L432 688L197 529Z" />
<glyph unicode="&#xf4;" glyph-name="ocircumflex" horiz-adv-x="538" d="M269 -11Q203 -11 152 20T71 109T41 241Q41 316 70 372T151 460T269 492Q335 492 386 461T467 373T497 241Q497 166 468 109T387 21T269 -11ZM269 71Q330 71 368 116T407 241Q407 320 369
365T269 410Q208 410 170 365T131 241Q131 162 169 117T269 71ZM238 719H300L430 571L399 538L269 638L138 538L107 571L238 719Z" />
<glyph unicode="&#xf5;" glyph-name="otilde" horiz-adv-x="538" d="M269 -11Q203 -11 152 20T71 109T41 241Q41 316 70 372T151 460T269 492Q335 492 386 461T467 373T497 241Q497 166 468 109T387 21T269 -11ZM269 71Q330 71 368 116T407 241Q407 320 369 365T269
410Q208 410 170 365T131 241Q131 162 169 117T269 71ZM146 579L101 623Q115 657 141 682T199 708Q224 708 248 693T296 663T337 647Q353 647 366 663T391 705L436 663Q420 624 393 601T337 577Q313 577 289 592T242 623T200 638Q183 638 170 620T146 579Z" />
<glyph unicode="&#xf6;" glyph-name="odieresis" horiz-adv-x="538" d="M269 -11Q203 -11 152 20T71 109T41 241Q41 316 70 372T151 460T269 492Q335 492 386 461T467 373T497 241Q497 166 468 109T387 21T269 -11ZM269 71Q330 71 368 116T407 241Q407 320 369
365T269 410Q208 410 170 365T131 241Q131 162 169 117T269 71ZM174 547Q151 547 135 564T118 603Q118 626 134 642T174 659Q197 659 213 643T230 603Q230 581 214 564T174 547ZM364 547Q342 547 326 564T309 603Q309 626 325 642T364 659Q387 659 403 643T420
603Q420 581 404 564T364 547Z" />
<glyph unicode="&#xf7;" glyph-name="divide" horiz-adv-x="883" d="M112 321V391H771V321H112ZM442 56Q414 56 394 76T374 124Q374 152 394 171T442 191Q470 191 489 172T509 124Q509 96 490 76T442 56ZM442 521Q414 521 394 540T374 588Q374 616 394 635T442
655Q470 655 489 636T509 588Q509 560 490 541T442 521Z" />
<glyph unicode="&#xf8;" glyph-name="oslash" horiz-adv-x="538" d="M269 -11Q214 -11 169 11L143 -33L95 -5L122 42Q84 75 63 126T41 241Q41 316 70 372T151 460T269 492Q323 492 369 469L395 514L443 486L416 439Q453 405 475 355T497 241Q497 166 468 109T387
21T269 -11ZM167 120L327 397Q301 410 269 410Q208 410 170 365T131 241Q131 203 140 172T167 120ZM269 71Q330 71 368 116T407 241Q407 279 398 309T371 362L211 84Q237 71 269 71Z" />
<glyph unicode="&#xf9;" glyph-name="ugrave" horiz-adv-x="521" d="M229 -11Q153 -11 106 37T59 178V480H148V196Q148 134 176 103T248 71Q299 71 331 104T364 195V480H453V0H372L368 62Q347 32 312 11T229 -11ZM333 529L98 688L156 759L363 565L333 529Z" />
<glyph unicode="&#xfa;" glyph-name="uacute" horiz-adv-x="521" d="M229 -11Q153 -11 106 37T59 178V480H148V196Q148 134 176 103T248 71Q299 71 331 104T364 195V480H453V0H372L368 62Q347 32 312 11T229 -11ZM189 529L159 565L366 759L424 688L189 529Z" />
<glyph unicode="&#xfb;" glyph-name="ucircumflex" horiz-adv-x="521" d="M229 -11Q153 -11 106 37T59 178V480H148V196Q148 134 176 103T248 71Q299 71 331 104T364 195V480H453V0H372L368 62Q347 32 312 11T229 -11ZM230 719H292L422 571L391 538L261 638L130
538L99 571L230 719Z" />
<glyph unicode="&#xfc;" glyph-name="udieresis" horiz-adv-x="521" d="M229 -11Q153 -11 106 37T59 178V480H148V196Q148 134 176 103T248 71Q299 71 331 104T364 195V480H453V0H372L368 62Q347 32 312 11T229 -11ZM166 547Q143 547 127 564T110 603Q110 626
126 642T166 659Q189 659 205 643T222 603Q222 581 206 564T166 547ZM356 547Q334 547 318 564T301 603Q301 626 317 642T356 659Q379 659 395 643T412 603Q412 581 396 564T356 547Z" />
<glyph unicode="&#xfd;" glyph-name="yacute" horiz-adv-x="492" d="M111 -207Q68 -207 34 -199V-116Q49 -120 67 -122T103 -125Q141 -125 156 -110T186 -57L208 1L18 480H112L247 110L377 480H469L263 -84Q241 -145 208 -176T111 -207ZM175 529L145 565L352 759L410
688L175 529Z" />
<glyph unicode="&#xfe;" glyph-name="thorn" horiz-adv-x="567" d="M67 -202V700H157V419Q182 454 218 473T299 492Q365 492 416 462T496 375T526 241Q526 164 497 107T416 20T299 -11Q254 -11 218 8T157 62V-202H67ZM296 71Q357 71 397 116T437 241Q437 320 397
365T296 410Q235 410 196 365T156 241Q156 162 195 117T296 71Z" />
<glyph unicode="&#xff;" glyph-name="ydieresis" horiz-adv-x="492" d="M111 -207Q68 -207 34 -199V-116Q49 -120 67 -122T103 -125Q141 -125 156 -110T186 -57L208 1L18 480H112L247 110L377 480H469L263 -84Q241 -145 208 -176T111 -207ZM152 547Q129 547 113
564T96 603Q96 626 112 642T152 659Q175 659 191 643T208 603Q208 581 192 564T152 547ZM342 547Q320 547 304 564T287 603Q287 626 303 642T342 659Q365 659 381 643T398 603Q398 581 382 564T342 547Z" />
<glyph unicode="&#x2013;" glyph-name="endash" horiz-adv-x="530" d="M65 209V292H465V209H65Z" />
<glyph unicode="&#x2014;" glyph-name="emdash" horiz-adv-x="1000" d="M0 358V402H1000V358H0Z" />
<glyph unicode="&#x2018;" glyph-name="quoteleft" horiz-adv-x="260" d="M175 722L200 675Q154 663 127 634T99 569Q99 552 105 541Q113 555 126 564T156 573Q181 573 198 557T216 513Q216 485 196 470T148 453Q104 452 74 485T44 571Q44 627 80 665T175 722Z" />
<glyph unicode="&#x2019;" glyph-name="quoteright" horiz-adv-x="260" d="M85 443L59 489Q106 501 133 530T161 595Q161 604 159 611T155 623Q148 610 134 601T104 591Q79 591 62 607T44 652Q44 679 64 695T112 712Q156 714 186 681T216 593Q216 538 180 500T85 443Z" />
<glyph unicode="&#x201a;" glyph-name="quotesinglbase" horiz-adv-x="289" d="M100 -158L74 -111Q121 -99 148 -70T175 -5Q175 11 170 23Q163 9 149 0T119 -9Q94 -9 77 7T59 51Q59 79 79 94T127 111Q171 113 201 80T231 -7Q231 -62 195 -100T100 -158Z" />
<glyph unicode="&#x201c;" glyph-name="quotedblleft" horiz-adv-x="473" d="M388 722L414 675Q368 663 340 634T312 569Q312 560 314 553T318 541Q326 555 339 564T369 573Q394 573 411 557T429 513Q429 485 409 470T361 453Q318 452 288 485T257 571Q257 627
293 665T388 722ZM175 722L200 675Q154 663 127 634T99 569Q99 552 105 541Q113 555 126 564T156 573Q181 573 198 557T216 513Q216 485 196 470T148 453Q104 452 74 485T44 571Q44 627 80 665T175 722Z" />
<glyph unicode="&#x201d;" glyph-name="quotedblright" horiz-adv-x="473" d="M85 443L59 489Q106 501 133 530T161 595Q161 604 159 611T155 623Q148 610 134 601T104 591Q79 591 62 607T44 652Q44 679 64 695T112 712Q156 714 186 681T216 593Q216 538 180 500T85
443ZM298 443L273 489Q319 501 346 530T374 595Q374 614 368 623Q361 610 348 601T317 591Q292 591 275 607T257 652Q257 679 277 695T325 712Q369 714 399 681T429 593Q429 538 393 500T298 443Z" />
<glyph unicode="&#x201e;" glyph-name="quotedblbase" horiz-adv-x="499" d="M310 -158L284 -111Q331 -99 358 -70T385 -5Q385 11 380 23Q373 9 359 0T329 -9Q304 -9 287 7T269 51Q269 79 289 94T337 111Q381 113 411 80T441 -7Q441 -62 405 -100T310 -158ZM100
-158L74 -111Q121 -99 148 -70T175 -5Q175 11 170 23Q163 9 149 0T119 -9Q94 -9 77 7T59 51Q59 79 79 94T127 111Q171 113 201 80T231 -7Q231 -62 195 -100T100 -158Z" />
<glyph unicode="&#x2022;" glyph-name="bullet" horiz-adv-x="329" d="M165 300Q125 300 97 328T68 397Q68 437 96 464T165 492Q204 492 232 465T261 397Q261 357 233 329T165 300Z" />
<glyph unicode="&#x2039;" glyph-name="guilsinglleft" horiz-adv-x="384" d="M44 284L218 475H316L142 284L316 93H218L44 284Z" />
<glyph unicode="&#x203a;" glyph-name="guilsinglright" horiz-adv-x="384" d="M340 284L166 93H68L242 284L68 475H166L340 284Z" />
</font>
</defs>
</svg>
