<svg id="Gruppe_2" data-name="Gruppe 2" xmlns="http://www.w3.org/2000/svg" xmlns:xlink="http://www.w3.org/1999/xlink" width="140.94" height="213.5" viewBox="0 0 140.94 213.5">
  <defs>
    <clipPath id="clip-path">
      <rect id="Rechteck_4" data-name="Rechteck 4" width="140.94" height="213.5" fill="#3e4e58"/>
    </clipPath>
  </defs>
  <g id="Gruppe_1" data-name="Gruppe 1" clip-path="url(#clip-path)">
    <path id="Pfad_1" data-name="Pfad 1" d="M120.03,140.94H20.911A20.911,20.911,0,0,1,0,120.029V20.911A20.911,20.911,0,0,1,20.911,0H120.03A20.911,20.911,0,0,1,140.94,20.911v99.118A20.911,20.911,0,0,1,120.03,140.94" fill="#3e4e58"/>
    <path id="Pfad_2" data-name="Pfad 2" d="M3.13,276.047a3.945,3.945,0,0,0,.746-.067,1.7,1.7,0,0,0,.622-.243,1.251,1.251,0,0,0,.425-.471,1.586,1.586,0,0,0,.155-.741,1.228,1.228,0,0,0-.5-1.072,2.471,2.471,0,0,0-1.445-.358H.705v2.953Zm0-3.553a2.44,2.44,0,0,0,.735-.1,1.514,1.514,0,0,0,.518-.269,1.108,1.108,0,0,0,.311-.4,1.167,1.167,0,0,0,.1-.487q0-1.387-1.668-1.388H.705v2.642Zm0-3.242a4.492,4.492,0,0,1,.9.088,2.173,2.173,0,0,1,.757.3,1.6,1.6,0,0,1,.523.559,1.9,1.9,0,0,1,.1,1.43,1.713,1.713,0,0,1-.264.5,1.677,1.677,0,0,1-.4.378,1.5,1.5,0,0,1-.523.218v.021a1.742,1.742,0,0,1,1.14.585,1.8,1.8,0,0,1,.425,1.217,2.932,2.932,0,0,1-.031.4,1.961,1.961,0,0,1-.124.456,1.923,1.923,0,0,1-.269.461,1.593,1.593,0,0,1-.472.4,2.841,2.841,0,0,1-.724.28,4.29,4.29,0,0,1-1.031.109H0v-7.4Z" transform="translate(0 -63.293)" fill="#3e4e58"/>
    <path id="Pfad_3" data-name="Pfad 3" d="M14.1,273.747l-1.43-3.792-1.481,3.792Zm-1-4.5,2.9,7.4h-.757l-.9-2.3H10.969l-.891,2.3H9.331l2.974-7.4Z" transform="translate(-2.193 -63.293)" fill="#3e4e58"/>
    <path id="Pfad_4" data-name="Pfad 4" d="M20.884,269.251v4.579a3.582,3.582,0,0,0,.145,1.093,1.819,1.819,0,0,0,.425.735,1.642,1.642,0,0,0,.684.415,2.977,2.977,0,0,0,.912.129,3.015,3.015,0,0,0,.922-.129,1.642,1.642,0,0,0,.684-.415,1.837,1.837,0,0,0,.425-.735,3.606,3.606,0,0,0,.145-1.093v-4.579h.7v4.734a3.622,3.622,0,0,1-.16,1.082,2.38,2.38,0,0,1-.508.9,2.415,2.415,0,0,1-.891.606,4,4,0,0,1-2.631,0,2.412,2.412,0,0,1-.89-.606,2.37,2.37,0,0,1-.508-.9,3.6,3.6,0,0,1-.161-1.082v-4.734Z" transform="translate(-4.744 -63.293)" fill="#3e4e58"/>
    <path id="Pfad_5" data-name="Pfad 5" d="M36.609,276.6l-.093-1.347H36.5a2.507,2.507,0,0,1-1.067,1.145,2.665,2.665,0,0,1-.711.264,3.652,3.652,0,0,1-.782.083,3.482,3.482,0,0,1-1.528-.317,3.164,3.164,0,0,1-1.093-.844,3.573,3.573,0,0,1-.652-1.222,5,5,0,0,1,0-2.922,3.631,3.631,0,0,1,.652-1.227,3.145,3.145,0,0,1,1.093-.85,3.494,3.494,0,0,1,1.528-.316,3.815,3.815,0,0,1,1.1.155,2.84,2.84,0,0,1,.922.467,2.809,2.809,0,0,1,.684.766,2.957,2.957,0,0,1,.383,1.067h-.7a1.664,1.664,0,0,0-.213-.648,2.234,2.234,0,0,0-.486-.6,2.505,2.505,0,0,0-1.684-.611,2.663,2.663,0,0,0-1.264.279,2.506,2.506,0,0,0-.865.74,3.2,3.2,0,0,0-.5,1.042,4.479,4.479,0,0,0,0,2.377,3.2,3.2,0,0,0,.5,1.046,2.5,2.5,0,0,0,.865.74,2.663,2.663,0,0,0,1.264.28,2.8,2.8,0,0,0,1.093-.2,2.3,2.3,0,0,0,.813-.565,2.359,2.359,0,0,0,.5-.86,3.266,3.266,0,0,0,.156-1.088H33.978v-.6h3.139v3.76Z" transform="translate(-7.157 -63.245)" fill="#3e4e58"/>
    <path id="Pfad_6" data-name="Pfad 6" d="M45.632,272.763a1.88,1.88,0,0,0,.61-.1,1.514,1.514,0,0,0,.508-.285,1.4,1.4,0,0,0,.347-.451,1.367,1.367,0,0,0,.129-.606,1.454,1.454,0,0,0-.394-1.078,1.634,1.634,0,0,0-1.2-.394H43v2.911Zm.051-3.512a3.223,3.223,0,0,1,.865.114,2.074,2.074,0,0,1,.714.347,1.668,1.668,0,0,1,.487.6,1.938,1.938,0,0,1,.181.865,2.076,2.076,0,0,1-.363,1.222,1.653,1.653,0,0,1-1.077.663v.021a1.651,1.651,0,0,1,.6.191,1.205,1.205,0,0,1,.389.358,1.483,1.483,0,0,1,.217.5,3.735,3.735,0,0,1,.089.617c.006.125.014.277.021.456s.02.361.041.544a3.306,3.306,0,0,0,.1.518.993.993,0,0,0,.181.379h-.776a.88.88,0,0,1-.1-.254,2.247,2.247,0,0,1-.052-.311c-.01-.107-.019-.213-.026-.317s-.014-.193-.021-.269q-.021-.394-.067-.782a2.159,2.159,0,0,0-.2-.694,1.225,1.225,0,0,0-.435-.493,1.316,1.316,0,0,0-.782-.165H43v3.284h-.7v-7.4Z" transform="translate(-9.943 -63.293)" fill="#3e4e58"/>
    <path id="Pfad_7" data-name="Pfad 7" d="M53.292,269.251v4.579a3.608,3.608,0,0,0,.145,1.093,1.829,1.829,0,0,0,.425.735,1.637,1.637,0,0,0,.684.415,2.977,2.977,0,0,0,.912.129,3.015,3.015,0,0,0,.922-.129,1.642,1.642,0,0,0,.684-.415,1.837,1.837,0,0,0,.425-.735,3.608,3.608,0,0,0,.145-1.093v-4.579h.7v4.734a3.622,3.622,0,0,1-.16,1.082,2.39,2.39,0,0,1-.508.9,2.415,2.415,0,0,1-.891.606,4,4,0,0,1-2.631,0,2.406,2.406,0,0,1-.89-.606,2.37,2.37,0,0,1-.508-.9,3.574,3.574,0,0,1-.161-1.082v-4.734Z" transform="translate(-12.362 -63.293)" fill="#3e4e58"/>
    <path id="Pfad_8" data-name="Pfad 8" d="M64.088,269.251l4.31,6.257h.021v-6.257h.7v7.4h-.787l-4.31-6.257h-.021v6.257h-.7v-7.4Z" transform="translate(-14.88 -63.293)" fill="#3e4e58"/>
    <path id="Pfad_9" data-name="Pfad 9" d="M76.409,276.047a4.851,4.851,0,0,0,1.373-.171,2.2,2.2,0,0,0,.948-.544,2.241,2.241,0,0,0,.549-.964,5.813,5.813,0,0,0,0-2.839,2.243,2.243,0,0,0-.549-.963,2.2,2.2,0,0,0-.948-.544,4.849,4.849,0,0,0-1.373-.171h-1.5v6.2Zm.353-6.8a3.458,3.458,0,0,1,2.543.948,4.855,4.855,0,0,1,0,5.5,3.458,3.458,0,0,1-2.543.948H74.2v-7.4Z" transform="translate(-17.443 -63.293)" fill="#3e4e58"/>
    <path id="Pfad_10" data-name="Pfad 10" d="M93.082,276.047a3.945,3.945,0,0,0,.746-.067,1.7,1.7,0,0,0,.622-.243,1.251,1.251,0,0,0,.425-.471,1.576,1.576,0,0,0,.155-.741,1.228,1.228,0,0,0-.5-1.072,2.47,2.47,0,0,0-1.445-.358H90.657v2.953Zm0-3.553a2.436,2.436,0,0,0,.735-.1,1.517,1.517,0,0,0,.519-.269,1.114,1.114,0,0,0,.311-.4,1.168,1.168,0,0,0,.1-.487q0-1.387-1.668-1.388H90.657v2.642Zm0-3.242a4.5,4.5,0,0,1,.9.088,2.175,2.175,0,0,1,.756.3,1.6,1.6,0,0,1,.523.559,1.888,1.888,0,0,1,.1,1.43,1.713,1.713,0,0,1-.264.5,1.678,1.678,0,0,1-.4.378,1.489,1.489,0,0,1-.523.218v.021a1.742,1.742,0,0,1,1.14.585,1.8,1.8,0,0,1,.425,1.217,2.816,2.816,0,0,1-.031.4,1.96,1.96,0,0,1-.124.456,1.922,1.922,0,0,1-.269.461,1.593,1.593,0,0,1-.472.4,2.83,2.83,0,0,1-.724.28,4.29,4.29,0,0,1-1.031.109H89.953v-7.4Z" transform="translate(-21.145 -63.293)" fill="#3e4e58"/>
    <path id="Pfad_11" data-name="Pfad 11" d="M100.69,274.087a3.181,3.181,0,0,0,.5,1.046,2.493,2.493,0,0,0,.864.74,2.669,2.669,0,0,0,1.264.28,2.635,2.635,0,0,0,1.258-.28,2.505,2.505,0,0,0,.86-.74,3.194,3.194,0,0,0,.5-1.046,4.478,4.478,0,0,0,0-2.377,3.205,3.205,0,0,0-.5-1.041,2.515,2.515,0,0,0-.86-.74,2.635,2.635,0,0,0-1.258-.28,2.669,2.669,0,0,0-1.264.28,2.5,2.5,0,0,0-.864.74,3.192,3.192,0,0,0-.5,1.041,4.479,4.479,0,0,0,0,2.377m-.647-2.647a3.641,3.641,0,0,1,.652-1.228,3.145,3.145,0,0,1,1.093-.85,3.851,3.851,0,0,1,3.051,0,3.175,3.175,0,0,1,1.088.85,3.655,3.655,0,0,1,.652,1.228,5.019,5.019,0,0,1,0,2.921,3.593,3.593,0,0,1-.652,1.222,3.187,3.187,0,0,1-1.088.844,3.841,3.841,0,0,1-3.051,0,3.157,3.157,0,0,1-1.093-.844,3.579,3.579,0,0,1-.652-1.222,5.019,5.019,0,0,1,0-2.921" transform="translate(-23.466 -63.245)" fill="#3e4e58"/>
    <path id="Pfad_12" data-name="Pfad 12" d="M112.739,269.251l2.455,6.485,2.549-6.485h1.036v7.4h-.7v-6.392h-.021l-2.528,6.392h-.663l-2.434-6.392h-.021v6.392h-.7v-7.4Z" transform="translate(-26.258 -63.293)" fill="#3e4e58"/>
    <path id="Pfad_13" data-name="Pfad 13" d="M127.332,276.047a3.937,3.937,0,0,0,.745-.067,1.69,1.69,0,0,0,.622-.243,1.25,1.25,0,0,0,.425-.471,1.576,1.576,0,0,0,.155-.741,1.228,1.228,0,0,0-.5-1.072,2.469,2.469,0,0,0-1.444-.358h-2.425v2.953Zm0-3.553a2.444,2.444,0,0,0,.735-.1,1.528,1.528,0,0,0,.518-.269,1.125,1.125,0,0,0,.311-.4,1.18,1.18,0,0,0,.1-.487q0-1.387-1.668-1.388h-2.425v2.642Zm0-3.242a4.49,4.49,0,0,1,.895.088,2.173,2.173,0,0,1,.757.3,1.6,1.6,0,0,1,.523.559,1.888,1.888,0,0,1,.1,1.43,1.713,1.713,0,0,1-.264.5,1.678,1.678,0,0,1-.4.378,1.483,1.483,0,0,1-.523.218v.021a1.741,1.741,0,0,1,1.14.585,1.8,1.8,0,0,1,.425,1.217,2.816,2.816,0,0,1-.031.4,1.961,1.961,0,0,1-.124.456,1.9,1.9,0,0,1-.269.461,1.6,1.6,0,0,1-.471.4,2.86,2.86,0,0,1-.725.28,4.287,4.287,0,0,1-1.03.109H124.2v-7.4Z" transform="translate(-29.197 -63.293)" fill="#3e4e58"/>
    <path id="Pfad_14" data-name="Pfad 14" d="M139.7,269.251v.6h-4.4v2.673h4.123v.6H135.3v2.921h4.454v.6h-5.159v-7.4Z" transform="translate(-31.638 -63.293)" fill="#3e4e58"/>
    <path id="Pfad_15" data-name="Pfad 15" d="M144.75,269.251l4.31,6.257h.021v-6.257h.7v7.4H149l-4.309-6.257h-.021v6.257h-.7v-7.4Z" transform="translate(-33.841 -63.293)" fill="#3e4e58"/>
    <path id="Pfad_16" data-name="Pfad 16" d="M159.557,269.251v.6h-3.988v2.673h3.542v.6h-3.542v3.522h-.7v-7.4Z" transform="translate(-36.404 -63.293)" fill="#3e4e58"/>
    <path id="Pfad_17" data-name="Pfad 17" d="M166.827,272.763a1.881,1.881,0,0,0,.611-.1,1.522,1.522,0,0,0,.508-.285,1.409,1.409,0,0,0,.347-.451,1.367,1.367,0,0,0,.129-.606,1.457,1.457,0,0,0-.394-1.078,1.635,1.635,0,0,0-1.2-.394H164.2v2.911Zm.052-3.512a3.223,3.223,0,0,1,.865.114,2.074,2.074,0,0,1,.714.347,1.668,1.668,0,0,1,.487.6,1.938,1.938,0,0,1,.181.865,2.076,2.076,0,0,1-.363,1.222,1.655,1.655,0,0,1-1.077.663v.021a1.651,1.651,0,0,1,.6.191,1.213,1.213,0,0,1,.389.358,1.484,1.484,0,0,1,.217.5,3.736,3.736,0,0,1,.089.617q.009.187.02.456t.042.544a3.22,3.22,0,0,0,.1.518.992.992,0,0,0,.181.379h-.776a.878.878,0,0,1-.1-.254,2.247,2.247,0,0,1-.052-.311c-.01-.107-.019-.213-.026-.317s-.014-.193-.021-.269c-.014-.262-.037-.523-.067-.782a2.158,2.158,0,0,0-.2-.694,1.225,1.225,0,0,0-.435-.493,1.315,1.315,0,0,0-.782-.165H164.2v3.284h-.705v-7.4Z" transform="translate(-38.432 -63.293)" fill="#3e4e58"/>
    <path id="Pfad_18" data-name="Pfad 18" d="M178.986,269.251v.6h-4.4v2.673h4.123v.6h-4.123v2.921h4.455v.6h-5.159v-7.4Z" transform="translate(-40.874 -63.293)" fill="#3e4e58"/>
    <rect id="Rechteck_1" data-name="Rechteck 1" width="0.705" height="7.398" transform="translate(140.236 205.958)" fill="#2d3b46"/>
    <path id="Pfad_19" data-name="Pfad 19" d="M13.666,245.075a8.794,8.794,0,0,0,1.849-.189,4.546,4.546,0,0,0,1.557-.631,3.192,3.192,0,0,0,1.072-1.2,4.14,4.14,0,0,0,.4-1.934,3.884,3.884,0,0,0-1.3-3.3,5.564,5.564,0,0,0-3.448-.988H6.6v8.241Zm-.379-12.741a4.74,4.74,0,0,0,2.9-.841,3.176,3.176,0,0,0,1.136-2.733,3.487,3.487,0,0,0-.379-1.723,2.809,2.809,0,0,0-1.009-1.052,4.287,4.287,0,0,0-1.451-.526,9.648,9.648,0,0,0-1.7-.147H6.6v7.021Zm.841-12.151a18.688,18.688,0,0,1,3.91.379,8.435,8.435,0,0,1,3.028,1.24,5.783,5.783,0,0,1,1.955,2.292,8.059,8.059,0,0,1,.694,3.532,6.585,6.585,0,0,1-1.03,3.784,7.5,7.5,0,0,1-3.049,2.481,7.215,7.215,0,0,1,4.141,2.8,9.182,9.182,0,0,1,.484,8.745,7.66,7.66,0,0,1-2.376,2.712A10.517,10.517,0,0,1,18.48,249.7a15.376,15.376,0,0,1-3.932.5H0V220.183Z" transform="translate(0 -51.759)" fill="#3e4e58"/>
    <rect id="Rechteck_2" data-name="Rechteck 2" width="12.656" height="5.13" transform="translate(28.929 179.95)" fill="#3e4e58"/>
    <path id="Pfad_20" data-name="Pfad 20" d="M70.362,220.183l7.022,20.645h.084l6.643-20.645H93.4V250.2H87.222V228.928h-.083L79.78,250.2H74.693l-7.359-21.065h-.083V250.2H61.069V220.183Z" transform="translate(-14.356 -51.759)" fill="#3e4e58"/>
    <path id="Pfad_21" data-name="Pfad 21" d="M116.265,238.779A9.91,9.91,0,0,0,117.673,242a7.2,7.2,0,0,0,2.523,2.291,8.736,8.736,0,0,0,7.568,0A7.223,7.223,0,0,0,130.287,242a9.96,9.96,0,0,0,1.408-3.217,15.275,15.275,0,0,0,.441-3.679,16.422,16.422,0,0,0-.441-3.826,10.154,10.154,0,0,0-1.408-3.3,7.162,7.162,0,0,0-2.523-2.313,8.736,8.736,0,0,0-7.568,0,7.14,7.14,0,0,0-2.523,2.313,10.1,10.1,0,0,0-1.408,3.3,16.421,16.421,0,0,0-.441,3.826,15.274,15.274,0,0,0,.441,3.679m-6.034-9.923a15,15,0,0,1,2.9-5.025,13.268,13.268,0,0,1,4.646-3.363,16.437,16.437,0,0,1,12.425,0,13.318,13.318,0,0,1,4.625,3.363,15.009,15.009,0,0,1,2.9,5.025,18.747,18.747,0,0,1,1.009,6.243,18.119,18.119,0,0,1-1.009,6.118,14.613,14.613,0,0,1-2.9,4.941,13.329,13.329,0,0,1-4.625,3.3,16.7,16.7,0,0,1-12.425,0,13.279,13.279,0,0,1-4.646-3.3,14.6,14.6,0,0,1-2.9-4.941,18.12,18.12,0,0,1-1.009-6.118,18.747,18.747,0,0,1,1.009-6.243" transform="translate(-25.675 -51.539)" fill="#3e4e58"/>
    <path id="Pfad_22" data-name="Pfad 22" d="M158.154,242.584a4.766,4.766,0,0,0,1.451,1.7,6.242,6.242,0,0,0,2.123.967,10.032,10.032,0,0,0,2.523.316,13.173,13.173,0,0,0,1.892-.147,6.564,6.564,0,0,0,1.892-.568,4.109,4.109,0,0,0,1.472-1.156,2.906,2.906,0,0,0,.588-1.871,2.635,2.635,0,0,0-.778-1.977,6.171,6.171,0,0,0-2.039-1.261,20.321,20.321,0,0,0-2.859-.883q-1.6-.379-3.237-.841a28.711,28.711,0,0,1-3.28-1.03,11.218,11.218,0,0,1-2.859-1.577,7.415,7.415,0,0,1-2.04-2.417,7.342,7.342,0,0,1-.777-3.511,7.859,7.859,0,0,1,.988-4.016,8.943,8.943,0,0,1,2.585-2.838,11.282,11.282,0,0,1,3.616-1.682,15.426,15.426,0,0,1,4.037-.546,19.107,19.107,0,0,1,4.52.525,11.279,11.279,0,0,1,3.848,1.7,8.617,8.617,0,0,1,2.67,3.006,9.225,9.225,0,0,1,.988,4.436h-6.391a5.324,5.324,0,0,0-.568-2.228,3.726,3.726,0,0,0-1.283-1.388,5.439,5.439,0,0,0-1.829-.714,11.273,11.273,0,0,0-2.249-.21,7.759,7.759,0,0,0-1.6.168,4.285,4.285,0,0,0-1.451.588,3.651,3.651,0,0,0-1.072,1.052,2.818,2.818,0,0,0-.421,1.6,2.684,2.684,0,0,0,.337,1.43,2.993,2.993,0,0,0,1.324,1.01,16.917,16.917,0,0,0,2.733.925q1.744.462,4.562,1.177.841.169,2.333.61a11.2,11.2,0,0,1,2.965,1.408,8.988,8.988,0,0,1,2.544,2.586,7.362,7.362,0,0,1,1.072,4.141,9.164,9.164,0,0,1-.8,3.826,8.3,8.3,0,0,1-2.375,3.049,11.4,11.4,0,0,1-3.91,2,18.486,18.486,0,0,1-5.4.715,18.979,18.979,0,0,1-4.814-.61,12.1,12.1,0,0,1-4.121-1.913,9.445,9.445,0,0,1-2.838-3.322,9.911,9.911,0,0,1-1.01-4.793h6.392a5.5,5.5,0,0,0,.546,2.565" transform="translate(-35.546 -51.539)" fill="#3e4e58"/>
    <path id="Pfad_23" data-name="Pfad 23" d="M61.245,105.907H52.314v10.412h9.369c-.317-3.726-.441-7.219-.438-10.412" transform="translate(-12.298 -24.896)" fill="#ec6607"/>
    <path id="Pfad_24" data-name="Pfad 24" d="M70.761,105.907c0,3.185.122,6.682.447,10.412h8.221V105.907Z" transform="translate(-16.634 -24.896)" fill="#ec6607"/>
    <path id="Pfad_25" data-name="Pfad 25" d="M63.51,66.962l-4.02,7.822H76.78V66.962Z" transform="translate(-13.984 -15.741)" fill="#ec6607"/>
    <rect id="Rechteck_3" data-name="Rechteck 3" width="5.275" height="13.174" transform="translate(52.277 32.695)" fill="#ec6607"/>
    <path id="Pfad_26" data-name="Pfad 26" d="M54.182,126.96l6.677,13.276h4.434a115.879,115.879,0,0,1-2.565-13.276Z" transform="translate(-12.737 -29.845)" fill="#ec6607"/>
    <path id="Pfad_27" data-name="Pfad 27" d="M52.314,90.511V95.5h9.048a102.039,102.039,0,0,1,1.15-11.644H55.405Z" transform="translate(-12.298 -19.712)" fill="#ec6607"/>
    <path id="Pfad_28" data-name="Pfad 28" d="M118.811,85.454q-3.536-5.167-10.718-7.236a19.362,19.362,0,0,0,7.889-6.421A17.021,17.021,0,0,0,118.649,62a20.843,20.843,0,0,0-1.8-9.141,14.932,14.932,0,0,0-5.059-5.931,21.882,21.882,0,0,0-7.834-3.21,48.379,48.379,0,0,0-10.121-.98H79.287V56.018H90.356a24.988,24.988,0,0,1,4.408.381,11.045,11.045,0,0,1,3.753,1.36,7.264,7.264,0,0,1,2.612,2.721,9.038,9.038,0,0,1,.979,4.461q0,4.9-2.938,7.074a12.279,12.279,0,0,1-7.509,2.176H72.1a97.756,97.756,0,0,0-1.184,11.644H92.967a14.4,14.4,0,0,1,8.923,2.557q3.372,2.558,3.373,8.543a10.7,10.7,0,0,1-1.033,5,8.246,8.246,0,0,1-2.774,3.1,11.766,11.766,0,0,1-4.027,1.632,22.8,22.8,0,0,1-4.788.49H71.869a108.855,108.855,0,0,0,2.66,13.276h20.4a39.74,39.74,0,0,0,10.175-1.306,27.233,27.233,0,0,0,8.815-4.026,19.822,19.822,0,0,0,6.147-7.019,21.392,21.392,0,0,0,2.286-10.175,21.536,21.536,0,0,0-3.538-12.46" transform="translate(-16.671 -10.047)" fill="#fff"/>
    <path id="Pfad_29" data-name="Pfad 29" d="M55.947,42.636c-3.739-.74-6.208.967-8.226,5.237-2.537,5.37-5.766,10.195-8.642,15.305-.646,1.146-1.522,2.478-1.541,3.742-.132,9.13-.071,18.265-.071,27.514h6.069a11.936,11.936,0,0,0,.212-2.746c-2.012-11.528-.415-27.143,7.011-32.185.82-.558,3.947-2.279,5.188-3.653Z" transform="translate(-8.804 -9.983)" fill="#ec6607"/>
  </g>
</svg>
