<svg width="30" height="30" viewBox="0 0 30 30" fill="none" xmlns="http://www.w3.org/2000/svg">
<rect x="1" y="1" width="28" height="28" stroke="#113534" stroke-width="2"/>
<path d="M7 15.5211C7 19.6513 10.348 22.9993 14.4782 22.9993C18.6084 22.9993 21.9563 19.6513 21.9563 15.5211C21.9563 11.3909 18.6084 8.04297 14.4782 8.04297C10.348 8.04297 7 11.3909 7 15.5211Z" fill="#113534"/>
<path d="M20.5059 7.74692C20.5055 8.71207 21.2876 9.49488 22.2528 9.49523C23.2179 9.49558 24.0007 8.71346 24.0011 7.74831C24.0014 6.78316 23.2193 6.00035 22.2542 6H22.2535C21.2888 6.00047 20.5067 6.78223 20.5059 7.74692Z" fill="#113534"/>
<path d="M9.62305 15.5209C9.62305 12.8399 11.7958 10.666 14.4768 10.666C17.1577 10.666 19.3316 12.8399 19.3316 15.5209C19.3316 18.2019 17.1577 20.3758 14.4768 20.3758C11.7958 20.3758 9.62305 18.2019 9.62305 15.5209Z" fill="#92A0FF"/>
</svg>
