<svg width="304" height="304" viewBox="0 0 304 304" fill="none" xmlns="http://www.w3.org/2000/svg">
<path d="M163.931 0H139.298V122.651H163.931V0Z" fill="#DEEEC6"/>
<path d="M163.931 252.777H139.298V303.4H163.931V252.777Z" fill="#DEEEC6"/>
<path d="M50.6231 139.299H0V163.931H50.6231V139.299Z" fill="#DEEEC6"/>
<path d="M303.398 139.299H252.775V163.931H303.398V139.299Z" fill="#DEEEC6"/>
<path d="M276.895 65.0342L233.054 90.3457L245.37 111.678L289.211 86.3661L276.895 65.0342Z" fill="#DEEEC6"/>
<path d="M212.809 232.969L191.477 245.285L216.789 289.126L238.121 276.81L212.809 232.969Z" fill="#DEEEC6"/>
<path d="M86.5369 14.2602L65.205 26.5762L90.5165 70.4171L111.848 58.101L86.5369 14.2602Z" fill="#DEEEC6"/>
<path d="M216.81 14.0302L191.499 57.8711L212.831 70.1871L238.142 26.3462L216.81 14.0302Z" fill="#DEEEC6"/>
<path d="M90.4734 232.972L65.1619 276.812L86.4938 289.129L111.805 245.288L90.4734 232.972Z" fill="#DEEEC6"/>
<path d="M26.4188 65.086L14.1028 86.418L57.9437 111.73L70.2597 90.3975L26.4188 65.086Z" fill="#DEEEC6"/>
<path d="M182.787 155.438L170.556 176.842L233.071 212.856L276.729 238.167L289.13 216.763L182.787 155.438Z" fill="#DEEEC6"/>
<path d="M57.9274 191.621L14.0994 216.763L26.5003 238.167L132.673 176.842L120.272 155.438L57.9274 191.621Z" fill="#DEEEC6"/>
</svg>
