<svg width="100" height="100" viewBox="0 0 100 100" fill="none" xmlns="http://www.w3.org/2000/svg">
 <g id="spinner">
        <path d="M24.4874 0.755859H20.9375V18.3459H24.4874V0.755859Z" fill="#113534"/>
        <path d="M24.4874 37.0078H20.9375V44.268H24.4874V37.0078Z" fill="#113534"/>
        <path d="M8.15787 20.7324H0.862305V24.265H8.15787V20.7324Z" fill="#113534"/>
        <path d="M44.5866 20.7324H37.291V24.265H44.5866V20.7324Z" fill="#113534"/>
        <path d="M40.7669 10.0828L34.4487 13.7129L36.2237 16.7722L42.5418 13.1422L40.7669 10.0828Z" fill="#113534"/>
        <path d="M31.5313 34.1673L28.457 35.9336L32.1048 42.2211L35.1791 40.4548L31.5313 34.1673Z" fill="#113534"/>
        <path d="M13.3335 2.80009L10.2593 4.56641L13.9071 10.8539L16.9813 9.08757L13.3335 2.80009Z" fill="#113534"/>
        <path d="M32.1082 2.76721L28.4604 9.05469L31.5347 10.821L35.1825 4.53352L32.1082 2.76721Z" fill="#113534"/>
        <path d="M13.9007 34.1676L10.2529 40.4551L13.3272 42.2214L16.975 35.9339L13.9007 34.1676Z" fill="#113534"/>
        <path d="M4.66946 10.091L2.89453 13.1504L9.21268 16.7805L10.9876 13.7211L4.66946 10.091Z" fill="#113534"/>
        <path d="M27.2046 23.0488L25.4419 26.1186L34.4512 31.2835L40.743 34.9136L42.5302 31.8438L27.2046 23.0488Z" fill="#113534"/>
        <path d="M9.21034 28.2381L2.89404 31.8438L4.68121 34.9136L19.9823 26.1186L18.1951 23.0488L9.21034 28.2381Z" fill="#113534"/>
    </g>
</svg>
