<svg width="250" height="52" viewBox="0 0 219 45" fill="none"  xmlns="http://www.w3.org/2000/svg">
    <g id="spinner">
        <path d="M24.4874 0.755859H20.9375V18.3459H24.4874V0.755859Z" fill="#113534"/>
        <path d="M24.4874 37.0078H20.9375V44.268H24.4874V37.0078Z" fill="#113534"/>
        <path d="M8.15787 20.7324H0.862305V24.265H8.15787V20.7324Z" fill="#113534"/>
        <path d="M44.5866 20.7324H37.291V24.265H44.5866V20.7324Z" fill="#113534"/>
        <path d="M40.7669 10.0828L34.4487 13.7129L36.2237 16.7722L42.5418 13.1422L40.7669 10.0828Z" fill="#113534"/>
        <path d="M31.5313 34.1673L28.457 35.9336L32.1048 42.2211L35.1791 40.4548L31.5313 34.1673Z" fill="#113534"/>
        <path d="M13.3335 2.80009L10.2593 4.56641L13.9071 10.8539L16.9813 9.08757L13.3335 2.80009Z" fill="#113534"/>
        <path d="M32.1082 2.76721L28.4604 9.05469L31.5347 10.821L35.1825 4.53352L32.1082 2.76721Z" fill="#113534"/>
        <path d="M13.9007 34.1676L10.2529 40.4551L13.3272 42.2214L16.975 35.9339L13.9007 34.1676Z" fill="#113534"/>
        <path d="M4.66946 10.091L2.89453 13.1504L9.21268 16.7805L10.9876 13.7211L4.66946 10.091Z" fill="#113534"/>
        <path d="M27.2046 23.0488L25.4419 26.1186L34.4512 31.2835L40.743 34.9136L42.5302 31.8438L27.2046 23.0488Z" fill="#113534"/>
        <path d="M9.21034 28.2381L2.89404 31.8438L4.68121 34.9136L19.9823 26.1186L18.1951 23.0488L9.21034 28.2381Z" fill="#113534"/>
    </g>
 <g id="logoText">
    <path d="M74.797 27.071C74.3319 28.0699 73.6953 28.947 72.9364 29.7022C72.863 29.7753 72.7895 29.8484 72.6916 29.9215C71.9816 30.5793 71.1982 31.1153 70.3169 31.5051C69.3376 31.9436 68.3094 32.1629 67.2077 32.1629C65.5184 32.1629 64.025 31.7487 62.703 30.9447C61.381 30.1407 60.3528 28.9957 59.6183 27.5339C58.8594 26.0721 58.4922 24.3911 58.4922 22.5151C58.4922 20.6392 58.8594 18.9582 59.5939 17.5207C60.3283 16.0833 61.3565 14.9383 62.6541 14.1343C63.9516 13.306 65.445 12.8918 67.1097 12.8918C68.7745 12.8918 69.2152 13.0867 70.1944 13.5009C71.1737 13.8907 72.0551 14.451 72.8385 15.1575C73.6219 15.8641 74.2339 16.7168 74.6991 17.6669L77.6859 15.9615C77.0983 14.7921 76.3149 13.7445 75.2866 12.8431C74.185 11.8685 72.9364 11.0889 71.5409 10.5529C70.1455 9.9926 68.6766 9.72461 67.1342 9.72461C64.7595 9.72461 62.6541 10.2606 60.8424 11.3813C59.0063 12.4776 57.5863 13.9881 56.5336 15.9128C55.4809 17.8375 54.9668 20.0545 54.9668 22.5395C54.9668 25.0245 55.4809 27.2415 56.5336 29.1662C57.5863 31.0909 59.0308 32.6014 60.8669 33.6977C62.7275 34.7941 64.8329 35.3544 67.2077 35.3544C69.5824 35.3544 70.2679 35.062 71.6634 34.4773C73.0833 33.8926 74.3319 33.0887 75.4091 32.0654C75.5315 31.968 75.6294 31.8461 75.7518 31.7243C76.5842 30.8473 77.2697 29.8971 77.7838 28.8251L74.797 27.1197V27.071Z"
          fill="#113534"/>
    <path d="M94.3337 17.2032V20.0293C93.8196 19.201 93.1586 18.4945 92.3997 17.9585C91.298 17.1789 90.0005 16.7891 88.5071 16.7891C87.0137 16.7891 85.4958 17.1789 84.2962 17.9585C83.0966 18.7381 82.1663 19.8101 81.4808 21.1987C80.7953 22.5874 80.4771 24.1954 80.4771 26.0713C80.4771 27.9473 80.8198 29.5309 81.4808 30.9196C82.1663 32.3082 83.0966 33.4046 84.2962 34.1842C85.4958 34.9638 86.8913 35.3536 88.5071 35.3536C90.1229 35.3536 91.298 34.9638 92.3997 34.1842C93.1831 33.6238 93.8196 32.9173 94.3582 32.0646L94.4806 34.9394H97.6877V17.252H94.3337V17.2032ZM91.91 31.4799C91.1511 32.0159 90.2698 32.2839 89.266 32.2839C88.2622 32.2839 87.3075 32.0159 86.4996 31.4799C85.6917 30.9439 85.0551 30.213 84.59 29.2872C84.1248 28.3614 83.9045 27.2651 83.9045 26.047C83.9045 24.8288 84.1248 23.7325 84.59 22.8067C85.0307 21.8809 85.6672 21.15 86.4751 20.614C87.283 20.0781 88.2133 19.8101 89.2415 19.8101C90.2697 19.8101 91.1511 20.0781 91.91 20.614C92.669 21.15 93.2565 21.8809 93.6972 22.8067C94.1134 23.7325 94.3337 24.8288 94.3337 26.047C94.3337 27.2651 94.1134 28.3614 93.6972 29.2872C93.281 30.213 92.669 30.9439 91.91 31.4799Z"
          fill="#113534"/>
    <path d="M113.087 31.4799C112.842 31.6504 112.572 31.7966 112.303 31.9184C111.667 32.1864 110.957 32.3082 110.124 32.3082C109.292 32.3082 108.068 32.0646 107.211 31.5774C106.354 31.0901 105.693 30.3836 105.179 29.4821C104.861 28.8731 104.64 28.1909 104.518 27.46C104.494 27.2408 104.469 26.9971 104.445 26.7535H118.154C118.154 24.7314 117.812 22.9529 117.102 21.4667C116.392 19.9806 115.437 18.8112 114.213 18.0072C112.989 17.2032 111.544 16.7891 109.904 16.7891C108.264 16.7891 106.648 17.1789 105.301 17.9828C103.955 18.7625 102.902 19.8588 102.143 21.2475C101.531 22.3682 101.164 23.635 101.042 25.0481C101.042 25.1943 101.042 25.3404 101.017 25.4623C101.017 25.6572 101.017 25.8521 101.017 26.0713C101.017 27.8986 101.409 29.5065 102.168 30.8952C102.927 32.2839 103.979 33.3802 105.301 34.1598C106.623 34.9394 108.166 35.3536 109.904 35.3536C111.642 35.3536 112.352 35.1587 113.38 34.7933C114.139 34.5253 114.8 34.1598 115.412 33.7213C115.633 33.5508 115.853 33.3802 116.073 33.1853C116.759 32.5519 117.322 31.821 117.787 31.017L114.996 29.4091C114.556 30.2618 113.919 30.9683 113.136 31.5043L113.087 31.4799ZM105.399 21.9296C105.913 21.1987 106.574 20.6384 107.358 20.2486C108.141 19.8588 108.974 19.6639 109.831 19.6639C110.687 19.6639 111.495 19.8588 112.205 20.2486C112.915 20.6384 113.478 21.1988 113.919 21.954C114.262 22.5631 114.482 23.2696 114.531 24.0979H104.665C104.665 23.903 104.714 23.7081 104.763 23.5132C104.885 22.9285 105.106 22.3925 105.424 21.954L105.399 21.9296Z"
          fill="#113534"/>
    <path d="M121.508 34.8904V10.1133H124.887V34.8904H121.508Z" fill="#113534"/>
    <path d="M131.497 13.4514C130.958 13.4514 130.469 13.2565 130.077 12.8423C129.685 12.4282 129.465 11.9409 129.465 11.4049C129.465 10.869 129.661 10.3573 130.077 9.96752C130.469 9.57772 130.958 9.38281 131.497 9.38281C132.035 9.38281 132.55 9.57772 132.941 9.96752C133.333 10.3573 133.529 10.8446 133.529 11.4049C133.529 11.9653 133.333 12.4282 132.941 12.8423C132.55 13.2565 132.06 13.4514 131.497 13.4514ZM129.783 34.8908V17.2033H133.162V34.8908H129.783Z"
          fill="#113534"/>
    <path d="M146.92 34.8904L139.233 10.1133H141.51L149.221 34.8904H146.92ZM147.092 34.8904L154.632 10.1133H156.909L149.393 34.8904H147.092ZM161.976 34.8904L154.656 10.1133H156.933L164.302 34.8904H162.001H161.976ZM162.148 34.8904L170.055 10.1133H172.332L164.474 34.8904H162.172H162.148Z"
          fill="#113534"/>
    <path d="M176.592 12.5976C176.201 12.5976 175.882 12.4514 175.589 12.1834C175.295 11.8911 175.172 11.5743 175.172 11.1845C175.172 10.7947 175.319 10.4536 175.589 10.1857C175.882 9.91766 176.201 9.77148 176.592 9.77148C176.984 9.77148 177.327 9.91766 177.596 10.1857C177.865 10.4536 178.012 10.7947 178.012 11.1845C178.012 11.5743 177.865 11.8911 177.596 12.1834C177.327 12.4758 176.984 12.5976 176.592 12.5976ZM175.491 34.8897V17.2022H177.621V34.8897H175.491Z"
          fill="#113534"/>
    <path d="M183.055 34.8897V17.2022H185.038L185.185 20.4668V34.9141H183.055V34.8897ZM195.835 25.8267C195.835 23.8776 195.614 22.3915 195.149 21.3683C194.684 20.345 194.047 19.6629 193.264 19.2974C192.481 18.932 191.575 18.7371 190.571 18.7371C188.882 18.7371 187.56 19.3461 186.63 20.5887C185.675 21.8312 185.21 23.5609 185.21 25.778H183.888C183.888 23.902 184.157 22.2697 184.695 20.9297C185.234 19.5898 186.042 18.5422 187.095 17.8356C188.147 17.1048 189.445 16.7637 190.963 16.7637C192.481 16.7637 193.558 17.0317 194.611 17.592C195.663 18.1524 196.496 19.0294 197.108 20.2232C197.72 21.417 198.014 23.0249 197.989 24.9983V25.8023H195.859L195.835 25.8267ZM195.835 34.8897V25.8267H197.965V34.8897H195.835Z"
          fill="#113534"/>
    <path d="M209.74 35.3045C208.174 35.3045 206.778 34.9147 205.579 34.1108C204.379 33.3311 203.424 32.2348 202.739 30.8218C202.053 29.4087 201.71 27.8251 201.71 26.0223C201.71 24.2194 202.053 22.6115 202.739 21.1984C203.424 19.8097 204.379 18.7134 205.579 17.9338C206.778 17.1542 208.174 16.74 209.74 16.74C211.307 16.74 212.58 17.1298 213.731 17.9338C214.882 18.7134 215.787 19.8097 216.424 21.1984C217.085 22.5871 217.403 24.1951 217.403 26.0223C217.403 27.8495 217.085 29.4087 216.424 30.8218C215.763 32.2348 214.882 33.3311 213.731 34.1108C212.58 34.8904 211.258 35.3045 209.74 35.3045ZM210.181 33.4042C211.307 33.4042 212.336 33.0875 213.217 32.4784C214.098 31.845 214.784 30.9923 215.273 29.8716C215.763 28.7509 216.032 27.484 216.032 26.0466C216.032 24.6092 215.787 23.3423 215.273 22.2217C214.784 21.101 214.098 20.2483 213.217 19.6148C212.336 18.9814 211.307 18.6647 210.157 18.6647C209.006 18.6647 207.831 18.9814 206.876 19.6148C205.921 20.2483 205.187 21.101 204.648 22.2217C204.11 23.3423 203.84 24.6092 203.84 26.0466C203.84 27.484 204.11 28.7509 204.648 29.8716C205.187 30.9923 205.946 31.845 206.901 32.4784C207.855 33.1119 208.933 33.4042 210.181 33.4042ZM216.106 34.8904L216.008 31.6014V10.1133H218.138V34.8904H216.106Z"
          fill="#113534"/>
 </g>
</svg>
