<svg width="219" height="45" viewBox="0 0 219 45" fill="none" xmlns="http://www.w3.org/2000/svg">
<path d="M24.4869 0.753906H20.937V18.3439H24.4869V0.753906Z" fill="#DEEEC6"/>
<path d="M24.4869 37.0039H20.937V44.2641H24.4869V37.0039Z" fill="#DEEEC6"/>
<path d="M8.15762 20.7305H0.862061V24.2631H8.15762V20.7305Z" fill="#DEEEC6"/>
<path d="M44.5863 20.7305H37.2908V24.2631H44.5863V20.7305Z" fill="#DEEEC6"/>
<path d="M40.7669 10.0809L34.4487 13.7109L36.2237 16.7703L42.5418 13.1402L40.7669 10.0809Z" fill="#DEEEC6"/>
<path d="M31.5311 34.1634L28.4568 35.9297L32.1046 42.2172L35.1788 40.4508L31.5311 34.1634Z" fill="#DEEEC6"/>
<path d="M13.3333 2.80009L10.259 4.56641L13.9068 10.8539L16.9811 9.08757L13.3333 2.80009Z" fill="#DEEEC6"/>
<path d="M32.1077 2.76721L28.46 9.05469L31.5342 10.821L35.182 4.53352L32.1077 2.76721Z" fill="#DEEEC6"/>
<path d="M13.9007 34.1657L10.2529 40.4531L13.3272 42.2194L16.975 35.932L13.9007 34.1657Z" fill="#DEEEC6"/>
<path d="M4.66946 10.0891L2.89453 13.1484L9.21268 16.7785L10.9876 13.7192L4.66946 10.0891Z" fill="#DEEEC6"/>
<path d="M27.2046 23.0469L25.4419 26.1166L34.4512 31.2815L40.743 34.9116L42.5302 31.8419L27.2046 23.0469Z" fill="#DEEEC6"/>
<path d="M9.21034 28.2362L2.89404 31.8419L4.68121 34.9116L19.9823 26.1166L18.1951 23.0469L9.21034 28.2362Z" fill="#DEEEC6"/>
<path d="M74.7973 27.0691C74.3321 28.0679 73.6956 28.945 72.9367 29.7003C72.8632 29.7733 72.7898 29.8464 72.6918 29.9195C71.9819 30.5773 71.1984 31.1133 70.3171 31.5031C69.3378 31.9416 68.3096 32.1609 67.2079 32.1609C65.5187 32.1609 64.0253 31.7467 62.7033 30.9428C61.3813 30.1388 60.353 28.9937 59.6186 27.532C58.8596 26.0702 58.4924 24.3891 58.4924 22.5132C58.4924 20.6372 58.8596 18.9562 59.5941 17.5188C60.3285 16.0814 61.3568 14.9363 62.6543 14.1323C63.9518 13.304 65.4452 12.8898 67.11 12.8898C68.7747 12.8898 69.2154 13.0847 70.1947 13.4989C71.174 13.8887 72.0553 14.4491 72.8387 15.1556C73.6221 15.8621 74.2342 16.7148 74.6993 17.665L77.6861 15.9596C77.0985 14.7901 76.3151 13.7425 75.2869 12.8411C74.1852 11.8666 72.9366 11.087 71.5412 10.551C70.1457 9.99065 68.6768 9.72266 67.1345 9.72266C64.7597 9.72266 62.6543 10.2586 60.8427 11.3793C59.0065 12.4757 57.5866 13.9862 56.5339 15.9108C55.4812 17.8355 54.967 20.0525 54.967 22.5376C54.967 25.0226 55.4812 27.2396 56.5339 29.1643C57.5866 31.0889 59.031 32.5994 60.8671 33.6958C62.7278 34.7921 64.8332 35.3525 67.2079 35.3525C69.5826 35.3525 70.2681 35.0601 71.6636 34.4754C73.0835 33.8907 74.3321 33.0867 75.4093 32.0635C75.5317 31.966 75.6296 31.8442 75.7521 31.7224C76.5844 30.8453 77.2699 29.8952 77.784 28.8232L74.7973 27.1178V27.0691Z" fill="#DEEEC6"/>
<path d="M94.3337 17.2032V20.0293C93.8196 19.201 93.1586 18.4945 92.3997 17.9585C91.298 17.1789 90.0005 16.7891 88.5071 16.7891C87.0137 16.7891 85.4958 17.1789 84.2962 17.9585C83.0966 18.7381 82.1663 19.8101 81.4808 21.1987C80.7953 22.5874 80.4771 24.1954 80.4771 26.0713C80.4771 27.9473 80.8198 29.5309 81.4808 30.9196C82.1663 32.3082 83.0966 33.4046 84.2962 34.1842C85.4958 34.9638 86.8913 35.3536 88.5071 35.3536C90.1229 35.3536 91.298 34.9638 92.3997 34.1842C93.1831 33.6238 93.8196 32.9173 94.3582 32.0646L94.4806 34.9394H97.6877V17.252H94.3337V17.2032ZM91.91 31.4799C91.1511 32.0159 90.2698 32.2839 89.266 32.2839C88.2622 32.2839 87.3075 32.0159 86.4996 31.4799C85.6917 30.9439 85.0551 30.213 84.59 29.2872C84.1248 28.3614 83.9045 27.2651 83.9045 26.047C83.9045 24.8288 84.1248 23.7325 84.59 22.8067C85.0307 21.8809 85.6672 21.15 86.4751 20.614C87.283 20.0781 88.2133 19.8101 89.2415 19.8101C90.2697 19.8101 91.1511 20.0781 91.91 20.614C92.669 21.15 93.2565 21.8809 93.6972 22.8067C94.1134 23.7325 94.3337 24.8288 94.3337 26.047C94.3337 27.2651 94.1134 28.3614 93.6972 29.2872C93.281 30.213 92.669 30.9439 91.91 31.4799Z" fill="#DEEEC6"/>
<path d="M113.087 31.4799C112.842 31.6504 112.572 31.7966 112.303 31.9184C111.667 32.1864 110.957 32.3082 110.124 32.3082C109.292 32.3082 108.068 32.0646 107.211 31.5774C106.354 31.0901 105.693 30.3836 105.179 29.4821C104.861 28.8731 104.64 28.1909 104.518 27.46C104.494 27.2408 104.469 26.9971 104.445 26.7535H118.154C118.154 24.7314 117.812 22.9529 117.102 21.4667C116.392 19.9806 115.437 18.8112 114.213 18.0072C112.989 17.2032 111.544 16.7891 109.904 16.7891C108.264 16.7891 106.648 17.1789 105.301 17.9828C103.955 18.7625 102.902 19.8588 102.143 21.2475C101.531 22.3682 101.164 23.635 101.042 25.0481C101.042 25.1943 101.042 25.3404 101.017 25.4623C101.017 25.6572 101.017 25.8521 101.017 26.0713C101.017 27.8986 101.409 29.5065 102.168 30.8952C102.927 32.2839 103.979 33.3802 105.301 34.1598C106.623 34.9394 108.166 35.3536 109.904 35.3536C111.642 35.3536 112.352 35.1587 113.38 34.7933C114.139 34.5253 114.8 34.1598 115.412 33.7213C115.633 33.5508 115.853 33.3802 116.073 33.1853C116.759 32.5519 117.322 31.821 117.787 31.017L114.996 29.4091C114.556 30.2618 113.919 30.9683 113.136 31.5043L113.087 31.4799ZM105.399 21.9296C105.913 21.1987 106.574 20.6384 107.358 20.2486C108.141 19.8588 108.974 19.6639 109.831 19.6639C110.687 19.6639 111.495 19.8588 112.205 20.2486C112.915 20.6384 113.478 21.1988 113.919 21.954C114.262 22.5631 114.482 23.2696 114.531 24.0979H104.665C104.665 23.903 104.714 23.7081 104.763 23.5132C104.885 22.9285 105.106 22.3925 105.424 21.954L105.399 21.9296Z" fill="#DEEEC6"/>
<path d="M121.509 34.8904V10.1133H124.887V34.8904H121.509Z" fill="#DEEEC6"/>
<path d="M131.497 13.4514C130.958 13.4514 130.469 13.2565 130.077 12.8423C129.685 12.4282 129.465 11.9409 129.465 11.4049C129.465 10.869 129.661 10.3573 130.077 9.96752C130.469 9.57772 130.958 9.38281 131.497 9.38281C132.036 9.38281 132.55 9.57772 132.942 9.96752C133.333 10.3573 133.529 10.8446 133.529 11.4049C133.529 11.9653 133.333 12.4282 132.942 12.8423C132.55 13.2565 132.06 13.4514 131.497 13.4514ZM129.783 34.8908V17.2033H133.162V34.8908H129.783Z" fill="#DEEEC6"/>
<path d="M146.921 34.8904L139.233 10.1133H141.51L149.222 34.8904H146.921ZM147.092 34.8904L154.632 10.1133H156.909L149.393 34.8904H147.092ZM161.977 34.8904L154.657 10.1133H156.934L164.303 34.8904H162.001H161.977ZM162.148 34.8904L170.056 10.1133H172.333L164.474 34.8904H162.173H162.148Z" fill="#DEEEC6"/>
<path d="M176.593 12.5995C176.201 12.5995 175.883 12.4534 175.589 12.1854C175.295 11.893 175.173 11.5763 175.173 11.1865C175.173 10.7967 175.32 10.4556 175.589 10.1876C175.883 9.91961 176.201 9.77344 176.593 9.77344C176.984 9.77344 177.327 9.91961 177.596 10.1876C177.866 10.4556 178.013 10.7967 178.013 11.1865C178.013 11.5763 177.866 11.893 177.596 12.1854C177.327 12.4777 176.984 12.5995 176.593 12.5995ZM175.491 34.8916V17.2041H177.621V34.8916H175.491Z" fill="#DEEEC6"/>
<path d="M183.056 34.8916V17.2042H185.039L185.186 20.4688V34.916H183.056V34.8916ZM195.835 25.8286C195.835 23.8796 195.615 22.3935 195.15 21.3702C194.685 20.347 194.048 19.6648 193.265 19.2994C192.481 18.9339 191.575 18.739 190.572 18.739C188.882 18.739 187.56 19.3481 186.63 20.5906C185.675 21.8331 185.21 23.5629 185.21 25.7799H183.888C183.888 23.904 184.157 22.2716 184.696 20.9317C185.235 19.5917 186.042 18.5441 187.095 17.8376C188.148 17.1067 189.445 16.7656 190.963 16.7656C192.481 16.7656 193.558 17.0336 194.611 17.594C195.664 18.1543 196.496 19.0314 197.108 20.2252C197.72 21.4189 198.014 23.0269 197.99 25.0003V25.8043H195.86L195.835 25.8286ZM195.835 34.8916V25.8286H197.965V34.8916H195.835Z" fill="#DEEEC6"/>
<path d="M209.741 35.3045C208.174 35.3045 206.779 34.9147 205.579 34.1108C204.379 33.3311 203.425 32.2348 202.739 30.8218C202.054 29.4087 201.711 27.8251 201.711 26.0223C201.711 24.2194 202.054 22.6115 202.739 21.1984C203.425 19.8097 204.379 18.7134 205.579 17.9338C206.779 17.1542 208.174 16.74 209.741 16.74C211.308 16.74 212.581 17.1298 213.731 17.9338C214.882 18.7134 215.788 19.8097 216.424 21.1984C217.085 22.5871 217.404 24.1951 217.404 26.0223C217.404 27.8495 217.085 29.4087 216.424 30.8218C215.763 32.2348 214.882 33.3311 213.731 34.1108C212.581 34.8904 211.259 35.3045 209.741 35.3045ZM210.182 33.4042C211.308 33.4042 212.336 33.0875 213.217 32.4784C214.099 31.845 214.784 30.9923 215.274 29.8716C215.763 28.7509 216.033 27.484 216.033 26.0466C216.033 24.6092 215.788 23.3423 215.274 22.2217C214.784 21.101 214.099 20.2483 213.217 19.6148C212.336 18.9814 211.308 18.6647 210.157 18.6647C209.006 18.6647 207.831 18.9814 206.877 19.6148C205.922 20.2483 205.187 21.101 204.649 22.2217C204.11 23.3423 203.841 24.6092 203.841 26.0466C203.841 27.484 204.11 28.7509 204.649 29.8716C205.187 30.9923 205.946 31.845 206.901 32.4784C207.856 33.1119 208.933 33.4042 210.182 33.4042ZM216.106 34.8904L216.008 31.6014V10.1133H218.138V34.8904H216.106Z" fill="#DEEEC6"/>
</svg>
