<svg width="32" height="32" viewBox="0 0 32 32" fill="none" xmlns="http://www.w3.org/2000/svg">
<path d="M17.3103 0.134766H14.7295V12.8374H17.3103V0.134766Z" fill="#F3F3F3"/>
<path d="M17.3103 26.3135H14.7295V31.5564H17.3103V26.3135Z" fill="#F3F3F3"/>
<path d="M5.43872 14.5615H0.134766V17.1126H5.43872V14.5615Z" fill="#F3F3F3"/>
<path d="M31.9221 14.5615H26.6182V17.1126H31.9221V14.5615Z" fill="#F3F3F3"/>
<path d="M29.1461 6.86976L24.5527 9.49121L25.8431 11.7005L30.4365 9.07906L29.1461 6.86976Z" fill="#F3F3F3"/>
<path d="M22.4313 24.2625L20.1963 25.5381L22.8483 30.0786L25.0833 28.803L22.4313 24.2625Z" fill="#F3F3F3"/>
<path d="M9.20085 1.61118L6.96582 2.88672L9.6178 7.42721L11.8528 6.15167L9.20085 1.61118Z" fill="#F3F3F3"/>
<path d="M22.8512 1.58744L20.1992 6.12793L22.4342 7.40347L25.0862 2.86298L22.8512 1.58744Z" fill="#F3F3F3"/>
<path d="M9.61389 24.2632L6.96191 28.8037L9.19694 30.0793L11.8489 25.5388L9.61389 24.2632Z" fill="#F3F3F3"/>
<path d="M2.9027 6.87566L1.6123 9.08496L6.20567 11.7064L7.49606 9.49712L2.9027 6.87566Z" fill="#F3F3F3"/>
<path d="M19.2854 16.2334L18.0039 18.4502L24.5538 22.1801L29.128 24.8015L30.4273 22.5847L19.2854 16.2334Z" fill="#F3F3F3"/>
<path d="M6.20432 19.9808L1.6123 22.5847L2.9116 24.8015L14.0357 18.4502L12.7364 16.2334L6.20432 19.9808Z" fill="#F3F3F3"/>
</svg>
