<?xml version="1.0" encoding="UTF-8"?><svg id="uuid-026be36f-2ff5-4c2e-ba10-557899591aa4" xmlns="http://www.w3.org/2000/svg" viewBox="0 0 125.78 162.47"><defs><style>.uuid-169386a0-cbb8-4855-a5e5-b0f9b5de7d7b{opacity:.2;}.uuid-169386a0-cbb8-4855-a5e5-b0f9b5de7d7b,.uuid-6d811354-17aa-4ca9-be86-adce60e34f3d,.uuid-aeb6abb8-83e3-4529-a054-92f1f00eea0b,.uuid-da2aeb80-b0d4-4c18-b07b-de268996d3d2{stroke-width:0px;}.uuid-169386a0-cbb8-4855-a5e5-b0f9b5de7d7b,.uuid-aeb6abb8-83e3-4529-a054-92f1f00eea0b{fill:#fff;}.uuid-6d811354-17aa-4ca9-be86-adce60e34f3d{opacity:.19;}.uuid-da2aeb80-b0d4-4c18-b07b-de268996d3d2{fill:#02aef0;}</style></defs><g id="uuid-900aa741-c7c3-45c1-b59b-e5acc2a216d6"><path class="uuid-da2aeb80-b0d4-4c18-b07b-de268996d3d2" d="m81.47,0H11.81C5.29,0,0,5.29,0,11.81v138.85c0,6.52,5.29,11.81,11.81,11.81h102.17c6.52,0,11.81-5.29,11.81-11.81V44.31L81.47,0Z"/><path class="uuid-6d811354-17aa-4ca9-be86-adce60e34f3d" d="m79.84,34.13c0,6.52,5.29,11.81,11.81,11.81l34.13-1.63L81.47,0l-1.63,34.13Z"/><path class="uuid-da2aeb80-b0d4-4c18-b07b-de268996d3d2" d="m81.47,32.5c0,6.52,5.29,11.81,11.81,11.81h32.5L81.47,0v32.5Z"/><path class="uuid-169386a0-cbb8-4855-a5e5-b0f9b5de7d7b" d="m81.47,32.5c0,6.52,5.29,11.81,11.81,11.81h32.5L81.47,0v32.5Z"/><path class="uuid-aeb6abb8-83e3-4529-a054-92f1f00eea0b" d="m61.25,94.1h-5.65l-2.25-5.85h-10.29l-2.12,5.85h-5.51l10.03-25.74h5.5l10.31,25.74Zm-9.57-10.18l-3.55-9.55-3.48,9.55h7.02Z"/><path class="uuid-aeb6abb8-83e3-4529-a054-92f1f00eea0b" d="m67.9,94.1l-9.2-25.74h5.64l6.51,19.05,6.3-19.05h5.51l-9.22,25.74h-5.55Z"/><path class="uuid-aeb6abb8-83e3-4529-a054-92f1f00eea0b" d="m85.16,94.1v-25.74h5.2v25.74h-5.2Z"/></g></svg>