<?xml version="1.0" encoding="UTF-8"?><svg id="uuid-8b9f0990-5a75-499e-9c7e-f2a5a43c11d2" xmlns="http://www.w3.org/2000/svg" viewBox="0 0 125.78 162.47"><defs><style>.uuid-a1befee7-437f-4706-aebc-0401e8200e04{opacity:.2;}.uuid-a1befee7-437f-4706-aebc-0401e8200e04,.uuid-00e5290b-1732-4889-a01a-a7781becef4a,.uuid-c66e63a3-9193-4f88-8200-e401ad35c8d7,.uuid-00cdfa5d-2e1a-4388-8624-66cb2ba48374{stroke-width:0px;}.uuid-a1befee7-437f-4706-aebc-0401e8200e04,.uuid-00cdfa5d-2e1a-4388-8624-66cb2ba48374{fill:#fff;}.uuid-00e5290b-1732-4889-a01a-a7781becef4a{opacity:.19;}.uuid-c66e63a3-9193-4f88-8200-e401ad35c8d7{fill:#65459b;}</style></defs><g id="uuid-72de5707-2eac-48c8-937b-d2964b1f6f3c"><path class="uuid-c66e63a3-9193-4f88-8200-e401ad35c8d7" d="m81.47,0H11.81C5.29,0,0,5.29,0,11.81v138.85c0,6.52,5.29,11.81,11.81,11.81h102.17c6.52,0,11.81-5.29,11.81-11.81V44.31L81.47,0Z"/><path class="uuid-00e5290b-1732-4889-a01a-a7781becef4a" d="m79.84,34.13c0,6.52,5.29,11.81,11.81,11.81l34.13-1.63L81.47,0l-1.63,34.13Z"/><path class="uuid-c66e63a3-9193-4f88-8200-e401ad35c8d7" d="m81.47,32.5c0,6.52,5.29,11.81,11.81,11.81h32.5L81.47,0v32.5Z"/><path class="uuid-a1befee7-437f-4706-aebc-0401e8200e04" d="m81.47,32.5c0,6.52,5.29,11.81,11.81,11.81h32.5L81.47,0v32.5Z"/><path class="uuid-00cdfa5d-2e1a-4388-8624-66cb2ba48374" d="m17.66,68.14h9.5c2.14,0,3.77.16,4.9.49,1.51.45,2.8,1.23,3.88,2.37,1.08,1.14,1.9,2.53,2.46,4.17.56,1.64.84,3.67.84,6.08,0,2.12-.26,3.94-.79,5.48-.64,1.87-1.56,3.39-2.76,4.55-.9.88-2.12,1.56-3.65,2.05-1.15.36-2.68.54-4.6.54h-9.78v-25.74Zm5.2,4.35v17.05h3.88c1.45,0,2.5-.08,3.14-.25.84-.21,1.54-.57,2.1-1.07.56-.5,1.01-1.33,1.36-2.48.35-1.15.53-2.72.53-4.71s-.18-3.52-.53-4.58c-.35-1.06-.84-1.9-1.47-2.49-.63-.6-1.43-1-2.41-1.21-.73-.16-2.15-.25-4.27-.25h-2.33Z"/><path class="uuid-00cdfa5d-2e1a-4388-8624-66cb2ba48374" d="m52.94,68.14h5.18v16.29c0,2.13-.19,3.77-.56,4.92-.5,1.5-1.42,2.7-2.74,3.61-1.32.91-3.07,1.36-5.23,1.36-2.54,0-4.49-.71-5.86-2.13-1.37-1.42-2.06-3.51-2.07-6.26l4.9-.56c.06,1.48.27,2.52.65,3.12.56.92,1.42,1.39,2.56,1.39s1.98-.33,2.46-.99c.48-.66.72-2.03.72-4.12v-16.63Z"/><path class="uuid-00cdfa5d-2e1a-4388-8624-66cb2ba48374" d="m70.21,93.88l-9.2-25.74h5.64l6.51,19.05,6.3-19.05h5.51l-9.22,25.74h-5.55Z"/><path class="uuid-00cdfa5d-2e1a-4388-8624-66cb2ba48374" d="m87.59,68.14h5.2v13.94c0,2.21.06,3.65.19,4.3.22,1.05.75,1.9,1.59,2.54.84.64,1.98.96,3.43.96s2.59-.3,3.34-.9c.75-.6,1.2-1.34,1.35-2.22.15-.88.23-2.34.23-4.37v-14.24h5.2v13.52c0,3.09-.14,5.27-.42,6.55-.28,1.28-.8,2.35-1.55,3.23-.75.88-1.76,1.58-3.03,2.1-1.26.52-2.91.78-4.95.78-2.46,0-4.32-.28-5.59-.85-1.27-.57-2.27-1.31-3.01-2.21-.74-.91-1.22-1.86-1.46-2.85-.34-1.47-.51-3.65-.51-6.53v-13.73Z"/></g></svg>