<?xml version="1.0" encoding="UTF-8"?><svg id="uuid-4d17793e-6782-44e1-9c53-f6d6502f2ef7" xmlns="http://www.w3.org/2000/svg" viewBox="0 0 125.78 162.47"><defs><style>.uuid-29baec95-5234-4955-8063-fd0859ae00e1{opacity:.2;}.uuid-29baec95-5234-4955-8063-fd0859ae00e1,.uuid-3b6cc351-e663-473c-9e1f-4ab1480101d7,.uuid-aaeab32c-5e4a-4517-8759-4342f56fc498,.uuid-ab1869b0-11f2-4634-840f-23a556d301c9{stroke-width:0px;}.uuid-29baec95-5234-4955-8063-fd0859ae00e1,.uuid-ab1869b0-11f2-4634-840f-23a556d301c9{fill:#fff;}.uuid-3b6cc351-e663-473c-9e1f-4ab1480101d7{opacity:.19;}.uuid-aaeab32c-5e4a-4517-8759-4342f56fc498{fill:#3d9b6c;}</style></defs><g id="uuid-4a025911-21b1-404b-828b-a271d0e3a463"><path class="uuid-aaeab32c-5e4a-4517-8759-4342f56fc498" d="m81.47,0H11.81C5.29,0,0,5.29,0,11.81v138.85c0,6.52,5.29,11.81,11.81,11.81h102.17c6.52,0,11.81-5.29,11.81-11.81V44.31L81.47,0Z"/><path class="uuid-3b6cc351-e663-473c-9e1f-4ab1480101d7" d="m79.84,34.13c0,6.52,5.29,11.81,11.81,11.81l34.13-1.63L81.47,0l-1.63,34.13Z"/><path class="uuid-aaeab32c-5e4a-4517-8759-4342f56fc498" d="m81.47,32.5c0,6.52,5.29,11.81,11.81,11.81h32.5L81.47,0v32.5Z"/><path class="uuid-29baec95-5234-4955-8063-fd0859ae00e1" d="m81.47,32.5c0,6.52,5.29,11.81,11.81,11.81h32.5L81.47,0v32.5Z"/><path class="uuid-ab1869b0-11f2-4634-840f-23a556d301c9" d="m29.79,68.36h9.5c2.14,0,3.77.16,4.9.49,1.51.45,2.8,1.23,3.88,2.37,1.08,1.14,1.9,2.53,2.46,4.17.56,1.64.84,3.67.84,6.08,0,2.12-.26,3.94-.79,5.48-.64,1.87-1.56,3.39-2.76,4.55-.9.88-2.12,1.56-3.65,2.05-1.15.36-2.68.54-4.6.54h-9.78v-25.74Zm5.2,4.35v17.05h3.88c1.45,0,2.5-.08,3.14-.25.84-.21,1.54-.57,2.1-1.07.56-.5,1.01-1.33,1.36-2.48.35-1.15.53-2.72.53-4.71s-.18-3.52-.53-4.58c-.35-1.06-.84-1.9-1.47-2.49-.63-.6-1.43-1-2.41-1.21-.73-.16-2.15-.25-4.27-.25h-2.33Z"/><path class="uuid-ab1869b0-11f2-4634-840f-23a556d301c9" d="m55.91,94.1v-25.53h5.2v21.19h12.92v4.34h-18.12Z"/><path class="uuid-ab1869b0-11f2-4634-840f-23a556d301c9" d="m77.88,94.1v-25.53h5.2v21.19h12.92v4.34h-18.12Z"/></g></svg>