<?xml version="1.0" encoding="UTF-8"?><svg id="uuid-4abf75a4-0597-4b51-aab0-f5cc9bb53c4a" xmlns="http://www.w3.org/2000/svg" viewBox="0 0 125.78 162.47"><defs><style>.uuid-1aa4a697-58fb-43f0-b5ea-7ccf983b3d8f{opacity:.2;}.uuid-1aa4a697-58fb-43f0-b5ea-7ccf983b3d8f,.uuid-f31dbf5c-d12a-49f0-8dd6-949a482e4de7,.uuid-7e8ce005-815c-4932-a14e-1c7a9135fd64,.uuid-28ac6ee8-d577-47aa-bea6-151cea1f61e4{stroke-width:0px;}.uuid-1aa4a697-58fb-43f0-b5ea-7ccf983b3d8f,.uuid-28ac6ee8-d577-47aa-bea6-151cea1f61e4{fill:#fff;}.uuid-f31dbf5c-d12a-49f0-8dd6-949a482e4de7{opacity:.19;}.uuid-7e8ce005-815c-4932-a14e-1c7a9135fd64{fill:#2a86c1;}</style></defs><g id="uuid-6cb751f2-25c2-4ea8-a08d-7d399a83f4a2"><path class="uuid-7e8ce005-815c-4932-a14e-1c7a9135fd64" d="m81.47,0H11.81C5.29,0,0,5.29,0,11.81v138.85c0,6.52,5.29,11.81,11.81,11.81h102.17c6.52,0,11.81-5.29,11.81-11.81V44.31L81.47,0Z"/><path class="uuid-f31dbf5c-d12a-49f0-8dd6-949a482e4de7" d="m79.84,34.13c0,6.52,5.29,11.81,11.81,11.81l34.13-1.63L81.47,0l-1.63,34.13Z"/><path class="uuid-7e8ce005-815c-4932-a14e-1c7a9135fd64" d="m81.47,32.5c0,6.52,5.29,11.81,11.81,11.81h32.5L81.47,0v32.5Z"/><path class="uuid-1aa4a697-58fb-43f0-b5ea-7ccf983b3d8f" d="m81.47,32.5c0,6.52,5.29,11.81,11.81,11.81h32.5L81.47,0v32.5Z"/><path class="uuid-28ac6ee8-d577-47aa-bea6-151cea1f61e4" d="m25.16,68.36h9.5c2.14,0,3.77.16,4.9.49,1.51.45,2.8,1.23,3.88,2.37,1.08,1.14,1.9,2.53,2.46,4.17.56,1.64.84,3.67.84,6.08,0,2.12-.26,3.95-.79,5.48-.64,1.87-1.56,3.39-2.76,4.55-.9.88-2.12,1.56-3.65,2.05-1.15.36-2.68.54-4.6.54h-9.78v-25.74Zm5.2,4.35v17.05h3.88c1.45,0,2.5-.08,3.14-.25.84-.21,1.54-.57,2.1-1.07.56-.5,1.01-1.33,1.36-2.48.35-1.15.53-2.72.53-4.71s-.18-3.52-.53-4.58c-.35-1.07-.84-1.9-1.47-2.49-.63-.6-1.43-1-2.41-1.21-.73-.16-2.15-.25-4.27-.25h-2.33Z"/><path class="uuid-28ac6ee8-d577-47aa-bea6-151cea1f61e4" d="m50.09,81.39c0-2.62.39-4.82,1.18-6.6.58-1.31,1.38-2.49,2.4-3.53,1.01-1.04,2.12-1.81,3.33-2.32,1.6-.68,3.45-1.02,5.55-1.02,3.79,0,6.83,1.18,9.1,3.53,2.28,2.35,3.41,5.62,3.41,9.81s-1.13,7.41-3.39,9.75c-2.26,2.35-5.28,3.52-9.06,3.52s-6.87-1.17-9.13-3.5c-2.26-2.33-3.39-5.55-3.39-9.65Zm5.36-.18c0,2.91.67,5.12,2.02,6.63,1.35,1.5,3.06,2.26,5.13,2.26s3.77-.75,5.1-2.24c1.33-1.49,1.99-3.73,1.99-6.72s-.65-5.15-1.94-6.6c-1.29-1.45-3.01-2.18-5.15-2.18s-3.87.73-5.18,2.2c-1.31,1.47-1.97,3.68-1.97,6.64Z"/><path class="uuid-28ac6ee8-d577-47aa-bea6-151cea1f61e4" d="m95.58,84.64l5.04,1.6c-.77,2.81-2.06,4.9-3.85,6.26-1.8,1.36-4.08,2.05-6.84,2.05-3.42,0-6.23-1.17-8.43-3.5-2.2-2.33-3.3-5.53-3.3-9.58,0-4.28,1.11-7.61,3.32-9.98,2.21-2.37,5.12-3.56,8.73-3.56,3.15,0,5.71.93,7.67,2.79,1.17,1.1,2.05,2.68,2.63,4.74l-5.14,1.23c-.3-1.33-.94-2.39-1.9-3.16-.97-.77-2.14-1.16-3.52-1.16-1.91,0-3.46.68-4.64,2.05-1.19,1.37-1.78,3.59-1.78,6.65,0,3.25.59,5.57,1.76,6.95,1.17,1.38,2.69,2.07,4.56,2.07,1.38,0,2.57-.44,3.56-1.32.99-.88,1.71-2.26,2.14-4.14Z"/></g></svg>