<?xml version="1.0" encoding="UTF-8"?><svg id="uuid-11f164ae-b745-4fc3-b406-6e8e932f36f8" xmlns="http://www.w3.org/2000/svg" viewBox="0 0 125.78 162.47"><defs><style>.uuid-46737b8a-f3a9-413c-9fcb-80195bb906d8{opacity:.2;}.uuid-46737b8a-f3a9-413c-9fcb-80195bb906d8,.uuid-5932a3eb-99bd-4c85-b913-343538d26389,.uuid-f24f0e0b-9e13-457a-bfde-76b431f2e78e,.uuid-63e75b44-ce75-4c5b-8c00-06d4c214952c{stroke-width:0px;}.uuid-46737b8a-f3a9-413c-9fcb-80195bb906d8,.uuid-63e75b44-ce75-4c5b-8c00-06d4c214952c{fill:#fff;}.uuid-5932a3eb-99bd-4c85-b913-343538d26389{opacity:.19;}.uuid-f24f0e0b-9e13-457a-bfde-76b431f2e78e{fill:#f2b604;}</style></defs><g id="uuid-225a0872-173b-4b46-aed8-2e35cbf6e757"><path class="uuid-f24f0e0b-9e13-457a-bfde-76b431f2e78e" d="m81.47,0H11.81C5.29,0,0,5.29,0,11.81v138.85c0,6.52,5.29,11.81,11.81,11.81h102.17c6.52,0,11.81-5.29,11.81-11.81V44.31L81.47,0Z"/><path class="uuid-5932a3eb-99bd-4c85-b913-343538d26389" d="m79.84,34.13c0,6.52,5.29,11.81,11.81,11.81l34.13-1.63L81.47,0l-1.63,34.13Z"/><path class="uuid-f24f0e0b-9e13-457a-bfde-76b431f2e78e" d="m81.47,32.5c0,6.52,5.29,11.81,11.81,11.81h32.5L81.47,0v32.5Z"/><path class="uuid-46737b8a-f3a9-413c-9fcb-80195bb906d8" d="m81.47,32.5c0,6.52,5.29,11.81,11.81,11.81h32.5L81.47,0v32.5Z"/><path class="uuid-63e75b44-ce75-4c5b-8c00-06d4c214952c" d="m29.1,94.09v-25.74h19.08v4.35h-13.89v5.71h12.92v4.34h-12.92v7.01h14.38v4.34h-19.58Z"/><path class="uuid-63e75b44-ce75-4c5b-8c00-06d4c214952c" d="m53.08,94.09v-25.74h8.34c3.16,0,5.22.13,6.18.39,1.47.39,2.71,1.23,3.7,2.52.99,1.29,1.49,2.96,1.49,5.01,0,1.58-.29,2.91-.86,3.99-.57,1.08-1.3,1.92-2.19,2.54-.88.61-1.78,1.02-2.69,1.22-1.24.25-3.04.37-5.39.37h-3.39v9.71h-5.2Zm5.2-21.38v7.3h2.84c2.05,0,3.42-.13,4.11-.4.69-.27,1.23-.69,1.62-1.26.39-.57.59-1.24.59-2,0-.94-.28-1.71-.83-2.32-.55-.61-1.25-.99-2.09-1.14-.62-.12-1.87-.18-3.74-.18h-2.51Z"/><path class="uuid-63e75b44-ce75-4c5b-8c00-06d4c214952c" d="m75.75,85.72l5.06-.49c.3,1.7.92,2.94,1.85,3.74.93.8,2.19,1.19,3.77,1.19,1.67,0,2.93-.35,3.78-1.06.85-.71,1.27-1.54,1.27-2.48,0-.61-.18-1.13-.54-1.55-.36-.43-.98-.8-1.87-1.11-.61-.21-2-.59-4.16-1.12-2.79-.69-4.74-1.54-5.86-2.55-1.58-1.42-2.37-3.14-2.37-5.18,0-1.31.37-2.54,1.11-3.68.74-1.14,1.81-2.01,3.21-2.61,1.4-.6,3.09-.9,5.07-.9,3.23,0,5.66.71,7.29,2.12,1.63,1.42,2.49,3.31,2.57,5.67l-5.2.23c-.22-1.32-.7-2.27-1.43-2.85-.73-.58-1.83-.87-3.29-.87s-2.69.31-3.55.93c-.55.4-.83.93-.83,1.6,0,.61.26,1.13.77,1.56.66.55,2.25,1.12,4.78,1.72,2.53.6,4.4,1.21,5.61,1.85,1.21.64,2.16,1.51,2.84,2.62.68,1.11,1.03,2.47,1.03,4.1,0,1.47-.41,2.86-1.23,4.14-.82,1.29-1.98,2.24-3.48,2.87-1.5.63-3.37.94-5.6.94-3.25,0-5.75-.75-7.5-2.26-1.74-1.5-2.79-3.7-3.12-6.57Z"/></g></svg>