<?xml version="1.0" encoding="UTF-8"?><svg id="uuid-b571c6b5-7407-4157-a486-e9fae97438b2" xmlns="http://www.w3.org/2000/svg" viewBox="0 0 125.78 162.47"><defs><style>.uuid-8dfff74e-fd0e-452d-8f3e-485217dcbc16{opacity:.2;}.uuid-8dfff74e-fd0e-452d-8f3e-485217dcbc16,.uuid-09a56f5e-a1cb-4082-9b3e-f1f8c187a22d,.uuid-dd51671e-00c1-4b92-a229-abcb837d683b,.uuid-7cb63a6c-4822-4f90-8f3a-e7a247ce8a32{stroke-width:0px;}.uuid-8dfff74e-fd0e-452d-8f3e-485217dcbc16,.uuid-7cb63a6c-4822-4f90-8f3a-e7a247ce8a32{fill:#fff;}.uuid-09a56f5e-a1cb-4082-9b3e-f1f8c187a22d{opacity:.19;}.uuid-dd51671e-00c1-4b92-a229-abcb837d683b{fill:#5a9a02;}</style></defs><g id="uuid-2e3643b0-6960-40a8-9b13-443b54a43f77"><path class="uuid-dd51671e-00c1-4b92-a229-abcb837d683b" d="m81.47,0H11.81C5.29,0,0,5.29,0,11.81v138.85c0,6.52,5.29,11.81,11.81,11.81h102.17c6.52,0,11.81-5.29,11.81-11.81V44.31L81.47,0Z"/><path class="uuid-09a56f5e-a1cb-4082-9b3e-f1f8c187a22d" d="m79.84,34.13c0,6.52,5.29,11.81,11.81,11.81l34.13-1.63L81.47,0l-1.63,34.13Z"/><path class="uuid-dd51671e-00c1-4b92-a229-abcb837d683b" d="m81.47,32.5c0,6.52,5.29,11.81,11.81,11.81h32.5L81.47,0v32.5Z"/><path class="uuid-8dfff74e-fd0e-452d-8f3e-485217dcbc16" d="m81.47,32.5c0,6.52,5.29,11.81,11.81,11.81h32.5L81.47,0v32.5Z"/><path class="uuid-7cb63a6c-4822-4f90-8f3a-e7a247ce8a32" d="m30.55,93.56v-24.65h18.28v4.17h-13.3v5.46h12.38v4.15h-12.38v6.71h13.77v4.15h-18.75Z"/><path class="uuid-7cb63a6c-4822-4f90-8f3a-e7a247ce8a32" d="m51.01,93.56l8.42-12.86-7.63-11.79h5.82l4.94,7.92,4.84-7.92h5.77l-7.67,11.97,8.42,12.68h-6l-5.46-8.53-5.48,8.53h-5.97Z"/><path class="uuid-7cb63a6c-4822-4f90-8f3a-e7a247ce8a32" d="m76.49,93.56v-24.65h18.28v4.17h-13.3v5.46h12.38v4.15h-12.38v6.71h13.77v4.15h-18.75Z"/></g></svg>