<?xml version="1.0" encoding="UTF-8"?><svg id="uuid-58a364ec-54f0-4a56-8701-67c2c90a4885" xmlns="http://www.w3.org/2000/svg" viewBox="0 0 125.78 162.47"><defs><style>.uuid-304f2b5b-215f-44ef-9740-f819ad8f5df3{opacity:.2;}.uuid-304f2b5b-215f-44ef-9740-f819ad8f5df3,.uuid-4c6d5337-dd0a-4894-a1bf-0492b59c89e8,.uuid-7e39f799-3977-4c8f-a080-bad02cd92275,.uuid-bdbe6429-1d31-4c6f-9743-b509c5257c0f{stroke-width:0px;}.uuid-304f2b5b-215f-44ef-9740-f819ad8f5df3,.uuid-bdbe6429-1d31-4c6f-9743-b509c5257c0f{fill:#fff;}.uuid-4c6d5337-dd0a-4894-a1bf-0492b59c89e8{opacity:.19;}.uuid-7e39f799-3977-4c8f-a080-bad02cd92275{fill:#a3c3c9;}</style></defs><g id="uuid-453a8521-b330-4dc2-82c7-c4dc270a046d"><path class="uuid-7e39f799-3977-4c8f-a080-bad02cd92275" d="m81.47,0H11.81C5.29,0,0,5.29,0,11.81v138.85c0,6.52,5.29,11.81,11.81,11.81h102.17c6.52,0,11.81-5.29,11.81-11.81V44.31L81.47,0Z"/><path class="uuid-4c6d5337-dd0a-4894-a1bf-0492b59c89e8" d="m79.84,34.13c0,6.52,5.29,11.81,11.81,11.81l34.13-1.63L81.47,0l-1.63,34.13Z"/><path class="uuid-7e39f799-3977-4c8f-a080-bad02cd92275" d="m81.47,32.5c0,6.52,5.29,11.81,11.81,11.81h32.5L81.47,0v32.5Z"/><path class="uuid-bdbe6429-1d31-4c6f-9743-b509c5257c0f" d="m16.86,93.56v-24.65h4.98v9.7h9.75v-9.7h4.98v24.65h-4.98v-10.78h-9.75v10.78h-4.98Z"/><path class="uuid-bdbe6429-1d31-4c6f-9743-b509c5257c0f" d="m47.26,93.56v-20.48h-7.31v-4.17h19.59v4.17h-7.3v20.48h-4.98Z"/><path class="uuid-bdbe6429-1d31-4c6f-9743-b509c5257c0f" d="m62.68,93.56v-24.65h7.45l4.47,16.82,4.42-16.82h7.47v24.65h-4.62v-19.4l-4.89,19.4h-4.79l-4.88-19.4v19.4h-4.62Z"/><path class="uuid-bdbe6429-1d31-4c6f-9743-b509c5257c0f" d="m91.57,93.56v-24.45h4.98v20.3h12.38v4.15h-17.35Z"/><path class="uuid-304f2b5b-215f-44ef-9740-f819ad8f5df3" d="m81.47,32.5c0,6.52,5.29,11.81,11.81,11.81h32.5L81.47,0v32.5Z"/></g></svg>