<?xml version="1.0" encoding="UTF-8"?><svg id="uuid-26e8b458-26dd-4abe-a60d-b6e9212ab1c5" xmlns="http://www.w3.org/2000/svg" viewBox="0 0 125.78 162.47"><defs><style>.uuid-ffceb611-6ab5-49de-89a1-cafcc8f10d31{opacity:.2;}.uuid-ffceb611-6ab5-49de-89a1-cafcc8f10d31,.uuid-140cab85-74b1-4fe2-ba7b-5744739145df,.uuid-66436b07-bda1-457b-9538-b60b010dc6ea,.uuid-6ebba445-1a96-4fb3-b4e0-7d560ffbab1a{stroke-width:0px;}.uuid-ffceb611-6ab5-49de-89a1-cafcc8f10d31,.uuid-6ebba445-1a96-4fb3-b4e0-7d560ffbab1a{fill:#fff;}.uuid-140cab85-74b1-4fe2-ba7b-5744739145df{opacity:.19;}.uuid-66436b07-bda1-457b-9538-b60b010dc6ea{fill:#c12631;}</style></defs><g id="uuid-442f41f3-9029-4661-9bb4-b9a5d5117b1d"><path class="uuid-66436b07-bda1-457b-9538-b60b010dc6ea" d="m81.47,0H11.81C5.29,0,0,5.29,0,11.81v138.85c0,6.52,5.29,11.81,11.81,11.81h102.17c6.52,0,11.81-5.29,11.81-11.81V44.31L81.47,0Z"/><path class="uuid-140cab85-74b1-4fe2-ba7b-5744739145df" d="m79.84,34.13c0,6.52,5.29,11.81,11.81,11.81l34.13-1.63L81.47,0l-1.63,34.13Z"/><path class="uuid-66436b07-bda1-457b-9538-b60b010dc6ea" d="m81.47,32.5c0,6.52,5.29,11.81,11.81,11.81h32.5L81.47,0v32.5Z"/><path class="uuid-ffceb611-6ab5-49de-89a1-cafcc8f10d31" d="m81.47,32.5c0,6.52,5.29,11.81,11.81,11.81h32.5L81.47,0v32.5Z"/><path class="uuid-6ebba445-1a96-4fb3-b4e0-7d560ffbab1a" d="m39.6,68.36h5.18v16.29c0,2.13-.19,3.77-.56,4.92-.5,1.5-1.42,2.7-2.74,3.61-1.32.91-3.07,1.36-5.23,1.36-2.54,0-4.49-.71-5.86-2.13-1.37-1.42-2.06-3.51-2.07-6.26l4.9-.56c.06,1.47.27,2.52.65,3.12.56.92,1.42,1.39,2.56,1.39s1.98-.33,2.46-.99c.48-.66.72-2.03.72-4.12v-16.63Z"/><path class="uuid-6ebba445-1a96-4fb3-b4e0-7d560ffbab1a" d="m50.31,94.1v-25.74h8.34c3.16,0,5.22.13,6.18.39,1.47.39,2.71,1.23,3.7,2.52.99,1.29,1.49,2.96,1.49,5.01,0,1.58-.29,2.91-.86,3.99-.57,1.08-1.3,1.92-2.19,2.54-.88.61-1.78,1.02-2.69,1.22-1.24.25-3.04.37-5.39.37h-3.39v9.71h-5.2Zm5.2-21.38v7.3h2.84c2.05,0,3.42-.13,4.11-.4.69-.27,1.23-.69,1.62-1.26.39-.57.59-1.24.59-2,0-.94-.28-1.71-.83-2.32-.55-.61-1.25-.99-2.09-1.14-.62-.12-1.87-.18-3.74-.18h-2.51Z"/><path class="uuid-6ebba445-1a96-4fb3-b4e0-7d560ffbab1a" d="m86.27,84.64v-4.34h11.2v10.25c-1.09,1.05-2.67,1.98-4.73,2.78-2.07.8-4.16,1.2-6.28,1.2-2.69,0-5.04-.56-7.04-1.69-2-1.13-3.51-2.74-4.51-4.85-1.01-2.1-1.51-4.39-1.51-6.86,0-2.68.56-5.06,1.69-7.15s2.77-3.68,4.93-4.79c1.65-.85,3.7-1.28,6.16-1.28,3.2,0,5.69.67,7.49,2.01,1.8,1.34,2.95,3.19,3.47,5.56l-5.16.97c-.36-1.26-1.04-2.26-2.05-2.99-1-.73-2.25-1.1-3.75-1.1-2.27,0-4.08.72-5.42,2.16-1.34,1.44-2.01,3.58-2.01,6.41,0,3.05.68,5.35,2.04,6.87,1.36,1.53,3.14,2.29,5.34,2.29,1.09,0,2.18-.21,3.27-.64,1.09-.43,2.03-.95,2.82-1.55v-3.27h-5.95Z"/></g></svg>