<?xml version="1.0" encoding="UTF-8"?><svg id="uuid-5273a819-fe36-4654-8508-eea23728a96f" xmlns="http://www.w3.org/2000/svg" viewBox="0 0 125.78 162.47"><defs><style>.uuid-6b214249-9a33-427e-a0e9-6883067482b2{opacity:.2;}.uuid-6b214249-9a33-427e-a0e9-6883067482b2,.uuid-016995ff-3e58-416d-be93-5e445f8afc57,.uuid-605ac222-92bd-4ccc-931c-5b2b814d4dd9,.uuid-1e7ecdd8-dc5b-4fef-acd0-da6feb3e6815{stroke-width:0px;}.uuid-6b214249-9a33-427e-a0e9-6883067482b2,.uuid-605ac222-92bd-4ccc-931c-5b2b814d4dd9{fill:#fff;}.uuid-016995ff-3e58-416d-be93-5e445f8afc57{opacity:.19;}.uuid-1e7ecdd8-dc5b-4fef-acd0-da6feb3e6815{fill:#02aef0;}</style></defs><g id="uuid-ba080cc6-28bc-4c5e-a939-45ee87f375d0"><path class="uuid-1e7ecdd8-dc5b-4fef-acd0-da6feb3e6815" d="m81.47,0H11.81C5.29,0,0,5.29,0,11.81v138.85c0,6.52,5.29,11.81,11.81,11.81h102.17c6.52,0,11.81-5.29,11.81-11.81V44.31L81.47,0Z"/><path class="uuid-016995ff-3e58-416d-be93-5e445f8afc57" d="m79.84,34.13c0,6.52,5.29,11.81,11.81,11.81l34.13-1.63L81.47,0l-1.63,34.13Z"/><path class="uuid-1e7ecdd8-dc5b-4fef-acd0-da6feb3e6815" d="m81.47,32.5c0,6.52,5.29,11.81,11.81,11.81h32.5L81.47,0v32.5Z"/><path class="uuid-6b214249-9a33-427e-a0e9-6883067482b2" d="m81.47,32.5c0,6.52,5.29,11.81,11.81,11.81h32.5L81.47,0v32.5Z"/><path class="uuid-605ac222-92bd-4ccc-931c-5b2b814d4dd9" d="m23.23,94.1v-25.74h7.78l4.67,17.56,4.62-17.56h7.8v25.74h-4.83v-20.26l-5.11,20.26h-5l-5.09-20.26v20.26h-4.83Z"/><path class="uuid-605ac222-92bd-4ccc-931c-5b2b814d4dd9" d="m52.2,81.39c0-2.62.39-4.82,1.18-6.6.58-1.31,1.38-2.49,2.4-3.53,1.01-1.04,2.12-1.81,3.33-2.32,1.6-.68,3.45-1.02,5.55-1.02,3.79,0,6.83,1.18,9.1,3.53,2.28,2.35,3.41,5.62,3.41,9.81s-1.13,7.41-3.39,9.75c-2.26,2.35-5.28,3.52-9.06,3.52s-6.87-1.17-9.13-3.5c-2.26-2.34-3.39-5.55-3.39-9.65Zm5.36-.18c0,2.91.67,5.12,2.02,6.63,1.35,1.5,3.06,2.26,5.13,2.26s3.77-.75,5.1-2.24c1.33-1.49,1.99-3.73,1.99-6.72s-.65-5.15-1.94-6.6c-1.29-1.45-3.01-2.18-5.15-2.18s-3.87.73-5.18,2.2c-1.31,1.47-1.97,3.68-1.97,6.65Z"/><path class="uuid-605ac222-92bd-4ccc-931c-5b2b814d4dd9" d="m87.79,94.1l-9.2-25.74h5.64l6.51,19.05,6.3-19.05h5.51l-9.22,25.74h-5.55Z"/></g></svg>