<?xml version="1.0" encoding="UTF-8"?><svg id="uuid-057e6fd4-9056-4085-b440-442c26640df5" xmlns="http://www.w3.org/2000/svg" viewBox="0 0 125.78 162.47"><defs><style>.uuid-0dde85f4-a2f4-4fc4-b569-4238dd957dc1{opacity:.2;}.uuid-0dde85f4-a2f4-4fc4-b569-4238dd957dc1,.uuid-8376ec1b-0875-41c6-9eea-443393397dbf,.uuid-55dc3cb4-3ee4-4aa3-9af7-504eeeb05ea1,.uuid-4ed3780c-6c46-4ea2-b893-92cfb751fd94{stroke-width:0px;}.uuid-0dde85f4-a2f4-4fc4-b569-4238dd957dc1,.uuid-4ed3780c-6c46-4ea2-b893-92cfb751fd94{fill:#fff;}.uuid-8376ec1b-0875-41c6-9eea-443393397dbf{opacity:.19;}.uuid-55dc3cb4-3ee4-4aa3-9af7-504eeeb05ea1{fill:#a3c3c9;}</style></defs><g id="uuid-d18982d1-d529-49e6-bd8a-c4f992fea406"><path class="uuid-55dc3cb4-3ee4-4aa3-9af7-504eeeb05ea1" d="m81.47,0H11.81C5.29,0,0,5.29,0,11.81v138.85c0,6.52,5.29,11.81,11.81,11.81h102.17c6.52,0,11.81-5.29,11.81-11.81V44.31L81.47,0Z"/><path class="uuid-8376ec1b-0875-41c6-9eea-443393397dbf" d="m79.84,34.13c0,6.52,5.29,11.81,11.81,11.81l34.13-1.63L81.47,0l-1.63,34.13Z"/><path class="uuid-55dc3cb4-3ee4-4aa3-9af7-504eeeb05ea1" d="m81.47,32.5c0,6.52,5.29,11.81,11.81,11.81h32.5L81.47,0v32.5Z"/><path class="uuid-0dde85f4-a2f4-4fc4-b569-4238dd957dc1" d="m81.47,32.5c0,6.52,5.29,11.81,11.81,11.81h32.5L81.47,0v32.5Z"/><path class="uuid-4ed3780c-6c46-4ea2-b893-92cfb751fd94" d="m27.97,93.94v-25.74h7.78l4.67,17.56,4.62-17.56h7.8v25.74h-4.83v-20.26l-5.11,20.26h-5l-5.09-20.26v20.26h-4.83Z"/><path class="uuid-4ed3780c-6c46-4ea2-b893-92cfb751fd94" d="m57.99,93.94v-25.74h8.34c3.16,0,5.22.13,6.18.39,1.47.39,2.71,1.23,3.7,2.52.99,1.29,1.49,2.96,1.49,5.01,0,1.58-.29,2.91-.86,3.99-.57,1.08-1.3,1.92-2.19,2.54-.88.61-1.78,1.02-2.69,1.22-1.24.25-3.04.37-5.39.37h-3.39v9.71h-5.2Zm5.2-21.38v7.3h2.84c2.05,0,3.42-.13,4.11-.4.69-.27,1.23-.69,1.62-1.26.39-.57.59-1.24.59-2,0-.94-.28-1.71-.83-2.32s-1.25-.99-2.09-1.14c-.62-.12-1.87-.18-3.74-.18h-2.51Z"/><path class="uuid-4ed3780c-6c46-4ea2-b893-92cfb751fd94" d="m80.71,87.11l4.78-.58c.15,1.22.56,2.15,1.23,2.79.67.64,1.48.97,2.42.97,1.02,0,1.88-.39,2.57-1.16.7-.77,1.04-1.81,1.04-3.13,0-1.24-.33-2.22-1-2.95-.67-.73-1.48-1.09-2.44-1.09-.63,0-1.39.12-2.26.37l.54-4.02c1.33.03,2.35-.25,3.05-.87.7-.61,1.05-1.43,1.05-2.45,0-.87-.26-1.56-.77-2.07-.52-.51-1.2-.77-2.05-.77s-1.56.29-2.16.88c-.6.59-.96,1.44-1.09,2.56l-4.55-.77c.32-1.56.79-2.8,1.43-3.73.64-.93,1.53-1.66,2.67-2.19,1.14-.53,2.42-.8,3.84-.8,2.42,0,4.37.77,5.83,2.32,1.21,1.26,1.81,2.69,1.81,4.28,0,2.26-1.23,4.06-3.7,5.41,1.47.32,2.65,1.02,3.54,2.12.88,1.1,1.33,2.43,1.33,3.99,0,2.26-.83,4.18-2.48,5.78-1.65,1.59-3.7,2.39-6.16,2.39-2.33,0-4.26-.67-5.79-2.01-1.53-1.34-2.42-3.09-2.67-5.26Z"/></g></svg>