<?xml version="1.0" encoding="UTF-8"?><svg id="uuid-42a10d0b-b2b3-4151-9b20-83e7f02de3f1" xmlns="http://www.w3.org/2000/svg" viewBox="0 0 125.78 162.47"><defs><style>.uuid-a9e35d80-c895-430a-94a6-9f49d0b5ed18{opacity:.2;}.uuid-a9e35d80-c895-430a-94a6-9f49d0b5ed18,.uuid-7b194d6f-0e91-4da9-9ef1-d763a50e2c3d,.uuid-58a1259a-88cc-4bb1-9139-1a0ead9c98a8,.uuid-04f40e76-0acb-4241-b54e-4eafb5fc87cd{stroke-width:0px;}.uuid-a9e35d80-c895-430a-94a6-9f49d0b5ed18,.uuid-04f40e76-0acb-4241-b54e-4eafb5fc87cd{fill:#fff;}.uuid-7b194d6f-0e91-4da9-9ef1-d763a50e2c3d{opacity:.19;}.uuid-58a1259a-88cc-4bb1-9139-1a0ead9c98a8{fill:#c12631;}</style></defs><g id="uuid-1f2902a1-ab3c-4126-99f9-015cc383d27c"><path class="uuid-58a1259a-88cc-4bb1-9139-1a0ead9c98a8" d="m81.47,0H11.81C5.29,0,0,5.29,0,11.81v138.85c0,6.52,5.29,11.81,11.81,11.81h102.17c6.52,0,11.81-5.29,11.81-11.81V44.31L81.47,0Z"/><path class="uuid-7b194d6f-0e91-4da9-9ef1-d763a50e2c3d" d="m79.84,34.13c0,6.52,5.29,11.81,11.81,11.81l34.13-1.63L81.47,0l-1.63,34.13Z"/><path class="uuid-58a1259a-88cc-4bb1-9139-1a0ead9c98a8" d="m81.47,32.5c0,6.52,5.29,11.81,11.81,11.81h32.5L81.47,0v32.5Z"/><path class="uuid-a9e35d80-c895-430a-94a6-9f49d0b5ed18" d="m81.47,32.5c0,6.52,5.29,11.81,11.81,11.81h32.5L81.47,0v32.5Z"/><path class="uuid-04f40e76-0acb-4241-b54e-4eafb5fc87cd" d="m29.08,94.1v-25.74h8.34c3.16,0,5.22.13,6.18.39,1.47.39,2.71,1.23,3.7,2.52.99,1.29,1.49,2.97,1.49,5.01,0,1.58-.29,2.91-.86,3.99-.57,1.08-1.3,1.92-2.19,2.54-.88.61-1.78,1.02-2.69,1.22-1.24.25-3.04.37-5.39.37h-3.39v9.71h-5.2Zm5.2-21.38v7.3h2.84c2.05,0,3.42-.13,4.11-.4.69-.27,1.23-.69,1.62-1.26.39-.57.59-1.24.59-2,0-.94-.28-1.71-.83-2.32-.55-.61-1.25-.99-2.09-1.14-.62-.12-1.87-.18-3.74-.18h-2.51Z"/><path class="uuid-04f40e76-0acb-4241-b54e-4eafb5fc87cd" d="m53.04,68.36h9.5c2.14,0,3.77.16,4.9.49,1.51.45,2.8,1.24,3.88,2.37,1.08,1.14,1.9,2.53,2.46,4.17.56,1.64.84,3.67.84,6.08,0,2.12-.26,3.95-.79,5.48-.64,1.87-1.56,3.39-2.76,4.55-.9.88-2.12,1.56-3.65,2.05-1.15.36-2.68.54-4.6.54h-9.78v-25.74Zm5.2,4.35v17.05h3.88c1.45,0,2.5-.08,3.14-.25.84-.21,1.54-.57,2.1-1.07.56-.5,1.01-1.33,1.36-2.48.35-1.15.53-2.72.53-4.71s-.18-3.52-.53-4.58c-.35-1.06-.84-1.9-1.47-2.49-.63-.6-1.43-1-2.41-1.21-.73-.16-2.15-.25-4.27-.25h-2.33Z"/><path class="uuid-04f40e76-0acb-4241-b54e-4eafb5fc87cd" d="m79.06,94.1v-25.74h17.64v4.35h-12.45v6.09h10.74v4.35h-10.74v10.94h-5.2Z"/></g></svg>