<?xml version="1.0" encoding="UTF-8"?><svg id="uuid-44dbcf0b-8395-4c3c-8f90-56acb4255da9" xmlns="http://www.w3.org/2000/svg" viewBox="0 0 125.78 162.47"><defs><style>.uuid-8a644f85-e64a-40b6-8201-7c234b6bd10b{opacity:.2;}.uuid-8a644f85-e64a-40b6-8201-7c234b6bd10b,.uuid-f35654a0-8938-45c2-8b9a-cf9fbe38d18c,.uuid-f5ec0530-cc31-456d-bcbd-e90280c9a570,.uuid-6c66a617-dcac-4504-9637-a31d48a629c5{stroke-width:0px;}.uuid-8a644f85-e64a-40b6-8201-7c234b6bd10b,.uuid-6c66a617-dcac-4504-9637-a31d48a629c5{fill:#fff;}.uuid-f35654a0-8938-45c2-8b9a-cf9fbe38d18c{opacity:.19;}.uuid-f5ec0530-cc31-456d-bcbd-e90280c9a570{fill:#272f89;}</style></defs><g id="uuid-5a58e912-477b-411e-9de2-a9aa8d578149"><path class="uuid-f5ec0530-cc31-456d-bcbd-e90280c9a570" d="m81.47,0H11.81C5.29,0,0,5.29,0,11.81v138.85c0,6.52,5.29,11.81,11.81,11.81h102.17c6.52,0,11.81-5.29,11.81-11.81V44.31L81.47,0Z"/><path class="uuid-f35654a0-8938-45c2-8b9a-cf9fbe38d18c" d="m79.84,34.13c0,6.52,5.29,11.81,11.81,11.81l34.13-1.63L81.47,0l-1.63,34.13Z"/><path class="uuid-f5ec0530-cc31-456d-bcbd-e90280c9a570" d="m81.47,32.5c0,6.52,5.29,11.81,11.81,11.81h32.5L81.47,0v32.5Z"/><path class="uuid-8a644f85-e64a-40b6-8201-7c234b6bd10b" d="m81.47,32.5c0,6.52,5.29,11.81,11.81,11.81h32.5L81.47,0v32.5Z"/><path class="uuid-6c66a617-dcac-4504-9637-a31d48a629c5" d="m28.06,94.1v-25.74h8.34c3.16,0,5.22.13,6.18.39,1.47.39,2.71,1.23,3.7,2.52.99,1.29,1.49,2.96,1.49,5.01,0,1.58-.29,2.91-.86,3.99-.57,1.08-1.3,1.92-2.19,2.54-.88.61-1.78,1.02-2.69,1.22-1.24.25-3.04.37-5.39.37h-3.39v9.71h-5.2Zm5.2-21.38v7.3h2.84c2.05,0,3.42-.13,4.11-.4.69-.27,1.23-.69,1.62-1.26.39-.57.59-1.24.59-2,0-.94-.28-1.71-.83-2.32-.55-.61-1.25-.99-2.09-1.14-.62-.12-1.87-.18-3.74-.18h-2.51Z"/><path class="uuid-6c66a617-dcac-4504-9637-a31d48a629c5" d="m52.06,94.1v-25.74h5.2v10.13h10.18v-10.13h5.2v25.74h-5.2v-11.25h-10.18v11.25h-5.2Z"/><path class="uuid-6c66a617-dcac-4504-9637-a31d48a629c5" d="m78.01,94.1v-25.74h8.34c3.16,0,5.22.13,6.18.39,1.47.39,2.71,1.23,3.7,2.52.99,1.29,1.49,2.96,1.49,5.01,0,1.58-.29,2.91-.86,3.99-.57,1.08-1.3,1.92-2.19,2.54-.88.61-1.78,1.02-2.69,1.22-1.24.25-3.04.37-5.39.37h-3.39v9.71h-5.2Zm5.2-21.38v7.3h2.84c2.05,0,3.42-.13,4.11-.4.69-.27,1.23-.69,1.62-1.26.39-.57.59-1.24.59-2,0-.94-.28-1.71-.83-2.32-.55-.61-1.25-.99-2.09-1.14-.62-.12-1.87-.18-3.74-.18h-2.51Z"/></g></svg>