<?xml version="1.0" encoding="UTF-8"?><svg id="uuid-0f7844c9-396c-4595-8912-23f01e552c08" xmlns="http://www.w3.org/2000/svg" viewBox="0 0 125.78 162.47"><defs><style>.uuid-0043a40b-3853-44ed-9ad9-feba4988ca8e{opacity:.2;}.uuid-0043a40b-3853-44ed-9ad9-feba4988ca8e,.uuid-cae9c376-c49a-4807-984a-2d2ce4a415a1,.uuid-8c8ec0ce-39ad-44c2-939d-88a81fe5b1fe,.uuid-44330b84-907b-4469-a52f-eca428371a7d{stroke-width:0px;}.uuid-0043a40b-3853-44ed-9ad9-feba4988ca8e,.uuid-44330b84-907b-4469-a52f-eca428371a7d{fill:#fff;}.uuid-cae9c376-c49a-4807-984a-2d2ce4a415a1{opacity:.19;}.uuid-8c8ec0ce-39ad-44c2-939d-88a81fe5b1fe{fill:#699daa;}</style></defs><g id="uuid-d5de3e3d-2757-42ef-abcb-219e0bd7af87"><path class="uuid-8c8ec0ce-39ad-44c2-939d-88a81fe5b1fe" d="m81.47,0H11.81C5.29,0,0,5.29,0,11.81v138.85c0,6.52,5.29,11.81,11.81,11.81h102.17c6.52,0,11.81-5.29,11.81-11.81V44.31L81.47,0Z"/><path class="uuid-cae9c376-c49a-4807-984a-2d2ce4a415a1" d="m79.84,34.13c0,6.52,5.29,11.81,11.81,11.81l34.13-1.63L81.47,0l-1.63,34.13Z"/><path class="uuid-8c8ec0ce-39ad-44c2-939d-88a81fe5b1fe" d="m81.47,32.5c0,6.52,5.29,11.81,11.81,11.81h32.5L81.47,0v32.5Z"/><path class="uuid-0043a40b-3853-44ed-9ad9-feba4988ca8e" d="m81.47,32.5c0,6.52,5.29,11.81,11.81,11.81h32.5L81.47,0v32.5Z"/><path class="uuid-44330b84-907b-4469-a52f-eca428371a7d" d="m26.33,94.1v-25.74h8.34c3.16,0,5.22.13,6.18.39,1.47.39,2.71,1.23,3.7,2.52.99,1.29,1.49,2.97,1.49,5.01,0,1.58-.29,2.91-.86,3.99-.57,1.08-1.3,1.92-2.19,2.54-.88.61-1.78,1.02-2.69,1.22-1.24.25-3.04.37-5.39.37h-3.39v9.71h-5.2Zm5.2-21.38v7.3h2.84c2.05,0,3.42-.13,4.11-.4.69-.27,1.23-.69,1.62-1.26.39-.57.59-1.24.59-2,0-.94-.28-1.71-.83-2.32-.55-.61-1.25-.99-2.09-1.14-.62-.12-1.87-.18-3.74-.18h-2.51Z"/><path class="uuid-44330b84-907b-4469-a52f-eca428371a7d" d="m50.36,94.1v-25.74h5.06l10.53,17.19v-17.19h4.83v25.74h-5.21l-10.38-16.78v16.78h-4.83Z"/><path class="uuid-44330b84-907b-4469-a52f-eca428371a7d" d="m88.25,84.64v-4.34h11.2v10.25c-1.09,1.05-2.67,1.98-4.73,2.78-2.07.8-4.16,1.2-6.28,1.2-2.69,0-5.04-.56-7.04-1.69-2-1.13-3.51-2.74-4.51-4.85-1.01-2.1-1.51-4.39-1.51-6.86,0-2.68.56-5.06,1.69-7.15s2.77-3.68,4.93-4.79c1.65-.85,3.7-1.28,6.16-1.28,3.2,0,5.69.67,7.49,2.01,1.8,1.34,2.95,3.19,3.47,5.56l-5.16.97c-.36-1.26-1.04-2.26-2.05-2.99-1-.73-2.25-1.1-3.75-1.1-2.27,0-4.08.72-5.42,2.16-1.34,1.44-2.01,3.58-2.01,6.41,0,3.06.68,5.35,2.04,6.87,1.36,1.53,3.14,2.29,5.34,2.29,1.09,0,2.18-.21,3.27-.64,1.09-.43,2.03-.95,2.82-1.55v-3.27h-5.95Z"/></g></svg>