<?xml version="1.0" encoding="UTF-8"?><svg id="uuid-b2760252-95ae-4a81-ade5-0bf4a7aa1417" xmlns="http://www.w3.org/2000/svg" viewBox="0 0 125.78 162.47"><defs><style>.uuid-b61563de-997c-452d-85ca-7e59c7a4ddb7{opacity:.2;}.uuid-b61563de-997c-452d-85ca-7e59c7a4ddb7,.uuid-8e5e50e7-5c58-4df0-9649-200414491014,.uuid-9988b330-3095-4bad-bda2-57a537696f59,.uuid-9c21f635-4366-4dac-9d28-0df4eaec264a{stroke-width:0px;}.uuid-b61563de-997c-452d-85ca-7e59c7a4ddb7,.uuid-9c21f635-4366-4dac-9d28-0df4eaec264a{fill:#fff;}.uuid-8e5e50e7-5c58-4df0-9649-200414491014{opacity:.19;}.uuid-9988b330-3095-4bad-bda2-57a537696f59{fill:#e18700;}</style></defs><g id="uuid-f5c0ad5c-412b-4a16-a2fa-3a3122a2173f"><path class="uuid-9988b330-3095-4bad-bda2-57a537696f59" d="m81.47,0H11.81C5.29,0,0,5.29,0,11.81v138.85c0,6.52,5.29,11.81,11.81,11.81h102.17c6.52,0,11.81-5.29,11.81-11.81V44.31L81.47,0Z"/><path class="uuid-8e5e50e7-5c58-4df0-9649-200414491014" d="m79.84,34.13c0,6.52,5.29,11.81,11.81,11.81l34.13-1.63L81.47,0l-1.63,34.13Z"/><path class="uuid-9988b330-3095-4bad-bda2-57a537696f59" d="m81.47,32.5c0,6.52,5.29,11.81,11.81,11.81h32.5L81.47,0v32.5Z"/><path class="uuid-b61563de-997c-452d-85ca-7e59c7a4ddb7" d="m81.47,32.5c0,6.52,5.29,11.81,11.81,11.81h32.5L81.47,0v32.5Z"/><path class="uuid-9c21f635-4366-4dac-9d28-0df4eaec264a" d="m29.6,94.1v-25.74h8.34c3.16,0,5.22.13,6.18.39,1.47.39,2.71,1.23,3.7,2.52.99,1.29,1.49,2.97,1.49,5.01,0,1.58-.29,2.91-.86,3.99-.57,1.08-1.3,1.92-2.19,2.54s-1.78,1.02-2.69,1.22c-1.24.25-3.04.37-5.39.37h-3.39v9.71h-5.2Zm5.2-21.38v7.3h2.84c2.05,0,3.42-.13,4.11-.4.69-.27,1.23-.69,1.62-1.26.39-.57.59-1.24.59-2,0-.94-.28-1.71-.83-2.32-.55-.61-1.25-.99-2.09-1.14-.62-.12-1.87-.18-3.74-.18h-2.51Z"/><path class="uuid-9c21f635-4366-4dac-9d28-0df4eaec264a" d="m53.59,94.1v-25.74h8.34c3.16,0,5.22.13,6.18.39,1.47.39,2.71,1.23,3.7,2.52.99,1.29,1.49,2.97,1.49,5.01,0,1.58-.29,2.91-.86,3.99-.57,1.08-1.3,1.92-2.19,2.54-.88.61-1.78,1.02-2.69,1.22-1.24.25-3.04.37-5.39.37h-3.39v9.71h-5.2Zm5.2-21.38v7.3h2.84c2.05,0,3.42-.13,4.11-.4.69-.27,1.23-.69,1.62-1.26.39-.57.59-1.24.59-2,0-.94-.28-1.71-.83-2.32-.55-.61-1.25-.99-2.09-1.14-.62-.12-1.87-.18-3.74-.18h-2.51Z"/><path class="uuid-9c21f635-4366-4dac-9d28-0df4eaec264a" d="m83.36,94.1v-21.38h-7.64v-4.35h20.45v4.35h-7.62v21.38h-5.2Z"/></g></svg>