<?xml version="1.0" encoding="UTF-8"?><svg id="uuid-a5779dc4-1424-4381-b6cc-ff7902f18d13" xmlns="http://www.w3.org/2000/svg" viewBox="0 0 125.78 162.47"><defs><style>.uuid-5ce8172c-ee60-42aa-9ece-d04ed6db7207{opacity:.2;}.uuid-5ce8172c-ee60-42aa-9ece-d04ed6db7207,.uuid-6dd65845-38c1-4bdd-bb32-8bbdf87ee8f6,.uuid-5e56b68d-9f8e-47d0-8d29-8a7c493f13af,.uuid-0a755d81-c1be-42b9-9829-659e76da5c36{stroke-width:0px;}.uuid-5ce8172c-ee60-42aa-9ece-d04ed6db7207,.uuid-0a755d81-c1be-42b9-9829-659e76da5c36{fill:#fff;}.uuid-6dd65845-38c1-4bdd-bb32-8bbdf87ee8f6{opacity:.19;}.uuid-5e56b68d-9f8e-47d0-8d29-8a7c493f13af{fill:#3d9b6c;}</style></defs><g id="uuid-3817aa39-2239-43f8-9dcd-fc5fa15da022"><path class="uuid-5e56b68d-9f8e-47d0-8d29-8a7c493f13af" d="m81.47,0H11.81C5.29,0,0,5.29,0,11.81v138.85c0,6.52,5.29,11.81,11.81,11.81h102.17c6.52,0,11.81-5.29,11.81-11.81V44.31L81.47,0Z"/><path class="uuid-6dd65845-38c1-4bdd-bb32-8bbdf87ee8f6" d="m79.84,34.13c0,6.52,5.29,11.81,11.81,11.81l34.13-1.63L81.47,0l-1.63,34.13Z"/><path class="uuid-5e56b68d-9f8e-47d0-8d29-8a7c493f13af" d="m81.47,32.5c0,6.52,5.29,11.81,11.81,11.81h32.5L81.47,0v32.5Z"/><path class="uuid-5ce8172c-ee60-42aa-9ece-d04ed6db7207" d="m81.47,32.5c0,6.52,5.29,11.81,11.81,11.81h32.5L81.47,0v32.5Z"/><path class="uuid-0a755d81-c1be-42b9-9829-659e76da5c36" d="m25.35,94.1v-25.74h10.94c2.75,0,4.75.23,6,.69,1.25.46,2.24,1.29,2.99,2.47.75,1.18,1.12,2.53,1.12,4.06,0,1.93-.57,3.53-1.7,4.78-1.14,1.26-2.83,2.05-5.09,2.38,1.12.66,2.05,1.38,2.78,2.16.73.78,1.72,2.18,2.96,4.18l3.14,5.02h-6.22l-3.76-5.6c-1.33-2-2.25-3.26-2.74-3.78-.49-.52-1.01-.88-1.56-1.07-.55-.19-1.42-.29-2.62-.29h-1.05v10.74h-5.2Zm5.2-14.85h3.84c2.49,0,4.05-.11,4.67-.32.62-.21,1.11-.57,1.46-1.09.35-.51.53-1.16.53-1.93,0-.87-.23-1.56-.69-2.1-.46-.53-1.11-.87-1.96-1.01-.42-.06-1.69-.09-3.79-.09h-4.06v6.53Z"/><path class="uuid-0a755d81-c1be-42b9-9829-659e76da5c36" d="m74.51,94.1h-5.65l-2.25-5.85h-10.29l-2.12,5.85h-5.51l10.03-25.74h5.5l10.31,25.74Zm-9.57-10.18l-3.55-9.55-3.48,9.55h7.02Z"/><path class="uuid-0a755d81-c1be-42b9-9829-659e76da5c36" d="m77.29,94.1v-25.74h10.94c2.75,0,4.75.23,6,.69,1.25.46,2.24,1.29,2.99,2.47.75,1.18,1.12,2.53,1.12,4.06,0,1.93-.57,3.53-1.7,4.78-1.14,1.26-2.83,2.05-5.09,2.38,1.12.66,2.05,1.38,2.78,2.16.73.78,1.72,2.18,2.96,4.18l3.14,5.02h-6.22l-3.76-5.6c-1.33-2-2.25-3.26-2.74-3.78-.49-.52-1.01-.88-1.56-1.07-.55-.19-1.42-.29-2.62-.29h-1.05v10.74h-5.2Zm5.2-14.85h3.85c2.49,0,4.05-.11,4.67-.32.62-.21,1.11-.57,1.46-1.09.35-.51.53-1.16.53-1.93,0-.87-.23-1.56-.69-2.1s-1.11-.87-1.96-1.01c-.42-.06-1.69-.09-3.79-.09h-4.06v6.53Z"/></g></svg>