<?xml version="1.0" encoding="UTF-8"?><svg id="uuid-4f96e42d-2e52-4d7c-b0cf-90c55879ae4e" xmlns="http://www.w3.org/2000/svg" viewBox="0 0 125.78 162.47"><defs><style>.uuid-72b12d63-07b3-4d33-bb20-825eeda82179{opacity:.2;}.uuid-72b12d63-07b3-4d33-bb20-825eeda82179,.uuid-fea33e55-cc1b-4fda-9800-a99117789c99,.uuid-519a9ee3-8e63-4717-81b0-d52fe89b81e5,.uuid-bd111c27-924f-4964-8892-25069c7e29d4{stroke-width:0px;}.uuid-72b12d63-07b3-4d33-bb20-825eeda82179,.uuid-bd111c27-924f-4964-8892-25069c7e29d4{fill:#fff;}.uuid-fea33e55-cc1b-4fda-9800-a99117789c99{opacity:.19;}.uuid-519a9ee3-8e63-4717-81b0-d52fe89b81e5{fill:#65459b;}</style></defs><g id="uuid-2e738f4b-699a-4de3-a63a-85f0f374e490"><path class="uuid-519a9ee3-8e63-4717-81b0-d52fe89b81e5" d="m81.47,0H11.81C5.29,0,0,5.29,0,11.81v138.85c0,6.52,5.29,11.81,11.81,11.81h102.17c6.52,0,11.81-5.29,11.81-11.81V44.31L81.47,0Z"/><path class="uuid-fea33e55-cc1b-4fda-9800-a99117789c99" d="m79.84,34.13c0,6.52,5.29,11.81,11.81,11.81l34.13-1.63L81.47,0l-1.63,34.13Z"/><path class="uuid-519a9ee3-8e63-4717-81b0-d52fe89b81e5" d="m81.47,32.5c0,6.52,5.29,11.81,11.81,11.81h32.5L81.47,0v32.5Z"/><path class="uuid-72b12d63-07b3-4d33-bb20-825eeda82179" d="m81.47,32.5c0,6.52,5.29,11.81,11.81,11.81h32.5L81.47,0v32.5Z"/><path class="uuid-bd111c27-924f-4964-8892-25069c7e29d4" d="m24,93.56v-24.65h10.48c2.63,0,4.55.22,5.74.66,1.19.44,2.15,1.23,2.87,2.36.72,1.13,1.08,2.43,1.08,3.88,0,1.85-.54,3.38-1.63,4.58-1.09,1.21-2.71,1.96-4.88,2.28,1.08.63,1.96,1.32,2.67,2.07.7.75,1.65,2.09,2.83,4l3.01,4.81h-5.95l-3.6-5.36c-1.28-1.92-2.15-3.12-2.62-3.62-.47-.5-.97-.84-1.5-1.03-.53-.18-1.36-.28-2.51-.28h-1.01v10.29h-4.98Zm4.98-14.23h3.68c2.39,0,3.88-.1,4.47-.3.59-.2,1.06-.55,1.4-1.04s.5-1.11.5-1.85c0-.83-.22-1.5-.66-2.01-.44-.51-1.07-.83-1.87-.97-.4-.06-1.61-.08-3.63-.08h-3.88v6.26Z"/><path class="uuid-bd111c27-924f-4964-8892-25069c7e29d4" d="m71.08,93.56h-5.41l-2.15-5.6h-9.85l-2.03,5.6h-5.28l9.6-24.65h5.26l9.87,24.65Zm-9.16-9.75l-3.4-9.15-3.33,9.15h6.73Z"/><path class="uuid-bd111c27-924f-4964-8892-25069c7e29d4" d="m75.32,93.56l-5.89-24.65h5.1l3.72,16.93,4.51-16.93h5.92l4.32,17.22,3.78-17.22h5.01l-5.99,24.65h-5.28l-4.91-18.43-4.89,18.43h-5.4Z"/></g></svg>