<?xml version="1.0" encoding="UTF-8"?><svg id="uuid-a3754163-e89b-4b19-a1a7-6f129b11ca84" xmlns="http://www.w3.org/2000/svg" viewBox="0 0 125.78 162.47"><defs><style>.uuid-cdda79bd-e6d0-47a5-8d4e-5b1b9a7a89d5{opacity:.2;}.uuid-cdda79bd-e6d0-47a5-8d4e-5b1b9a7a89d5,.uuid-e794a9b0-349b-4f63-9bb9-3ec5b421ff99,.uuid-41968d5e-1da9-445d-99f6-447f88833417,.uuid-cb61a205-6504-48c9-981c-2974e11a6c39{stroke-width:0px;}.uuid-cdda79bd-e6d0-47a5-8d4e-5b1b9a7a89d5,.uuid-cb61a205-6504-48c9-981c-2974e11a6c39{fill:#fff;}.uuid-e794a9b0-349b-4f63-9bb9-3ec5b421ff99{opacity:.19;}.uuid-41968d5e-1da9-445d-99f6-447f88833417{fill:#272f89;}</style></defs><g id="uuid-8fa29d3c-e06c-4aa8-b229-583f4748bd02"><path class="uuid-41968d5e-1da9-445d-99f6-447f88833417" d="m81.47,0H11.81C5.29,0,0,5.29,0,11.81v138.85c0,6.52,5.29,11.81,11.81,11.81h102.17c6.52,0,11.81-5.29,11.81-11.81V44.31L81.47,0Z"/><path class="uuid-e794a9b0-349b-4f63-9bb9-3ec5b421ff99" d="m79.84,34.13c0,6.52,5.29,11.81,11.81,11.81l34.13-1.63L81.47,0l-1.63,34.13Z"/><path class="uuid-41968d5e-1da9-445d-99f6-447f88833417" d="m81.47,32.5c0,6.52,5.29,11.81,11.81,11.81h32.5L81.47,0v32.5Z"/><path class="uuid-cdda79bd-e6d0-47a5-8d4e-5b1b9a7a89d5" d="m81.47,32.5c0,6.52,5.29,11.81,11.81,11.81h32.5L81.47,0v32.5Z"/><path class="uuid-cb61a205-6504-48c9-981c-2974e11a6c39" d="m37.33,94.1v-21.38h-7.64v-4.35h20.45v4.35h-7.62v21.38h-5.2Z"/><path class="uuid-cb61a205-6504-48c9-981c-2974e11a6c39" d="m50.88,94.1l8.8-13.43-7.97-12.31h6.07l5.16,8.27,5.06-8.27h6.02l-8.01,12.5,8.8,13.24h-6.27l-5.71-8.9-5.72,8.9h-6.23Z"/><path class="uuid-cb61a205-6504-48c9-981c-2974e11a6c39" d="m83.27,94.1v-21.38h-7.64v-4.35h20.45v4.35h-7.62v21.38h-5.2Z"/></g></svg>