<?xml version="1.0" encoding="UTF-8"?><svg id="uuid-aa6505fd-61d0-4008-ae51-1e743d2e16f2" xmlns="http://www.w3.org/2000/svg" viewBox="0 0 125.78 162.47"><defs><style>.uuid-d192556a-3811-49b4-9524-06f5ce0a956c{opacity:.2;}.uuid-d192556a-3811-49b4-9524-06f5ce0a956c,.uuid-b6d9f149-7a5a-4b1c-8872-591ccab3e358,.uuid-39f45dd6-15e5-4c03-a1d9-8b3357537355,.uuid-f74ce6ca-4a28-41dd-9d5b-7f26290ae223{stroke-width:0px;}.uuid-d192556a-3811-49b4-9524-06f5ce0a956c,.uuid-f74ce6ca-4a28-41dd-9d5b-7f26290ae223{fill:#fff;}.uuid-b6d9f149-7a5a-4b1c-8872-591ccab3e358{opacity:.19;}.uuid-39f45dd6-15e5-4c03-a1d9-8b3357537355{fill:#c12631;}</style></defs><g id="uuid-7f72166f-f02d-4bac-9660-211f85fba8c9"><path class="uuid-39f45dd6-15e5-4c03-a1d9-8b3357537355" d="m81.47,0H11.81C5.29,0,0,5.29,0,11.81v138.85c0,6.52,5.29,11.81,11.81,11.81h102.17c6.52,0,11.81-5.29,11.81-11.81V44.31L81.47,0Z"/><path class="uuid-b6d9f149-7a5a-4b1c-8872-591ccab3e358" d="m79.84,34.13c0,6.52,5.29,11.81,11.81,11.81l34.13-1.63L81.47,0l-1.63,34.13Z"/><path class="uuid-39f45dd6-15e5-4c03-a1d9-8b3357537355" d="m81.47,32.5c0,6.52,5.29,11.81,11.81,11.81h32.5L81.47,0v32.5Z"/><path class="uuid-d192556a-3811-49b4-9524-06f5ce0a956c" d="m81.47,32.5c0,6.52,5.29,11.81,11.81,11.81h32.5L81.47,0v32.5Z"/><path class="uuid-f74ce6ca-4a28-41dd-9d5b-7f26290ae223" d="m30.91,93.56l-5.89-24.65h5.09l3.72,16.93,4.51-16.93h5.92l4.32,17.22,3.78-17.22h5.01l-5.99,24.65h-5.28l-4.91-18.43-4.89,18.43h-5.4Z"/><path class="uuid-f74ce6ca-4a28-41dd-9d5b-7f26290ae223" d="m80.24,93.56h-5.41l-2.15-5.6h-9.85l-2.03,5.6h-5.28l9.6-24.65h5.26l9.87,24.65Zm-9.16-9.75l-3.4-9.15-3.33,9.15h6.73Z"/><path class="uuid-f74ce6ca-4a28-41dd-9d5b-7f26290ae223" d="m86.62,93.56l-8.81-24.65h5.4l6.24,18.24,6.04-18.24h5.28l-8.83,24.65h-5.31Z"/></g></svg>