<?xml version="1.0" encoding="UTF-8"?><svg id="uuid-3fd09f0b-27d6-4653-9831-65bbbb4aa29c" xmlns="http://www.w3.org/2000/svg" viewBox="0 0 125.78 162.47"><defs><style>.uuid-d2edeab8-ac8c-47a8-86b2-c8c7f7e9a012{opacity:.2;}.uuid-d2edeab8-ac8c-47a8-86b2-c8c7f7e9a012,.uuid-b131dca6-3943-436e-bce6-6abbcd4cf6dc,.uuid-7d0fe597-a628-4a7a-b60d-27799c986a27,.uuid-1fc30f22-15d1-4601-b940-42909ec4822a{stroke-width:0px;}.uuid-d2edeab8-ac8c-47a8-86b2-c8c7f7e9a012,.uuid-1fc30f22-15d1-4601-b940-42909ec4822a{fill:#fff;}.uuid-b131dca6-3943-436e-bce6-6abbcd4cf6dc{opacity:.19;}.uuid-7d0fe597-a628-4a7a-b60d-27799c986a27{fill:#5a9a02;}</style></defs><g id="uuid-7bd5db52-2741-403c-b60e-dbc08c687125"><path class="uuid-7d0fe597-a628-4a7a-b60d-27799c986a27" d="m81.47,0H11.81C5.29,0,0,5.29,0,11.81v138.85c0,6.52,5.29,11.81,11.81,11.81h102.17c6.52,0,11.81-5.29,11.81-11.81V44.31L81.47,0Z"/><path class="uuid-b131dca6-3943-436e-bce6-6abbcd4cf6dc" d="m79.84,34.13c0,6.52,5.29,11.81,11.81,11.81l34.13-1.63L81.47,0l-1.63,34.13Z"/><path class="uuid-7d0fe597-a628-4a7a-b60d-27799c986a27" d="m81.47,32.5c0,6.52,5.29,11.81,11.81,11.81h32.5L81.47,0v32.5Z"/><path class="uuid-d2edeab8-ac8c-47a8-86b2-c8c7f7e9a012" d="m81.47,32.5c0,6.52,5.29,11.81,11.81,11.81h32.5L81.47,0v32.5Z"/><path class="uuid-1fc30f22-15d1-4601-b940-42909ec4822a" d="m28.8,94.09l8.8-13.43-7.97-12.31h6.07l5.16,8.27,5.06-8.27h6.02l-8.01,12.5,8.8,13.24h-6.27l-5.71-8.9-5.72,8.9h-6.23Z"/><path class="uuid-1fc30f22-15d1-4601-b940-42909ec4822a" d="m55.54,94.09v-25.53h5.2v21.19h12.92v4.34h-18.12Z"/><path class="uuid-1fc30f22-15d1-4601-b940-42909ec4822a" d="m76.05,85.72l5.06-.49c.3,1.7.92,2.94,1.85,3.74.93.8,2.19,1.19,3.77,1.19,1.67,0,2.93-.35,3.78-1.06s1.27-1.54,1.27-2.48c0-.61-.18-1.13-.54-1.55-.36-.43-.98-.8-1.87-1.11-.61-.21-2-.58-4.16-1.12-2.79-.69-4.74-1.54-5.86-2.55-1.58-1.42-2.37-3.14-2.37-5.18,0-1.31.37-2.54,1.11-3.68.74-1.14,1.81-2.01,3.21-2.61,1.4-.6,3.09-.9,5.07-.9,3.23,0,5.66.71,7.29,2.12,1.63,1.42,2.49,3.31,2.57,5.67l-5.2.23c-.22-1.32-.7-2.27-1.43-2.85-.73-.58-1.83-.87-3.29-.87s-2.69.31-3.55.93c-.55.4-.83.93-.83,1.6,0,.61.26,1.13.77,1.56.66.55,2.25,1.12,4.78,1.72,2.53.6,4.4,1.21,5.61,1.85,1.21.64,2.16,1.51,2.84,2.62.68,1.11,1.03,2.47,1.03,4.1,0,1.48-.41,2.86-1.23,4.14-.82,1.29-1.98,2.24-3.48,2.87-1.5.63-3.37.94-5.6.94-3.25,0-5.75-.75-7.5-2.26s-2.79-3.7-3.12-6.58Z"/></g></svg>