<?xml version="1.0" encoding="UTF-8"?><svg id="uuid-d75292f2-bdeb-4660-bd16-f3d5e65bafe1" xmlns="http://www.w3.org/2000/svg" viewBox="0 0 125.78 162.47"><defs><style>.uuid-4cf1589e-fc1d-4383-a1b0-6cb785264c14{opacity:.2;}.uuid-4cf1589e-fc1d-4383-a1b0-6cb785264c14,.uuid-714697d3-6963-485c-9774-024f2d36308a,.uuid-dc7b462c-cd9d-438a-ad83-3d7887fa5dea,.uuid-9cf1f84f-e75c-4043-8ea3-b5479903f0ca{stroke-width:0px;}.uuid-4cf1589e-fc1d-4383-a1b0-6cb785264c14,.uuid-9cf1f84f-e75c-4043-8ea3-b5479903f0ca{fill:#fff;}.uuid-714697d3-6963-485c-9774-024f2d36308a{opacity:.19;}.uuid-dc7b462c-cd9d-438a-ad83-3d7887fa5dea{fill:#f2b604;}</style></defs><g id="uuid-7ea99d6f-9906-4485-a27f-9f2e20933270"><path class="uuid-dc7b462c-cd9d-438a-ad83-3d7887fa5dea" d="m81.47,0H11.81C5.29,0,0,5.29,0,11.81v138.85c0,6.52,5.29,11.81,11.81,11.81h102.17c6.52,0,11.81-5.29,11.81-11.81V44.31L81.47,0Z"/><path class="uuid-714697d3-6963-485c-9774-024f2d36308a" d="m79.84,34.13c0,6.52,5.29,11.81,11.81,11.81l34.13-1.63L81.47,0l-1.63,34.13Z"/><path class="uuid-dc7b462c-cd9d-438a-ad83-3d7887fa5dea" d="m81.47,32.5c0,6.52,5.29,11.81,11.81,11.81h32.5L81.47,0v32.5Z"/><path class="uuid-4cf1589e-fc1d-4383-a1b0-6cb785264c14" d="m81.47,32.5c0,6.52,5.29,11.81,11.81,11.81h32.5L81.47,0v32.5Z"/><path class="uuid-9cf1f84f-e75c-4043-8ea3-b5479903f0ca" d="m35.94,94.1v-4.69l13.52-16.7h-11.99v-4.35h18.84v4.04l-14.1,17.36h14.64v4.34h-20.91Z"/><path class="uuid-9cf1f84f-e75c-4043-8ea3-b5479903f0ca" d="m59.98,94.1v-25.74h5.2v25.74h-5.2Z"/><path class="uuid-9cf1f84f-e75c-4043-8ea3-b5479903f0ca" d="m70.12,94.1v-25.74h8.34c3.16,0,5.22.13,6.18.39,1.47.39,2.71,1.23,3.7,2.52.99,1.29,1.49,2.96,1.49,5.01,0,1.58-.29,2.91-.86,3.99-.57,1.08-1.3,1.92-2.19,2.54-.88.61-1.78,1.02-2.69,1.22-1.24.25-3.04.37-5.39.37h-3.39v9.71h-5.2Zm5.2-21.38v7.3h2.84c2.05,0,3.42-.13,4.11-.4.69-.27,1.23-.69,1.62-1.26.39-.57.59-1.24.59-2,0-.94-.28-1.71-.83-2.32-.55-.61-1.25-.99-2.09-1.14-.62-.12-1.87-.18-3.74-.18h-2.51Z"/></g></svg>