<?xml version="1.0" encoding="UTF-8"?>
<svg xmlns="http://www.w3.org/2000/svg" style="display: none;">
<symbol id="phone-volume" viewBox="0 0 512 512">
<path d="M280 0C408.1 0 512 103.9 512 232c0 13.3-10.7 24-24 24s-24-10.7-24-24c0-101.6-82.4-184-184-184c-13.3 0-24-10.7-24-24s10.7-24 24-24zm8 192a32 32 0 1 1 0 64 32 32 0 1 1 0-64zm-32-72c0-13.3 10.7-24 24-24c75.1 0 136 60.9 136 136c0 13.3-10.7 24-24 24s-24-10.7-24-24c0-48.6-39.4-88-88-88c-13.3 0-24-10.7-24-24zm73 166.7c11.3-13.8 30.3-18.5 46.7-11.4l112 48c17.6 7.5 27.4 26.5 23.4 45.1l-24 112c-4 18.4-20.3 31.6-39.1 31.6l0 0c-6.1 0-12.2-.1-18.2-.4l-.1 0 0 0c-10-.4-19.8-1.1-29.6-2.2C175.2 485.6 0 295.2 0 64v0C0 45.1 13.2 28.8 31.6 24.9l112-24c18.7-4 37.6 5.8 45.1 23.4l48 112c7 16.4 2.4 35.4-11.4 46.7l-40.6 33.2c26.7 46 65.1 84.4 111.1 111.1L329 286.7zm133.8 78.1l-100.4-43L333 357.6c-14.9 18.2-40.8 22.9-61.2 11.1c-53.3-30.9-97.7-75.3-128.6-128.6c-11.8-20.4-7.1-46.3 11.1-61.2l35.9-29.4-43-100.4L48.1 70.5C51.5 286.2 225.8 460.5 441.5 464l21.3-99.2z"/>
</symbol>
<symbol id="copyright" viewBox="0 0 512 512">
<path d="M256 48a208 208 0 1 1 0 416 208 208 0 1 1 0-416zm0 464A256 256 0 1 0 256 0a256 256 0 1 0 0 512zM199.4 312.6c-31.2-31.2-31.2-81.9 0-113.1s81.9-31.2 113.1 0c9.4 9.4 24.6 9.4 33.9 0s9.4-24.6 0-33.9c-50-50-131-50-181 0s-50 131 0 181s131 50 181 0c9.4-9.4 9.4-24.6 0-33.9s-24.6-9.4-33.9 0c-31.2 31.2-81.9 31.2-113.1 0z"/>
</symbol>
<symbol id="envelope-open" viewBox="0 0 512 512">
<path d="M255.4 48.2c.2-.1 .4-.2 .6-.2s.4 .1 .6 .2L460.6 194c2.1 1.5 3.4 3.9 3.4 6.5v13.6L291.5 355.7c-20.7 17-50.4 17-71.1 0L48 214.1V200.5c0-2.6 1.2-5 3.4-6.5L255.4 48.2zM48 276.2L190 392.8c38.4 31.5 93.7 31.5 132 0L464 276.2V456c0 4.4-3.6 8-8 8H56c-4.4 0-8-3.6-8-8V276.2zM256 0c-10.2 0-20.2 3.2-28.5 9.1L23.5 154.9C8.7 165.4 0 182.4 0 200.5V456c0 30.9 25.1 56 56 56H456c30.9 0 56-25.1 56-56V200.5c0-18.1-8.7-35.1-23.4-45.6L284.5 9.1C276.2 3.2 266.2 0 256 0z"/>
</symbol>
</svg>