<?xml version="1.0" encoding="UTF-8"?>
<svg xmlns="http://www.w3.org/2000/svg" style="display: none;">
<symbol id="location-dot" viewBox="0 0 384 512">
<path d="M192 512s192-208 192-320C384 86 298 0 192 0S0 86 0 192C0 304 192 512 192 512zm0-384a64 64 0 1 1 0 128 64 64 0 1 1 0-128z"/>
</symbol>
<symbol id="globe" viewBox="0 0 512 512">
<path d="M352 256c0 22.1-2.2 43.5-6.1 64H166.1c-3.9-20.5-6.1-41.9-6.1-64s2.2-43.5 6.1-64H345.9c3.9 20.5 6.1 41.9 6.1 64zm26.4-64H503.9c5.3 20.5 8.1 41.9 8.1 64s-2.8 43.5-8.1 64H378.4c3.6-20.5 5.6-41.9 5.6-64s-2-43.5-5.6-64zm115-32h-122c-17-65.6-48.3-120-74-156.7c89.2 14.5 163 75.2 196 156.7zm-155.1 0H173.7c11.4-40.2 28.4-75.9 45.8-105.4c13-21.9 25.9-40 36.5-53.5c10.5 13.5 23.5 31.6 36.5 53.5c17.4 29.4 34.5 65.1 45.8 105.4zm-197.7 0H18.6c33-81.5 106.7-142.2 196-156.7c-25.7 36.7-57 91-74 156.7zM8.1 192H133.6c-3.6 20.5-5.6 41.9-5.6 64s2 43.5 5.6 64H8.1C2.8 299.5 0 278.1 0 256s2.8-43.5 8.1-64zM173.7 352H338.3c-11.4 40.2-28.4 75.9-45.8 105.4c-13 21.9-25.9 40-36.5 53.5c-10.5-13.5-23.5-31.6-36.5-53.5c-17.4-29.4-34.5-65.1-45.8-105.4zm-33.2 0c17 65.6 48.3 120 74 156.7c-89.2-14.5-163-75.2-196-156.7h122zm352.8 0c-33 81.5-106.7 142.2-196 156.7c25.7-36.7 57-91 74-156.7h122z"/>
</symbol>
<symbol id="circle-phone" viewBox="0 0 512 512">
<path d="M256 512A256 256 0 1 0 256 0a256 256 0 1 0 0 512zM200 128l40 72-41.9 33.5c18.1 34.2 46.2 62.3 80.4 80.4L312 272l72 40-16 72H352c-123.7 0-224-100.3-224-224l0-16 72-16z"/>
</symbol>
<symbol id="plus" viewBox="0 0 448 512">
<path d="M256 80V48H192V80 224H48 16v64H48 192V432v32h64V432 288H400h32V224H400 256V80z"/>
</symbol>
<symbol id="circle-down" viewBox="0 0 512 512">
<path d="M256 512A256 256 0 1 1 256 0a256 256 0 1 1 0 512zM384 256H304V128H208V256H128v32L256 416 384 288V256z"/>
</symbol>
<symbol id="chevron-down" viewBox="0 0 512 512">
<path d="M256 429.3l22.6-22.6 192-192L493.3 192 448 146.7l-22.6 22.6L256 338.7 86.6 169.4 64 146.7 18.7 192l22.6 22.6 192 192L256 429.3z"/>
</symbol>
<symbol id="bars" viewBox="0 0 448 512">
<path d="M0 64H448v64H0V64zM0 224H448v64H0V224zM448 384v64H0V384H448z"/>
</symbol>
<symbol id="rectangle-xmark" viewBox="0 0 512 512">
<path d="M512 32H0V480H512V32zM353.9 192l-17 17-47 47 47 47 17 17L320 353.9l-17-17-47-47-47 47-17 17L158.1 320l17-17 47-47-47-47-17-17L192 158.1l17 17 47 47 47-47 17-17L353.9 192z"/>
</symbol>
<symbol id="house" viewBox="0 0 576 512">
<path d="M511.8 287.6H576V240L288.4 0 0 240v47.6H64.1V512H224V352H352V512H512.8l-1-224.4z"/>
</symbol>
<symbol id="envelope" viewBox="0 0 512 512">
<path d="M0 64H512v80L256 320 0 144V64zM0 448V182.8L237.9 346.4 256 358.8l18.1-12.5L512 182.8V448H0z"/>
</symbol>
<symbol id="minus" viewBox="0 0 448 512">
<path d="M432 288H400L48 288H16l0-64 32 0 352 0 32 0v64z"/>
</symbol>
<symbol id="download" viewBox="0 0 512 512">
<path d="M288 32V0H224V32 274.7l-73.4-73.4L128 178.7 82.7 224l22.6 22.6 128 128L256 397.3l22.6-22.6 128-128L429.3 224 384 178.7l-22.6 22.6L288 274.7V32zM0 512H512V352H346.5l-45.3 45.3L256 442.5l-45.3-45.3L165.5 352H0V512zM432 408a24 24 0 1 1 0 48 24 24 0 1 1 0-48z"/>
</symbol>
<symbol id="circle-play" viewBox="0 0 512 512">
<path d="M256 512A256 256 0 1 0 256 0a256 256 0 1 0 0 512zM384 256L176 384V128L384 256z"/>
</symbol>
</svg>