<?xml version="1.0" encoding="UTF-8"?>
<svg xmlns="http://www.w3.org/2000/svg" style="display: none;">
<symbol id="magnifying-glass" viewBox="0 0 512 512">
<path d="M384 208A176 176 0 1 0 32 208a176 176 0 1 0 352 0zM343.3 366C307 397.2 259.7 416 208 416C93.1 416 0 322.9 0 208S93.1 0 208 0S416 93.1 416 208c0 51.7-18.8 99-50 135.3L510.5 487.9l-22.6 22.6L343.3 366z"/>
</symbol>
<symbol id="phone" viewBox="0 0 512 512">
<path d="M301.7 367.6l-21.3-12.3c-51.4-29.6-94.1-72.4-123.7-123.7l-12.3-21.3 17.3-17.3 40.7-40.7L156 36.2 32 58.7 32 64c0 229.7 186.3 416 416 416h5.3l22.5-124L359.7 309.5 319 350.2l-17.3 17.4zM352 272l160 64L480 512H448C200.6 512 0 311.4 0 64L0 32 176 0l64 160-55.6 55.6c26.8 46.5 65.5 85.2 112 112L352 272z"/>
</symbol>
<symbol id="xmark" viewBox="0 0 384 512">
<path d="M192 233.4L59.5 100.9 36.9 123.5 169.4 256 36.9 388.5l22.6 22.6L192 278.6 324.5 411.1l22.6-22.6L214.6 256 347.1 123.5l-22.6-22.6L192 233.4z"/>
</symbol>
<symbol id="circle-chevron-left" viewBox="0 0 512 512">
<path d="M32 256a224 224 0 1 1 448 0A224 224 0 1 1 32 256zm480 0A256 256 0 1 0 0 256a256 256 0 1 0 512 0zM164.7 244.7L153.4 256l11.3 11.3 112 112L288 390.6 310.6 368l-11.3-11.3L198.6 256 299.3 155.3 310.6 144 288 121.4l-11.3 11.3-112 112z"/>
</symbol>
<symbol id="quote-right" viewBox="0 0 448 512">
<path d="M448 304c0 61.9-50.1 112-112 112H304 288V384h16 32c44.2 0 80-35.8 80-80V288H288 256V256 128 96h32H416h32v32 64 64 32 16zm-32-48V192 128H288V256H416zM32 256H160V192 128H32V256zm160-64v64 32 16c0 61.9-50.1 112-112 112H48 32V384H48 80c44.2 0 80-35.8 80-80V288H32 0V256 128 96H32 160h32v32 64z"/>
</symbol>
<symbol id="chevron-down" viewBox="0 0 512 512">
<path d="M256 406.6l11.3-11.3 192-192L470.6 192 448 169.4l-11.3 11.3L256 361.4 75.3 180.7 64 169.4 41.4 192l11.3 11.3 192 192L256 406.6z"/>
</symbol>
<symbol id="angles-right" viewBox="0 0 512 512">
<path d="M267.3 267.3L278.6 256l-11.3-11.3-160-160L96 73.4 73.4 96l11.3 11.3L233.4 256 84.7 404.7 73.4 416 96 438.6l11.3-11.3 160-160zm192 0L470.6 256l-11.3-11.3-160-160L288 73.4 265.4 96l11.3 11.3L425.4 256 276.7 404.7 265.4 416 288 438.6l11.3-11.3 160-160z"/>
</symbol>
<symbol id="arrow-right-long" viewBox="0 0 512 512">
<path d="M500.7 267.3L512 256l-11.3-11.3-144-144L345.4 89.4 322.7 112l11.3 11.3L450.7 240 16 240 0 240l0 32 16 0 434.7 0L334.1 388.7 322.7 400l22.6 22.6 11.3-11.3 144-144z"/>
</symbol>
<symbol id="quote-left" viewBox="0 0 448 512">
<path d="M0 208C0 146.1 50.1 96 112 96h32 16v32H144 112c-44.2 0-80 35.8-80 80v16H160h32v32V384v32H160 32 0V384 320 256 224 208zm32 48v64 64H160V256H32zm384 0H288v64 64H416V256zM256 320V256 224 208c0-61.9 50.1-112 112-112h32 16v32H400 368c-44.2 0-80 35.8-80 80v16H416h32v32V384v32H416 288 256V384 320z"/>
</symbol>
<symbol id="copyright" viewBox="0 0 512 512">
<path d="M256 32a224 224 0 1 1 0 448 224 224 0 1 1 0-448zm0 480A256 256 0 1 0 256 0a256 256 0 1 0 0 512zM160 256c0-53 43-96 96-96c31.4 0 59.3 15.1 76.8 38.5l25.6-19.2C335.1 148.2 297.9 128 256 128c-70.7 0-128 57.3-128 128s57.3 128 128 128c41.9 0 79.1-20.2 102.4-51.3l-25.6-19.2C315.3 336.9 287.4 352 256 352c-53 0-96-43-96-96z"/>
</symbol>
<symbol id="chevron-up" viewBox="0 0 512 512">
<path d="M256 105.4l11.3 11.3 192 192L470.6 320 448 342.6l-11.3-11.3L256 150.6 75.3 331.3 64 342.6 41.4 320l11.3-11.3 192-192L256 105.4z"/>
</symbol>
<symbol id="circle" viewBox="0 0 512 512">
<path d="M256 32a224 224 0 1 1 0 448 224 224 0 1 1 0-448zm0 480A256 256 0 1 0 256 0a256 256 0 1 0 0 512z"/>
</symbol>
<symbol id="download" viewBox="0 0 512 512">
<path d="M272 16V0H240V16 329.4L139.3 228.7 128 217.4 105.4 240l11.3 11.3 128 128L256 390.6l11.3-11.3 128-128L406.6 240 384 217.4l-11.3 11.3L272 329.4V16zM140.1 320H32 0v32V480v32H32 480h32V480 352 320H480 371.9l-32 32H480V480H32V352H172.1l-32-32zM432 416a24 24 0 1 0 -48 0 24 24 0 1 0 48 0z"/>
</symbol>
<symbol id="info" viewBox="0 0 192 512">
<path d="M128 32V96H64V32h64zM16 160H32 96h16v16V448h64 16v32H176 16 0V448H16 80V192H32 16V160z"/>
</symbol>
<symbol id="angle-up" viewBox="0 0 448 512">
<path d="M224 137.4l11.3 11.3 160 160L406.6 320 384 342.6l-11.3-11.3L224 182.6 75.3 331.3 64 342.6 41.4 320l11.3-11.3 160-160L224 137.4z"/>
</symbol>
<symbol id="check" viewBox="0 0 448 512">
<path d="M448.1 118.2L437 129.7 173.6 404l-11.5 12-11.5-12L11.1 258.8 0 247.2l23.1-22.2 11.1 11.5L162.1 369.8 414 107.5 425 96l23.1 22.2z"/>
</symbol>
<symbol id="angle-down" viewBox="0 0 448 512">
<path d="M224 342.6l11.3-11.3 160-160L406.6 160 384 137.4l-11.3 11.3L224 297.4 75.3 148.7 64 137.4 41.4 160l11.3 11.3 160 160L224 342.6z"/>
</symbol>
<symbol id="bars" viewBox="0 0 448 512">
<path d="M0 64H448V96H0V64zM0 224H448v32H0V224zM448 384v32H0V384H448z"/>
</symbol>
<symbol id="circle-info" viewBox="0 0 512 512">
<path d="M256 32a224 224 0 1 1 0 448 224 224 0 1 1 0-448zm0 480A256 256 0 1 0 256 0a256 256 0 1 0 0 512zM192 352v32h16 96 16V352H304 272V240 224H256 216 200v32h16 24v96H208 192zm88-168V136H232v48h48z"/>
</symbol>
<symbol id="angle-left" viewBox="0 0 320 512">
<path d="M41.4 256l11.3-11.3 160-160L224 73.4 246.6 96l-11.3 11.3L86.6 256 235.3 404.7 246.6 416 224 438.6l-11.3-11.3-160-160L41.4 256z"/>
</symbol>
<symbol id="chevron-right" viewBox="0 0 320 512">
<path d="M310.6 256l-11.3 11.3-192 192L96 470.6 73.4 448l11.3-11.3L265.4 256 84.7 75.3 73.4 64 96 41.4l11.3 11.3 192 192L310.6 256z"/>
</symbol>
<symbol id="angle-right" viewBox="0 0 320 512">
<path d="M278.6 256l-11.3 11.3-160 160L96 438.6 73.4 416l11.3-11.3L233.4 256 84.7 107.3 73.4 96 96 73.4l11.3 11.3 160 160L278.6 256z"/>
</symbol>
<symbol id="minus" viewBox="0 0 448 512">
<path d="M432 272H416L32 272H16l0-32 16 0 384 0 16 0v32z"/>
</symbol>
<symbol id="arrow-right-arrow-left" viewBox="0 0 448 512">
<path d="M12.7 395.3L1.4 384l11.3-11.3 96-96L120 265.4 142.6 288l-11.3 11.3L62.6 368 432 368l16 0 0 32-16 0L62.6 400l68.7 68.7L142.6 480 120 502.6l-11.3-11.3-96-96zm422.6-256l-96 96L328 246.6 305.4 224l11.3-11.3L385.4 144 16 144 0 144l0-32 16 0 369.4 0L316.7 43.3 305.4 32 328 9.4l11.3 11.3 96 96L446.6 128l-11.3 11.3z"/>
</symbol>
<symbol id="arrow-up" viewBox="0 0 384 512">
<path d="M203.3 44.7L192 33.4 180.7 44.7l-168 168L1.4 224 24 246.6l11.3-11.3L176 94.6V464v16h32V464 94.6L348.7 235.3 360 246.6 382.6 224l-11.3-11.3-168-168z"/>
</symbol>
<symbol id="pencil" viewBox="0 0 512 512">
<path d="M0 512l6.8-34L32 352 361.4 22.6 384 0l22.6 22.6 82.7 82.7L512 128l-22.6 22.6L160 480 34 505.2 0 512zM176 400v18.7L398.1 196.7l-82.7-82.7L93.3 336H112h16v16 32h32 16v16zm-32 48V416H112 96V400 368H64c-.9 0-1.7-.1-2.5-.2L40.8 471.2l103.4-20.7c-.1-.8-.2-1.7-.2-2.5zM420.7 174.1L466.7 128 384 45.3 337.9 91.3l82.7 82.7zm-89.4 28.7l-128 128L192 342.1l-22.6-22.6 11.3-11.3 128-128L320 168.8l22.6 22.6-11.3 11.3z"/>
</symbol>
<symbol id="envelope" viewBox="0 0 512 512">
<path d="M32 159.2l224 154 224-154V96H32v63.2zM480 198L256 352 32 198V416H480V198zM0 416V176 96 64H32 480h32V96v80V416v32H480 32 0V416z"/>
</symbol>
<symbol id="phone-volume" viewBox="0 0 512 512">
<path d="M280.4 355.3l21.3 12.3L319 350.2l40.7-40.7L475.8 356 453.3 480H448C218.2 480 32 293.7 32 64l0-5.3L156 36.2l46.5 116.1-40.7 40.7-17.3 17.3 12.3 21.3c29.6 51.4 72.4 94.1 123.7 123.7zM512 336L352 272l-55.6 55.6c-46.5-26.8-85.2-65.5-112-112L240 160 176 0 0 32 0 64C0 311.4 200.6 512 448 512h32l32-176zM256 32c123.7 0 224 100.3 224 224h32C512 114.6 397.4 0 256 0V32zm32 224a32 32 0 1 0 0-64 32 32 0 1 0 0 64zm96 0h32c0-88.4-71.6-160-160-160v32c70.7 0 128 57.3 128 128z"/>
</symbol>
<symbol id="pen" viewBox="0 0 512 512">
<path d="M0 512l6.8-34L32 352 361.4 22.6 384 0l22.6 22.6 82.7 82.7L512 128l-22.6 22.6L160 480 34 505.2 0 512zm144.2-61.5L398.1 196.7l-82.7-82.7L61.5 367.8 40.8 471.2l103.4-20.7zM420.7 174.1L466.7 128 384 45.3 337.9 91.3l82.7 82.7z"/>
</symbol>
<symbol id="arrow-right" viewBox="0 0 448 512">
<path d="M435.3 267.3L446.6 256l-11.3-11.3-168-168L256 65.4 233.4 88l11.3 11.3L385.4 240 16 240 0 240l0 32 16 0 369.4 0L244.7 412.7 233.4 424 256 446.6l11.3-11.3 168-168z"/>
</symbol>
<symbol id="trash-can" viewBox="0 0 448 512">
<path d="M160 0h-8.9l-4.7 7.5L111.1 64H64 32 0V96H32V480v32H64 384h32V480 96h32V64H416 384 336.9L301.6 7.5 296.9 0H288 160zM299.1 64H148.9l20-32H279.1l20 32zM64 480V96H384V480H64zm80-304V160H112v16V400v16h32V400 176zm96 0V160H208v16V400v16h32V400 176zm96 0V160H304v16V400v16h32V400 176z"/>
</symbol>
<symbol id="trash" viewBox="0 0 448 512">
<path d="M151.1 0H160 288h8.9l4.7 7.5L336.9 64h47.1H416h32V96H413.7L384 512H64L34.3 96H0V64H32 64.1h47.1L146.4 7.5 151.1 0zm-2.3 64H299.1l-20-32H168.9l-20 32zM66.4 96L93.8 480H354.2L381.6 96H66.4z"/>
</symbol>
<symbol id="cart-shopping" viewBox="0 0 576 512">
<path d="M16 0H0V32H16 67.2l77.2 339.5 2.8 12.5H160 496h16V352H496 172.8l-14.5-64H496L566 64l10-32H542.5 100L95.6 12.5 92.8 0H80 16zm91.3 64H532.5l-60 192H151L107.3 64zM184 432a24 24 0 1 1 0 48 24 24 0 1 1 0-48zm0 80a56 56 0 1 0 0-112 56 56 0 1 0 0 112zm248-56a24 24 0 1 1 48 0 24 24 0 1 1 -48 0zm80 0a56 56 0 1 0 -112 0 56 56 0 1 0 112 0z"/>
</symbol>
<symbol id="envelope-open" viewBox="0 0 512 512">
<path d="M32 223.2l224 154 224-154V208L256 40 32 208v15.2zM480 262L256 416 32 262V480H480V262zM0 192L256 0 512 192v48V480v32H480 32 0V480 240 192z"/>
</symbol>
<symbol id="plus" viewBox="0 0 448 512">
<path d="M240 64V48H208V64 240H32 16v32H32 208V448v16h32V448 272H416h16V240H416 240V64z"/>
</symbol>
</svg>