<?xml version="1.0" encoding="UTF-8"?>
<svg xmlns="http://www.w3.org/2000/svg" style="display: none;">
<symbol id="plus" viewBox="0 0 448 512">
<path d="M256 80V48H192V80 224H48 16v64H48 192V432v32h64V432 288H400h32V224H400 256V80z"/>
</symbol>
<symbol id="download" viewBox="0 0 512 512">
<path d="M288 32V0H224V32 274.7l-73.4-73.4L128 178.7 82.7 224l22.6 22.6 128 128L256 397.3l22.6-22.6 128-128L429.3 224 384 178.7l-22.6 22.6L288 274.7V32zM0 512H512V352H346.5l-45.3 45.3L256 442.5l-45.3-45.3L165.5 352H0V512zM432 408a24 24 0 1 1 0 48 24 24 0 1 1 0-48z"/>
</symbol>
<symbol id="envelope" viewBox="0 0 512 512">
<path d="M0 64H512v80L256 320 0 144V64zM0 448V182.8L237.9 346.4 256 358.8l18.1-12.5L512 182.8V448H0z"/>
</symbol>
<symbol id="circle-down" viewBox="0 0 512 512">
<path d="M256 512A256 256 0 1 1 256 0a256 256 0 1 1 0 512zM384 256H304V128H208V256H128v32L256 416 384 288V256z"/>
</symbol>
<symbol id="circle-phone" viewBox="0 0 512 512">
<path d="M256 512A256 256 0 1 0 256 0a256 256 0 1 0 0 512zM200 128l40 72-41.9 33.5c18.1 34.2 46.2 62.3 80.4 80.4L312 272l72 40-16 72H352c-123.7 0-224-100.3-224-224l0-16 72-16z"/>
</symbol>
<symbol id="rectangle-xmark" viewBox="0 0 512 512">
<path d="M512 32H0V480H512V32zM353.9 192l-17 17-47 47 47 47 17 17L320 353.9l-17-17-47-47-47 47-17 17L158.1 320l17-17 47-47-47-47-17-17L192 158.1l17 17 47 47 47-47 17-17L353.9 192z"/>
</symbol>
<symbol id="circle-play" viewBox="0 0 512 512">
<path d="M256 512A256 256 0 1 0 256 0a256 256 0 1 0 0 512zM384 256L176 384V128L384 256z"/>
</symbol>
<symbol id="bars" viewBox="0 0 448 512">
<path d="M0 64H448v64H0V64zM0 224H448v64H0V224zM448 384v64H0V384H448z"/>
</symbol>
<symbol id="minus" viewBox="0 0 448 512">
<path d="M432 288H400L48 288H16l0-64 32 0 352 0 32 0v64z"/>
</symbol>
<symbol id="location-dot" viewBox="0 0 384 512">
<path d="M192 512s192-208 192-320C384 86 298 0 192 0S0 86 0 192C0 304 192 512 192 512zm0-384a64 64 0 1 1 0 128 64 64 0 1 1 0-128z"/>
</symbol>
<symbol id="chevron-down" viewBox="0 0 512 512">
<path d="M256 429.3l22.6-22.6 192-192L493.3 192 448 146.7l-22.6 22.6L256 338.7 86.6 169.4 64 146.7 18.7 192l22.6 22.6 192 192L256 429.3z"/>
</symbol>
</svg>