<?xml version="1.0" encoding="UTF-8"?>
<svg xmlns="http://www.w3.org/2000/svg" xmlns:xlink="http://www.w3.org/1999/xlink" id="Layer_2" data-name="Layer 2" viewBox="0 0 854.65 398.4">
  <defs>
    <style>
      .cls-1 {
        fill: url(#linear-gradient-8);
      }

      .cls-2 {
        fill: url(#linear-gradient-7);
      }

      .cls-3 {
        fill: url(#linear-gradient-5);
      }

      .cls-4 {
        fill: url(#linear-gradient-6);
      }

      .cls-5 {
        fill: url(#linear-gradient-9);
      }

      .cls-6 {
        fill: url(#linear-gradient-4);
      }

      .cls-7 {
        fill: url(#linear-gradient-3);
      }

      .cls-8 {
        fill: url(#linear-gradient-2);
      }

      .cls-9 {
        fill: url(#linear-gradient);
      }

      .cls-10 {
        fill: url(#linear-gradient-10);
      }

      .cls-11 {
        fill: url(#linear-gradient-11);
      }

      .cls-12 {
        fill: url(#linear-gradient-12);
      }

      .cls-13 {
        fill: url(#linear-gradient-13);
      }

      .cls-14 {
        fill: url(#linear-gradient-19);
      }

      .cls-15 {
        fill: url(#linear-gradient-14);
      }

      .cls-16 {
        fill: url(#linear-gradient-21);
      }

      .cls-17 {
        fill: url(#linear-gradient-20);
      }

      .cls-18 {
        fill: url(#linear-gradient-22);
      }

      .cls-19 {
        fill: url(#linear-gradient-23);
      }

      .cls-20 {
        fill: url(#linear-gradient-28);
      }

      .cls-21 {
        fill: url(#linear-gradient-25);
      }

      .cls-22 {
        fill: url(#linear-gradient-32);
      }

      .cls-23 {
        fill: url(#linear-gradient-31);
      }

      .cls-24 {
        fill: url(#linear-gradient-33);
      }

      .cls-25 {
        fill: url(#linear-gradient-30);
      }

      .cls-26 {
        fill: url(#linear-gradient-15);
      }

      .cls-27 {
        fill: url(#linear-gradient-16);
      }

      .cls-28 {
        fill: url(#linear-gradient-17);
      }

      .cls-29 {
        fill: url(#linear-gradient-18);
      }

      .cls-30 {
        fill: url(#linear-gradient-27);
      }

      .cls-31 {
        fill: url(#linear-gradient-24);
      }

      .cls-32 {
        fill: url(#linear-gradient-26);
      }

      .cls-33 {
        fill: url(#linear-gradient-29);
      }

      .cls-34 {
        fill: #c8c8c8;
      }
    </style>
    <linearGradient id="linear-gradient" x1="-66" y1="188.54" x2="787.78" y2="-82.28" gradientUnits="userSpaceOnUse">
      <stop offset="0" stop-color="#932190"></stop>
      <stop offset=".5" stop-color="#4f54b4"></stop>
      <stop offset="1" stop-color="#0e88d9"></stop>
    </linearGradient>
    <linearGradient id="linear-gradient-2" x1="-87.4" y1="121.09" x2="766.38" y2="-149.74" xlink:href="#linear-gradient"></linearGradient>
    <linearGradient id="linear-gradient-3" x1="-83.82" y1="132.37" x2="769.96" y2="-138.45" xlink:href="#linear-gradient"></linearGradient>
    <linearGradient id="linear-gradient-4" x1="-80.32" y1="143.41" x2="773.47" y2="-127.41" xlink:href="#linear-gradient"></linearGradient>
    <linearGradient id="linear-gradient-5" x1="-76.47" y1="155.53" x2="777.31" y2="-115.29" xlink:href="#linear-gradient"></linearGradient>
    <linearGradient id="linear-gradient-6" x1="-73.34" y1="165.4" x2="780.44" y2="-105.43" xlink:href="#linear-gradient"></linearGradient>
    <linearGradient id="linear-gradient-7" x1="-68.86" y1="179.51" x2="784.92" y2="-91.31" xlink:href="#linear-gradient"></linearGradient>
    <linearGradient id="linear-gradient-8" x1="-63.41" y1="196.7" x2="790.37" y2="-74.12" xlink:href="#linear-gradient"></linearGradient>
    <linearGradient id="linear-gradient-9" x1="-59.58" y1="208.77" x2="794.2" y2="-62.05" xlink:href="#linear-gradient"></linearGradient>
    <linearGradient id="linear-gradient-10" x1="-53.81" y1="226.98" x2="799.97" y2="-43.84" xlink:href="#linear-gradient"></linearGradient>
    <linearGradient id="linear-gradient-11" x1="-50.76" y1="236.6" x2="803.02" y2="-34.23" xlink:href="#linear-gradient"></linearGradient>
    <linearGradient id="linear-gradient-12" x1="-46.22" y1="250.89" x2="807.56" y2="-19.93" xlink:href="#linear-gradient"></linearGradient>
    <linearGradient id="linear-gradient-13" x1="-42.28" y1="263.3" x2="811.5" y2="-7.52" xlink:href="#linear-gradient"></linearGradient>
    <linearGradient id="linear-gradient-14" x1="-39.27" y1="272.82" x2="814.51" y2="2" xlink:href="#linear-gradient"></linearGradient>
    <linearGradient id="linear-gradient-15" x1="-35.41" y1="284.98" x2="818.37" y2="14.15" xlink:href="#linear-gradient"></linearGradient>
    <linearGradient id="linear-gradient-16" x1="-30.98" y1="298.95" x2="822.8" y2="28.12" xlink:href="#linear-gradient"></linearGradient>
    <linearGradient id="linear-gradient-17" x1="-27.91" y1="308.62" x2="825.87" y2="37.79" xlink:href="#linear-gradient"></linearGradient>
    <linearGradient id="linear-gradient-18" x1="-24.83" y1="318.34" x2="828.95" y2="47.52" xlink:href="#linear-gradient"></linearGradient>
    <linearGradient id="linear-gradient-19" x1="-20.58" y1="331.73" x2="833.2" y2="60.9" xlink:href="#linear-gradient"></linearGradient>
    <linearGradient id="linear-gradient-20" x1="-48.04" y1="245.15" x2="805.74" y2="-25.67" xlink:href="#linear-gradient"></linearGradient>
    <linearGradient id="linear-gradient-21" x1="-30.78" y1="299.59" x2="823.01" y2="28.77" xlink:href="#linear-gradient"></linearGradient>
    <linearGradient id="linear-gradient-22" x1="-19.03" y1="336.61" x2="834.75" y2="65.78" xlink:href="#linear-gradient"></linearGradient>
    <linearGradient id="linear-gradient-23" x1="3.06" y1="406.25" x2="856.84" y2="135.43" xlink:href="#linear-gradient"></linearGradient>
    <linearGradient id="linear-gradient-24" x1="18.77" y1="455.78" x2="872.55" y2="184.95" xlink:href="#linear-gradient"></linearGradient>
    <linearGradient id="linear-gradient-25" x1="39.52" y1="521.2" x2="893.3" y2="250.38" xlink:href="#linear-gradient"></linearGradient>
    <linearGradient id="linear-gradient-26" x1="33.48" y1="502.15" x2="887.26" y2="231.32" xlink:href="#linear-gradient"></linearGradient>
    <linearGradient id="linear-gradient-27" x1="46.53" y1="543.31" x2="900.31" y2="272.49" xlink:href="#linear-gradient"></linearGradient>
    <linearGradient id="linear-gradient-28" x1="-2.29" y1="389.39" x2="851.49" y2="118.56" xlink:href="#linear-gradient"></linearGradient>
    <linearGradient id="linear-gradient-29" x1="11.48" y1="432.8" x2="865.26" y2="161.98" xlink:href="#linear-gradient"></linearGradient>
    <linearGradient id="linear-gradient-30" x1="14.18" y1="441.32" x2="867.96" y2="170.5" xlink:href="#linear-gradient"></linearGradient>
    <linearGradient id="linear-gradient-31" x1="48.73" y1="550.24" x2="902.51" y2="279.42" xlink:href="#linear-gradient"></linearGradient>
    <linearGradient id="linear-gradient-32" x1="58.36" y1="580.6" x2="912.14" y2="309.78" xlink:href="#linear-gradient"></linearGradient>
    <linearGradient id="linear-gradient-33" x1="29.47" y1="489.5" x2="883.25" y2="218.68" xlink:href="#linear-gradient"></linearGradient>
  </defs>
  <g id="Design">
    <g>
      <polygon class="cls-9" points="294.11 51.72 306.65 51.72 299.8 67.69 311.89 67.69 293.68 97.05 297.5 73.54 286.76 73.54 294.11 51.72"></polygon>
      <g>
        <path class="cls-8" d="M43.89,51.93h32.4v9.14h-21.41v8.37h19.49v9.14h-19.49v8.95h21.47v9.14h-32.47v-44.74Z"></path>
        <path class="cls-7" d="M94.89,51.93v35.6h19.75v9.14h-30.74v-44.74h10.99Z"></path>
        <path class="cls-6" d="M121.35,51.93h32.4v9.14h-21.41v8.37h19.49v9.14h-19.49v8.95h21.47v9.14h-32.47v-44.74Z"></path>
        <path class="cls-3" d="M179.83,88.48c5.88,0,8.69-3.83,8.88-8.31h10.16c-.13,9.46-7.09,17.38-18.92,17.38-13.8,0-20.45-8.69-20.45-20.32v-5.88c0-11.63,6.65-20.32,20.45-20.32,11.82,0,18.79,7.92,18.92,17.38h-10.16c-.19-4.47-3-8.31-8.88-8.31-6.65,0-9.33,4.41-9.33,10.74v6.9c0,6.33,2.68,10.74,9.33,10.74Z"></path>
        <path class="cls-4" d="M237.48,51.93v9.27h-12.08v35.47h-10.99v-35.47h-12.08v-9.27h35.15Z"></path>
        <path class="cls-2" d="M261.76,83.37h-7.22v13.29h-10.99v-44.74h21.03c10.86,0,16.74,6.65,16.74,15.78,0,6.39-3.13,11.38-8.31,13.87l9.14,15.08h-12.78l-7.61-13.29ZM263.3,60.75h-8.76v13.93h8.76c4.6,0,7.03-2.75,7.03-6.84s-2.43-7.09-7.03-7.09Z"></path>
        <path class="cls-1" d="M316.98,96.66v-44.74h31.44v9.14h-20.45v9.65h18.53v9.14h-18.53v16.81h-10.99Z"></path>
        <path class="cls-5" d="M377.38,81v15.66h-10.99v-15.66l-15.02-29.08h11.95l8.56,18.6,8.56-18.6h11.95l-15.02,29.08Z"></path>
        <path class="cls-10" d="M411.31,51.93h32.4v9.14h-21.41v8.37h19.49v9.14h-19.49v8.95h21.47v9.14h-32.47v-44.74Z"></path>
        <path class="cls-11" d="M474.2,96.66h-11.76l-14.83-44.74h11.38l9.33,32.66,9.33-32.66h11.38l-14.83,44.74Z"></path>
        <path class="cls-12" d="M494.27,51.93h32.4v9.14h-21.41v8.37h19.49v9.14h-19.49v8.95h21.47v9.14h-32.47v-44.74Z"></path>
        <path class="cls-13" d="M552.49,83.37h-7.22v13.29h-10.99v-44.74h21.03c10.86,0,16.74,6.65,16.74,15.78,0,6.39-3.13,11.38-8.31,13.87l9.14,15.08h-12.78l-7.61-13.29ZM554.03,60.75h-8.76v13.93h8.76c4.6,0,7.03-2.75,7.03-6.84s-2.43-7.09-7.03-7.09Z"></path>
        <path class="cls-15" d="M599.6,81v15.66h-10.99v-15.66l-15.02-29.08h11.95l8.56,18.6,8.56-18.6h11.95l-15.02,29.08Z"></path>
        <path class="cls-26" d="M652.38,51.93v9.27h-12.08v35.47h-10.99v-35.47h-12.08v-9.27h35.15Z"></path>
        <path class="cls-27" d="M685.04,96.66v-17.51h-15.59v17.51h-10.99v-44.74h10.99v17.38h15.59v-17.38h10.99v44.74h-10.99Z"></path>
        <path class="cls-28" d="M716.3,96.66h-10.99v-44.74h10.99v44.74Z"></path>
        <path class="cls-29" d="M753.05,96.66l-16.74-26.14v26.14h-10.74v-44.74h10.42l16.81,26.14v-26.14h10.74v44.74h-10.48Z"></path>
        <path class="cls-14" d="M799.83,67.39c-.19-3.77-3.13-7.29-8.5-7.29-6.14,0-9.27,3.39-9.27,10.48v7.03c0,6.45,2.56,11.12,9.27,11.12,5.18,0,8.44-2.94,8.63-7.09h-8.69v-8.88h19.49v6.33c0,11.18-8.18,18.47-19.68,18.47-13.29,0-20-8.95-20-20.19v-6.26c0-12.46,7.8-20.07,19.94-20.07s19.04,6.84,19.3,16.36h-10.48Z"></path>
      </g>
    </g>
    <path class="cls-17" d="M44.8,171.97H0v-47.09h145.59v47.09h-45.05v131.08h-55.74v-131.08Z"></path>
    <path class="cls-16" d="M154.15,225.16v-22.4c0-48.36,29.27-81.45,85.01-81.45s85.01,33.09,85.01,81.45v22.4c0,48.36-29.27,81.45-85.01,81.45s-85.01-33.09-85.01-81.45ZM268.43,228.47v-29.02c0-20.62-10.44-31.82-29.27-31.82s-29.27,11.2-29.27,31.82v29.02c0,20.62,10.44,31.82,29.27,31.82s29.27-11.2,29.27-31.82Z"></path>
    <path class="cls-18" d="M339.73,124.88h80.69c43.52,0,73.56,25.2,73.56,65.41s-29.02,66.94-73.56,66.94h-24.94v45.82h-55.74V124.88ZM417.61,211.42c14,0,20.62-8.91,20.62-20.62s-6.62-20.11-20.62-20.11h-22.14v40.72h22.14Z"></path>
    <path class="cls-19" d="M566.24,124.88h122.43v44.29l-34.36,25.45c25.96,5.09,43.27,22.4,43.27,51.41,0,34.36-28,60.58-71.52,60.58-39.45,0-68.72-19.34-68.98-59.81h51.67c.51,9.42,5.6,16.54,17.82,16.54,10.69,0,16.54-6.36,16.54-15.02s-5.6-15.02-17.56-15.02h-29.78v-40.98l25.71-23.42h-55.23v-44.03Z"></path>
    <path class="cls-31" d="M839.67,144.76c-12.92-14.87-33.43-23.45-58.58-23.45-29.86,0-53.2,12.09-65.03,32.45h69.71c0,5.16-4.18,9.34-9.34,9.34h-64.77c-2.69,7.29-4.13,15.37-4.13,24.13v.39h54.98v8.77c-1,.37-2.08.58-3.21.58h-51.77v24.13h30.37c0,5.16-4.18,9.34-9.34,9.34h-21.03v10.24c0,39.96,29.78,65.92,73.56,65.92s73.56-25.96,73.56-65.92v-53.45c0-17.01-5.41-31.46-14.98-42.48Z"></path>
    <polygon class="cls-21" points="539.57 366.91 547 366.91 543.31 354.72 539.57 366.91"></polygon>
    <path class="cls-32" d="M471.19,353.58c-4.4,0-6.56,2.95-6.56,7.35v4.75c0,4.4,2.16,7.35,6.56,7.35s6.56-2.95,6.56-7.35v-4.75c0-4.4-2.16-7.35-6.56-7.35Z"></path>
    <path class="cls-30" d="M614.01,353.58c-4.4,0-6.56,2.95-6.56,7.35v4.75c0,4.4,2.16,7.35,6.56,7.35s6.56-2.95,6.56-7.35v-4.75c0-4.4-2.16-7.35-6.56-7.35Z"></path>
    <path class="cls-20" d="M79.95,353.58c-4.4,0-6.56,2.95-6.56,7.35v4.75c0,4.4,2.16,7.35,6.56,7.35s6.56-2.95,6.56-7.35v-4.75c0-4.4-2.16-7.35-6.56-7.35Z"></path>
    <polygon class="cls-33" points="232.84 366.91 240.28 366.91 236.58 354.72 232.84 366.91"></polygon>
    <path class="cls-25" d="M276.93,353.97h-6.03v9.59h6.03c3.17,0,4.84-1.89,4.84-4.71s-1.67-4.88-4.84-4.88Z"></path>
    <path class="cls-23" d="M654.85,353.97h-6.03v9.59h6.03c3.17,0,4.84-1.89,4.84-4.71s-1.67-4.88-4.84-4.88Z"></path>
    <path class="cls-22" d="M743.42,353.4c-2.77,0-4.58,1.5-4.58,4.88v10.03c0,3.39,1.8,4.88,4.58,4.88s4.58-1.5,4.58-4.88v-10.03c0-3.39-1.8-4.88-4.58-4.88Z"></path>
    <path class="cls-24" d="M845.26,328.2H9.39C4.2,328.2,0,332.4,0,337.59v51.43c0,5.19,4.2,9.39,9.39,9.39h835.87c5.19,0,9.39-4.2,9.39-9.39v-51.43c0-5.19-4.2-9.39-9.39-9.39ZM41.45,379.32c-7.39,0-12.37-3.52-12.37-9.73v-.84h7.26v.62c0,2.6,1.67,4.18,5.15,4.18,3.12,0,5.19-1.28,5.19-3.65,0-1.36-.57-2.33-2.11-2.73l-7.7-1.94c-4.8-1.19-7.26-3.3-7.26-8.32,0-6.12,4.36-9.64,11.66-9.64,6.91,0,11.31,3.74,11.31,9.37v.75h-7v-.53c0-2.07-1.14-3.78-4.31-3.78-2.64,0-4.31.92-4.31,3.12,0,1.45.75,2.2,1.98,2.51l8.19,2.2c4.93,1.32,6.91,4.05,6.91,8.32,0,6.16-5.46,10.08-12.59,10.08ZM94.07,365.28c0,8.05-4.8,14.04-14.13,14.04s-14.13-5.98-14.13-14.04v-3.96c0-8.05,4.8-14.04,14.13-14.04s14.13,5.98,14.13,14.04v3.96ZM128.83,354.19h-14.08v6.65h12.76v6.29h-12.76v11.57h-7.57v-30.8h21.65v6.29ZM163.59,354.28h-8.32v24.42h-7.57v-24.42h-8.32v-6.38h24.2v6.38ZM207.72,378.7h-7.08l-6.07-21.52-6.07,21.52h-7.08l-7.39-30.8h7.44l3.83,20.2,5.77-20.2h7.04l5.76,20.2,3.83-20.2h7.44l-7.39,30.8ZM243.89,378.7l-1.76-5.72h-11.13l-1.72,5.72h-7.57l11-30.8h7.75l11,30.8h-7.57ZM281.11,378.7l-5.24-9.15h-4.97v9.15h-7.57v-30.8h14.48c7.48,0,11.53,4.58,11.53,10.87,0,4.4-2.16,7.83-5.72,9.55l6.29,10.39h-8.8ZM324.8,378.7h-22.35v-30.8h22.31v6.29h-14.74v5.77h13.42v6.29h-13.42v6.16h14.79v6.29ZM363.3,378.7h-7.57v-30.8h7.57v30.8ZM403.74,378.7h-7.22l-11.53-18v18h-7.39v-30.8h7.17l11.57,18v-18h7.39v30.8ZM443.96,378.7h-7.22l-11.53-18v18h-7.39v-30.8h7.17l11.57,18v-18h7.39v30.8ZM485.32,365.28c0,8.05-4.8,14.04-14.13,14.04s-14.13-5.98-14.13-14.04v-3.96c0-8.05,4.8-14.04,14.13-14.04s14.13,5.98,14.13,14.04v3.96ZM513.3,378.7h-8.1l-10.21-30.8h7.83l6.42,22.49,6.42-22.49h7.83l-10.21,30.8ZM550.61,378.7l-1.76-5.72h-11.13l-1.72,5.72h-7.57l11-30.8h7.75l11,30.8h-7.57ZM589.42,354.28h-8.32v24.42h-7.57v-24.42h-8.32v-6.38h24.2v6.38ZM628.14,365.28c0,8.05-4.8,14.04-14.13,14.04s-14.13-5.98-14.13-14.04v-3.96c0-8.05,4.8-14.04,14.13-14.04s14.13,5.98,14.13,14.04v3.96ZM659.03,378.7l-5.24-9.15h-4.97v9.15h-7.57v-30.8h14.48c7.48,0,11.53,4.58,11.53,10.87,0,4.4-2.16,7.83-5.72,9.55l6.29,10.39h-8.8ZM719.04,372.59v6.12h-21.87v-5.68l12.15-11.62c1.58-1.54,2.55-2.9,2.55-4.67,0-2.16-1.5-3.34-3.56-3.34-2.51,0-3.65,1.5-3.65,3.96v.57h-7.17v-.92c0-6.38,4.18-9.72,10.78-9.72s11.09,3.7,11.09,9.42c0,4.75-3.21,7.66-6.56,10.47l-6.38,5.41h12.63ZM755.47,368.32c0,6.56-4.84,11-12.06,11s-12.06-4.44-12.06-11v-10.03c0-6.56,4.84-11,12.06-11s12.06,4.44,12.06,11v10.03ZM789.66,372.59v6.12h-21.87v-5.68l12.15-11.62c1.58-1.54,2.55-2.9,2.55-4.67,0-2.16-1.5-3.34-3.56-3.34-2.51,0-3.65,1.5-3.65,3.96v.57h-7.17v-.92c0-6.38,4.18-9.72,10.78-9.72s11.09,3.7,11.09,9.42c0,4.75-3.21,7.66-6.56,10.47l-6.38,5.41h12.63ZM813.42,379.32c-5.54,0-10.65-2.9-11.35-9.15h7.13c.31,1.85,1.94,3.08,4.22,3.08,2.99,0,4.75-2.02,4.75-4.71s-1.67-4.62-4.66-4.62c-2.07,0-3.52.84-4.14,2.2h-6.86l2.95-18.22h17.25v5.94h-11.35l-.92,5.46c1.28-.97,2.95-1.41,5.06-1.41,5.37,0,10.08,3.78,10.08,10.43,0,6.07-4.97,11-12.15,11Z"></path>
    <g>
      <path class="cls-34" d="M376.8,18.95c-1.6,0-2.89,1.28-2.89,2.87h0v.22h17.43c1.6,0,2.89-1.28,2.89-2.87h0v-.22h-17.43,0Z"></path>
      <path class="cls-34" d="M313.03,18.95h0v.22c0,1.58,1.29,2.87,2.89,2.87h7.12v-3.09h-10.01Z"></path>
      <g>
        <path class="cls-34" d="M515.04,0h-14.46v.22c0,1.58,1.29,2.86,2.89,2.87h11.49l-19.58,14.66c-.94.68-1.24,1.94-.71,2.97.43.81,1.28,1.32,2.21,1.31h14.41c.12,0,.23-.1.23-.22,0-1.58-12.44-2.87-12.44-2.87h0l17.87-13.47c.71-.52,1.16-1.33,1.24-2.2.04-.52-.06-1.05-.28-1.52-.53-1.08-1.64-1.76-2.85-1.75Z"></path>
        <path class="cls-34" d="M360.26,0c-1.6,0-2.89,1.28-2.89,2.87h0v15.03h0l-15.65-16.99h-.01c-.92-.92-2.31-1.16-3.48-.62-1.09.52-1.78,1.63-1.77,2.83v18.91h.23c1.59,0,2.88-1.28,2.89-2.86V3.16h0l16.78,18.16h.01c.45.46,1.06.72,1.7.72h0c.38,0,.76-.09,1.1-.27.81-.43,1.31-1.27,1.31-2.19V0h-.22,0Z"></path>
        <path class="cls-34" d="M480.77,0c-1.6,0-2.89,1.28-2.89,2.87h0v19.17h.23c1.6,0,2.89-1.28,2.89-2.87h0V0h-.23Z"></path>
        <path class="cls-34" d="M461.04,11.87h-3.07v.22c0,1.62,1.32,2.93,2.95,2.93h.12c.13,0,.24.11.24.24h0v2.73c0,.07,0,.13-.02.19-.09.41-.46.69-.88.69h-6.96c-4.4,0-8-3.5-8.04-7.81-.02-2.1.81-4.11,2.3-5.6,1.53-1.5,3.59-2.33,5.73-2.32h6.73c1.63,0,2.95-1.31,2.95-2.93h0V0h-9.79c-6.13,0-11.1,4.93-11.1,11.02v.08c.05,6.03,5.07,10.94,11.22,10.94h6.96c2.25,0,4.07-1.81,4.07-4.04v-2.73c0-1.87-1.53-3.39-3.41-3.39h0Z"></path>
        <path class="cls-34" d="M426.29,17.01c-1.08-1.88-2.39-4.12-2.86-4.86h0c1.03-.38,2.48-.93,3.28-1.72,1.24-1.23,1.96-3.06,1.96-5v-2.23c0-1.76-1.44-3.19-3.21-3.19h-17.21c-.33,0-.59.26-.59.59v21.19c0,.07.03.13.08.18.05.05.11.07.18.07h0c1.58,0,2.85-1.27,2.85-2.83V3.35c0-.14.11-.25.25-.25h14.44c.05,0,.1.04.1.1v3.64c0,1.71-2.05,2.74-3.69,3.57-.38.19-.74.37-1.05.55-.31.17-.55.46-.67.79-.16.49-.04,1.03.31,1.4.79.84,1.77,2.09,2.81,3.41,2.59,3.29,4.36,5.45,5.44,5.45.09,0,.27-.27-.59-1.81-.48-.85-1.12-1.99-1.82-3.2h0Z"></path>
        <path class="cls-34" d="M376.8,0c-1.6,0-2.89,1.28-2.89,2.87h0v.22h17.43c1.6,0,2.89-1.28,2.89-2.87h0V0h-17.43,0Z"></path>
        <path class="cls-34" d="M388.89,12.56c1.59,0,2.89-1.29,2.89-2.87v-.22h-14.98c-1.6,0-2.89,1.28-2.89,2.87h0v.22h14.99Z"></path>
        <path class="cls-34" d="M300.28,0h0v.22c0,1.58,1.3,2.87,2.89,2.87h19.86V0h-22.75Z"></path>
        <path class="cls-34" d="M305.17,9.47h0v.22c0,1.58,1.3,2.87,2.89,2.87h14.98v-3.09h-17.87Z"></path>
        <path class="cls-34" d="M531.62,0h0v3.09h19.86c1.59,0,2.88-1.28,2.88-2.87V0h-22.75Z"></path>
        <path class="cls-34" d="M531.62,9.47h0v3.09h14.98c1.6,0,2.89-1.28,2.89-2.87v-.22h-17.87s0,0,0,0Z"></path>
      </g>
      <path class="cls-34" d="M531.62,18.95h0v3.09h6.21c1.6,0,2.89-1.28,2.89-2.87v-.22h-9.1Z"></path>
    </g>
  </g>
</svg>
