<svg xmlns="http://www.w3.org/2000/svg" width="1170" height="290" viewBox="0 0 1170 290"><style>.st2{fill-rule:evenodd;clip-rule:evenodd}.st2,.st4{fill:#28231d}</style><path fill="#999" d="M900.4 254.7L939 236.1 962.2 248.2 962.2 265.1 939 253 900.4 271.6z"/><path d="M10.5,37.7C10.5,22,23.2,9.3,38.8,9.3h141.7c15.7,0,28.3,12.7,28.3,28.3v141.7c0,15.7-12.7,28.3-28.3,28.3H38.8	c-15.7,0-28.3-12.7-28.3-28.3V37.7z" fill="#cf4d16"/><path class="st2" d="M270.8,161.4h21.1c8.3,0,14,3.6,14,12.6c0,9.1-6.7,11.6-14.3,11.6h-20.7V161.4z M251.4,200.7h42.7 c15.9,0,31.1-7.7,31.1-25.6c0-11-5.4-19.3-16.2-22.3c7.7-3.7,12-9.8,12-18.4c0-16.4-11.4-21.9-28.2-21.9h-41.5V200.7z M270.8,127.6 H289c6.9,0,13.3,1.7,13.3,10.1c0,7.4-5.1,10.5-11.9,10.5h-19.6V127.6z"/><path class="st2" d="M329,200.7h19.6l6.9-19.6h33l6.7,19.6h20.1l-33-88.2h-19.9L329,200.7z M372.1,134.2h0.2l11.1,32.4h-22.8 L372.1,134.2z"/><path class="st2" d="M495.9,112.5h-19.4v54.8c0,13.1-4.4,19.1-18.3,19.1c-15.7,0-18.2-9.5-18.2-19.1v-54.8h-19.4v54.8 c0,24,13.8,35.4,37.5,35.4c23.6,0,37.7-11.6,37.7-35.4V112.5z"/><path class="st2" d="M549.3 200.7L568.7 200.7 568.7 172.3 579.8 161 606.4 200.7 630.7 200.7 592.9 147.3 627.4 112.5 603.2 112.5 568.7 149.1 568.7 112.5 549.3 112.5z"/><path class="st2" d="M629.1,200.7h19.6l6.9-19.6h33l6.7,19.6h20.1l-33-88.2h-19.9L629.1,200.7z M672.2,134.2h0.2l11.1,32.4h-22.8 L672.2,134.2z"/><path class="st2" d="M723 112.5H742.4V200.7H723z"/><path class="st2" d="M755.1,171.4c-0.2,21.7,18,31.4,37.5,31.4c24,0,36.7-12.1,36.7-28.3c0-20-19.8-24.1-26.2-25.7 c-22.1-5.7-26.3-6.5-26.3-13.3c0-7.4,7.2-10,13.3-10c9.3,0,16.8,2.7,17.4,13.3h18.8c0-20.4-16.9-28.4-35.3-28.4 c-15.9,0-33,8.6-33,26.7c0,16.5,13.2,21.6,26.3,25.1c13,3.5,26.2,5.1,26.2,14.6c0,9-10.4,11-17.2,11c-10.4,0-19.5-4.6-19.5-16.3 H755.1z"/><path class="st2" d="M843.3 200.7L910.2 200.7 910.2 184.4 862.7 184.4 862.7 162.8 905.4 162.8 905.4 147.7 862.7 147.7 862.7 128.8 909.2 128.8 909.2 112.5 843.3 112.5z"/><path class="st2" d="M925.8,200.7h19.4v-34.5h19.4c9.8,0,13.3,4.1,14.7,13.3c1,7,0.7,15.6,3.1,21.1h19.4 c-3.5-4.9-3.3-15.3-3.7-20.9c-0.6-8.9-3.3-18.1-12.8-20.6v-0.2c9.8-4,14-11.7,14-22.1c0-13.3-10-24.3-25.8-24.3h-47.5V200.7z M945.2,127.6h21.2c8.6,0,13.3,3.7,13.3,12.2c0,8.9-4.7,12.6-13.3,12.6h-21.2V127.6z"/><g><path fill="#fff" d="M126 47.7L126 109.6 166.4 47.7 166.4 169.4 126 110.6 126 169.4 85.5 110.6 85.5 168.5 53 168.5 53 47.7 85.5 47.7 85.5 109.6z"/></g><g><path class="st4" d="M42.4,259.5c-0.1,7.1,4.9,9.2,11.2,9.2c3.6,0,9.1-2,9.1-7c0-3.9-3.9-5.4-7.1-6.2l-7.6-1.9 c-4-1-7.7-2.9-7.7-8.3c0-3.4,2.2-9.6,11.8-9.6c6.8,0,12.7,3.6,12.7,10.7h-3.3c-0.2-5.2-4.5-7.9-9.4-7.9c-4.5,0-8.6,1.7-8.6,6.8 c0,3.2,2.4,4.6,5.2,5.2l8.4,2.1c4.8,1.3,8.9,3.4,8.9,9c0,2.4-1,9.8-13.1,9.8c-8.1,0-14.1-3.6-13.7-12H42.4z"/><path class="st4" d="M88,253.8c-0.8-3.7-3.1-6-7-6c-5.8,0-8.7,5.3-8.7,10.6c0,5.3,2.9,10.6,8.7,10.6c3.7,0,6.8-2.9,7.2-7.1h3 c-0.8,6-4.7,9.6-10.2,9.6c-7.6,0-11.7-6-11.7-13.1c0-7.1,4.1-13.1,11.7-13.1c5.3,0,9.4,2.8,10,8.5H88z"/><path class="st4" d="M95.4,236.5h3v13.8h0.1c1.1-3,4.4-5,7.9-5c7,0,9.1,3.6,9.1,9.6v15.9h-3v-15.5c0-4.3-1.4-7.5-6.3-7.5 c-4.8,0-7.7,3.6-7.8,8.5v14.4h-3V236.5z"/><path class="st4" d="M121.3,236.5h3v34.3h-3V236.5z"/><path class="st4" d="M152.3,258.4c0,7.1-4.1,13.1-11.7,13.1c-7.6,0-11.7-6-11.7-13.1c0-7.1,4.1-13.1,11.7-13.1 C148.1,245.3,152.3,251.3,152.3,258.4z M131.9,258.4c0,5.3,2.9,10.6,8.7,10.6c5.8,0,8.7-5.3,8.7-10.6c0-5.3-2.9-10.6-8.7-10.6 C134.8,247.8,131.9,253.1,131.9,258.4z"/><path class="st4" d="M171.6,253.2c-0.1-3.7-3-5.4-6.5-5.4c-2.7,0-5.9,1.1-5.9,4.3c0,2.7,3.1,3.6,5.1,4.2l4,0.9 c3.5,0.5,7.1,2.5,7.1,6.9c0,5.4-5.3,7.4-9.9,7.4c-5.8,0-9.7-2.7-10.2-8.7h3c0.2,4.1,3.3,6.2,7.3,6.2c2.8,0,6.8-1.2,6.8-4.7 c0-2.9-2.7-3.8-5.4-4.5l-3.9-0.9c-3.9-1.1-6.9-2.4-6.9-6.6c0-5,4.9-7,9.3-7c4.9,0,8.9,2.6,9.1,8H171.6z"/><path class="st4" d="M194.7,253.2c-0.1-3.7-3-5.4-6.5-5.4c-2.7,0-5.9,1.1-5.9,4.3c0,2.7,3.1,3.6,5.1,4.2l4,0.9 c3.5,0.5,7.1,2.5,7.1,6.9c0,5.4-5.3,7.4-9.9,7.4c-5.8,0-9.7-2.7-10.2-8.7h3c0.2,4.1,3.3,6.2,7.3,6.2c2.8,0,6.8-1.2,6.8-4.7 c0-2.9-2.7-3.8-5.4-4.5l-3.9-0.9c-3.9-1.1-6.9-2.4-6.9-6.6c0-5,4.9-7,9.3-7c4.9,0,8.9,2.6,9.1,8H194.7z"/><path class="st4" d="M204.7,259.2c0,4.4,2.4,9.7,8.2,9.7c4.4,0,6.8-2.6,7.8-6.3h3c-1.3,5.6-4.6,8.9-10.8,8.9 c-7.9,0-11.2-6-11.2-13.1c0-6.5,3.3-13.1,11.2-13.1c8,0,11.1,7,10.9,13.9H204.7z M220.8,256.7c-0.1-4.6-3-8.8-7.9-8.8 c-4.9,0-7.7,4.3-8.2,8.8H220.8z"/><path class="st4" d="M227.9,246h2.8v5.8h0.1c1.5-4,4.9-6.3,9.4-6.1v3c-5.5-0.3-9.2,3.7-9.2,8.9v13.2h-3V246z"/><path class="st4" d="M243.9,259.2c0,4.4,2.4,9.7,8.2,9.7c4.4,0,6.8-2.6,7.8-6.3h3c-1.3,5.6-4.6,8.9-10.8,8.9 c-7.9,0-11.2-6-11.2-13.1c0-6.5,3.3-13.1,11.2-13.1c8,0,11.1,7,10.9,13.9H243.9z M259.9,256.7c-0.1-4.6-3-8.8-7.9-8.8 c-4.9,0-7.7,4.3-8.2,8.8H259.9z"/><path class="st4" d="M267.1,236.5h3v4.8h-3V236.5z M267.1,246h3v24.8h-3V246z"/><path class="st4" d="M295.9,255.6c0,1.5-1.3,2.8-2.8,2.8c-1.5,0-2.8-1.3-2.8-2.9c0-1.4,1.4-2.8,2.8-2.8 C294.6,252.8,295.9,254.1,295.9,255.6z"/><path class="st4" d="M316.5,236.5h23.7v2.8h-20.4v12.4h19.1v2.8h-19.1V268h20.6v2.8h-23.9V236.5z"/><path class="st4" d="M366.2,270.8h-2.8v-4.7h-0.1c-1.3,3.2-5.2,5.4-8.8,5.4c-7.5,0-11.1-6.1-11.1-13.1c0-7,3.6-13.1,11.1-13.1 c3.7,0,7.3,1.9,8.6,5.4h0.1v-14.2h3V270.8z M354.5,268.9c6.4,0,8.7-5.4,8.7-10.6c0-5.1-2.3-10.6-8.7-10.6c-5.8,0-8.1,5.4-8.1,10.6 C346.4,263.5,348.7,268.9,354.5,268.9z"/><path class="st4" d="M373.7,259.2c0,4.4,2.4,9.7,8.2,9.7c4.4,0,6.8-2.6,7.8-6.3h3c-1.3,5.6-4.6,8.9-10.8,8.9 c-7.9,0-11.2-6-11.2-13.1c0-6.5,3.3-13.1,11.2-13.1c8,0,11.1,7,10.9,13.9H373.7z M389.8,256.7c-0.1-4.6-3-8.8-7.9-8.8 c-4.9,0-7.7,4.3-8.2,8.8H389.8z"/><path class="st4" d="M396.9,236.5h3v34.3h-3V236.5z"/><path class="st4" d="M420.6,253.2c-0.1-3.7-3-5.4-6.5-5.4c-2.7,0-5.9,1.1-5.9,4.3c0,2.7,3.1,3.6,5.1,4.2l4,0.9 c3.5,0.5,7.1,2.5,7.1,6.9c0,5.4-5.3,7.4-9.9,7.4c-5.8,0-9.7-2.7-10.2-8.7h3c0.2,4.1,3.3,6.2,7.3,6.2c2.8,0,6.8-1.2,6.8-4.7 c0-2.9-2.7-3.8-5.4-4.5l-3.9-0.9c-3.9-1.1-6.9-2.4-6.9-6.6c0-5,4.9-7,9.3-7c4.9,0,8.9,2.6,9.1,8H420.6z"/><path class="st4" d="M433.7,246h5v2.5h-5v16.7c0,2,0.3,3.1,2.4,3.3c0.9,0,1.7,0,2.6-0.1v2.6c-0.9,0-1.8,0.1-2.7,0.1 c-4,0-5.4-1.3-5.4-5.6v-16.9h-4.3V246h4.3v-7.4h3V246z"/><path class="st4" d="M442.8,253.6c0.3-5.8,4.4-8.3,10-8.3c4.4,0,9.1,1.3,9.1,8v13.2c0,1.2,0.6,1.8,1.8,1.8c0.3,0,0.7-0.1,1-0.2v2.5 c-0.7,0.1-1.2,0.2-2,0.2c-3.1,0-3.6-1.7-3.6-4.3H459c-2.1,3.2-4.3,5-9,5c-4.6,0-8.3-2.3-8.3-7.2c0-7,6.8-7.2,13.3-8 c2.5-0.3,3.9-0.6,3.9-3.4c0-4.1-2.9-5.1-6.5-5.1c-3.7,0-6.5,1.7-6.6,5.8H442.8z M458.9,257.2L458.9,257.2c-0.5,0.7-1.8,1-2.6,1.1 c-5.1,0.9-11.5,0.9-11.5,5.7c0,3,2.7,4.9,5.5,4.9c4.6,0,8.7-2.9,8.6-7.8V257.2z"/><path class="st4" d="M467.9,236.5h3v13.8h0.1c1.1-3,4.4-5,7.9-5c7,0,9.1,3.6,9.1,9.6v15.9h-3v-15.5c0-4.3-1.4-7.5-6.3-7.5 c-4.8,0-7.7,3.6-7.8,8.5v14.4h-3V236.5z"/><path class="st4" d="M493.8,236.5h3v34.3h-3V236.5z"/><path class="st4" d="M499.8,246h3.4l7.8,21.7h0.1l7.7-21.7h3.1l-9.3,24.8h-3.2L499.8,246z"/><path class="st4" d="M526.6,259.2c0,4.4,2.4,9.7,8.2,9.7c4.4,0,6.8-2.6,7.8-6.3h3c-1.3,5.6-4.6,8.9-10.8,8.9 c-7.9,0-11.2-6-11.2-13.1c0-6.5,3.3-13.1,11.2-13.1c8,0,11.1,7,10.9,13.9H526.6z M542.7,256.7c-0.1-4.6-3-8.8-7.9-8.8 c-4.9,0-7.7,4.3-8.2,8.8H542.7z"/><path class="st4" d="M549.8,246h2.8v5.8h0.1c1.5-4,4.9-6.3,9.4-6.1v3c-5.5-0.3-9.2,3.7-9.2,8.9v13.2h-3V246z"/><path class="st4" d="M564.6,253.6c0.3-5.8,4.4-8.3,10-8.3c4.4,0,9.1,1.3,9.1,8v13.2c0,1.2,0.6,1.8,1.8,1.8c0.3,0,0.7-0.1,1-0.2v2.5 c-0.7,0.1-1.2,0.2-2,0.2c-3.1,0-3.6-1.7-3.6-4.3h-0.1c-2.1,3.2-4.3,5-9,5c-4.6,0-8.3-2.3-8.3-7.2c0-7,6.8-7.2,13.3-8 c2.5-0.3,3.9-0.6,3.9-3.4c0-4.1-2.9-5.1-6.5-5.1c-3.7,0-6.5,1.7-6.6,5.8H564.6z M580.7,257.2L580.7,257.2c-0.5,0.7-1.8,1-2.6,1.1 c-5.1,0.9-11.5,0.9-11.5,5.7c0,3,2.7,4.9,5.5,4.9c4.6,0,8.7-2.9,8.6-7.8V257.2z"/><path class="st4" d="M589.8,246h2.8v5.8h0.1c1.5-4,4.9-6.3,9.4-6.1v3c-5.5-0.3-9.2,3.7-9.2,8.9v13.2h-3V246z"/><path class="st4" d="M604.9,236.5h3v14.2h0.1c1.3-3.6,4.9-5.4,8.6-5.4c7.5,0,11.1,6.1,11.1,13.1c0,7-3.6,13.1-11.1,13.1 c-4,0-7.4-2.1-8.8-5.4h-0.1v4.7h-2.8V236.5z M616.6,247.8c-6.4,0-8.7,5.4-8.7,10.6c0,5.1,2.3,10.6,8.7,10.6c5.8,0,8.1-5.4,8.1-10.6 C624.7,253.2,622.4,247.8,616.6,247.8z"/><path class="st4" d="M634.2,259.2c0,4.4,2.4,9.7,8.2,9.7c4.4,0,6.8-2.6,7.8-6.3h3c-1.3,5.6-4.6,8.9-10.8,8.9 c-7.9,0-11.2-6-11.2-13.1c0-6.5,3.3-13.1,11.2-13.1c8,0,11.1,7,10.9,13.9H634.2z M650.3,256.7c-0.1-4.6-3-8.8-7.9-8.8 c-4.9,0-7.7,4.3-8.2,8.8H650.3z"/><path class="st4" d="M657.4,236.5h3v4.8h-3V236.5z M657.4,246h3v24.8h-3V246z"/><path class="st4" d="M671.1,246h5v2.5h-5v16.7c0,2,0.3,3.1,2.4,3.3c0.9,0,1.7,0,2.6-0.1v2.6c-0.9,0-1.8,0.1-2.7,0.1 c-4,0-5.4-1.3-5.4-5.6v-16.9h-4.3V246h4.3v-7.4h3V246z"/><path class="st4" d="M700.5,270.8h-2.8v-4.5h-0.1c-1.6,3.3-4.8,5.2-8.5,5.2c-6.2,0-8.7-3.6-8.7-9.4V246h3v16.1 c0.1,4.5,1.8,6.8,6.6,6.8c5.2,0,7.4-4.9,7.4-9.9v-13h3V270.8z"/><path class="st4" d="M706.2,246h3v4.3h0.1c1.1-3,4.4-5,7.9-5c7,0,9.1,3.6,9.1,9.6v15.9h-3v-15.5c0-4.3-1.4-7.5-6.3-7.5 c-4.8,0-7.7,3.6-7.8,8.5v14.4h-3V246z"/><path class="st4" d="M752.9,268.8c0,7.4-2.9,11.9-11,11.9c-4.9,0-9.8-2.2-10.3-7.5h3c0.7,3.6,3.9,4.9,7.2,4.9c5.6,0,8-3.3,8-9.4 v-3.4h-0.1c-1.4,3-4.3,5.1-7.9,5.1c-7.9,0-11.2-5.7-11.2-12.7c0-6.8,4-12.5,11.2-12.5c3.6,0,6.7,2.3,7.9,5h0.1V246h3V268.8z M749.9,258.1c0-4.8-2.3-10.3-8-10.3c-5.8,0-8.2,5.1-8.2,10.3c0,5,2.6,9.8,8.2,9.8C747.2,267.9,749.9,263.1,749.9,258.1z"/><path class="st4" d="M778.7,255.6c0,1.5-1.3,2.8-2.8,2.8c-1.5,0-2.8-1.3-2.8-2.9c0-1.4,1.4-2.8,2.8-2.8 C777.4,252.8,778.7,254.1,778.7,255.6z"/><path class="st4" d="M795.6,236.5h27.2v2.8h-12v31.5h-3.3v-31.5h-12V236.5z"/><path class="st4" d="M842.3,258.4c0,7.1-4.1,13.1-11.7,13.1c-7.6,0-11.7-6-11.7-13.1c0-7.1,4.1-13.1,11.7-13.1 C838.1,245.3,842.3,251.3,842.3,258.4z M821.9,258.4c0,5.3,2.9,10.6,8.7,10.6s8.7-5.3,8.7-10.6c0-5.3-2.9-10.6-8.7-10.6 S821.9,253.1,821.9,258.4z"/><path class="st4" d="M846.8,246h2.8v5.8h0.1c1.5-4,4.9-6.3,9.4-6.1v3c-5.5-0.3-9.2,3.7-9.2,8.9v13.2h-3V246z"/><path class="st4" d="M862.8,259.2c0,4.4,2.4,9.7,8.2,9.7c4.4,0,6.8-2.6,7.8-6.3h3c-1.3,5.6-4.6,8.9-10.8,8.9 c-7.9,0-11.2-6-11.2-13.1c0-6.5,3.3-13.1,11.2-13.1c8,0,11.1,7,10.9,13.9H862.8z M878.9,256.7c-0.1-4.6-3-8.8-7.9-8.8 c-4.9,0-7.7,4.3-8.2,8.8H878.9z"/></g></svg>
