<svg xmlns="http://www.w3.org/2000/svg" viewBox="0 0 1170 290" enable-background="new 0 0 1170 290"><style type="text/css">.st0{fill:#999999;} .st1{fill:#CF4D16;} .st2{fill-rule:evenodd;clip-rule:evenodd;fill:#28231D;} .st3{fill:#28231D;} .st4{fill:#FFFFFF;}</style><path class="st0" d="M965.9 253.9l38.4-18.4 23 12v16.8l-23-12-38.4 18.4v-16.8"/><path class="st1" d="M10.5 38.2c0-15.6 12.6-28.2 28.2-28.2h140.9c15.6 0 28.2 12.6 28.2 28.2v140.9c0 15.6-12.6 28.2-28.2 28.2h-140.9c-15.6 0-28.2-12.6-28.2-28.2v-140.9"/><path class="st2" d="M269.4 127.6h18c6.9 0 13.3 1.7 13.3 10.1 0 7.4-5 10.4-11.8 10.4h-19.5v-20.5m-19.3 72.7h42.5c15.8 0 30.9-7.6 30.9-25.4 0-10.9-5.4-19.2-16.1-22.2 7.6-3.7 11.9-9.7 11.9-18.3 0-16.3-11.3-21.7-28-21.7h-41.3v87.6zm19.3-39.1h21c8.2 0 13.9 3.6 13.9 12.5 0 9.1-6.6 11.5-14.2 11.5h-20.6v-24zM370 134.2h.2l11.1 32.2h-22.7l11.4-32.2m-42.8 66.1h19.5l6.9-19.5h32.8l6.6 19.5h20l-32.8-87.7h-19.8l-33.2 87.7z"/><path class="st3" d="M493.1 112.6h-19.3v54.5c0 13-4.4 19-18.2 19-15.6 0-18-9.5-18-19v-54.5h-19.3v54.5c0 23.8 13.8 35.2 37.3 35.2 23.5 0 37.4-11.5 37.4-35.2v-54.5M546.3 200.3h19.3v-28.3l11-11.2 26.4 39.5h24.2l-37.6-53.1 34.3-34.6h-24.1l-34.2 36.3v-36.3h-19.3v87.7"/><path class="st2" d="M668.4 134.2h.2l11.1 32.2h-22.7l11.4-32.2m-42.8 66.1h19.5l6.9-19.5h32.8l6.6 19.5h20l-32.8-87.7h-19.8l-33.2 87.7z"/><path class="st3" d="M719 112.6h19.3v87.7h-19.3zM750.9 171.2c-.2 21.6 17.9 31.2 37.3 31.2 23.8 0 36.5-12 36.5-28.1 0-19.9-19.6-23.9-26-25.5-22-5.6-26.2-6.5-26.2-13.3 0-7.4 7.1-9.9 13.3-9.9 9.2 0 16.7 2.7 17.3 13.3h18.7c0-20.3-16.8-28.2-35.1-28.2-15.8 0-32.8 8.6-32.8 26.5 0 16.5 13.1 21.5 26.1 24.9 12.9 3.4 26 5 26 14.5 0 9-10.3 10.9-17.1 10.9-10.3 0-19.4-4.5-19.4-16.2h-18.6M838.6 200.3h66.5v-16.3h-47.3v-21.4h42.5v-15h-42.5v-18.8h46.3v-16.2h-65.5v87.7"/><path class="st2" d="M939.9 127.6h21.1c8.6 0 13.3 3.7 13.3 12.2 0 8.8-4.7 12.5-13.3 12.5h-21.1v-24.7m-19.3 72.7h19.3v-34.3h19.3c9.7 0 13.3 4.1 14.6 13.3 1 7 .7 15.5 3.1 21h19.3c-3.4-4.9-3.3-15.2-3.7-20.8-.6-8.8-3.3-18-12.8-20.5v-.2c9.7-3.9 13.9-11.7 13.9-22 0-13.3-9.9-24.2-25.7-24.2h-47.3v87.7z"/><path class="st4" d="M125.3 48.1v61.5l40.2-61.5v121.1l-40.2-58.5v58.5l-40.2-58.6v57.6h-32.3v-120.1h32.3v61.6l40.2-61.6"/><path class="st2" d="M42 238.3h11.5c5.2 0 7.9 2.2 7.9 6.6 0 3.3-2.6 6-7.9 6h-11.5v-12.6m-3.3 32.4h14.9c11.4 0 12.6-6.7 12.6-10 0-4.6-2.9-8-7.4-8.6v-.1c3.7-.8 6.1-4.2 6.1-7.9 0-6.6-5.4-8.6-11.3-8.6h-14.9v35.2zm3.3-16.9h11.5c5.9 0 9.3 2.3 9.3 6.8 0 5.6-4.3 7.3-9.3 7.3h-11.5v-14.1zM72.8 253c.1-4.1 3-5.9 6.8-5.9 3.7 0 6.7 1 6.7 5.2 0 2.8-1.4 3.2-4 3.5-6.7.8-13.7 1-13.7 8.2 0 5.1 3.8 7.4 8.5 7.4 4.9 0 7.1-1.9 9.3-5.2h.1c0 2.7.5 4.4 3.7 4.4.8 0 1.3-.1 2-.2v-2.6c-.2.1-.6.2-1 .2-1.2 0-1.8-.7-1.8-1.9v-13.5c0-6.8-4.9-8.2-9.4-8.2-5.8 0-10 2.6-10.3 8.5h3.1m13.5 7.9c.1 5-4.1 8-8.9 8-2.9 0-5.7-1.9-5.7-5 0-5 6.6-4.9 11.8-5.9.8-.1 2.2-.4 2.6-1.1h.1v4z"/><path class="st3" d="M115.3 245.3h-3.1v13.4c0 5.2-2.3 10.2-7.6 10.2-4.9 0-6.7-2.4-6.8-7v-16.6h-3.1v16.5c0 5.9 2.5 9.7 8.9 9.7 3.8 0 7.2-1.9 8.8-5.3h.1v4.6h2.9v-25.5M138.5 252.7c-.2-5.5-4.2-8.2-9.3-8.2-4.5 0-9.6 2-9.6 7.2 0 4.3 3.1 5.7 7.1 6.8l4 .9c2.8.7 5.6 1.7 5.6 4.6 0 3.6-4 4.8-7 4.8-4.1 0-7.3-2.2-7.5-6.4h-3.1c.5 6.2 4.5 9 10.5 9 4.7 0 10.2-2.1 10.2-7.6 0-4.4-3.7-6.5-7.3-7.1l-4.1-.9c-2.1-.5-5.3-1.5-5.3-4.3 0-3.3 3.3-4.4 6-4.4 3.6 0 6.5 1.7 6.7 5.6h3.1"/><path class="st2" d="M145.7 253c.1-4.1 3-5.9 6.8-5.9 3.7 0 6.7 1 6.7 5.2 0 2.8-1.4 3.2-4 3.5-6.7.8-13.7 1-13.7 8.2 0 5.1 3.8 7.4 8.5 7.4 4.9 0 7.1-1.9 9.3-5.2h.1c0 2.7.5 4.4 3.7 4.4.8 0 1.3-.1 2-.2v-2.6c-.2.1-.6.2-1 .2-1.2 0-1.8-.7-1.8-1.9v-13.5c0-6.8-4.9-8.2-9.4-8.2-5.8 0-10 2.6-10.3 8.5h3.1m13.5 7.9c0 5-4.1 8-8.9 8-2.9 0-5.7-1.9-5.7-5 0-5 6.6-4.9 11.8-5.9.8-.1 2.2-.4 2.6-1.1h.1v4z"/><path class="st3" d="M167.4 270.7h3.1v-14.9c.1-5 3.1-8.7 8-8.7 5 0 6.5 3.3 6.5 7.7v15.9h3.1v-16.4c0-6.1-2.2-9.8-9.3-9.8-3.6 0-7 2.1-8.1 5.1h-.1v-4.4h-3.1v25.5"/><path class="st2" d="M193 235.5v5h3.1v-5h-3.1zm0 9.7v25.5h3.1v-25.5h-3.1zM203 256.2c.5-4.6 3.3-9.1 8.4-9.1 5 0 7.9 4.4 8.1 9.1h-16.5m19.5 2.6c.2-7.2-3-14.3-11.2-14.3-8.1 0-11.5 6.8-11.5 13.5 0 7.3 3.4 13.5 11.5 13.5 6.4 0 9.8-3.4 11.1-9.1h-3.1c-1 3.8-3.5 6.5-8 6.5-6 0-8.3-5.5-8.4-10h19.6z"/><path class="st3" d="M225.7 270.7h3.1v-13.6c0-5.3 3.8-9.4 9.5-9.1v-3.1c-4.6-.2-8 2.2-9.6 6.3h-.1v-6h-2.9v25.5M260.9 245.3h-3.1v13.4c0 5.2-2.3 10.2-7.6 10.2-4.9 0-6.7-2.4-6.8-7v-16.6h-3.1v16.5c0 5.9 2.5 9.7 8.9 9.7 3.8 0 7.2-1.9 8.8-5.3h.1v4.6h2.9v-25.5M265.7 270.7h3.1v-14.9c.1-5 3.1-8.7 8-8.7 5 0 6.5 3.3 6.5 7.7v15.9h3.1v-16.4c0-6.1-2.2-9.8-9.3-9.8-3.6 0-7 2.1-8.1 5.1h-.1v-4.4h-3.1v25.5"/><path class="st2" d="M312.8 245.2h-3.1v4.4h-.1c-1.2-2.8-4.4-5.1-8.1-5.1-7.4 0-11.5 5.8-11.5 12.8 0 7.3 3.4 13.1 11.5 13.1 3.7 0 6.7-2.1 8.1-5.2h.1v3.5c0 6.2-2.5 9.6-8.2 9.6-3.5 0-6.8-1.3-7.4-5.1h-3.1c.4 5.4 5.5 7.7 10.6 7.7 8.3 0 11.3-4.6 11.3-12.2v-23.5m-11.4 22.6c-5.7 0-8.4-5-8.4-10.1 0-5.3 2.5-10.6 8.4-10.6s8.2 5.6 8.2 10.6c0 5.2-2.8 10.1-8.2 10.1z"/><path class="st3" d="M334.4 252.2c-1.5 0-2.9 1.4-2.9 2.9 0 1.6 1.3 3 2.9 3 1.5 0 2.9-1.3 2.9-2.9 0-1.6-1.4-3-2.9-3"/><path class="st3" d="M356.3 235.5h3.4v35.2h-3.4zM366.3 270.7h3.1v-14.9c.1-5 3.1-8.7 8-8.7 5 0 6.5 3.3 6.5 7.7v15.9h3.1v-16.4c0-6.1-2.2-9.8-9.3-9.8-3.6 0-7 2.1-8.1 5.1h-.1v-4.4h-3.1v25.5"/><path class="st2" d="M392.9 235.5v5h3.1v-5h-3.1zm0 38.3c0 2.1-.4 3.7-2.8 3.7-.5 0-1.2 0-1.7-.1v2.6c.7 0 1.4.1 2.2.1 4.4 0 5.4-3.3 5.4-7.1v-27.8h-3.1v28.6zM403.8 256.2c.5-4.6 3.3-9.1 8.4-9.1 5 0 7.9 4.4 8.1 9.1h-16.5m19.6 2.6c.2-7.2-3-14.3-11.2-14.3-8.1 0-11.5 6.8-11.5 13.5 0 7.3 3.4 13.5 11.5 13.5 6.4 0 9.8-3.4 11.1-9.1h-3.1c-1 3.8-3.5 6.5-8 6.5-6 0-8.3-5.5-8.4-10h19.6z"/><path class="st3" d="M427.6 270.7h3.1v-9.7l5-4.2 10.1 13.9h3.9l-11.6-16 10.8-9.5h-4.1l-14.1 12.4v-22.1h-3.1v35.2M457.2 237.6h-3.1v7.6h-4.4v2.6h4.4v17.4c-.1 4.3 1.4 5.7 5.5 5.7.9 0 1.8-.1 2.8-.1v-2.7c-.9.1-1.8.1-2.7.1-2.2-.1-2.5-1.3-2.5-3.4v-17.2h5.2v-2.6h-5.2v-7.4"/><path class="st2" d="M466.9 235.5v5h3.1v-5h-3.1zm0 9.7v25.5h3.1v-25.5h-3.1zM486.7 247.1c6 0 8.9 5.4 8.9 10.9 0 5.4-3 10.9-8.9 10.9-6 0-8.9-5.4-8.9-10.9 0-5.4 2.9-10.9 8.9-10.9m0-2.6c-7.8 0-12 6.2-12 13.5s4.2 13.5 12 13.5 12-6.2 12-13.5c.1-7.3-4.2-13.5-12-13.5z"/><path class="st3" d="M503.3 270.7h3.1v-14.9c.1-5 3.1-8.7 8-8.7 5 0 6.5 3.3 6.5 7.7v15.9h3.1v-16.4c0-6.1-2.2-9.8-9.3-9.8-3.6 0-7 2.1-8.1 5.1h-.1v-4.4h-3.1v25.5"/><path class="st2" d="M531.7 256.2c.5-4.6 3.3-9.1 8.4-9.1 5 0 7.9 4.4 8.1 9.1h-16.5m19.6 2.6c.2-7.2-3-14.3-11.2-14.3-8.1 0-11.5 6.8-11.5 13.5 0 7.3 3.4 13.5 11.5 13.5 6.4 0 9.8-3.4 11.1-9.1h-3.1c-1 3.8-3.5 6.5-8 6.5-6 0-8.3-5.5-8.4-10h19.6z"/><path class="st3" d="M555.4 270.7h3.1v-14.9c.1-5 3.1-8.7 8-8.7 5 0 6.5 3.3 6.5 7.7v15.9h3.1v-16.4c0-6.1-2.2-9.8-9.3-9.8-3.6 0-7 2.1-8.1 5.1h-.1v-4.4h-3.1v25.5M598.6 252.2c-1.5 0-2.9 1.4-2.9 2.9 0 1.6 1.3 3 2.9 3 1.5 0 2.9-1.3 2.9-2.9 0-1.6-1.3-3-2.9-3"/><path class="st2" d="M623.6 238.3h11.5c5.2 0 7.9 2.2 7.9 6.6 0 3.3-2.6 6-7.9 6h-11.5v-12.6m-3.4 32.4h14.9c11.5 0 12.6-6.7 12.6-10 0-4.6-2.9-8-7.5-8.6v-.1c3.7-.8 6.1-4.2 6.1-7.9 0-6.6-5.4-8.6-11.3-8.6h-14.9v35.2zm3.4-16.9h11.5c5.9 0 9.3 2.3 9.3 6.8 0 5.6-4.3 7.3-9.3 7.3h-11.5v-14.1zM654.4 256.2c.5-4.6 3.3-9.1 8.4-9.1 5 0 7.9 4.4 8.1 9.1h-16.5m19.6 2.6c.2-7.2-3-14.3-11.2-14.3-8.1 0-11.5 6.8-11.5 13.5 0 7.3 3.4 13.5 11.5 13.5 6.4 0 9.8-3.4 11.1-9.1h-3.1c-1 3.8-3.5 6.5-8 6.5-6 0-8.3-5.5-8.4-10h19.6z"/><path class="st3" d="M683.1 237.6h-3.1v7.6h-4.4v2.6h4.4v17.4c-.1 4.3 1.4 5.7 5.5 5.7.9 0 1.8-.1 2.8-.1v-2.7c-.9.1-1.8.1-2.7.1-2.2-.1-2.5-1.3-2.5-3.4v-17.2h5.2v-2.6h-5.2v-7.4"/><path class="st2" d="M703.5 247.1c6 0 8.9 5.4 8.9 10.9 0 5.4-3 10.9-8.9 10.9-6 0-8.9-5.4-8.9-10.9 0-5.4 2.9-10.9 8.9-10.9m0-2.6c-7.8 0-12 6.2-12 13.5s4.2 13.5 12 13.5 12-6.2 12-13.5c.1-7.3-4.2-13.5-12-13.5z"/><path class="st3" d="M720.1 270.7h3.1v-14.9c.1-5 3.1-8.7 8-8.7 5 0 6.5 3.3 6.5 7.7v15.9h3.1v-16.4c0-6.1-2.2-9.8-9.3-9.8-3.6 0-7 2.1-8.1 5.1h-.1v-4.4h-3.1v25.5M765 252.7c-.2-5.5-4.2-8.2-9.3-8.2-4.5 0-9.6 2-9.6 7.2 0 4.3 3.1 5.7 7.1 6.8l4 .9c2.8.7 5.6 1.7 5.6 4.6 0 3.6-4 4.8-7 4.8-4.1 0-7.3-2.2-7.5-6.4h-3.1c.5 6.2 4.5 9 10.5 9 4.7 0 10.2-2.1 10.2-7.6 0-4.4-3.7-6.5-7.3-7.1l-4.1-.9c-2.1-.5-5.3-1.5-5.3-4.3 0-3.3 3.3-4.4 6-4.4 3.6 0 6.5 1.7 6.7 5.6h3.1"/><path class="st2" d="M773.2 253c.1-4.1 3-5.9 6.8-5.9 3.6 0 6.7 1 6.7 5.2 0 2.8-1.4 3.2-4 3.5-6.7.8-13.7 1-13.7 8.2 0 5.1 3.8 7.4 8.5 7.4 4.9 0 7.1-1.9 9.3-5.2h.1c0 2.7.5 4.4 3.6 4.4.8 0 1.3-.1 2-.2v-2.6c-.2.1-.6.2-1 .2-1.2 0-1.8-.7-1.8-1.9v-13.5c0-6.8-4.9-8.2-9.4-8.2-5.8 0-10 2.6-10.3 8.5h3.2m13.5 7.9c.1 5-4.1 8-8.9 8-2.9 0-5.7-1.9-5.7-5 0-5 6.6-4.9 11.8-5.9.8-.1 2.2-.4 2.6-1.1h.1v4z"/><path class="st3" d="M796 270.7h3.1v-14.9c.1-5 3.1-8.7 8-8.7 5 0 6.5 3.3 6.5 7.7v15.9h3.1v-16.4c0-6.1-2.2-9.8-9.3-9.8-3.6 0-7 2.1-8.1 5.1h-.1v-4.4h-3.2v25.5"/><path class="st2" d="M822.5 235.5v5h3.1v-5h-3.1zm0 9.7v25.5h3.1v-25.5h-3.1zM833.4 256.2c.5-4.6 3.3-9.1 8.4-9.1 5 0 7.9 4.4 8.1 9.1h-16.5m19.6 2.6c.2-7.2-3-14.3-11.2-14.3-8.1 0-11.5 6.8-11.5 13.5 0 7.3 3.4 13.5 11.5 13.5 6.4 0 9.8-3.4 11.1-9.1h-3.1c-1 3.8-3.5 6.5-8 6.5-6 0-8.3-5.5-8.4-10h19.6z"/><path class="st3" d="M857.2 270.7h3.1v-13.6c0-5.3 3.8-9.4 9.5-9.1v-3.1c-4.6-.2-8 2.2-9.6 6.3h-.1v-6h-2.9v25.5M893.4 245.3h-3.1v13.4c0 5.2-2.3 10.2-7.6 10.2-4.9 0-6.7-2.4-6.8-7v-16.6h-3.1v16.5c0 5.9 2.5 9.7 8.9 9.7 3.8 0 7.2-1.9 8.8-5.3h.1v4.6h2.9v-25.5M899.2 270.7h3.1v-14.9c.1-5 3.1-8.7 8-8.7 5 0 6.5 3.3 6.5 7.7v15.9h3.1v-16.4c0-6.1-2.2-9.8-9.3-9.8-3.6 0-7 2.1-8.1 5.1h-.1v-4.4h-3.1v25.5"/><path class="st2" d="M947.2 245.2h-3.1v4.4h-.1c-1.2-2.8-4.4-5.1-8.1-5.1-7.4 0-11.5 5.8-11.5 12.8 0 7.3 3.4 13.1 11.5 13.1 3.7 0 6.7-2.1 8.1-5.2h.1v3.5c0 6.2-2.5 9.6-8.2 9.6-3.5 0-6.8-1.3-7.4-5.1h-3.1c.4 5.4 5.5 7.7 10.6 7.7 8.3 0 11.3-4.6 11.3-12.2v-23.5m-11.4 22.6c-5.7 0-8.4-5-8.4-10.1 0-5.3 2.5-10.6 8.4-10.6s8.2 5.6 8.2 10.6c0 5.2-2.8 10.1-8.2 10.1z"/></svg>